%TF.GenerationSoftware,KiCad,Pcbnew,(6.0.9)*%
%TF.CreationDate,2022-12-23T09:31:32-06:00*%
%TF.ProjectId,CatFeeder,43617446-6565-4646-9572-2e6b69636164,rev?*%
%TF.SameCoordinates,Original*%
%TF.FileFunction,Legend,Bot*%
%TF.FilePolarity,Positive*%
%FSLAX46Y46*%
G04 Gerber Fmt 4.6, Leading zero omitted, Abs format (unit mm)*
G04 Created by KiCad (PCBNEW (6.0.9)) date 2022-12-23 09:31:32*
%MOMM*%
%LPD*%
G01*
G04 APERTURE LIST*
G04 Aperture macros list*
%AMRoundRect*
0 Rectangle with rounded corners*
0 $1 Rounding radius*
0 $2 $3 $4 $5 $6 $7 $8 $9 X,Y pos of 4 corners*
0 Add a 4 corners polygon primitive as box body*
4,1,4,$2,$3,$4,$5,$6,$7,$8,$9,$2,$3,0*
0 Add four circle primitives for the rounded corners*
1,1,$1+$1,$2,$3*
1,1,$1+$1,$4,$5*
1,1,$1+$1,$6,$7*
1,1,$1+$1,$8,$9*
0 Add four rect primitives between the rounded corners*
20,1,$1+$1,$2,$3,$4,$5,0*
20,1,$1+$1,$4,$5,$6,$7,0*
20,1,$1+$1,$6,$7,$8,$9,0*
20,1,$1+$1,$8,$9,$2,$3,0*%
G04 Aperture macros list end*
%ADD10RoundRect,0.250000X0.750000X-0.600000X0.750000X0.600000X-0.750000X0.600000X-0.750000X-0.600000X0*%
%ADD11O,2.000000X1.700000*%
%ADD12RoundRect,0.250000X0.600000X0.750000X-0.600000X0.750000X-0.600000X-0.750000X0.600000X-0.750000X0*%
%ADD13O,1.700000X2.000000*%
%ADD14R,1.600000X1.600000*%
%ADD15C,1.600000*%
%ADD16RoundRect,0.250000X-0.600000X-0.750000X0.600000X-0.750000X0.600000X0.750000X-0.600000X0.750000X0*%
%ADD17R,1.700000X1.700000*%
%ADD18O,1.700000X1.700000*%
%ADD19C,0.770000*%
%ADD20C,4.300000*%
%ADD21RoundRect,0.250000X-0.600000X-0.725000X0.600000X-0.725000X0.600000X0.725000X-0.600000X0.725000X0*%
%ADD22O,1.700000X1.950000*%
%ADD23RoundRect,0.250000X0.600000X0.725000X-0.600000X0.725000X-0.600000X-0.725000X0.600000X-0.725000X0*%
%ADD24R,2.000000X4.000000*%
%ADD25O,2.000000X3.300000*%
%ADD26O,3.500000X2.000000*%
G04 APERTURE END LIST*
%LPC*%
D10*
%TO.C,J1*%
X101092000Y-99568000D03*
D11*
X101092000Y-97068000D03*
%TD*%
D12*
%TO.C,J8*%
X189972000Y-109745000D03*
D13*
X187472000Y-109745000D03*
%TD*%
D14*
%TO.C,C6*%
X171221400Y-102385749D03*
D15*
X171221400Y-105885749D03*
%TD*%
D16*
%TO.C,J13*%
X172395200Y-71721200D03*
D13*
X174895200Y-71721200D03*
%TD*%
D14*
%TO.C,C7*%
X180086000Y-102387400D03*
D15*
X180086000Y-105887400D03*
%TD*%
D16*
%TO.C,J9*%
X131775200Y-71704200D03*
D13*
X134275200Y-71704200D03*
%TD*%
D16*
%TO.C,J12*%
X162235200Y-71721200D03*
D13*
X164735200Y-71721200D03*
%TD*%
D16*
%TO.C,J2*%
X187452000Y-93726000D03*
D13*
X189952000Y-93726000D03*
%TD*%
D17*
%TO.C,J6*%
X110134000Y-92725000D03*
D18*
X110134000Y-95265000D03*
X110134000Y-97805000D03*
X110134000Y-100345000D03*
X110134000Y-102885000D03*
X110134000Y-105425000D03*
X110134000Y-107965000D03*
X110134000Y-110505000D03*
%TD*%
D16*
%TO.C,J11*%
X152095200Y-71704200D03*
D13*
X154595200Y-71704200D03*
%TD*%
D19*
%TO.C,U3*%
X188006200Y-85578300D03*
X189306200Y-84278300D03*
X190606200Y-85578300D03*
X189306200Y-85578300D03*
X188006200Y-84278300D03*
X190606200Y-84278300D03*
%TD*%
D20*
%TO.C,REF\u002A\u002A*%
X188696600Y-73202800D03*
%TD*%
D16*
%TO.C,J10*%
X141935200Y-71704200D03*
D13*
X144435200Y-71704200D03*
%TD*%
D14*
%TO.C,C9*%
X100556949Y-88468200D03*
D15*
X104056949Y-88468200D03*
%TD*%
D17*
%TO.C,J7*%
X132994000Y-92725000D03*
D18*
X132994000Y-95265000D03*
X132994000Y-97805000D03*
X132994000Y-100345000D03*
X132994000Y-102885000D03*
X132994000Y-105425000D03*
X132994000Y-107965000D03*
X132994000Y-110505000D03*
%TD*%
D20*
%TO.C,REF\u002A\u002A*%
X102895400Y-109601000D03*
%TD*%
D21*
%TO.C,J3*%
X119075200Y-71848200D03*
D22*
X121575200Y-71848200D03*
X124075200Y-71848200D03*
%TD*%
D23*
%TO.C,J5*%
X148158200Y-109423200D03*
D22*
X145658200Y-109423200D03*
X143158200Y-109423200D03*
X140658200Y-109423200D03*
%TD*%
D15*
%TO.C,J4*%
X100386000Y-75946000D03*
D24*
X109386000Y-75946000D03*
D25*
X103386000Y-75946000D03*
D26*
X102386000Y-71446000D03*
X102386000Y-80446000D03*
%TD*%
D14*
%TO.C,C5*%
X162280600Y-102360349D03*
D15*
X162280600Y-105860349D03*
%TD*%
M02*
