M48
; DRILL file {KiCad (6.0.9)} date Fri Dec 23 09:32:55 2022
; FORMAT={-:-/ absolute / metric / decimal}
; #@! TF.CreationDate,2022-12-23T09:32:55-06:00
; #@! TF.GenerationSoftware,Kicad,Pcbnew,(6.0.9)
; #@! TF.FileFunction,Plated,1,2,PTH
FMAT,2
METRIC
; #@! TA.AperFunction,Plated,PTH,ComponentDrill
T1C0.330
; #@! TA.AperFunction,Plated,PTH,ViaDrill
T2C0.400
; #@! TA.AperFunction,Plated,PTH,ComponentDrill
T3C0.800
; #@! TA.AperFunction,Plated,PTH,ComponentDrill
T4C0.950
; #@! TA.AperFunction,Plated,PTH,ComponentDrill
T5C1.000
%
G90
G05
T1
X188.006Y-84.278
X188.006Y-85.578
X189.306Y-84.278
X189.306Y-85.578
X190.606Y-84.278
X190.606Y-85.578
T2
X111.785Y-105.791
X112.776Y-73.406
X116.689Y-77.112
X117.856Y-81.534
X121.336Y-81.356
X128.168Y-78.41
X137.541Y-98.298
X140.741Y-84.912
X140.741Y-97.358
X141.732Y-85.496
X141.732Y-97.968
X142.697Y-111.125
X142.723Y-98.501
X143.942Y-89.357
X151.384Y-90.424
X152.527Y-86.36
X154.686Y-111.252
X156.892Y-91.546
X157.861Y-90.551
X160.02Y-87.63
X160.147Y-92.837
X164.846Y-93.98
X167.386Y-94.513
X169.799Y-83.312
X169.799Y-85.344
X169.799Y-87.503
X169.799Y-89.916
X169.799Y-91.948
X171.831Y-87.503
X171.831Y-89.916
X171.831Y-91.948
X171.958Y-83.312
X171.958Y-85.344
X174.244Y-83.312
X174.244Y-85.471
X174.244Y-87.63
X174.244Y-89.916
X174.244Y-91.948
X176.53Y-83.312
X176.53Y-85.471
X176.53Y-87.63
X176.53Y-89.916
X176.53Y-91.948
X178.943Y-92.989
X180.569Y-84.09
X181.585Y-84.09
X181.737Y-82.499
X182.601Y-84.09
X183.159Y-75.286
X183.49Y-80.645
X185.312Y-100.851
X185.471Y-86.258
X189.967Y-89.805
X191.237Y-80.026
T3
X100.557Y-88.468
X104.057Y-88.468
X162.281Y-102.36
X162.281Y-105.86
X171.221Y-102.386
X171.221Y-105.886
X180.086Y-102.387
X180.086Y-105.887
T4
X119.075Y-71.848
X121.575Y-71.848
X124.075Y-71.848
X140.658Y-109.423
X143.158Y-109.423
X145.658Y-109.423
X148.158Y-109.423
T5
X101.092Y-97.068
X101.092Y-99.568
X110.134Y-92.725
X110.134Y-95.265
X110.134Y-97.805
X110.134Y-100.345
X110.134Y-102.885
X110.134Y-105.425
X110.134Y-107.965
X110.134Y-110.505
X131.775Y-71.704
X132.994Y-92.725
X132.994Y-95.265
X132.994Y-97.805
X132.994Y-100.345
X132.994Y-102.885
X132.994Y-105.425
X132.994Y-107.965
X132.994Y-110.505
X134.275Y-71.704
X141.935Y-71.704
X144.435Y-71.704
X152.095Y-71.704
X154.595Y-71.704
X162.235Y-71.721
X164.735Y-71.721
X172.395Y-71.721
X174.895Y-71.721
X187.452Y-93.726
X187.472Y-109.745
X189.952Y-93.726
X189.972Y-109.745
T5
X103.136Y-71.446G85X101.636Y-71.446
G05
X103.136Y-80.446G85X101.636Y-80.446
G05
X103.386Y-75.296G85X103.386Y-76.596
G05
X109.386Y-74.946G85X109.386Y-76.946
G05
T0
M30
