%TF.GenerationSoftware,KiCad,Pcbnew,(6.0.9)*%
%TF.CreationDate,2022-12-23T09:31:32-06:00*%
%TF.ProjectId,CatFeeder,43617446-6565-4646-9572-2e6b69636164,rev?*%
%TF.SameCoordinates,Original*%
%TF.FileFunction,Legend,Top*%
%TF.FilePolarity,Positive*%
%FSLAX46Y46*%
G04 Gerber Fmt 4.6, Leading zero omitted, Abs format (unit mm)*
G04 Created by KiCad (PCBNEW (6.0.9)) date 2022-12-23 09:31:32*
%MOMM*%
%LPD*%
G01*
G04 APERTURE LIST*
G04 Aperture macros list*
%AMRoundRect*
0 Rectangle with rounded corners*
0 $1 Rounding radius*
0 $2 $3 $4 $5 $6 $7 $8 $9 X,Y pos of 4 corners*
0 Add a 4 corners polygon primitive as box body*
4,1,4,$2,$3,$4,$5,$6,$7,$8,$9,$2,$3,0*
0 Add four circle primitives for the rounded corners*
1,1,$1+$1,$2,$3*
1,1,$1+$1,$4,$5*
1,1,$1+$1,$6,$7*
1,1,$1+$1,$8,$9*
0 Add four rect primitives between the rounded corners*
20,1,$1+$1,$2,$3,$4,$5,0*
20,1,$1+$1,$4,$5,$6,$7,0*
20,1,$1+$1,$6,$7,$8,$9,0*
20,1,$1+$1,$8,$9,$2,$3,0*%
G04 Aperture macros list end*
%ADD10C,0.150000*%
%ADD11C,0.120000*%
%ADD12RoundRect,0.250000X-0.450000X0.262500X-0.450000X-0.262500X0.450000X-0.262500X0.450000X0.262500X0*%
%ADD13RoundRect,0.250000X0.750000X-0.600000X0.750000X0.600000X-0.750000X0.600000X-0.750000X-0.600000X0*%
%ADD14O,2.000000X1.700000*%
%ADD15RoundRect,0.250000X0.600000X0.750000X-0.600000X0.750000X-0.600000X-0.750000X0.600000X-0.750000X0*%
%ADD16O,1.700000X2.000000*%
%ADD17RoundRect,0.250000X-0.262500X-0.450000X0.262500X-0.450000X0.262500X0.450000X-0.262500X0.450000X0*%
%ADD18C,1.000000*%
%ADD19C,1.500000*%
%ADD20RoundRect,0.140000X0.170000X-0.140000X0.170000X0.140000X-0.170000X0.140000X-0.170000X-0.140000X0*%
%ADD21R,1.600000X1.600000*%
%ADD22C,1.600000*%
%ADD23RoundRect,0.250000X-0.600000X-0.750000X0.600000X-0.750000X0.600000X0.750000X-0.600000X0.750000X0*%
%ADD24R,0.900000X1.200000*%
%ADD25RoundRect,0.135000X0.135000X0.185000X-0.135000X0.185000X-0.135000X-0.185000X0.135000X-0.185000X0*%
%ADD26RoundRect,0.140000X0.140000X0.170000X-0.140000X0.170000X-0.140000X-0.170000X0.140000X-0.170000X0*%
%ADD27RoundRect,0.150000X0.150000X-0.587500X0.150000X0.587500X-0.150000X0.587500X-0.150000X-0.587500X0*%
%ADD28RoundRect,0.250000X-0.362500X-1.425000X0.362500X-1.425000X0.362500X1.425000X-0.362500X1.425000X0*%
%ADD29RoundRect,0.135000X-0.135000X-0.185000X0.135000X-0.185000X0.135000X0.185000X-0.135000X0.185000X0*%
%ADD30RoundRect,0.150000X-0.512500X-0.150000X0.512500X-0.150000X0.512500X0.150000X-0.512500X0.150000X0*%
%ADD31RoundRect,0.225000X0.225000X0.250000X-0.225000X0.250000X-0.225000X-0.250000X0.225000X-0.250000X0*%
%ADD32RoundRect,0.135000X0.185000X-0.135000X0.185000X0.135000X-0.185000X0.135000X-0.185000X-0.135000X0*%
%ADD33R,1.700000X1.700000*%
%ADD34O,1.700000X1.700000*%
%ADD35R,2.500000X1.800000*%
%ADD36R,4.600000X0.800000*%
%ADD37R,9.400000X10.800000*%
%ADD38R,3.100000X2.400000*%
%ADD39RoundRect,0.070000X-0.250000X1.100000X-0.250000X-1.100000X0.250000X-1.100000X0.250000X1.100000X0*%
%ADD40C,0.770000*%
%ADD41RoundRect,0.140000X-0.140000X-0.170000X0.140000X-0.170000X0.140000X0.170000X-0.140000X0.170000X0*%
%ADD42C,4.300000*%
%ADD43RoundRect,0.250000X0.550000X-1.250000X0.550000X1.250000X-0.550000X1.250000X-0.550000X-1.250000X0*%
%ADD44R,2.920000X2.790000*%
%ADD45RoundRect,0.200000X0.275000X-0.200000X0.275000X0.200000X-0.275000X0.200000X-0.275000X-0.200000X0*%
%ADD46RoundRect,0.250000X-0.600000X-0.725000X0.600000X-0.725000X0.600000X0.725000X-0.600000X0.725000X0*%
%ADD47O,1.700000X1.950000*%
%ADD48RoundRect,0.250000X0.600000X0.725000X-0.600000X0.725000X-0.600000X-0.725000X0.600000X-0.725000X0*%
%ADD49RoundRect,0.218750X-0.256250X0.218750X-0.256250X-0.218750X0.256250X-0.218750X0.256250X0.218750X0*%
%ADD50RoundRect,0.135000X-0.185000X0.135000X-0.185000X-0.135000X0.185000X-0.135000X0.185000X0.135000X0*%
%ADD51R,2.000000X4.000000*%
%ADD52O,2.000000X3.300000*%
%ADD53O,3.500000X2.000000*%
%ADD54R,1.100000X1.100000*%
G04 APERTURE END LIST*
D10*
X105283047Y-101925428D02*
X106044952Y-101925428D01*
X105664000Y-102306380D02*
X105664000Y-101544476D01*
X151257047Y-112847428D02*
X152018952Y-112847428D01*
X151638000Y-113228380D02*
X151638000Y-112466476D01*
X191897047Y-104973428D02*
X192658952Y-104973428D01*
X192278000Y-105354380D02*
X192278000Y-104592476D01*
X168783047Y-76017428D02*
X169544952Y-76017428D01*
X169164000Y-76398380D02*
X169164000Y-75636476D01*
X158623047Y-76017428D02*
X159384952Y-76017428D01*
X159004000Y-76398380D02*
X159004000Y-75636476D01*
X148463047Y-76017428D02*
X149224952Y-76017428D01*
X148844000Y-76398380D02*
X148844000Y-75636476D01*
X138303047Y-76017428D02*
X139064952Y-76017428D01*
X138684000Y-76398380D02*
X138684000Y-75636476D01*
X128143047Y-76017428D02*
X128904952Y-76017428D01*
X128524000Y-76398380D02*
X128524000Y-75636476D01*
X115443047Y-76017428D02*
X116204952Y-76017428D01*
X115824000Y-76398380D02*
X115824000Y-75636476D01*
X99568380Y-102830380D02*
X99092190Y-102830380D01*
X99044571Y-103306571D01*
X99092190Y-103258952D01*
X99187428Y-103211333D01*
X99425523Y-103211333D01*
X99520761Y-103258952D01*
X99568380Y-103306571D01*
X99616000Y-103401809D01*
X99616000Y-103639904D01*
X99568380Y-103735142D01*
X99520761Y-103782761D01*
X99425523Y-103830380D01*
X99187428Y-103830380D01*
X99092190Y-103782761D01*
X99044571Y-103735142D01*
X99901714Y-102830380D02*
X100235047Y-103830380D01*
X100568380Y-102830380D01*
X101663619Y-103830380D02*
X101663619Y-102830380D01*
X102139809Y-103163714D02*
X102139809Y-103830380D01*
X102139809Y-103258952D02*
X102187428Y-103211333D01*
X102282666Y-103163714D01*
X102425523Y-103163714D01*
X102520761Y-103211333D01*
X102568380Y-103306571D01*
X102568380Y-103830380D01*
X103758857Y-102782761D02*
X102901714Y-104068476D01*
X104282666Y-102830380D02*
X104473142Y-102830380D01*
X104568380Y-102878000D01*
X104663619Y-102973238D01*
X104711238Y-103163714D01*
X104711238Y-103497047D01*
X104663619Y-103687523D01*
X104568380Y-103782761D01*
X104473142Y-103830380D01*
X104282666Y-103830380D01*
X104187428Y-103782761D01*
X104092190Y-103687523D01*
X104044571Y-103497047D01*
X104044571Y-103163714D01*
X104092190Y-102973238D01*
X104187428Y-102878000D01*
X104282666Y-102830380D01*
X105568380Y-103163714D02*
X105568380Y-103830380D01*
X105139809Y-103163714D02*
X105139809Y-103687523D01*
X105187428Y-103782761D01*
X105282666Y-103830380D01*
X105425523Y-103830380D01*
X105520761Y-103782761D01*
X105568380Y-103735142D01*
X105901714Y-103163714D02*
X106282666Y-103163714D01*
X106044571Y-102830380D02*
X106044571Y-103687523D01*
X106092190Y-103782761D01*
X106187428Y-103830380D01*
X106282666Y-103830380D01*
X185245809Y-113990380D02*
X184674380Y-113990380D01*
X184960095Y-113990380D02*
X184960095Y-112990380D01*
X184864857Y-113133238D01*
X184769619Y-113228476D01*
X184674380Y-113276095D01*
X185626761Y-113085619D02*
X185674380Y-113038000D01*
X185769619Y-112990380D01*
X186007714Y-112990380D01*
X186102952Y-113038000D01*
X186150571Y-113085619D01*
X186198190Y-113180857D01*
X186198190Y-113276095D01*
X186150571Y-113418952D01*
X185579142Y-113990380D01*
X186198190Y-113990380D01*
X186483904Y-112990380D02*
X186817238Y-113990380D01*
X187150571Y-112990380D01*
X188245809Y-113990380D02*
X188245809Y-112990380D01*
X188722000Y-113323714D02*
X188722000Y-113990380D01*
X188722000Y-113418952D02*
X188769619Y-113371333D01*
X188864857Y-113323714D01*
X189007714Y-113323714D01*
X189102952Y-113371333D01*
X189150571Y-113466571D01*
X189150571Y-113990380D01*
X190341047Y-112942761D02*
X189483904Y-114228476D01*
X190864857Y-112990380D02*
X191055333Y-112990380D01*
X191150571Y-113038000D01*
X191245809Y-113133238D01*
X191293428Y-113323714D01*
X191293428Y-113657047D01*
X191245809Y-113847523D01*
X191150571Y-113942761D01*
X191055333Y-113990380D01*
X190864857Y-113990380D01*
X190769619Y-113942761D01*
X190674380Y-113847523D01*
X190626761Y-113657047D01*
X190626761Y-113323714D01*
X190674380Y-113133238D01*
X190769619Y-113038000D01*
X190864857Y-112990380D01*
X192150571Y-113323714D02*
X192150571Y-113990380D01*
X191722000Y-113323714D02*
X191722000Y-113847523D01*
X191769619Y-113942761D01*
X191864857Y-113990380D01*
X192007714Y-113990380D01*
X192102952Y-113942761D01*
X192150571Y-113895142D01*
X192483904Y-113323714D02*
X192864857Y-113323714D01*
X192626761Y-112990380D02*
X192626761Y-113847523D01*
X192674380Y-113942761D01*
X192769619Y-113990380D01*
X192864857Y-113990380D01*
X178217200Y-77453200D02*
X115225200Y-77453200D01*
X115225200Y-77453200D02*
X115225200Y-68563200D01*
X115225200Y-68563200D02*
X178217200Y-68563200D01*
X178217200Y-68563200D02*
X178217200Y-77453200D01*
X99068095Y-68540380D02*
X98591904Y-68540380D01*
X98544285Y-69016571D01*
X98591904Y-68968952D01*
X98687142Y-68921333D01*
X98925238Y-68921333D01*
X99020476Y-68968952D01*
X99068095Y-69016571D01*
X99115714Y-69111809D01*
X99115714Y-69349904D01*
X99068095Y-69445142D01*
X99020476Y-69492761D01*
X98925238Y-69540380D01*
X98687142Y-69540380D01*
X98591904Y-69492761D01*
X98544285Y-69445142D01*
X99401428Y-68540380D02*
X99734761Y-69540380D01*
X100068095Y-68540380D01*
X101163333Y-69540380D02*
X101163333Y-68540380D01*
X101639523Y-68873714D02*
X101639523Y-69540380D01*
X101639523Y-68968952D02*
X101687142Y-68921333D01*
X101782380Y-68873714D01*
X101925238Y-68873714D01*
X102020476Y-68921333D01*
X102068095Y-69016571D01*
X102068095Y-69540380D01*
X162925714Y-109602380D02*
X162925714Y-110316666D01*
X162878095Y-110459523D01*
X162782857Y-110554761D01*
X162640000Y-110602380D01*
X162544761Y-110602380D01*
X163544761Y-110602380D02*
X163449523Y-110554761D01*
X163401904Y-110507142D01*
X163354285Y-110411904D01*
X163354285Y-110126190D01*
X163401904Y-110030952D01*
X163449523Y-109983333D01*
X163544761Y-109935714D01*
X163687619Y-109935714D01*
X163782857Y-109983333D01*
X163830476Y-110030952D01*
X163878095Y-110126190D01*
X163878095Y-110411904D01*
X163830476Y-110507142D01*
X163782857Y-110554761D01*
X163687619Y-110602380D01*
X163544761Y-110602380D01*
X164259047Y-110554761D02*
X164354285Y-110602380D01*
X164544761Y-110602380D01*
X164640000Y-110554761D01*
X164687619Y-110459523D01*
X164687619Y-110411904D01*
X164640000Y-110316666D01*
X164544761Y-110269047D01*
X164401904Y-110269047D01*
X164306666Y-110221428D01*
X164259047Y-110126190D01*
X164259047Y-110078571D01*
X164306666Y-109983333D01*
X164401904Y-109935714D01*
X164544761Y-109935714D01*
X164640000Y-109983333D01*
X165497142Y-110554761D02*
X165401904Y-110602380D01*
X165211428Y-110602380D01*
X165116190Y-110554761D01*
X165068571Y-110459523D01*
X165068571Y-110078571D01*
X165116190Y-109983333D01*
X165211428Y-109935714D01*
X165401904Y-109935714D01*
X165497142Y-109983333D01*
X165544761Y-110078571D01*
X165544761Y-110173809D01*
X165068571Y-110269047D01*
X165973333Y-109935714D02*
X165973333Y-110935714D01*
X165973333Y-109983333D02*
X166068571Y-109935714D01*
X166259047Y-109935714D01*
X166354285Y-109983333D01*
X166401904Y-110030952D01*
X166449523Y-110126190D01*
X166449523Y-110411904D01*
X166401904Y-110507142D01*
X166354285Y-110554761D01*
X166259047Y-110602380D01*
X166068571Y-110602380D01*
X165973333Y-110554761D01*
X166878095Y-110602380D02*
X166878095Y-109602380D01*
X167306666Y-110602380D02*
X167306666Y-110078571D01*
X167259047Y-109983333D01*
X167163809Y-109935714D01*
X167020952Y-109935714D01*
X166925714Y-109983333D01*
X166878095Y-110030952D01*
X168544761Y-110602380D02*
X168544761Y-109602380D01*
X168878095Y-110316666D01*
X169211428Y-109602380D01*
X169211428Y-110602380D01*
X170116190Y-110602380D02*
X170116190Y-110078571D01*
X170068571Y-109983333D01*
X169973333Y-109935714D01*
X169782857Y-109935714D01*
X169687619Y-109983333D01*
X170116190Y-110554761D02*
X170020952Y-110602380D01*
X169782857Y-110602380D01*
X169687619Y-110554761D01*
X169640000Y-110459523D01*
X169640000Y-110364285D01*
X169687619Y-110269047D01*
X169782857Y-110221428D01*
X170020952Y-110221428D01*
X170116190Y-110173809D01*
X170592380Y-110602380D02*
X170592380Y-109935714D01*
X170592380Y-110126190D02*
X170640000Y-110030952D01*
X170687619Y-109983333D01*
X170782857Y-109935714D01*
X170878095Y-109935714D01*
X171354285Y-110602380D02*
X171259047Y-110554761D01*
X171211428Y-110459523D01*
X171211428Y-109602380D01*
X171735238Y-110602380D02*
X171735238Y-109935714D01*
X171735238Y-109602380D02*
X171687619Y-109650000D01*
X171735238Y-109697619D01*
X171782857Y-109650000D01*
X171735238Y-109602380D01*
X171735238Y-109697619D01*
X172211428Y-109935714D02*
X172211428Y-110602380D01*
X172211428Y-110030952D02*
X172259047Y-109983333D01*
X172354285Y-109935714D01*
X172497142Y-109935714D01*
X172592380Y-109983333D01*
X172640000Y-110078571D01*
X172640000Y-110602380D01*
X158401904Y-111688571D02*
X158068571Y-111688571D01*
X158068571Y-112212380D02*
X158068571Y-111212380D01*
X158544761Y-111212380D01*
X158925714Y-112212380D02*
X158925714Y-111545714D01*
X158925714Y-111212380D02*
X158878095Y-111260000D01*
X158925714Y-111307619D01*
X158973333Y-111260000D01*
X158925714Y-111212380D01*
X158925714Y-111307619D01*
X159401904Y-112212380D02*
X159401904Y-111545714D01*
X159401904Y-111736190D02*
X159449523Y-111640952D01*
X159497142Y-111593333D01*
X159592380Y-111545714D01*
X159687619Y-111545714D01*
X159973333Y-112164761D02*
X160068571Y-112212380D01*
X160259047Y-112212380D01*
X160354285Y-112164761D01*
X160401904Y-112069523D01*
X160401904Y-112021904D01*
X160354285Y-111926666D01*
X160259047Y-111879047D01*
X160116190Y-111879047D01*
X160020952Y-111831428D01*
X159973333Y-111736190D01*
X159973333Y-111688571D01*
X160020952Y-111593333D01*
X160116190Y-111545714D01*
X160259047Y-111545714D01*
X160354285Y-111593333D01*
X160687619Y-111545714D02*
X161068571Y-111545714D01*
X160830476Y-111212380D02*
X160830476Y-112069523D01*
X160878095Y-112164761D01*
X160973333Y-112212380D01*
X161068571Y-112212380D01*
X162163809Y-112212380D02*
X162163809Y-111212380D01*
X162544761Y-111212380D01*
X162640000Y-111260000D01*
X162687619Y-111307619D01*
X162735238Y-111402857D01*
X162735238Y-111545714D01*
X162687619Y-111640952D01*
X162640000Y-111688571D01*
X162544761Y-111736190D01*
X162163809Y-111736190D01*
X163735238Y-112117142D02*
X163687619Y-112164761D01*
X163544761Y-112212380D01*
X163449523Y-112212380D01*
X163306666Y-112164761D01*
X163211428Y-112069523D01*
X163163809Y-111974285D01*
X163116190Y-111783809D01*
X163116190Y-111640952D01*
X163163809Y-111450476D01*
X163211428Y-111355238D01*
X163306666Y-111260000D01*
X163449523Y-111212380D01*
X163544761Y-111212380D01*
X163687619Y-111260000D01*
X163735238Y-111307619D01*
X164497142Y-111688571D02*
X164640000Y-111736190D01*
X164687619Y-111783809D01*
X164735238Y-111879047D01*
X164735238Y-112021904D01*
X164687619Y-112117142D01*
X164640000Y-112164761D01*
X164544761Y-112212380D01*
X164163809Y-112212380D01*
X164163809Y-111212380D01*
X164497142Y-111212380D01*
X164592380Y-111260000D01*
X164640000Y-111307619D01*
X164687619Y-111402857D01*
X164687619Y-111498095D01*
X164640000Y-111593333D01*
X164592380Y-111640952D01*
X164497142Y-111688571D01*
X164163809Y-111688571D01*
X165116190Y-111926666D02*
X165592380Y-111926666D01*
X165020952Y-112212380D02*
X165354285Y-111212380D01*
X165687619Y-112212380D01*
X167306666Y-112212380D02*
X166735238Y-112212380D01*
X167020952Y-112212380D02*
X167020952Y-111212380D01*
X166925714Y-111355238D01*
X166830476Y-111450476D01*
X166735238Y-111498095D01*
X167640000Y-111212380D02*
X168306666Y-111212380D01*
X167878095Y-112212380D01*
X168687619Y-111831428D02*
X169449523Y-111831428D01*
X169925714Y-112212380D02*
X169925714Y-111212380D01*
X170163809Y-111212380D01*
X170306666Y-111260000D01*
X170401904Y-111355238D01*
X170449523Y-111450476D01*
X170497142Y-111640952D01*
X170497142Y-111783809D01*
X170449523Y-111974285D01*
X170401904Y-112069523D01*
X170306666Y-112164761D01*
X170163809Y-112212380D01*
X169925714Y-112212380D01*
X171306666Y-112164761D02*
X171211428Y-112212380D01*
X171020952Y-112212380D01*
X170925714Y-112164761D01*
X170878095Y-112069523D01*
X170878095Y-111688571D01*
X170925714Y-111593333D01*
X171020952Y-111545714D01*
X171211428Y-111545714D01*
X171306666Y-111593333D01*
X171354285Y-111688571D01*
X171354285Y-111783809D01*
X170878095Y-111879047D01*
X172211428Y-112164761D02*
X172116190Y-112212380D01*
X171925714Y-112212380D01*
X171830476Y-112164761D01*
X171782857Y-112117142D01*
X171735238Y-112021904D01*
X171735238Y-111736190D01*
X171782857Y-111640952D01*
X171830476Y-111593333D01*
X171925714Y-111545714D01*
X172116190Y-111545714D01*
X172211428Y-111593333D01*
X172640000Y-111831428D02*
X173401904Y-111831428D01*
X173830476Y-111307619D02*
X173878095Y-111260000D01*
X173973333Y-111212380D01*
X174211428Y-111212380D01*
X174306666Y-111260000D01*
X174354285Y-111307619D01*
X174401904Y-111402857D01*
X174401904Y-111498095D01*
X174354285Y-111640952D01*
X173782857Y-112212380D01*
X174401904Y-112212380D01*
X175020952Y-111212380D02*
X175116190Y-111212380D01*
X175211428Y-111260000D01*
X175259047Y-111307619D01*
X175306666Y-111402857D01*
X175354285Y-111593333D01*
X175354285Y-111831428D01*
X175306666Y-112021904D01*
X175259047Y-112117142D01*
X175211428Y-112164761D01*
X175116190Y-112212380D01*
X175020952Y-112212380D01*
X174925714Y-112164761D01*
X174878095Y-112117142D01*
X174830476Y-112021904D01*
X174782857Y-111831428D01*
X174782857Y-111593333D01*
X174830476Y-111402857D01*
X174878095Y-111307619D01*
X174925714Y-111260000D01*
X175020952Y-111212380D01*
X175735238Y-111307619D02*
X175782857Y-111260000D01*
X175878095Y-111212380D01*
X176116190Y-111212380D01*
X176211428Y-111260000D01*
X176259047Y-111307619D01*
X176306666Y-111402857D01*
X176306666Y-111498095D01*
X176259047Y-111640952D01*
X175687619Y-112212380D01*
X176306666Y-112212380D01*
X176687619Y-111307619D02*
X176735238Y-111260000D01*
X176830476Y-111212380D01*
X177068571Y-111212380D01*
X177163809Y-111260000D01*
X177211428Y-111307619D01*
X177259047Y-111402857D01*
X177259047Y-111498095D01*
X177211428Y-111640952D01*
X176640000Y-112212380D01*
X177259047Y-112212380D01*
X155306666Y-113298571D02*
X154973333Y-113298571D01*
X154973333Y-113822380D02*
X154973333Y-112822380D01*
X155449523Y-112822380D01*
X156211428Y-113774761D02*
X156116190Y-113822380D01*
X155925714Y-113822380D01*
X155830476Y-113774761D01*
X155782857Y-113679523D01*
X155782857Y-113298571D01*
X155830476Y-113203333D01*
X155925714Y-113155714D01*
X156116190Y-113155714D01*
X156211428Y-113203333D01*
X156259047Y-113298571D01*
X156259047Y-113393809D01*
X155782857Y-113489047D01*
X156830476Y-113822380D02*
X156735238Y-113774761D01*
X156687619Y-113679523D01*
X156687619Y-112822380D01*
X157211428Y-113822380D02*
X157211428Y-113155714D01*
X157211428Y-112822380D02*
X157163809Y-112870000D01*
X157211428Y-112917619D01*
X157259047Y-112870000D01*
X157211428Y-112822380D01*
X157211428Y-112917619D01*
X157687619Y-113155714D02*
X157687619Y-113822380D01*
X157687619Y-113250952D02*
X157735238Y-113203333D01*
X157830476Y-113155714D01*
X157973333Y-113155714D01*
X158068571Y-113203333D01*
X158116190Y-113298571D01*
X158116190Y-113822380D01*
X158973333Y-113774761D02*
X158878095Y-113822380D01*
X158687619Y-113822380D01*
X158592380Y-113774761D01*
X158544761Y-113679523D01*
X158544761Y-113298571D01*
X158592380Y-113203333D01*
X158687619Y-113155714D01*
X158878095Y-113155714D01*
X158973333Y-113203333D01*
X159020952Y-113298571D01*
X159020952Y-113393809D01*
X158544761Y-113489047D01*
X160163809Y-113774761D02*
X160306666Y-113822380D01*
X160544761Y-113822380D01*
X160640000Y-113774761D01*
X160687619Y-113727142D01*
X160735238Y-113631904D01*
X160735238Y-113536666D01*
X160687619Y-113441428D01*
X160640000Y-113393809D01*
X160544761Y-113346190D01*
X160354285Y-113298571D01*
X160259047Y-113250952D01*
X160211428Y-113203333D01*
X160163809Y-113108095D01*
X160163809Y-113012857D01*
X160211428Y-112917619D01*
X160259047Y-112870000D01*
X160354285Y-112822380D01*
X160592380Y-112822380D01*
X160735238Y-112870000D01*
X161592380Y-113155714D02*
X161592380Y-113822380D01*
X161163809Y-113155714D02*
X161163809Y-113679523D01*
X161211428Y-113774761D01*
X161306666Y-113822380D01*
X161449523Y-113822380D01*
X161544761Y-113774761D01*
X161592380Y-113727142D01*
X162020952Y-113774761D02*
X162116190Y-113822380D01*
X162306666Y-113822380D01*
X162401904Y-113774761D01*
X162449523Y-113679523D01*
X162449523Y-113631904D01*
X162401904Y-113536666D01*
X162306666Y-113489047D01*
X162163809Y-113489047D01*
X162068571Y-113441428D01*
X162020952Y-113346190D01*
X162020952Y-113298571D01*
X162068571Y-113203333D01*
X162163809Y-113155714D01*
X162306666Y-113155714D01*
X162401904Y-113203333D01*
X162735238Y-113155714D02*
X163116190Y-113155714D01*
X162878095Y-112822380D02*
X162878095Y-113679523D01*
X162925714Y-113774761D01*
X163020952Y-113822380D01*
X163116190Y-113822380D01*
X163830476Y-113774761D02*
X163735238Y-113822380D01*
X163544761Y-113822380D01*
X163449523Y-113774761D01*
X163401904Y-113679523D01*
X163401904Y-113298571D01*
X163449523Y-113203333D01*
X163544761Y-113155714D01*
X163735238Y-113155714D01*
X163830476Y-113203333D01*
X163878095Y-113298571D01*
X163878095Y-113393809D01*
X163401904Y-113489047D01*
X164306666Y-113155714D02*
X164306666Y-113822380D01*
X164306666Y-113250952D02*
X164354285Y-113203333D01*
X164449523Y-113155714D01*
X164592380Y-113155714D01*
X164687619Y-113203333D01*
X164735238Y-113298571D01*
X164735238Y-113822380D01*
X165640000Y-113822380D02*
X165640000Y-113298571D01*
X165592380Y-113203333D01*
X165497142Y-113155714D01*
X165306666Y-113155714D01*
X165211428Y-113203333D01*
X165640000Y-113774761D02*
X165544761Y-113822380D01*
X165306666Y-113822380D01*
X165211428Y-113774761D01*
X165163809Y-113679523D01*
X165163809Y-113584285D01*
X165211428Y-113489047D01*
X165306666Y-113441428D01*
X165544761Y-113441428D01*
X165640000Y-113393809D01*
X166116190Y-113155714D02*
X166116190Y-113822380D01*
X166116190Y-113250952D02*
X166163809Y-113203333D01*
X166259047Y-113155714D01*
X166401904Y-113155714D01*
X166497142Y-113203333D01*
X166544761Y-113298571D01*
X166544761Y-113822380D01*
X167449523Y-113774761D02*
X167354285Y-113822380D01*
X167163809Y-113822380D01*
X167068571Y-113774761D01*
X167020952Y-113727142D01*
X166973333Y-113631904D01*
X166973333Y-113346190D01*
X167020952Y-113250952D01*
X167068571Y-113203333D01*
X167163809Y-113155714D01*
X167354285Y-113155714D01*
X167449523Y-113203333D01*
X168259047Y-113774761D02*
X168163809Y-113822380D01*
X167973333Y-113822380D01*
X167878095Y-113774761D01*
X167830476Y-113679523D01*
X167830476Y-113298571D01*
X167878095Y-113203333D01*
X167973333Y-113155714D01*
X168163809Y-113155714D01*
X168259047Y-113203333D01*
X168306666Y-113298571D01*
X168306666Y-113393809D01*
X167830476Y-113489047D01*
X169449523Y-113536666D02*
X169925714Y-113536666D01*
X169354285Y-113822380D02*
X169687619Y-112822380D01*
X170020952Y-113822380D01*
X170354285Y-113822380D02*
X170354285Y-113155714D01*
X170354285Y-113250952D02*
X170401904Y-113203333D01*
X170497142Y-113155714D01*
X170640000Y-113155714D01*
X170735238Y-113203333D01*
X170782857Y-113298571D01*
X170782857Y-113822380D01*
X170782857Y-113298571D02*
X170830476Y-113203333D01*
X170925714Y-113155714D01*
X171068571Y-113155714D01*
X171163809Y-113203333D01*
X171211428Y-113298571D01*
X171211428Y-113822380D01*
X171687619Y-113155714D02*
X171687619Y-114155714D01*
X171687619Y-113203333D02*
X171782857Y-113155714D01*
X171973333Y-113155714D01*
X172068571Y-113203333D01*
X172116190Y-113250952D01*
X172163809Y-113346190D01*
X172163809Y-113631904D01*
X172116190Y-113727142D01*
X172068571Y-113774761D01*
X171973333Y-113822380D01*
X171782857Y-113822380D01*
X171687619Y-113774761D01*
X172735238Y-113822380D02*
X172640000Y-113774761D01*
X172592380Y-113679523D01*
X172592380Y-112822380D01*
X173116190Y-113822380D02*
X173116190Y-113155714D01*
X173116190Y-112822380D02*
X173068571Y-112870000D01*
X173116190Y-112917619D01*
X173163809Y-112870000D01*
X173116190Y-112822380D01*
X173116190Y-112917619D01*
X173449523Y-113155714D02*
X173830476Y-113155714D01*
X173592380Y-113822380D02*
X173592380Y-112965238D01*
X173640000Y-112870000D01*
X173735238Y-112822380D01*
X173830476Y-112822380D01*
X174163809Y-113822380D02*
X174163809Y-113155714D01*
X174163809Y-112822380D02*
X174116190Y-112870000D01*
X174163809Y-112917619D01*
X174211428Y-112870000D01*
X174163809Y-112822380D01*
X174163809Y-112917619D01*
X175020952Y-113774761D02*
X174925714Y-113822380D01*
X174735238Y-113822380D01*
X174640000Y-113774761D01*
X174592380Y-113679523D01*
X174592380Y-113298571D01*
X174640000Y-113203333D01*
X174735238Y-113155714D01*
X174925714Y-113155714D01*
X175020952Y-113203333D01*
X175068571Y-113298571D01*
X175068571Y-113393809D01*
X174592380Y-113489047D01*
X175497142Y-113822380D02*
X175497142Y-113155714D01*
X175497142Y-113346190D02*
X175544761Y-113250952D01*
X175592380Y-113203333D01*
X175687619Y-113155714D01*
X175782857Y-113155714D01*
X176782857Y-113155714D02*
X177020952Y-113822380D01*
X177259047Y-113155714D01*
X178163809Y-113822380D02*
X177592380Y-113822380D01*
X177878095Y-113822380D02*
X177878095Y-112822380D01*
X177782857Y-112965238D01*
X177687619Y-113060476D01*
X177592380Y-113108095D01*
X178592380Y-113727142D02*
X178640000Y-113774761D01*
X178592380Y-113822380D01*
X178544761Y-113774761D01*
X178592380Y-113727142D01*
X178592380Y-113822380D01*
X179259047Y-112822380D02*
X179354285Y-112822380D01*
X179449523Y-112870000D01*
X179497142Y-112917619D01*
X179544761Y-113012857D01*
X179592380Y-113203333D01*
X179592380Y-113441428D01*
X179544761Y-113631904D01*
X179497142Y-113727142D01*
X179449523Y-113774761D01*
X179354285Y-113822380D01*
X179259047Y-113822380D01*
X179163809Y-113774761D01*
X179116190Y-113727142D01*
X179068571Y-113631904D01*
X179020952Y-113441428D01*
X179020952Y-113203333D01*
X179068571Y-113012857D01*
X179116190Y-112917619D01*
X179163809Y-112870000D01*
X179259047Y-112822380D01*
X188158666Y-99004380D02*
X188158666Y-98004380D01*
X188492000Y-98718666D01*
X188825333Y-98004380D01*
X188825333Y-99004380D01*
X189444380Y-99004380D02*
X189349142Y-98956761D01*
X189301523Y-98909142D01*
X189253904Y-98813904D01*
X189253904Y-98528190D01*
X189301523Y-98432952D01*
X189349142Y-98385333D01*
X189444380Y-98337714D01*
X189587238Y-98337714D01*
X189682476Y-98385333D01*
X189730095Y-98432952D01*
X189777714Y-98528190D01*
X189777714Y-98813904D01*
X189730095Y-98909142D01*
X189682476Y-98956761D01*
X189587238Y-99004380D01*
X189444380Y-99004380D01*
X190063428Y-98337714D02*
X190444380Y-98337714D01*
X190206285Y-98004380D02*
X190206285Y-98861523D01*
X190253904Y-98956761D01*
X190349142Y-99004380D01*
X190444380Y-99004380D01*
X190920571Y-99004380D02*
X190825333Y-98956761D01*
X190777714Y-98909142D01*
X190730095Y-98813904D01*
X190730095Y-98528190D01*
X190777714Y-98432952D01*
X190825333Y-98385333D01*
X190920571Y-98337714D01*
X191063428Y-98337714D01*
X191158666Y-98385333D01*
X191206285Y-98432952D01*
X191253904Y-98528190D01*
X191253904Y-98813904D01*
X191206285Y-98909142D01*
X191158666Y-98956761D01*
X191063428Y-99004380D01*
X190920571Y-99004380D01*
X191682476Y-99004380D02*
X191682476Y-98337714D01*
X191682476Y-98528190D02*
X191730095Y-98432952D01*
X191777714Y-98385333D01*
X191872952Y-98337714D01*
X191968190Y-98337714D01*
X179241580Y-69718180D02*
X178765390Y-69718180D01*
X178765390Y-68718180D01*
X179574914Y-69194371D02*
X179908247Y-69194371D01*
X180051104Y-69718180D02*
X179574914Y-69718180D01*
X179574914Y-68718180D01*
X180051104Y-68718180D01*
X180479676Y-69718180D02*
X180479676Y-68718180D01*
X180717771Y-68718180D01*
X180860628Y-68765800D01*
X180955866Y-68861038D01*
X181003485Y-68956276D01*
X181051104Y-69146752D01*
X181051104Y-69289609D01*
X181003485Y-69480085D01*
X180955866Y-69575323D01*
X180860628Y-69670561D01*
X180717771Y-69718180D01*
X180479676Y-69718180D01*
X181432057Y-69670561D02*
X181527295Y-69718180D01*
X181717771Y-69718180D01*
X181813009Y-69670561D01*
X181860628Y-69575323D01*
X181860628Y-69527704D01*
X181813009Y-69432466D01*
X181717771Y-69384847D01*
X181574914Y-69384847D01*
X181479676Y-69337228D01*
X181432057Y-69241990D01*
X181432057Y-69194371D01*
X181479676Y-69099133D01*
X181574914Y-69051514D01*
X181717771Y-69051514D01*
X181813009Y-69099133D01*
X138364057Y-105100380D02*
X138364057Y-104100380D01*
X138602152Y-104100380D01*
X138745009Y-104148000D01*
X138840247Y-104243238D01*
X138887866Y-104338476D01*
X138935485Y-104528952D01*
X138935485Y-104671809D01*
X138887866Y-104862285D01*
X138840247Y-104957523D01*
X138745009Y-105052761D01*
X138602152Y-105100380D01*
X138364057Y-105100380D01*
X139364057Y-105100380D02*
X139364057Y-104433714D01*
X139364057Y-104100380D02*
X139316438Y-104148000D01*
X139364057Y-104195619D01*
X139411676Y-104148000D01*
X139364057Y-104100380D01*
X139364057Y-104195619D01*
X139792628Y-105052761D02*
X139887866Y-105100380D01*
X140078342Y-105100380D01*
X140173580Y-105052761D01*
X140221200Y-104957523D01*
X140221200Y-104909904D01*
X140173580Y-104814666D01*
X140078342Y-104767047D01*
X139935485Y-104767047D01*
X139840247Y-104719428D01*
X139792628Y-104624190D01*
X139792628Y-104576571D01*
X139840247Y-104481333D01*
X139935485Y-104433714D01*
X140078342Y-104433714D01*
X140173580Y-104481333D01*
X140506914Y-104433714D02*
X140887866Y-104433714D01*
X140649771Y-104100380D02*
X140649771Y-104957523D01*
X140697390Y-105052761D01*
X140792628Y-105100380D01*
X140887866Y-105100380D01*
X141649771Y-105100380D02*
X141649771Y-104576571D01*
X141602152Y-104481333D01*
X141506914Y-104433714D01*
X141316438Y-104433714D01*
X141221200Y-104481333D01*
X141649771Y-105052761D02*
X141554533Y-105100380D01*
X141316438Y-105100380D01*
X141221200Y-105052761D01*
X141173580Y-104957523D01*
X141173580Y-104862285D01*
X141221200Y-104767047D01*
X141316438Y-104719428D01*
X141554533Y-104719428D01*
X141649771Y-104671809D01*
X142125961Y-104433714D02*
X142125961Y-105100380D01*
X142125961Y-104528952D02*
X142173580Y-104481333D01*
X142268819Y-104433714D01*
X142411676Y-104433714D01*
X142506914Y-104481333D01*
X142554533Y-104576571D01*
X142554533Y-105100380D01*
X143459295Y-105052761D02*
X143364057Y-105100380D01*
X143173580Y-105100380D01*
X143078342Y-105052761D01*
X143030723Y-105005142D01*
X142983104Y-104909904D01*
X142983104Y-104624190D01*
X143030723Y-104528952D01*
X143078342Y-104481333D01*
X143173580Y-104433714D01*
X143364057Y-104433714D01*
X143459295Y-104481333D01*
X144268819Y-105052761D02*
X144173580Y-105100380D01*
X143983104Y-105100380D01*
X143887866Y-105052761D01*
X143840247Y-104957523D01*
X143840247Y-104576571D01*
X143887866Y-104481333D01*
X143983104Y-104433714D01*
X144173580Y-104433714D01*
X144268819Y-104481333D01*
X144316438Y-104576571D01*
X144316438Y-104671809D01*
X143840247Y-104767047D01*
X145459295Y-105052761D02*
X145602152Y-105100380D01*
X145840247Y-105100380D01*
X145935485Y-105052761D01*
X145983104Y-105005142D01*
X146030723Y-104909904D01*
X146030723Y-104814666D01*
X145983104Y-104719428D01*
X145935485Y-104671809D01*
X145840247Y-104624190D01*
X145649771Y-104576571D01*
X145554533Y-104528952D01*
X145506914Y-104481333D01*
X145459295Y-104386095D01*
X145459295Y-104290857D01*
X145506914Y-104195619D01*
X145554533Y-104148000D01*
X145649771Y-104100380D01*
X145887866Y-104100380D01*
X146030723Y-104148000D01*
X146840247Y-105052761D02*
X146745009Y-105100380D01*
X146554533Y-105100380D01*
X146459295Y-105052761D01*
X146411676Y-104957523D01*
X146411676Y-104576571D01*
X146459295Y-104481333D01*
X146554533Y-104433714D01*
X146745009Y-104433714D01*
X146840247Y-104481333D01*
X146887866Y-104576571D01*
X146887866Y-104671809D01*
X146411676Y-104767047D01*
X147316438Y-104433714D02*
X147316438Y-105100380D01*
X147316438Y-104528952D02*
X147364057Y-104481333D01*
X147459295Y-104433714D01*
X147602152Y-104433714D01*
X147697390Y-104481333D01*
X147745009Y-104576571D01*
X147745009Y-105100380D01*
X148173580Y-105052761D02*
X148268819Y-105100380D01*
X148459295Y-105100380D01*
X148554533Y-105052761D01*
X148602152Y-104957523D01*
X148602152Y-104909904D01*
X148554533Y-104814666D01*
X148459295Y-104767047D01*
X148316438Y-104767047D01*
X148221200Y-104719428D01*
X148173580Y-104624190D01*
X148173580Y-104576571D01*
X148221200Y-104481333D01*
X148316438Y-104433714D01*
X148459295Y-104433714D01*
X148554533Y-104481333D01*
X149173580Y-105100380D02*
X149078342Y-105052761D01*
X149030723Y-105005142D01*
X148983104Y-104909904D01*
X148983104Y-104624190D01*
X149030723Y-104528952D01*
X149078342Y-104481333D01*
X149173580Y-104433714D01*
X149316438Y-104433714D01*
X149411676Y-104481333D01*
X149459295Y-104528952D01*
X149506914Y-104624190D01*
X149506914Y-104909904D01*
X149459295Y-105005142D01*
X149411676Y-105052761D01*
X149316438Y-105100380D01*
X149173580Y-105100380D01*
X149935485Y-105100380D02*
X149935485Y-104433714D01*
X149935485Y-104624190D02*
X149983104Y-104528952D01*
X150030723Y-104481333D01*
X150125961Y-104433714D01*
X150221200Y-104433714D01*
X116427952Y-113371380D02*
X116666047Y-114371380D01*
X116856523Y-113657095D01*
X117047000Y-114371380D01*
X117285095Y-113371380D01*
X118047000Y-114323761D02*
X117951761Y-114371380D01*
X117761285Y-114371380D01*
X117666047Y-114323761D01*
X117618428Y-114228523D01*
X117618428Y-113847571D01*
X117666047Y-113752333D01*
X117761285Y-113704714D01*
X117951761Y-113704714D01*
X118047000Y-113752333D01*
X118094619Y-113847571D01*
X118094619Y-113942809D01*
X117618428Y-114038047D01*
X118523190Y-114371380D02*
X118523190Y-113704714D01*
X118523190Y-113799952D02*
X118570809Y-113752333D01*
X118666047Y-113704714D01*
X118808904Y-113704714D01*
X118904142Y-113752333D01*
X118951761Y-113847571D01*
X118951761Y-114371380D01*
X118951761Y-113847571D02*
X118999380Y-113752333D01*
X119094619Y-113704714D01*
X119237476Y-113704714D01*
X119332714Y-113752333D01*
X119380333Y-113847571D01*
X119380333Y-114371380D01*
X119999380Y-114371380D02*
X119904142Y-114323761D01*
X119856523Y-114276142D01*
X119808904Y-114180904D01*
X119808904Y-113895190D01*
X119856523Y-113799952D01*
X119904142Y-113752333D01*
X119999380Y-113704714D01*
X120142238Y-113704714D01*
X120237476Y-113752333D01*
X120285095Y-113799952D01*
X120332714Y-113895190D01*
X120332714Y-114180904D01*
X120285095Y-114276142D01*
X120237476Y-114323761D01*
X120142238Y-114371380D01*
X119999380Y-114371380D01*
X120713666Y-114323761D02*
X120808904Y-114371380D01*
X120999380Y-114371380D01*
X121094619Y-114323761D01*
X121142238Y-114228523D01*
X121142238Y-114180904D01*
X121094619Y-114085666D01*
X120999380Y-114038047D01*
X120856523Y-114038047D01*
X120761285Y-113990428D01*
X120713666Y-113895190D01*
X120713666Y-113847571D01*
X120761285Y-113752333D01*
X120856523Y-113704714D01*
X120999380Y-113704714D01*
X121094619Y-113752333D01*
X122332714Y-114371380D02*
X122332714Y-113371380D01*
X122570809Y-113371380D01*
X122713666Y-113419000D01*
X122808904Y-113514238D01*
X122856523Y-113609476D01*
X122904142Y-113799952D01*
X122904142Y-113942809D01*
X122856523Y-114133285D01*
X122808904Y-114228523D01*
X122713666Y-114323761D01*
X122570809Y-114371380D01*
X122332714Y-114371380D01*
X123856523Y-114371380D02*
X123285095Y-114371380D01*
X123570809Y-114371380D02*
X123570809Y-113371380D01*
X123475571Y-113514238D01*
X123380333Y-113609476D01*
X123285095Y-113657095D01*
X125047000Y-114371380D02*
X125047000Y-113371380D01*
X125380333Y-114085666D01*
X125713666Y-113371380D01*
X125713666Y-114371380D01*
X126189857Y-114371380D02*
X126189857Y-113704714D01*
X126189857Y-113371380D02*
X126142238Y-113419000D01*
X126189857Y-113466619D01*
X126237476Y-113419000D01*
X126189857Y-113371380D01*
X126189857Y-113466619D01*
X126666047Y-113704714D02*
X126666047Y-114371380D01*
X126666047Y-113799952D02*
X126713666Y-113752333D01*
X126808904Y-113704714D01*
X126951761Y-113704714D01*
X127047000Y-113752333D01*
X127094619Y-113847571D01*
X127094619Y-114371380D01*
X127570809Y-114371380D02*
X127570809Y-113704714D01*
X127570809Y-113371380D02*
X127523190Y-113419000D01*
X127570809Y-113466619D01*
X127618428Y-113419000D01*
X127570809Y-113371380D01*
X127570809Y-113466619D01*
%TO.C,R2*%
X111847333Y-75001380D02*
X111514000Y-74525190D01*
X111275904Y-75001380D02*
X111275904Y-74001380D01*
X111656857Y-74001380D01*
X111752095Y-74049000D01*
X111799714Y-74096619D01*
X111847333Y-74191857D01*
X111847333Y-74334714D01*
X111799714Y-74429952D01*
X111752095Y-74477571D01*
X111656857Y-74525190D01*
X111275904Y-74525190D01*
X112228285Y-74096619D02*
X112275904Y-74049000D01*
X112371142Y-74001380D01*
X112609238Y-74001380D01*
X112704476Y-74049000D01*
X112752095Y-74096619D01*
X112799714Y-74191857D01*
X112799714Y-74287095D01*
X112752095Y-74429952D01*
X112180666Y-75001380D01*
X112799714Y-75001380D01*
%TO.C,J1*%
X105838666Y-93432380D02*
X105838666Y-94146666D01*
X105791047Y-94289523D01*
X105695809Y-94384761D01*
X105552952Y-94432380D01*
X105457714Y-94432380D01*
X106838666Y-94432380D02*
X106267238Y-94432380D01*
X106552952Y-94432380D02*
X106552952Y-93432380D01*
X106457714Y-93575238D01*
X106362476Y-93670476D01*
X106267238Y-93718095D01*
%TO.C,J8*%
X182800666Y-111466380D02*
X182800666Y-112180666D01*
X182753047Y-112323523D01*
X182657809Y-112418761D01*
X182514952Y-112466380D01*
X182419714Y-112466380D01*
X183419714Y-111894952D02*
X183324476Y-111847333D01*
X183276857Y-111799714D01*
X183229238Y-111704476D01*
X183229238Y-111656857D01*
X183276857Y-111561619D01*
X183324476Y-111514000D01*
X183419714Y-111466380D01*
X183610190Y-111466380D01*
X183705428Y-111514000D01*
X183753047Y-111561619D01*
X183800666Y-111656857D01*
X183800666Y-111704476D01*
X183753047Y-111799714D01*
X183705428Y-111847333D01*
X183610190Y-111894952D01*
X183419714Y-111894952D01*
X183324476Y-111942571D01*
X183276857Y-111990190D01*
X183229238Y-112085428D01*
X183229238Y-112275904D01*
X183276857Y-112371142D01*
X183324476Y-112418761D01*
X183419714Y-112466380D01*
X183610190Y-112466380D01*
X183705428Y-112418761D01*
X183753047Y-112371142D01*
X183800666Y-112275904D01*
X183800666Y-112085428D01*
X183753047Y-111990190D01*
X183705428Y-111942571D01*
X183610190Y-111894952D01*
%TO.C,R12*%
X143629142Y-90876380D02*
X143295809Y-90400190D01*
X143057714Y-90876380D02*
X143057714Y-89876380D01*
X143438666Y-89876380D01*
X143533904Y-89924000D01*
X143581523Y-89971619D01*
X143629142Y-90066857D01*
X143629142Y-90209714D01*
X143581523Y-90304952D01*
X143533904Y-90352571D01*
X143438666Y-90400190D01*
X143057714Y-90400190D01*
X144581523Y-90876380D02*
X144010095Y-90876380D01*
X144295809Y-90876380D02*
X144295809Y-89876380D01*
X144200571Y-90019238D01*
X144105333Y-90114476D01*
X144010095Y-90162095D01*
X144962476Y-89971619D02*
X145010095Y-89924000D01*
X145105333Y-89876380D01*
X145343428Y-89876380D01*
X145438666Y-89924000D01*
X145486285Y-89971619D01*
X145533904Y-90066857D01*
X145533904Y-90162095D01*
X145486285Y-90304952D01*
X144914857Y-90876380D01*
X145533904Y-90876380D01*
%TO.C,R7*%
X144613333Y-83002380D02*
X144280000Y-82526190D01*
X144041904Y-83002380D02*
X144041904Y-82002380D01*
X144422857Y-82002380D01*
X144518095Y-82050000D01*
X144565714Y-82097619D01*
X144613333Y-82192857D01*
X144613333Y-82335714D01*
X144565714Y-82430952D01*
X144518095Y-82478571D01*
X144422857Y-82526190D01*
X144041904Y-82526190D01*
X144946666Y-82002380D02*
X145613333Y-82002380D01*
X145184761Y-83002380D01*
%TO.C,R6*%
X143597333Y-86558380D02*
X143264000Y-86082190D01*
X143025904Y-86558380D02*
X143025904Y-85558380D01*
X143406857Y-85558380D01*
X143502095Y-85606000D01*
X143549714Y-85653619D01*
X143597333Y-85748857D01*
X143597333Y-85891714D01*
X143549714Y-85986952D01*
X143502095Y-86034571D01*
X143406857Y-86082190D01*
X143025904Y-86082190D01*
X144454476Y-85558380D02*
X144264000Y-85558380D01*
X144168761Y-85606000D01*
X144121142Y-85653619D01*
X144025904Y-85796476D01*
X143978285Y-85986952D01*
X143978285Y-86367904D01*
X144025904Y-86463142D01*
X144073523Y-86510761D01*
X144168761Y-86558380D01*
X144359238Y-86558380D01*
X144454476Y-86510761D01*
X144502095Y-86463142D01*
X144549714Y-86367904D01*
X144549714Y-86129809D01*
X144502095Y-86034571D01*
X144454476Y-85986952D01*
X144359238Y-85939333D01*
X144168761Y-85939333D01*
X144073523Y-85986952D01*
X144025904Y-86034571D01*
X143978285Y-86129809D01*
%TO.C,R3*%
X114791833Y-79954380D02*
X114458500Y-79478190D01*
X114220404Y-79954380D02*
X114220404Y-78954380D01*
X114601357Y-78954380D01*
X114696595Y-79002000D01*
X114744214Y-79049619D01*
X114791833Y-79144857D01*
X114791833Y-79287714D01*
X114744214Y-79382952D01*
X114696595Y-79430571D01*
X114601357Y-79478190D01*
X114220404Y-79478190D01*
X115125166Y-78954380D02*
X115744214Y-78954380D01*
X115410880Y-79335333D01*
X115553738Y-79335333D01*
X115648976Y-79382952D01*
X115696595Y-79430571D01*
X115744214Y-79525809D01*
X115744214Y-79763904D01*
X115696595Y-79859142D01*
X115648976Y-79906761D01*
X115553738Y-79954380D01*
X115268023Y-79954380D01*
X115172785Y-79906761D01*
X115125166Y-79859142D01*
%TO.C,TP4*%
X165590742Y-80325980D02*
X165781219Y-80325980D01*
X165876457Y-80373600D01*
X165971695Y-80468838D01*
X166019314Y-80659314D01*
X166019314Y-80992647D01*
X165971695Y-81183123D01*
X165876457Y-81278361D01*
X165781219Y-81325980D01*
X165590742Y-81325980D01*
X165495504Y-81278361D01*
X165400266Y-81183123D01*
X165352647Y-80992647D01*
X165352647Y-80659314D01*
X165400266Y-80468838D01*
X165495504Y-80373600D01*
X165590742Y-80325980D01*
X166447885Y-80659314D02*
X166447885Y-81325980D01*
X166447885Y-80754552D02*
X166495504Y-80706933D01*
X166590742Y-80659314D01*
X166733600Y-80659314D01*
X166828838Y-80706933D01*
X166876457Y-80802171D01*
X166876457Y-81325980D01*
X167543123Y-80325980D02*
X167733600Y-80325980D01*
X167828838Y-80373600D01*
X167924076Y-80468838D01*
X167971695Y-80659314D01*
X167971695Y-80992647D01*
X167924076Y-81183123D01*
X167828838Y-81278361D01*
X167733600Y-81325980D01*
X167543123Y-81325980D01*
X167447885Y-81278361D01*
X167352647Y-81183123D01*
X167305028Y-80992647D01*
X167305028Y-80659314D01*
X167352647Y-80468838D01*
X167447885Y-80373600D01*
X167543123Y-80325980D01*
X168257409Y-80659314D02*
X168638361Y-80659314D01*
X168400266Y-81325980D02*
X168400266Y-80468838D01*
X168447885Y-80373600D01*
X168543123Y-80325980D01*
X168638361Y-80325980D01*
X168828838Y-80659314D02*
X169209790Y-80659314D01*
X168971695Y-81325980D02*
X168971695Y-80468838D01*
X169019314Y-80373600D01*
X169114552Y-80325980D01*
X169209790Y-80325980D01*
%TO.C,TP2*%
X131658028Y-81834561D02*
X131800885Y-81882180D01*
X132038980Y-81882180D01*
X132134219Y-81834561D01*
X132181838Y-81786942D01*
X132229457Y-81691704D01*
X132229457Y-81596466D01*
X132181838Y-81501228D01*
X132134219Y-81453609D01*
X132038980Y-81405990D01*
X131848504Y-81358371D01*
X131753266Y-81310752D01*
X131705647Y-81263133D01*
X131658028Y-81167895D01*
X131658028Y-81072657D01*
X131705647Y-80977419D01*
X131753266Y-80929800D01*
X131848504Y-80882180D01*
X132086600Y-80882180D01*
X132229457Y-80929800D01*
X132658028Y-81882180D02*
X132658028Y-80882180D01*
X133086600Y-81882180D02*
X133086600Y-81358371D01*
X133038980Y-81263133D01*
X132943742Y-81215514D01*
X132800885Y-81215514D01*
X132705647Y-81263133D01*
X132658028Y-81310752D01*
X133562790Y-81882180D02*
X133562790Y-81215514D01*
X133562790Y-80882180D02*
X133515171Y-80929800D01*
X133562790Y-80977419D01*
X133610409Y-80929800D01*
X133562790Y-80882180D01*
X133562790Y-80977419D01*
X133896123Y-81215514D02*
X134277076Y-81215514D01*
X134038980Y-81882180D02*
X134038980Y-81025038D01*
X134086600Y-80929800D01*
X134181838Y-80882180D01*
X134277076Y-80882180D01*
X134467552Y-81215514D02*
X134848504Y-81215514D01*
X134610409Y-80882180D02*
X134610409Y-81739323D01*
X134658028Y-81834561D01*
X134753266Y-81882180D01*
X134848504Y-81882180D01*
X135562790Y-81834561D02*
X135467552Y-81882180D01*
X135277076Y-81882180D01*
X135181838Y-81834561D01*
X135134219Y-81739323D01*
X135134219Y-81358371D01*
X135181838Y-81263133D01*
X135277076Y-81215514D01*
X135467552Y-81215514D01*
X135562790Y-81263133D01*
X135610409Y-81358371D01*
X135610409Y-81453609D01*
X135134219Y-81548847D01*
X136467552Y-81882180D02*
X136467552Y-80882180D01*
X136467552Y-81834561D02*
X136372314Y-81882180D01*
X136181838Y-81882180D01*
X136086600Y-81834561D01*
X136038980Y-81786942D01*
X135991361Y-81691704D01*
X135991361Y-81405990D01*
X136038980Y-81310752D01*
X136086600Y-81263133D01*
X136181838Y-81215514D01*
X136372314Y-81215514D01*
X136467552Y-81263133D01*
%TO.C,C2*%
X125360133Y-78665342D02*
X125312514Y-78712961D01*
X125169657Y-78760580D01*
X125074419Y-78760580D01*
X124931561Y-78712961D01*
X124836323Y-78617723D01*
X124788704Y-78522485D01*
X124741085Y-78332009D01*
X124741085Y-78189152D01*
X124788704Y-77998676D01*
X124836323Y-77903438D01*
X124931561Y-77808200D01*
X125074419Y-77760580D01*
X125169657Y-77760580D01*
X125312514Y-77808200D01*
X125360133Y-77855819D01*
X125741085Y-77855819D02*
X125788704Y-77808200D01*
X125883942Y-77760580D01*
X126122038Y-77760580D01*
X126217276Y-77808200D01*
X126264895Y-77855819D01*
X126312514Y-77951057D01*
X126312514Y-78046295D01*
X126264895Y-78189152D01*
X125693466Y-78760580D01*
X126312514Y-78760580D01*
%TO.C,C6*%
X174839333Y-108561142D02*
X174791714Y-108608761D01*
X174648857Y-108656380D01*
X174553619Y-108656380D01*
X174410761Y-108608761D01*
X174315523Y-108513523D01*
X174267904Y-108418285D01*
X174220285Y-108227809D01*
X174220285Y-108084952D01*
X174267904Y-107894476D01*
X174315523Y-107799238D01*
X174410761Y-107704000D01*
X174553619Y-107656380D01*
X174648857Y-107656380D01*
X174791714Y-107704000D01*
X174839333Y-107751619D01*
X175696476Y-107656380D02*
X175506000Y-107656380D01*
X175410761Y-107704000D01*
X175363142Y-107751619D01*
X175267904Y-107894476D01*
X175220285Y-108084952D01*
X175220285Y-108465904D01*
X175267904Y-108561142D01*
X175315523Y-108608761D01*
X175410761Y-108656380D01*
X175601238Y-108656380D01*
X175696476Y-108608761D01*
X175744095Y-108561142D01*
X175791714Y-108465904D01*
X175791714Y-108227809D01*
X175744095Y-108132571D01*
X175696476Y-108084952D01*
X175601238Y-108037333D01*
X175410761Y-108037333D01*
X175315523Y-108084952D01*
X175267904Y-108132571D01*
X175220285Y-108227809D01*
%TO.C,J13*%
X172708676Y-76016580D02*
X172708676Y-76730866D01*
X172661057Y-76873723D01*
X172565819Y-76968961D01*
X172422961Y-77016580D01*
X172327723Y-77016580D01*
X173708676Y-77016580D02*
X173137247Y-77016580D01*
X173422961Y-77016580D02*
X173422961Y-76016580D01*
X173327723Y-76159438D01*
X173232485Y-76254676D01*
X173137247Y-76302295D01*
X174042009Y-76016580D02*
X174661057Y-76016580D01*
X174327723Y-76397533D01*
X174470580Y-76397533D01*
X174565819Y-76445152D01*
X174613438Y-76492771D01*
X174661057Y-76588009D01*
X174661057Y-76826104D01*
X174613438Y-76921342D01*
X174565819Y-76968961D01*
X174470580Y-77016580D01*
X174184866Y-77016580D01*
X174089628Y-76968961D01*
X174042009Y-76921342D01*
%TO.C,C7*%
X182713333Y-108815142D02*
X182665714Y-108862761D01*
X182522857Y-108910380D01*
X182427619Y-108910380D01*
X182284761Y-108862761D01*
X182189523Y-108767523D01*
X182141904Y-108672285D01*
X182094285Y-108481809D01*
X182094285Y-108338952D01*
X182141904Y-108148476D01*
X182189523Y-108053238D01*
X182284761Y-107958000D01*
X182427619Y-107910380D01*
X182522857Y-107910380D01*
X182665714Y-107958000D01*
X182713333Y-108005619D01*
X183046666Y-107910380D02*
X183713333Y-107910380D01*
X183284761Y-108910380D01*
%TO.C,J9*%
X132671866Y-76016580D02*
X132671866Y-76730866D01*
X132624247Y-76873723D01*
X132529009Y-76968961D01*
X132386152Y-77016580D01*
X132290914Y-77016580D01*
X133195676Y-77016580D02*
X133386152Y-77016580D01*
X133481390Y-76968961D01*
X133529009Y-76921342D01*
X133624247Y-76778485D01*
X133671866Y-76588009D01*
X133671866Y-76207057D01*
X133624247Y-76111819D01*
X133576628Y-76064200D01*
X133481390Y-76016580D01*
X133290914Y-76016580D01*
X133195676Y-76064200D01*
X133148057Y-76111819D01*
X133100438Y-76207057D01*
X133100438Y-76445152D01*
X133148057Y-76540390D01*
X133195676Y-76588009D01*
X133290914Y-76635628D01*
X133481390Y-76635628D01*
X133576628Y-76588009D01*
X133624247Y-76540390D01*
X133671866Y-76445152D01*
%TO.C,J12*%
X162675676Y-76016580D02*
X162675676Y-76730866D01*
X162628057Y-76873723D01*
X162532819Y-76968961D01*
X162389961Y-77016580D01*
X162294723Y-77016580D01*
X163675676Y-77016580D02*
X163104247Y-77016580D01*
X163389961Y-77016580D02*
X163389961Y-76016580D01*
X163294723Y-76159438D01*
X163199485Y-76254676D01*
X163104247Y-76302295D01*
X164056628Y-76111819D02*
X164104247Y-76064200D01*
X164199485Y-76016580D01*
X164437580Y-76016580D01*
X164532819Y-76064200D01*
X164580438Y-76111819D01*
X164628057Y-76207057D01*
X164628057Y-76302295D01*
X164580438Y-76445152D01*
X164009009Y-77016580D01*
X164628057Y-77016580D01*
%TO.C,J2*%
X185340666Y-98004380D02*
X185340666Y-98718666D01*
X185293047Y-98861523D01*
X185197809Y-98956761D01*
X185054952Y-99004380D01*
X184959714Y-99004380D01*
X185769238Y-98099619D02*
X185816857Y-98052000D01*
X185912095Y-98004380D01*
X186150190Y-98004380D01*
X186245428Y-98052000D01*
X186293047Y-98099619D01*
X186340666Y-98194857D01*
X186340666Y-98290095D01*
X186293047Y-98432952D01*
X185721619Y-99004380D01*
X186340666Y-99004380D01*
%TO.C,D3*%
X191515504Y-101239580D02*
X191515504Y-100239580D01*
X191753600Y-100239580D01*
X191896457Y-100287200D01*
X191991695Y-100382438D01*
X192039314Y-100477676D01*
X192086933Y-100668152D01*
X192086933Y-100811009D01*
X192039314Y-101001485D01*
X191991695Y-101096723D01*
X191896457Y-101191961D01*
X191753600Y-101239580D01*
X191515504Y-101239580D01*
X192420266Y-100239580D02*
X193039314Y-100239580D01*
X192705980Y-100620533D01*
X192848838Y-100620533D01*
X192944076Y-100668152D01*
X192991695Y-100715771D01*
X193039314Y-100811009D01*
X193039314Y-101049104D01*
X192991695Y-101144342D01*
X192944076Y-101191961D01*
X192848838Y-101239580D01*
X192563123Y-101239580D01*
X192467885Y-101191961D01*
X192420266Y-101144342D01*
%TO.C,R11*%
X184624742Y-82240380D02*
X184291409Y-81764190D01*
X184053314Y-82240380D02*
X184053314Y-81240380D01*
X184434266Y-81240380D01*
X184529504Y-81288000D01*
X184577123Y-81335619D01*
X184624742Y-81430857D01*
X184624742Y-81573714D01*
X184577123Y-81668952D01*
X184529504Y-81716571D01*
X184434266Y-81764190D01*
X184053314Y-81764190D01*
X185577123Y-82240380D02*
X185005695Y-82240380D01*
X185291409Y-82240380D02*
X185291409Y-81240380D01*
X185196171Y-81383238D01*
X185100933Y-81478476D01*
X185005695Y-81526095D01*
X186529504Y-82240380D02*
X185958076Y-82240380D01*
X186243790Y-82240380D02*
X186243790Y-81240380D01*
X186148552Y-81383238D01*
X186053314Y-81478476D01*
X185958076Y-81526095D01*
%TO.C,C1*%
X118705333Y-80875142D02*
X118657714Y-80922761D01*
X118514857Y-80970380D01*
X118419619Y-80970380D01*
X118276761Y-80922761D01*
X118181523Y-80827523D01*
X118133904Y-80732285D01*
X118086285Y-80541809D01*
X118086285Y-80398952D01*
X118133904Y-80208476D01*
X118181523Y-80113238D01*
X118276761Y-80018000D01*
X118419619Y-79970380D01*
X118514857Y-79970380D01*
X118657714Y-80018000D01*
X118705333Y-80065619D01*
X119657714Y-80970380D02*
X119086285Y-80970380D01*
X119372000Y-80970380D02*
X119372000Y-79970380D01*
X119276761Y-80113238D01*
X119181523Y-80208476D01*
X119086285Y-80256095D01*
%TO.C,Q1*%
X152672761Y-80068619D02*
X152577523Y-80021000D01*
X152482285Y-79925761D01*
X152339428Y-79782904D01*
X152244190Y-79735285D01*
X152148952Y-79735285D01*
X152196571Y-79973380D02*
X152101333Y-79925761D01*
X152006095Y-79830523D01*
X151958476Y-79640047D01*
X151958476Y-79306714D01*
X152006095Y-79116238D01*
X152101333Y-79021000D01*
X152196571Y-78973380D01*
X152387047Y-78973380D01*
X152482285Y-79021000D01*
X152577523Y-79116238D01*
X152625142Y-79306714D01*
X152625142Y-79640047D01*
X152577523Y-79830523D01*
X152482285Y-79925761D01*
X152387047Y-79973380D01*
X152196571Y-79973380D01*
X153577523Y-79973380D02*
X153006095Y-79973380D01*
X153291809Y-79973380D02*
X153291809Y-78973380D01*
X153196571Y-79116238D01*
X153101333Y-79211476D01*
X153006095Y-79259095D01*
%TO.C,R8*%
X176204433Y-99086980D02*
X175871100Y-98610790D01*
X175633004Y-99086980D02*
X175633004Y-98086980D01*
X176013957Y-98086980D01*
X176109195Y-98134600D01*
X176156814Y-98182219D01*
X176204433Y-98277457D01*
X176204433Y-98420314D01*
X176156814Y-98515552D01*
X176109195Y-98563171D01*
X176013957Y-98610790D01*
X175633004Y-98610790D01*
X176775861Y-98515552D02*
X176680623Y-98467933D01*
X176633004Y-98420314D01*
X176585385Y-98325076D01*
X176585385Y-98277457D01*
X176633004Y-98182219D01*
X176680623Y-98134600D01*
X176775861Y-98086980D01*
X176966338Y-98086980D01*
X177061576Y-98134600D01*
X177109195Y-98182219D01*
X177156814Y-98277457D01*
X177156814Y-98325076D01*
X177109195Y-98420314D01*
X177061576Y-98467933D01*
X176966338Y-98515552D01*
X176775861Y-98515552D01*
X176680623Y-98563171D01*
X176633004Y-98610790D01*
X176585385Y-98706028D01*
X176585385Y-98896504D01*
X176633004Y-98991742D01*
X176680623Y-99039361D01*
X176775861Y-99086980D01*
X176966338Y-99086980D01*
X177061576Y-99039361D01*
X177109195Y-98991742D01*
X177156814Y-98896504D01*
X177156814Y-98706028D01*
X177109195Y-98610790D01*
X177061576Y-98563171D01*
X176966338Y-98515552D01*
%TO.C,R1*%
X137348933Y-96589780D02*
X137015600Y-96113590D01*
X136777504Y-96589780D02*
X136777504Y-95589780D01*
X137158457Y-95589780D01*
X137253695Y-95637400D01*
X137301314Y-95685019D01*
X137348933Y-95780257D01*
X137348933Y-95923114D01*
X137301314Y-96018352D01*
X137253695Y-96065971D01*
X137158457Y-96113590D01*
X136777504Y-96113590D01*
X138301314Y-96589780D02*
X137729885Y-96589780D01*
X138015600Y-96589780D02*
X138015600Y-95589780D01*
X137920361Y-95732638D01*
X137825123Y-95827876D01*
X137729885Y-95875495D01*
%TO.C,U1*%
X119888095Y-82002380D02*
X119888095Y-82811904D01*
X119935714Y-82907142D01*
X119983333Y-82954761D01*
X120078571Y-83002380D01*
X120269047Y-83002380D01*
X120364285Y-82954761D01*
X120411904Y-82907142D01*
X120459523Y-82811904D01*
X120459523Y-82002380D01*
X121459523Y-83002380D02*
X120888095Y-83002380D01*
X121173809Y-83002380D02*
X121173809Y-82002380D01*
X121078571Y-82145238D01*
X120983333Y-82240476D01*
X120888095Y-82288095D01*
%TO.C,C10*%
X153903142Y-83669142D02*
X153855523Y-83716761D01*
X153712666Y-83764380D01*
X153617428Y-83764380D01*
X153474571Y-83716761D01*
X153379333Y-83621523D01*
X153331714Y-83526285D01*
X153284095Y-83335809D01*
X153284095Y-83192952D01*
X153331714Y-83002476D01*
X153379333Y-82907238D01*
X153474571Y-82812000D01*
X153617428Y-82764380D01*
X153712666Y-82764380D01*
X153855523Y-82812000D01*
X153903142Y-82859619D01*
X154855523Y-83764380D02*
X154284095Y-83764380D01*
X154569809Y-83764380D02*
X154569809Y-82764380D01*
X154474571Y-82907238D01*
X154379333Y-83002476D01*
X154284095Y-83050095D01*
X155474571Y-82764380D02*
X155569809Y-82764380D01*
X155665047Y-82812000D01*
X155712666Y-82859619D01*
X155760285Y-82954857D01*
X155807904Y-83145333D01*
X155807904Y-83383428D01*
X155760285Y-83573904D01*
X155712666Y-83669142D01*
X155665047Y-83716761D01*
X155569809Y-83764380D01*
X155474571Y-83764380D01*
X155379333Y-83716761D01*
X155331714Y-83669142D01*
X155284095Y-83573904D01*
X155236476Y-83383428D01*
X155236476Y-83145333D01*
X155284095Y-82954857D01*
X155331714Y-82859619D01*
X155379333Y-82812000D01*
X155474571Y-82764380D01*
%TO.C,R10*%
X180459142Y-77490580D02*
X180125809Y-77014390D01*
X179887714Y-77490580D02*
X179887714Y-76490580D01*
X180268666Y-76490580D01*
X180363904Y-76538200D01*
X180411523Y-76585819D01*
X180459142Y-76681057D01*
X180459142Y-76823914D01*
X180411523Y-76919152D01*
X180363904Y-76966771D01*
X180268666Y-77014390D01*
X179887714Y-77014390D01*
X181411523Y-77490580D02*
X180840095Y-77490580D01*
X181125809Y-77490580D02*
X181125809Y-76490580D01*
X181030571Y-76633438D01*
X180935333Y-76728676D01*
X180840095Y-76776295D01*
X182030571Y-76490580D02*
X182125809Y-76490580D01*
X182221047Y-76538200D01*
X182268666Y-76585819D01*
X182316285Y-76681057D01*
X182363904Y-76871533D01*
X182363904Y-77109628D01*
X182316285Y-77300104D01*
X182268666Y-77395342D01*
X182221047Y-77442961D01*
X182125809Y-77490580D01*
X182030571Y-77490580D01*
X181935333Y-77442961D01*
X181887714Y-77395342D01*
X181840095Y-77300104D01*
X181792476Y-77109628D01*
X181792476Y-76871533D01*
X181840095Y-76681057D01*
X181887714Y-76585819D01*
X181935333Y-76538200D01*
X182030571Y-76490580D01*
%TO.C,J6*%
X109800666Y-89407380D02*
X109800666Y-90121666D01*
X109753047Y-90264523D01*
X109657809Y-90359761D01*
X109514952Y-90407380D01*
X109419714Y-90407380D01*
X110705428Y-89407380D02*
X110514952Y-89407380D01*
X110419714Y-89455000D01*
X110372095Y-89502619D01*
X110276857Y-89645476D01*
X110229238Y-89835952D01*
X110229238Y-90216904D01*
X110276857Y-90312142D01*
X110324476Y-90359761D01*
X110419714Y-90407380D01*
X110610190Y-90407380D01*
X110705428Y-90359761D01*
X110753047Y-90312142D01*
X110800666Y-90216904D01*
X110800666Y-89978809D01*
X110753047Y-89883571D01*
X110705428Y-89835952D01*
X110610190Y-89788333D01*
X110419714Y-89788333D01*
X110324476Y-89835952D01*
X110276857Y-89883571D01*
X110229238Y-89978809D01*
%TO.C,J11*%
X152535676Y-76016580D02*
X152535676Y-76730866D01*
X152488057Y-76873723D01*
X152392819Y-76968961D01*
X152249961Y-77016580D01*
X152154723Y-77016580D01*
X153535676Y-77016580D02*
X152964247Y-77016580D01*
X153249961Y-77016580D02*
X153249961Y-76016580D01*
X153154723Y-76159438D01*
X153059485Y-76254676D01*
X152964247Y-76302295D01*
X154488057Y-77016580D02*
X153916628Y-77016580D01*
X154202342Y-77016580D02*
X154202342Y-76016580D01*
X154107104Y-76159438D01*
X154011866Y-76254676D01*
X153916628Y-76302295D01*
%TO.C,TP5*%
X153924095Y-106434000D02*
X153828857Y-106386380D01*
X153686000Y-106386380D01*
X153543142Y-106434000D01*
X153447904Y-106529238D01*
X153400285Y-106624476D01*
X153352666Y-106814952D01*
X153352666Y-106957809D01*
X153400285Y-107148285D01*
X153447904Y-107243523D01*
X153543142Y-107338761D01*
X153686000Y-107386380D01*
X153781238Y-107386380D01*
X153924095Y-107338761D01*
X153971714Y-107291142D01*
X153971714Y-106957809D01*
X153781238Y-106957809D01*
X154400285Y-107386380D02*
X154400285Y-106386380D01*
X154971714Y-107386380D01*
X154971714Y-106386380D01*
X155447904Y-107386380D02*
X155447904Y-106386380D01*
X155686000Y-106386380D01*
X155828857Y-106434000D01*
X155924095Y-106529238D01*
X155971714Y-106624476D01*
X156019333Y-106814952D01*
X156019333Y-106957809D01*
X155971714Y-107148285D01*
X155924095Y-107243523D01*
X155828857Y-107338761D01*
X155686000Y-107386380D01*
X155447904Y-107386380D01*
%TO.C,D2*%
X169010104Y-99486980D02*
X169010104Y-98486980D01*
X169248200Y-98486980D01*
X169391057Y-98534600D01*
X169486295Y-98629838D01*
X169533914Y-98725076D01*
X169581533Y-98915552D01*
X169581533Y-99058409D01*
X169533914Y-99248885D01*
X169486295Y-99344123D01*
X169391057Y-99439361D01*
X169248200Y-99486980D01*
X169010104Y-99486980D01*
X169962485Y-98582219D02*
X170010104Y-98534600D01*
X170105342Y-98486980D01*
X170343438Y-98486980D01*
X170438676Y-98534600D01*
X170486295Y-98582219D01*
X170533914Y-98677457D01*
X170533914Y-98772695D01*
X170486295Y-98915552D01*
X169914866Y-99486980D01*
X170533914Y-99486980D01*
%TO.C,C4*%
X185532733Y-90196942D02*
X185485114Y-90244561D01*
X185342257Y-90292180D01*
X185247019Y-90292180D01*
X185104161Y-90244561D01*
X185008923Y-90149323D01*
X184961304Y-90054085D01*
X184913685Y-89863609D01*
X184913685Y-89720752D01*
X184961304Y-89530276D01*
X185008923Y-89435038D01*
X185104161Y-89339800D01*
X185247019Y-89292180D01*
X185342257Y-89292180D01*
X185485114Y-89339800D01*
X185532733Y-89387419D01*
X186389876Y-89625514D02*
X186389876Y-90292180D01*
X186151780Y-89244561D02*
X185913685Y-89958847D01*
X186532733Y-89958847D01*
%TO.C,Q2*%
X147326361Y-90285819D02*
X147231123Y-90238200D01*
X147135885Y-90142961D01*
X146993028Y-90000104D01*
X146897790Y-89952485D01*
X146802552Y-89952485D01*
X146850171Y-90190580D02*
X146754933Y-90142961D01*
X146659695Y-90047723D01*
X146612076Y-89857247D01*
X146612076Y-89523914D01*
X146659695Y-89333438D01*
X146754933Y-89238200D01*
X146850171Y-89190580D01*
X147040647Y-89190580D01*
X147135885Y-89238200D01*
X147231123Y-89333438D01*
X147278742Y-89523914D01*
X147278742Y-89857247D01*
X147231123Y-90047723D01*
X147135885Y-90142961D01*
X147040647Y-90190580D01*
X146850171Y-90190580D01*
X147659695Y-89285819D02*
X147707314Y-89238200D01*
X147802552Y-89190580D01*
X148040647Y-89190580D01*
X148135885Y-89238200D01*
X148183504Y-89285819D01*
X148231123Y-89381057D01*
X148231123Y-89476295D01*
X148183504Y-89619152D01*
X147612076Y-90190580D01*
X148231123Y-90190580D01*
%TO.C,R15*%
X148709142Y-91892380D02*
X148375809Y-91416190D01*
X148137714Y-91892380D02*
X148137714Y-90892380D01*
X148518666Y-90892380D01*
X148613904Y-90940000D01*
X148661523Y-90987619D01*
X148709142Y-91082857D01*
X148709142Y-91225714D01*
X148661523Y-91320952D01*
X148613904Y-91368571D01*
X148518666Y-91416190D01*
X148137714Y-91416190D01*
X149661523Y-91892380D02*
X149090095Y-91892380D01*
X149375809Y-91892380D02*
X149375809Y-90892380D01*
X149280571Y-91035238D01*
X149185333Y-91130476D01*
X149090095Y-91178095D01*
X150566285Y-90892380D02*
X150090095Y-90892380D01*
X150042476Y-91368571D01*
X150090095Y-91320952D01*
X150185333Y-91273333D01*
X150423428Y-91273333D01*
X150518666Y-91320952D01*
X150566285Y-91368571D01*
X150613904Y-91463809D01*
X150613904Y-91701904D01*
X150566285Y-91797142D01*
X150518666Y-91844761D01*
X150423428Y-91892380D01*
X150185333Y-91892380D01*
X150090095Y-91844761D01*
X150042476Y-91797142D01*
%TO.C,U2*%
X172593095Y-80470380D02*
X172593095Y-81279904D01*
X172640714Y-81375142D01*
X172688333Y-81422761D01*
X172783571Y-81470380D01*
X172974047Y-81470380D01*
X173069285Y-81422761D01*
X173116904Y-81375142D01*
X173164523Y-81279904D01*
X173164523Y-80470380D01*
X173593095Y-80565619D02*
X173640714Y-80518000D01*
X173735952Y-80470380D01*
X173974047Y-80470380D01*
X174069285Y-80518000D01*
X174116904Y-80565619D01*
X174164523Y-80660857D01*
X174164523Y-80756095D01*
X174116904Y-80898952D01*
X173545476Y-81470380D01*
X174164523Y-81470380D01*
%TO.C,U3*%
X192314580Y-85690204D02*
X193124104Y-85690204D01*
X193219342Y-85642585D01*
X193266961Y-85594966D01*
X193314580Y-85499728D01*
X193314580Y-85309252D01*
X193266961Y-85214014D01*
X193219342Y-85166395D01*
X193124104Y-85118776D01*
X192314580Y-85118776D01*
X192314580Y-84737823D02*
X192314580Y-84118776D01*
X192695533Y-84452109D01*
X192695533Y-84309252D01*
X192743152Y-84214014D01*
X192790771Y-84166395D01*
X192886009Y-84118776D01*
X193124104Y-84118776D01*
X193219342Y-84166395D01*
X193266961Y-84214014D01*
X193314580Y-84309252D01*
X193314580Y-84594966D01*
X193266961Y-84690204D01*
X193219342Y-84737823D01*
%TO.C,C8*%
X160869333Y-95353142D02*
X160821714Y-95400761D01*
X160678857Y-95448380D01*
X160583619Y-95448380D01*
X160440761Y-95400761D01*
X160345523Y-95305523D01*
X160297904Y-95210285D01*
X160250285Y-95019809D01*
X160250285Y-94876952D01*
X160297904Y-94686476D01*
X160345523Y-94591238D01*
X160440761Y-94496000D01*
X160583619Y-94448380D01*
X160678857Y-94448380D01*
X160821714Y-94496000D01*
X160869333Y-94543619D01*
X161440761Y-94876952D02*
X161345523Y-94829333D01*
X161297904Y-94781714D01*
X161250285Y-94686476D01*
X161250285Y-94638857D01*
X161297904Y-94543619D01*
X161345523Y-94496000D01*
X161440761Y-94448380D01*
X161631238Y-94448380D01*
X161726476Y-94496000D01*
X161774095Y-94543619D01*
X161821714Y-94638857D01*
X161821714Y-94686476D01*
X161774095Y-94781714D01*
X161726476Y-94829333D01*
X161631238Y-94876952D01*
X161440761Y-94876952D01*
X161345523Y-94924571D01*
X161297904Y-94972190D01*
X161250285Y-95067428D01*
X161250285Y-95257904D01*
X161297904Y-95353142D01*
X161345523Y-95400761D01*
X161440761Y-95448380D01*
X161631238Y-95448380D01*
X161726476Y-95400761D01*
X161774095Y-95353142D01*
X161821714Y-95257904D01*
X161821714Y-95067428D01*
X161774095Y-94972190D01*
X161726476Y-94924571D01*
X161631238Y-94876952D01*
%TO.C,R14*%
X157692142Y-84018380D02*
X157358809Y-83542190D01*
X157120714Y-84018380D02*
X157120714Y-83018380D01*
X157501666Y-83018380D01*
X157596904Y-83066000D01*
X157644523Y-83113619D01*
X157692142Y-83208857D01*
X157692142Y-83351714D01*
X157644523Y-83446952D01*
X157596904Y-83494571D01*
X157501666Y-83542190D01*
X157120714Y-83542190D01*
X158644523Y-84018380D02*
X158073095Y-84018380D01*
X158358809Y-84018380D02*
X158358809Y-83018380D01*
X158263571Y-83161238D01*
X158168333Y-83256476D01*
X158073095Y-83304095D01*
X159501666Y-83351714D02*
X159501666Y-84018380D01*
X159263571Y-82970761D02*
X159025476Y-83685047D01*
X159644523Y-83685047D01*
%TO.C,TP1*%
X138874523Y-80907580D02*
X138398333Y-80907580D01*
X138350714Y-81383771D01*
X138398333Y-81336152D01*
X138493571Y-81288533D01*
X138731666Y-81288533D01*
X138826904Y-81336152D01*
X138874523Y-81383771D01*
X138922142Y-81479009D01*
X138922142Y-81717104D01*
X138874523Y-81812342D01*
X138826904Y-81859961D01*
X138731666Y-81907580D01*
X138493571Y-81907580D01*
X138398333Y-81859961D01*
X138350714Y-81812342D01*
X139207857Y-80907580D02*
X139541190Y-81907580D01*
X139874523Y-80907580D01*
%TO.C,J10*%
X142101676Y-76016580D02*
X142101676Y-76730866D01*
X142054057Y-76873723D01*
X141958819Y-76968961D01*
X141815961Y-77016580D01*
X141720723Y-77016580D01*
X143101676Y-77016580D02*
X142530247Y-77016580D01*
X142815961Y-77016580D02*
X142815961Y-76016580D01*
X142720723Y-76159438D01*
X142625485Y-76254676D01*
X142530247Y-76302295D01*
X143720723Y-76016580D02*
X143815961Y-76016580D01*
X143911200Y-76064200D01*
X143958819Y-76111819D01*
X144006438Y-76207057D01*
X144054057Y-76397533D01*
X144054057Y-76635628D01*
X144006438Y-76826104D01*
X143958819Y-76921342D01*
X143911200Y-76968961D01*
X143815961Y-77016580D01*
X143720723Y-77016580D01*
X143625485Y-76968961D01*
X143577866Y-76921342D01*
X143530247Y-76826104D01*
X143482628Y-76635628D01*
X143482628Y-76397533D01*
X143530247Y-76207057D01*
X143577866Y-76111819D01*
X143625485Y-76064200D01*
X143720723Y-76016580D01*
%TO.C,C9*%
X102140282Y-83575342D02*
X102092663Y-83622961D01*
X101949806Y-83670580D01*
X101854568Y-83670580D01*
X101711710Y-83622961D01*
X101616472Y-83527723D01*
X101568853Y-83432485D01*
X101521234Y-83242009D01*
X101521234Y-83099152D01*
X101568853Y-82908676D01*
X101616472Y-82813438D01*
X101711710Y-82718200D01*
X101854568Y-82670580D01*
X101949806Y-82670580D01*
X102092663Y-82718200D01*
X102140282Y-82765819D01*
X102616472Y-83670580D02*
X102806949Y-83670580D01*
X102902187Y-83622961D01*
X102949806Y-83575342D01*
X103045044Y-83432485D01*
X103092663Y-83242009D01*
X103092663Y-82861057D01*
X103045044Y-82765819D01*
X102997425Y-82718200D01*
X102902187Y-82670580D01*
X102711710Y-82670580D01*
X102616472Y-82718200D01*
X102568853Y-82765819D01*
X102521234Y-82861057D01*
X102521234Y-83099152D01*
X102568853Y-83194390D01*
X102616472Y-83242009D01*
X102711710Y-83289628D01*
X102902187Y-83289628D01*
X102997425Y-83242009D01*
X103045044Y-83194390D01*
X103092663Y-83099152D01*
%TO.C,J7*%
X132660666Y-89407380D02*
X132660666Y-90121666D01*
X132613047Y-90264523D01*
X132517809Y-90359761D01*
X132374952Y-90407380D01*
X132279714Y-90407380D01*
X133041619Y-89407380D02*
X133708285Y-89407380D01*
X133279714Y-90407380D01*
%TO.C,C3*%
X184745333Y-85091542D02*
X184697714Y-85139161D01*
X184554857Y-85186780D01*
X184459619Y-85186780D01*
X184316761Y-85139161D01*
X184221523Y-85043923D01*
X184173904Y-84948685D01*
X184126285Y-84758209D01*
X184126285Y-84615352D01*
X184173904Y-84424876D01*
X184221523Y-84329638D01*
X184316761Y-84234400D01*
X184459619Y-84186780D01*
X184554857Y-84186780D01*
X184697714Y-84234400D01*
X184745333Y-84282019D01*
X185078666Y-84186780D02*
X185697714Y-84186780D01*
X185364380Y-84567733D01*
X185507238Y-84567733D01*
X185602476Y-84615352D01*
X185650095Y-84662971D01*
X185697714Y-84758209D01*
X185697714Y-84996304D01*
X185650095Y-85091542D01*
X185602476Y-85139161D01*
X185507238Y-85186780D01*
X185221523Y-85186780D01*
X185126285Y-85139161D01*
X185078666Y-85091542D01*
%TO.C,TP3*%
X180813152Y-97353380D02*
X180241723Y-97353380D01*
X180527438Y-97353380D02*
X180527438Y-96353380D01*
X180432200Y-96496238D01*
X180336961Y-96591476D01*
X180241723Y-96639095D01*
X181194104Y-96448619D02*
X181241723Y-96401000D01*
X181336961Y-96353380D01*
X181575057Y-96353380D01*
X181670295Y-96401000D01*
X181717914Y-96448619D01*
X181765533Y-96543857D01*
X181765533Y-96639095D01*
X181717914Y-96781952D01*
X181146485Y-97353380D01*
X181765533Y-97353380D01*
X182051247Y-96353380D02*
X182384580Y-97353380D01*
X182717914Y-96353380D01*
%TO.C,L1*%
X150569333Y-103849380D02*
X150093142Y-103849380D01*
X150093142Y-102849380D01*
X151426476Y-103849380D02*
X150855047Y-103849380D01*
X151140761Y-103849380D02*
X151140761Y-102849380D01*
X151045523Y-102992238D01*
X150950285Y-103087476D01*
X150855047Y-103135095D01*
%TO.C,R5*%
X153109333Y-90133380D02*
X152776000Y-89657190D01*
X152537904Y-90133380D02*
X152537904Y-89133380D01*
X152918857Y-89133380D01*
X153014095Y-89181000D01*
X153061714Y-89228619D01*
X153109333Y-89323857D01*
X153109333Y-89466714D01*
X153061714Y-89561952D01*
X153014095Y-89609571D01*
X152918857Y-89657190D01*
X152537904Y-89657190D01*
X154014095Y-89133380D02*
X153537904Y-89133380D01*
X153490285Y-89609571D01*
X153537904Y-89561952D01*
X153633142Y-89514333D01*
X153871238Y-89514333D01*
X153966476Y-89561952D01*
X154014095Y-89609571D01*
X154061714Y-89704809D01*
X154061714Y-89942904D01*
X154014095Y-90038142D01*
X153966476Y-90085761D01*
X153871238Y-90133380D01*
X153633142Y-90133380D01*
X153537904Y-90085761D01*
X153490285Y-90038142D01*
%TO.C,J3*%
X121241866Y-76143580D02*
X121241866Y-76857866D01*
X121194247Y-77000723D01*
X121099009Y-77095961D01*
X120956152Y-77143580D01*
X120860914Y-77143580D01*
X121622819Y-76143580D02*
X122241866Y-76143580D01*
X121908533Y-76524533D01*
X122051390Y-76524533D01*
X122146628Y-76572152D01*
X122194247Y-76619771D01*
X122241866Y-76715009D01*
X122241866Y-76953104D01*
X122194247Y-77048342D01*
X122146628Y-77095961D01*
X122051390Y-77143580D01*
X121765676Y-77143580D01*
X121670438Y-77095961D01*
X121622819Y-77048342D01*
%TO.C,J5*%
X151694866Y-109620580D02*
X151694866Y-110334866D01*
X151647247Y-110477723D01*
X151552009Y-110572961D01*
X151409152Y-110620580D01*
X151313914Y-110620580D01*
X152647247Y-109620580D02*
X152171057Y-109620580D01*
X152123438Y-110096771D01*
X152171057Y-110049152D01*
X152266295Y-110001533D01*
X152504390Y-110001533D01*
X152599628Y-110049152D01*
X152647247Y-110096771D01*
X152694866Y-110192009D01*
X152694866Y-110430104D01*
X152647247Y-110525342D01*
X152599628Y-110572961D01*
X152504390Y-110620580D01*
X152266295Y-110620580D01*
X152171057Y-110572961D01*
X152123438Y-110525342D01*
%TO.C,D1*%
X113307904Y-74772880D02*
X113307904Y-73772880D01*
X113546000Y-73772880D01*
X113688857Y-73820500D01*
X113784095Y-73915738D01*
X113831714Y-74010976D01*
X113879333Y-74201452D01*
X113879333Y-74344309D01*
X113831714Y-74534785D01*
X113784095Y-74630023D01*
X113688857Y-74725261D01*
X113546000Y-74772880D01*
X113307904Y-74772880D01*
X114831714Y-74772880D02*
X114260285Y-74772880D01*
X114546000Y-74772880D02*
X114546000Y-73772880D01*
X114450761Y-73915738D01*
X114355523Y-74010976D01*
X114260285Y-74058595D01*
%TO.C,R9*%
X179868533Y-81452980D02*
X179535200Y-80976790D01*
X179297104Y-81452980D02*
X179297104Y-80452980D01*
X179678057Y-80452980D01*
X179773295Y-80500600D01*
X179820914Y-80548219D01*
X179868533Y-80643457D01*
X179868533Y-80786314D01*
X179820914Y-80881552D01*
X179773295Y-80929171D01*
X179678057Y-80976790D01*
X179297104Y-80976790D01*
X180344723Y-81452980D02*
X180535200Y-81452980D01*
X180630438Y-81405361D01*
X180678057Y-81357742D01*
X180773295Y-81214885D01*
X180820914Y-81024409D01*
X180820914Y-80643457D01*
X180773295Y-80548219D01*
X180725676Y-80500600D01*
X180630438Y-80452980D01*
X180439961Y-80452980D01*
X180344723Y-80500600D01*
X180297104Y-80548219D01*
X180249485Y-80643457D01*
X180249485Y-80881552D01*
X180297104Y-80976790D01*
X180344723Y-81024409D01*
X180439961Y-81072028D01*
X180630438Y-81072028D01*
X180725676Y-81024409D01*
X180773295Y-80976790D01*
X180820914Y-80881552D01*
%TO.C,R13*%
X157522142Y-89371380D02*
X157188809Y-88895190D01*
X156950714Y-89371380D02*
X156950714Y-88371380D01*
X157331666Y-88371380D01*
X157426904Y-88419000D01*
X157474523Y-88466619D01*
X157522142Y-88561857D01*
X157522142Y-88704714D01*
X157474523Y-88799952D01*
X157426904Y-88847571D01*
X157331666Y-88895190D01*
X156950714Y-88895190D01*
X158474523Y-89371380D02*
X157903095Y-89371380D01*
X158188809Y-89371380D02*
X158188809Y-88371380D01*
X158093571Y-88514238D01*
X157998333Y-88609476D01*
X157903095Y-88657095D01*
X158807857Y-88371380D02*
X159426904Y-88371380D01*
X159093571Y-88752333D01*
X159236428Y-88752333D01*
X159331666Y-88799952D01*
X159379285Y-88847571D01*
X159426904Y-88942809D01*
X159426904Y-89180904D01*
X159379285Y-89276142D01*
X159331666Y-89323761D01*
X159236428Y-89371380D01*
X158950714Y-89371380D01*
X158855476Y-89323761D01*
X158807857Y-89276142D01*
%TO.C,J4*%
X109394666Y-68540380D02*
X109394666Y-69254666D01*
X109347047Y-69397523D01*
X109251809Y-69492761D01*
X109108952Y-69540380D01*
X109013714Y-69540380D01*
X110299428Y-68873714D02*
X110299428Y-69540380D01*
X110061333Y-68492761D02*
X109823238Y-69207047D01*
X110442285Y-69207047D01*
%TO.C,D5*%
X178331904Y-97988380D02*
X178331904Y-96988380D01*
X178570000Y-96988380D01*
X178712857Y-97036000D01*
X178808095Y-97131238D01*
X178855714Y-97226476D01*
X178903333Y-97416952D01*
X178903333Y-97559809D01*
X178855714Y-97750285D01*
X178808095Y-97845523D01*
X178712857Y-97940761D01*
X178570000Y-97988380D01*
X178331904Y-97988380D01*
X179808095Y-96988380D02*
X179331904Y-96988380D01*
X179284285Y-97464571D01*
X179331904Y-97416952D01*
X179427142Y-97369333D01*
X179665238Y-97369333D01*
X179760476Y-97416952D01*
X179808095Y-97464571D01*
X179855714Y-97559809D01*
X179855714Y-97797904D01*
X179808095Y-97893142D01*
X179760476Y-97940761D01*
X179665238Y-97988380D01*
X179427142Y-97988380D01*
X179331904Y-97940761D01*
X179284285Y-97893142D01*
%TO.C,D4*%
X159281904Y-80843380D02*
X159281904Y-79843380D01*
X159520000Y-79843380D01*
X159662857Y-79891000D01*
X159758095Y-79986238D01*
X159805714Y-80081476D01*
X159853333Y-80271952D01*
X159853333Y-80414809D01*
X159805714Y-80605285D01*
X159758095Y-80700523D01*
X159662857Y-80795761D01*
X159520000Y-80843380D01*
X159281904Y-80843380D01*
X160710476Y-80176714D02*
X160710476Y-80843380D01*
X160472380Y-79795761D02*
X160234285Y-80510047D01*
X160853333Y-80510047D01*
%TO.C,R4*%
X130059133Y-79776580D02*
X129725800Y-79300390D01*
X129487704Y-79776580D02*
X129487704Y-78776580D01*
X129868657Y-78776580D01*
X129963895Y-78824200D01*
X130011514Y-78871819D01*
X130059133Y-78967057D01*
X130059133Y-79109914D01*
X130011514Y-79205152D01*
X129963895Y-79252771D01*
X129868657Y-79300390D01*
X129487704Y-79300390D01*
X130916276Y-79109914D02*
X130916276Y-79776580D01*
X130678180Y-78728961D02*
X130440085Y-79443247D01*
X131059133Y-79443247D01*
%TO.C,C5*%
X165695333Y-108561142D02*
X165647714Y-108608761D01*
X165504857Y-108656380D01*
X165409619Y-108656380D01*
X165266761Y-108608761D01*
X165171523Y-108513523D01*
X165123904Y-108418285D01*
X165076285Y-108227809D01*
X165076285Y-108084952D01*
X165123904Y-107894476D01*
X165171523Y-107799238D01*
X165266761Y-107704000D01*
X165409619Y-107656380D01*
X165504857Y-107656380D01*
X165647714Y-107704000D01*
X165695333Y-107751619D01*
X166600095Y-107656380D02*
X166123904Y-107656380D01*
X166076285Y-108132571D01*
X166123904Y-108084952D01*
X166219142Y-108037333D01*
X166457238Y-108037333D01*
X166552476Y-108084952D01*
X166600095Y-108132571D01*
X166647714Y-108227809D01*
X166647714Y-108465904D01*
X166600095Y-108561142D01*
X166552476Y-108608761D01*
X166457238Y-108656380D01*
X166219142Y-108656380D01*
X166123904Y-108608761D01*
X166076285Y-108561142D01*
D11*
%TO.C,R2*%
X112749000Y-70816636D02*
X112749000Y-71270764D01*
X111279000Y-70816636D02*
X111279000Y-71270764D01*
%TO.C,J1*%
X100892000Y-94518000D02*
X100892000Y-95268000D01*
X100892000Y-95268000D02*
X103842000Y-95268000D01*
X103842000Y-95268000D02*
X103842000Y-98318000D01*
X100892000Y-101368000D02*
X103842000Y-101368000D01*
X98642000Y-97818000D02*
X98642000Y-98818000D01*
X98642000Y-98818000D02*
X99392000Y-98818000D01*
X99392000Y-98818000D02*
X99392000Y-97818000D01*
X99392000Y-96318000D02*
X99392000Y-94518000D01*
X98642000Y-94518000D02*
X98642000Y-96318000D01*
X98342000Y-102418000D02*
X99592000Y-102418000D01*
X98632000Y-102128000D02*
X104602000Y-102128000D01*
X98642000Y-102118000D02*
X99392000Y-102118000D01*
X104602000Y-102128000D02*
X104602000Y-94508000D01*
X99392000Y-97818000D02*
X98642000Y-97818000D01*
X100892000Y-102118000D02*
X100892000Y-101368000D01*
X99392000Y-102118000D02*
X99392000Y-100318000D01*
X98342000Y-101168000D02*
X98342000Y-102418000D01*
X99392000Y-94518000D02*
X98642000Y-94518000D01*
X98642000Y-100318000D02*
X98642000Y-102118000D01*
X98632000Y-94508000D02*
X98632000Y-102128000D01*
X103842000Y-101368000D02*
X103842000Y-98318000D01*
X98642000Y-96318000D02*
X99392000Y-96318000D01*
X104602000Y-94508000D02*
X98632000Y-94508000D01*
X99392000Y-100318000D02*
X98642000Y-100318000D01*
%TO.C,J8*%
X184922000Y-109945000D02*
X185672000Y-109945000D01*
X185672000Y-109945000D02*
X185672000Y-106995000D01*
X185672000Y-106995000D02*
X188722000Y-106995000D01*
X191772000Y-109945000D02*
X191772000Y-106995000D01*
X188222000Y-112195000D02*
X189222000Y-112195000D01*
X189222000Y-112195000D02*
X189222000Y-111445000D01*
X189222000Y-111445000D02*
X188222000Y-111445000D01*
X186722000Y-111445000D02*
X184922000Y-111445000D01*
X184922000Y-112195000D02*
X186722000Y-112195000D01*
X192822000Y-112495000D02*
X192822000Y-111245000D01*
X192532000Y-112205000D02*
X192532000Y-106235000D01*
X192522000Y-112195000D02*
X192522000Y-111445000D01*
X192532000Y-106235000D02*
X184912000Y-106235000D01*
X188222000Y-111445000D02*
X188222000Y-112195000D01*
X192522000Y-109945000D02*
X191772000Y-109945000D01*
X192522000Y-111445000D02*
X190722000Y-111445000D01*
X191572000Y-112495000D02*
X192822000Y-112495000D01*
X184922000Y-111445000D02*
X184922000Y-112195000D01*
X190722000Y-112195000D02*
X192522000Y-112195000D01*
X184912000Y-112205000D02*
X192532000Y-112205000D01*
X191772000Y-106995000D02*
X188722000Y-106995000D01*
X186722000Y-112195000D02*
X186722000Y-111445000D01*
X184912000Y-106235000D02*
X184912000Y-112205000D01*
X190722000Y-111445000D02*
X190722000Y-112195000D01*
%TO.C,R12*%
X145362936Y-87500500D02*
X145817064Y-87500500D01*
X145362936Y-88970500D02*
X145817064Y-88970500D01*
%TO.C,R7*%
X147346936Y-80545000D02*
X147801064Y-80545000D01*
X147346936Y-82015000D02*
X147801064Y-82015000D01*
%TO.C,R6*%
X146076936Y-84101000D02*
X146531064Y-84101000D01*
X146076936Y-85571000D02*
X146531064Y-85571000D01*
%TO.C,R3*%
X117374936Y-77751000D02*
X117829064Y-77751000D01*
X117374936Y-79221000D02*
X117829064Y-79221000D01*
%TO.C,TP4*%
X164758600Y-80873600D02*
G75*
G03*
X164758600Y-80873600I-700000J0D01*
G01*
%TO.C,TP2*%
X135036600Y-79679800D02*
G75*
G03*
X135036600Y-79679800I-950000J0D01*
G01*
%TO.C,C2*%
X126640000Y-79432036D02*
X126640000Y-79216364D01*
X127360000Y-79432036D02*
X127360000Y-79216364D01*
%TO.C,C6*%
X174441400Y-106656749D02*
X172261400Y-106656749D01*
X174559400Y-106496749D02*
X172261400Y-106496749D01*
X175273400Y-104615749D02*
X167169400Y-104615749D01*
X174961400Y-105776749D02*
X172261400Y-105776749D01*
X170181400Y-105296749D02*
X167307400Y-105296749D01*
X170181400Y-105776749D02*
X167481400Y-105776749D01*
X170181400Y-104896749D02*
X167211400Y-104896749D01*
X174978400Y-105736749D02*
X172261400Y-105736749D01*
X174240400Y-106896749D02*
X172261400Y-106896749D01*
X174887400Y-105936749D02*
X172261400Y-105936749D01*
X174613400Y-106416749D02*
X172261400Y-106416749D01*
X173449400Y-107576749D02*
X168993400Y-107576749D01*
X174088400Y-107056749D02*
X168354400Y-107056749D01*
X170181400Y-105256749D02*
X167296400Y-105256749D01*
X174761400Y-106176749D02*
X172261400Y-106176749D01*
X174311400Y-106816749D02*
X172261400Y-106816749D01*
X171989400Y-108176749D02*
X170453400Y-108176749D01*
X175026400Y-105616749D02*
X172261400Y-105616749D01*
X170181400Y-106896749D02*
X168202400Y-106896749D01*
X170181400Y-106216749D02*
X167704400Y-106216749D01*
X170181400Y-106616749D02*
X167971400Y-106616749D01*
X174276400Y-106856749D02*
X172261400Y-106856749D01*
X170181400Y-106816749D02*
X168131400Y-106816749D01*
X170181400Y-105056749D02*
X167245400Y-105056749D01*
X175292400Y-104415749D02*
X167150400Y-104415749D01*
X171754400Y-108216749D02*
X170688400Y-108216749D01*
X173508400Y-107536749D02*
X168934400Y-107536749D01*
X175215400Y-104976749D02*
X172261400Y-104976749D01*
X172169400Y-108136749D02*
X170273400Y-108136749D01*
X175178400Y-105136749D02*
X172261400Y-105136749D01*
X170181400Y-105016749D02*
X167236400Y-105016749D01*
X170181400Y-106576749D02*
X167941400Y-106576749D01*
X173185400Y-107736749D02*
X169257400Y-107736749D01*
X174166400Y-106976749D02*
X168276400Y-106976749D01*
X170181400Y-105696749D02*
X167447400Y-105696749D01*
X170181400Y-104976749D02*
X167227400Y-104976749D01*
X173872400Y-107256749D02*
X168570400Y-107256749D01*
X170181400Y-106736749D02*
X168065400Y-106736749D01*
X172773400Y-107936749D02*
X169669400Y-107936749D01*
X170181400Y-105416749D02*
X167344400Y-105416749D01*
X174410400Y-106696749D02*
X172261400Y-106696749D01*
X175298400Y-104295749D02*
X167144400Y-104295749D01*
X175278400Y-104575749D02*
X167164400Y-104575749D01*
X172866400Y-107896749D02*
X169576400Y-107896749D01*
X175056400Y-105536749D02*
X172261400Y-105536749D01*
X170181400Y-105096749D02*
X167254400Y-105096749D01*
X170181400Y-105456749D02*
X167358400Y-105456749D01*
X175206400Y-105016749D02*
X172261400Y-105016749D01*
X170181400Y-106296749D02*
X167752400Y-106296749D01*
X175223400Y-104936749D02*
X172261400Y-104936749D01*
X170181400Y-105856749D02*
X167517400Y-105856749D01*
X173962400Y-107176749D02*
X168480400Y-107176749D01*
X174995400Y-105696749D02*
X172261400Y-105696749D01*
X174738400Y-106216749D02*
X172261400Y-106216749D01*
X173255400Y-107696749D02*
X169187400Y-107696749D01*
X170181400Y-106056749D02*
X167615400Y-106056749D01*
X170181400Y-105936749D02*
X167555400Y-105936749D01*
X175295400Y-104375749D02*
X167147400Y-104375749D01*
X174128400Y-107016749D02*
X168314400Y-107016749D01*
X173323400Y-107656749D02*
X169119400Y-107656749D01*
X170181400Y-106376749D02*
X167803400Y-106376749D01*
X174639400Y-106376749D02*
X172261400Y-106376749D01*
X175286400Y-104495749D02*
X167156400Y-104495749D01*
X175245400Y-104815749D02*
X167197400Y-104815749D01*
X170181400Y-105576749D02*
X167400400Y-105576749D01*
X174943400Y-105816749D02*
X172261400Y-105816749D01*
X175011400Y-105656749D02*
X172261400Y-105656749D01*
X173536400Y-99726051D02*
X173536400Y-100526051D01*
X174690400Y-106296749D02*
X172261400Y-106296749D01*
X170181400Y-105896749D02*
X167535400Y-105896749D01*
X170181400Y-105536749D02*
X167386400Y-105536749D01*
X173387400Y-107616749D02*
X169055400Y-107616749D01*
X175146400Y-105256749D02*
X172261400Y-105256749D01*
X175300400Y-104255749D02*
X167142400Y-104255749D01*
X175301400Y-104215749D02*
X167141400Y-104215749D01*
X174714400Y-106256749D02*
X172261400Y-106256749D01*
X175301400Y-104175749D02*
X167141400Y-104175749D01*
X170181400Y-105216749D02*
X167285400Y-105216749D01*
X175297400Y-104335749D02*
X167145400Y-104335749D01*
X174047400Y-107096749D02*
X168395400Y-107096749D01*
X174204400Y-106936749D02*
X168238400Y-106936749D01*
X174848400Y-106016749D02*
X172261400Y-106016749D01*
X170181400Y-105616749D02*
X167416400Y-105616749D01*
X170181400Y-105496749D02*
X167371400Y-105496749D01*
X174827400Y-106056749D02*
X172261400Y-106056749D01*
X170181400Y-106536749D02*
X167912400Y-106536749D01*
X173034400Y-107816749D02*
X169408400Y-107816749D01*
X170181400Y-104936749D02*
X167219400Y-104936749D01*
X170181400Y-106136749D02*
X167659400Y-106136749D01*
X172319400Y-108096749D02*
X170123400Y-108096749D01*
X174665400Y-106336749D02*
X172261400Y-106336749D01*
X174345400Y-106776749D02*
X172261400Y-106776749D01*
X173566400Y-107496749D02*
X168876400Y-107496749D01*
X170181400Y-106456749D02*
X167856400Y-106456749D01*
X170181400Y-106336749D02*
X167777400Y-106336749D01*
X173675400Y-107416749D02*
X168767400Y-107416749D01*
X174530400Y-106536749D02*
X172261400Y-106536749D01*
X175084400Y-105456749D02*
X172261400Y-105456749D01*
X175135400Y-105296749D02*
X172261400Y-105296749D01*
X170181400Y-105336749D02*
X167319400Y-105336749D01*
X170181400Y-106496749D02*
X167883400Y-106496749D01*
X175269400Y-104655749D02*
X167173400Y-104655749D01*
X175042400Y-105576749D02*
X172261400Y-105576749D01*
X174805400Y-106096749D02*
X172261400Y-106096749D01*
X173726400Y-107376749D02*
X168716400Y-107376749D01*
X170181400Y-105736749D02*
X167464400Y-105736749D01*
X175251400Y-104775749D02*
X167191400Y-104775749D01*
X170181400Y-105976749D02*
X167574400Y-105976749D01*
X173918400Y-107216749D02*
X168524400Y-107216749D01*
X175282400Y-104535749D02*
X167160400Y-104535749D01*
X175289400Y-104455749D02*
X167153400Y-104455749D01*
X175071400Y-105496749D02*
X172261400Y-105496749D01*
X175098400Y-105416749D02*
X172261400Y-105416749D01*
X174377400Y-106736749D02*
X172261400Y-106736749D01*
X175301400Y-104135749D02*
X167141400Y-104135749D01*
X175263400Y-104695749D02*
X167179400Y-104695749D01*
X170181400Y-106656749D02*
X168001400Y-106656749D01*
X170181400Y-105176749D02*
X167274400Y-105176749D01*
X174471400Y-106616749D02*
X172261400Y-106616749D01*
X172450400Y-108056749D02*
X169992400Y-108056749D01*
X170181400Y-105816749D02*
X167499400Y-105816749D01*
X175168400Y-105176749D02*
X172261400Y-105176749D01*
X173936400Y-100126051D02*
X173136400Y-100126051D01*
X172674400Y-107976749D02*
X169768400Y-107976749D01*
X170181400Y-105136749D02*
X167264400Y-105136749D01*
X170181400Y-105376749D02*
X167332400Y-105376749D01*
X174868400Y-105976749D02*
X172261400Y-105976749D01*
X170181400Y-106776749D02*
X168097400Y-106776749D01*
X175231400Y-104896749D02*
X172261400Y-104896749D01*
X170181400Y-106176749D02*
X167681400Y-106176749D01*
X175258400Y-104735749D02*
X167184400Y-104735749D01*
X170181400Y-106416749D02*
X167829400Y-106416749D01*
X170181400Y-105656749D02*
X167431400Y-105656749D01*
X173111400Y-107776749D02*
X169331400Y-107776749D01*
X172952400Y-107856749D02*
X169490400Y-107856749D01*
X175197400Y-105056749D02*
X172261400Y-105056749D01*
X175123400Y-105336749D02*
X172261400Y-105336749D01*
X174925400Y-105856749D02*
X172261400Y-105856749D01*
X175238400Y-104856749D02*
X172261400Y-104856749D01*
X174907400Y-105896749D02*
X172261400Y-105896749D01*
X170181400Y-106016749D02*
X167594400Y-106016749D01*
X172567400Y-108016749D02*
X169875400Y-108016749D01*
X174005400Y-107136749D02*
X168437400Y-107136749D01*
X170181400Y-106256749D02*
X167728400Y-106256749D01*
X173621400Y-107456749D02*
X168821400Y-107456749D01*
X170181400Y-106096749D02*
X167637400Y-106096749D01*
X175188400Y-105096749D02*
X172261400Y-105096749D01*
X170181400Y-106696749D02*
X168032400Y-106696749D01*
X175110400Y-105376749D02*
X172261400Y-105376749D01*
X170181400Y-104856749D02*
X167204400Y-104856749D01*
X174783400Y-106136749D02*
X172261400Y-106136749D01*
X174501400Y-106576749D02*
X172261400Y-106576749D01*
X174586400Y-106456749D02*
X172261400Y-106456749D01*
X170181400Y-106856749D02*
X168166400Y-106856749D01*
X173825400Y-107296749D02*
X168617400Y-107296749D01*
X173777400Y-107336749D02*
X168665400Y-107336749D01*
X175157400Y-105216749D02*
X172261400Y-105216749D01*
X175341400Y-104135749D02*
G75*
G03*
X175341400Y-104135749I-4120000J0D01*
G01*
%TO.C,J13*%
X174145200Y-70021200D02*
X174145200Y-69271200D01*
X169845200Y-71521200D02*
X170595200Y-71521200D01*
X175645200Y-69271200D02*
X175645200Y-70021200D01*
X171645200Y-69271200D02*
X169845200Y-69271200D01*
X176695200Y-74471200D02*
X173645200Y-74471200D01*
X169845200Y-70021200D02*
X171645200Y-70021200D01*
X170595200Y-74471200D02*
X173645200Y-74471200D01*
X169545200Y-68971200D02*
X169545200Y-70221200D01*
X177455200Y-69261200D02*
X169835200Y-69261200D01*
X175645200Y-70021200D02*
X177445200Y-70021200D01*
X171645200Y-70021200D02*
X171645200Y-69271200D01*
X170595200Y-71521200D02*
X170595200Y-74471200D01*
X169845200Y-69271200D02*
X169845200Y-70021200D01*
X176695200Y-71521200D02*
X176695200Y-74471200D01*
X169835200Y-75231200D02*
X177455200Y-75231200D01*
X173145200Y-69271200D02*
X173145200Y-70021200D01*
X177445200Y-69271200D02*
X175645200Y-69271200D01*
X177455200Y-75231200D02*
X177455200Y-69261200D01*
X169835200Y-69261200D02*
X169835200Y-75231200D01*
X174145200Y-69271200D02*
X173145200Y-69271200D01*
X177445200Y-71521200D02*
X176695200Y-71521200D01*
X177445200Y-70021200D02*
X177445200Y-69271200D01*
X173145200Y-70021200D02*
X174145200Y-70021200D01*
X170795200Y-68971200D02*
X169545200Y-68971200D01*
%TO.C,C7*%
X183808000Y-105818400D02*
X181126000Y-105818400D01*
X183670000Y-106098400D02*
X181126000Y-106098400D01*
X182690000Y-107298400D02*
X177482000Y-107298400D01*
X184163000Y-104297400D02*
X176009000Y-104297400D01*
X182540000Y-107418400D02*
X177632000Y-107418400D01*
X180619000Y-108218400D02*
X179553000Y-108218400D01*
X179046000Y-105258400D02*
X176161000Y-105258400D01*
X179046000Y-105458400D02*
X176223000Y-105458400D01*
X184143000Y-104577400D02*
X176029000Y-104577400D01*
X183772000Y-105898400D02*
X181126000Y-105898400D01*
X183105000Y-106898400D02*
X181126000Y-106898400D01*
X182827000Y-107178400D02*
X177345000Y-107178400D01*
X182373000Y-107538400D02*
X177799000Y-107538400D01*
X182783000Y-107218400D02*
X177389000Y-107218400D01*
X183275000Y-106698400D02*
X181126000Y-106698400D01*
X184162000Y-104337400D02*
X176010000Y-104337400D01*
X179046000Y-105058400D02*
X176110000Y-105058400D01*
X179046000Y-105338400D02*
X176184000Y-105338400D01*
X181184000Y-108098400D02*
X178988000Y-108098400D01*
X179046000Y-106178400D02*
X176546000Y-106178400D01*
X179046000Y-105178400D02*
X176139000Y-105178400D01*
X184033000Y-105178400D02*
X181126000Y-105178400D01*
X179046000Y-106818400D02*
X176996000Y-106818400D01*
X183210000Y-106778400D02*
X181126000Y-106778400D01*
X179046000Y-106538400D02*
X176777000Y-106538400D01*
X179046000Y-105618400D02*
X176281000Y-105618400D01*
X179046000Y-106418400D02*
X176694000Y-106418400D01*
X184062000Y-105058400D02*
X181126000Y-105058400D01*
X184138000Y-104617400D02*
X176034000Y-104617400D01*
X182912000Y-107098400D02*
X177260000Y-107098400D01*
X184165000Y-104257400D02*
X176007000Y-104257400D01*
X179046000Y-106378400D02*
X176668000Y-106378400D01*
X179046000Y-104938400D02*
X176084000Y-104938400D01*
X183648000Y-106138400D02*
X181126000Y-106138400D01*
X184096000Y-104898400D02*
X181126000Y-104898400D01*
X184123000Y-104737400D02*
X176049000Y-104737400D01*
X184147000Y-104537400D02*
X176025000Y-104537400D01*
X180854000Y-108178400D02*
X179318000Y-108178400D01*
X183936000Y-105498400D02*
X181126000Y-105498400D01*
X179046000Y-105418400D02*
X176209000Y-105418400D01*
X179046000Y-104858400D02*
X176069000Y-104858400D01*
X179046000Y-106458400D02*
X176721000Y-106458400D01*
X183555000Y-106298400D02*
X181126000Y-106298400D01*
X181731000Y-107898400D02*
X178441000Y-107898400D01*
X179046000Y-105778400D02*
X176346000Y-105778400D01*
X183141000Y-106858400D02*
X181126000Y-106858400D01*
X181976000Y-107778400D02*
X178196000Y-107778400D01*
X183579000Y-106258400D02*
X181126000Y-106258400D01*
X179046000Y-106578400D02*
X176806000Y-106578400D01*
X183069000Y-106938400D02*
X177103000Y-106938400D01*
X179046000Y-105098400D02*
X176119000Y-105098400D01*
X183921000Y-105538400D02*
X181126000Y-105538400D01*
X179046000Y-106338400D02*
X176642000Y-106338400D01*
X184103000Y-104858400D02*
X181126000Y-104858400D01*
X183733000Y-105978400D02*
X181126000Y-105978400D01*
X179046000Y-106778400D02*
X176962000Y-106778400D01*
X183478000Y-106418400D02*
X181126000Y-106418400D01*
X184080000Y-104978400D02*
X181126000Y-104978400D01*
X183975000Y-105378400D02*
X181126000Y-105378400D01*
X182953000Y-107058400D02*
X177219000Y-107058400D01*
X182314000Y-107578400D02*
X177858000Y-107578400D01*
X179046000Y-106858400D02*
X177031000Y-106858400D01*
X183504000Y-106378400D02*
X181126000Y-106378400D01*
X183826000Y-105778400D02*
X181126000Y-105778400D01*
X183424000Y-106498400D02*
X181126000Y-106498400D01*
X183336000Y-106618400D02*
X181126000Y-106618400D01*
X179046000Y-105018400D02*
X176101000Y-105018400D01*
X182870000Y-107138400D02*
X177302000Y-107138400D01*
X183752000Y-105938400D02*
X181126000Y-105938400D01*
X179046000Y-105538400D02*
X176251000Y-105538400D01*
X181432000Y-108018400D02*
X178740000Y-108018400D01*
X182120000Y-107698400D02*
X178052000Y-107698400D01*
X179046000Y-105138400D02*
X176129000Y-105138400D01*
X181899000Y-107818400D02*
X178273000Y-107818400D01*
X179046000Y-105498400D02*
X176236000Y-105498400D01*
X179046000Y-106218400D02*
X176569000Y-106218400D01*
X183242000Y-106738400D02*
X181126000Y-106738400D01*
X182591000Y-107378400D02*
X177581000Y-107378400D01*
X183366000Y-106578400D02*
X181126000Y-106578400D01*
X179046000Y-105378400D02*
X176197000Y-105378400D01*
X179046000Y-105738400D02*
X176329000Y-105738400D01*
X179046000Y-105898400D02*
X176400000Y-105898400D01*
X182737000Y-107258400D02*
X177435000Y-107258400D01*
X184157000Y-104417400D02*
X176015000Y-104417400D01*
X181315000Y-108058400D02*
X178857000Y-108058400D01*
X184110000Y-104817400D02*
X176062000Y-104817400D01*
X183963000Y-105418400D02*
X181126000Y-105418400D01*
X184011000Y-105258400D02*
X181126000Y-105258400D01*
X181539000Y-107978400D02*
X178633000Y-107978400D01*
X183603000Y-106218400D02*
X181126000Y-106218400D01*
X179046000Y-106138400D02*
X176524000Y-106138400D01*
X179046000Y-106098400D02*
X176502000Y-106098400D01*
X182252000Y-107618400D02*
X177920000Y-107618400D01*
X183626000Y-106178400D02*
X181126000Y-106178400D01*
X179046000Y-106018400D02*
X176459000Y-106018400D01*
X183891000Y-105618400D02*
X181126000Y-105618400D01*
X184022000Y-105218400D02*
X181126000Y-105218400D01*
X179046000Y-106618400D02*
X176836000Y-106618400D01*
X184043000Y-105138400D02*
X181126000Y-105138400D01*
X183988000Y-105338400D02*
X181126000Y-105338400D01*
X181817000Y-107858400D02*
X178355000Y-107858400D01*
X179046000Y-105698400D02*
X176312000Y-105698400D01*
X179046000Y-106898400D02*
X177067000Y-106898400D01*
X179046000Y-106658400D02*
X176866000Y-106658400D01*
X184116000Y-104777400D02*
X176056000Y-104777400D01*
X179046000Y-105578400D02*
X176265000Y-105578400D01*
X179046000Y-106498400D02*
X176748000Y-106498400D01*
X182801000Y-100127702D02*
X182001000Y-100127702D01*
X184160000Y-104377400D02*
X176012000Y-104377400D01*
X183692000Y-106058400D02*
X181126000Y-106058400D01*
X184166000Y-104137400D02*
X176006000Y-104137400D01*
X183713000Y-106018400D02*
X181126000Y-106018400D01*
X179046000Y-104898400D02*
X176076000Y-104898400D01*
X182993000Y-107018400D02*
X177179000Y-107018400D01*
X179046000Y-105658400D02*
X176296000Y-105658400D01*
X183790000Y-105858400D02*
X181126000Y-105858400D01*
X183451000Y-106458400D02*
X181126000Y-106458400D01*
X184053000Y-105098400D02*
X181126000Y-105098400D01*
X179046000Y-105818400D02*
X176364000Y-105818400D01*
X179046000Y-105938400D02*
X176420000Y-105938400D01*
X182188000Y-107658400D02*
X177984000Y-107658400D01*
X181034000Y-108138400D02*
X179138000Y-108138400D01*
X179046000Y-106698400D02*
X176897000Y-106698400D01*
X183907000Y-105578400D02*
X181126000Y-105578400D01*
X182486000Y-107458400D02*
X177686000Y-107458400D01*
X182050000Y-107738400D02*
X178122000Y-107738400D01*
X184000000Y-105298400D02*
X181126000Y-105298400D01*
X183395000Y-106538400D02*
X181126000Y-106538400D01*
X184088000Y-104938400D02*
X181126000Y-104938400D01*
X179046000Y-106738400D02*
X176930000Y-106738400D01*
X184071000Y-105018400D02*
X181126000Y-105018400D01*
X179046000Y-106258400D02*
X176593000Y-106258400D01*
X183176000Y-106818400D02*
X181126000Y-106818400D01*
X183031000Y-106978400D02*
X177141000Y-106978400D01*
X184134000Y-104657400D02*
X176038000Y-104657400D01*
X179046000Y-106298400D02*
X176617000Y-106298400D01*
X179046000Y-104978400D02*
X176092000Y-104978400D01*
X184128000Y-104697400D02*
X176044000Y-104697400D01*
X184166000Y-104177400D02*
X176006000Y-104177400D01*
X182431000Y-107498400D02*
X177741000Y-107498400D01*
X184151000Y-104497400D02*
X176021000Y-104497400D01*
X183949000Y-105458400D02*
X181126000Y-105458400D01*
X183306000Y-106658400D02*
X181126000Y-106658400D01*
X179046000Y-105858400D02*
X176382000Y-105858400D01*
X183876000Y-105658400D02*
X181126000Y-105658400D01*
X179046000Y-105978400D02*
X176439000Y-105978400D01*
X183843000Y-105738400D02*
X181126000Y-105738400D01*
X184166000Y-104217400D02*
X176006000Y-104217400D01*
X179046000Y-106058400D02*
X176480000Y-106058400D01*
X184154000Y-104457400D02*
X176018000Y-104457400D01*
X182401000Y-99727702D02*
X182401000Y-100527702D01*
X183530000Y-106338400D02*
X181126000Y-106338400D01*
X183860000Y-105698400D02*
X181126000Y-105698400D01*
X182642000Y-107338400D02*
X177530000Y-107338400D01*
X179046000Y-105298400D02*
X176172000Y-105298400D01*
X179046000Y-105218400D02*
X176150000Y-105218400D01*
X181638000Y-107938400D02*
X178534000Y-107938400D01*
X184206000Y-104137400D02*
G75*
G03*
X184206000Y-104137400I-4120000J0D01*
G01*
%TO.C,J9*%
X129225200Y-71504200D02*
X129975200Y-71504200D01*
X131025200Y-70004200D02*
X131025200Y-69254200D01*
X129975200Y-71504200D02*
X129975200Y-74454200D01*
X132525200Y-70004200D02*
X133525200Y-70004200D01*
X129215200Y-69244200D02*
X129215200Y-75214200D01*
X135025200Y-69254200D02*
X135025200Y-70004200D01*
X130175200Y-68954200D02*
X128925200Y-68954200D01*
X132525200Y-69254200D02*
X132525200Y-70004200D01*
X136825200Y-69254200D02*
X135025200Y-69254200D01*
X135025200Y-70004200D02*
X136825200Y-70004200D01*
X129975200Y-74454200D02*
X133025200Y-74454200D01*
X136825200Y-71504200D02*
X136075200Y-71504200D01*
X136075200Y-71504200D02*
X136075200Y-74454200D01*
X129225200Y-70004200D02*
X131025200Y-70004200D01*
X136825200Y-70004200D02*
X136825200Y-69254200D01*
X136075200Y-74454200D02*
X133025200Y-74454200D01*
X131025200Y-69254200D02*
X129225200Y-69254200D01*
X129215200Y-75214200D02*
X136835200Y-75214200D01*
X136835200Y-75214200D02*
X136835200Y-69244200D01*
X136835200Y-69244200D02*
X129215200Y-69244200D01*
X128925200Y-68954200D02*
X128925200Y-70204200D01*
X133525200Y-69254200D02*
X132525200Y-69254200D01*
X133525200Y-70004200D02*
X133525200Y-69254200D01*
X129225200Y-69254200D02*
X129225200Y-70004200D01*
%TO.C,J12*%
X166535200Y-74471200D02*
X163485200Y-74471200D01*
X160635200Y-68971200D02*
X159385200Y-68971200D01*
X162985200Y-69271200D02*
X162985200Y-70021200D01*
X163985200Y-69271200D02*
X162985200Y-69271200D01*
X167285200Y-70021200D02*
X167285200Y-69271200D01*
X167285200Y-69271200D02*
X165485200Y-69271200D01*
X161485200Y-69271200D02*
X159685200Y-69271200D01*
X165485200Y-69271200D02*
X165485200Y-70021200D01*
X159685200Y-71521200D02*
X160435200Y-71521200D01*
X166535200Y-71521200D02*
X166535200Y-74471200D01*
X165485200Y-70021200D02*
X167285200Y-70021200D01*
X167285200Y-71521200D02*
X166535200Y-71521200D01*
X162985200Y-70021200D02*
X163985200Y-70021200D01*
X167295200Y-69261200D02*
X159675200Y-69261200D01*
X160435200Y-71521200D02*
X160435200Y-74471200D01*
X159385200Y-68971200D02*
X159385200Y-70221200D01*
X159675200Y-69261200D02*
X159675200Y-75231200D01*
X159685200Y-69271200D02*
X159685200Y-70021200D01*
X159685200Y-70021200D02*
X161485200Y-70021200D01*
X159675200Y-75231200D02*
X167295200Y-75231200D01*
X163985200Y-70021200D02*
X163985200Y-69271200D01*
X161485200Y-70021200D02*
X161485200Y-69271200D01*
X160435200Y-74471200D02*
X163485200Y-74471200D01*
X167295200Y-75231200D02*
X167295200Y-69261200D01*
%TO.C,J2*%
X184892000Y-97236000D02*
X192512000Y-97236000D01*
X191752000Y-96476000D02*
X188702000Y-96476000D01*
X185652000Y-93526000D02*
X185652000Y-96476000D01*
X188202000Y-92026000D02*
X189202000Y-92026000D01*
X189202000Y-91276000D02*
X188202000Y-91276000D01*
X184892000Y-91266000D02*
X184892000Y-97236000D01*
X188202000Y-91276000D02*
X188202000Y-92026000D01*
X190702000Y-92026000D02*
X192502000Y-92026000D01*
X186702000Y-92026000D02*
X186702000Y-91276000D01*
X191752000Y-93526000D02*
X191752000Y-96476000D01*
X185852000Y-90976000D02*
X184602000Y-90976000D01*
X185652000Y-96476000D02*
X188702000Y-96476000D01*
X192512000Y-91266000D02*
X184892000Y-91266000D01*
X186702000Y-91276000D02*
X184902000Y-91276000D01*
X184902000Y-92026000D02*
X186702000Y-92026000D01*
X184602000Y-90976000D02*
X184602000Y-92226000D01*
X184902000Y-93526000D02*
X185652000Y-93526000D01*
X192512000Y-97236000D02*
X192512000Y-91266000D01*
X190702000Y-91276000D02*
X190702000Y-92026000D01*
X192502000Y-93526000D02*
X191752000Y-93526000D01*
X189202000Y-92026000D02*
X189202000Y-91276000D01*
X192502000Y-92026000D02*
X192502000Y-91276000D01*
X192502000Y-91276000D02*
X190702000Y-91276000D01*
X184902000Y-91276000D02*
X184902000Y-92026000D01*
%TO.C,D3*%
X186472000Y-99838000D02*
X186472000Y-101838000D01*
X186472000Y-101838000D02*
X190372000Y-101838000D01*
X186472000Y-99838000D02*
X190372000Y-99838000D01*
%TO.C,R11*%
X185294241Y-81025000D02*
X184986959Y-81025000D01*
X185294241Y-80265000D02*
X184986959Y-80265000D01*
%TO.C,C1*%
X120757836Y-80116000D02*
X120542164Y-80116000D01*
X120757836Y-79396000D02*
X120542164Y-79396000D01*
%TO.C,Q1*%
X152738000Y-82393500D02*
X152738000Y-81743500D01*
X149618000Y-82393500D02*
X149618000Y-84068500D01*
X152738000Y-82393500D02*
X152738000Y-83043500D01*
X149618000Y-82393500D02*
X149618000Y-81743500D01*
%TO.C,R8*%
X171933536Y-97550600D02*
X176287664Y-97550600D01*
X171933536Y-94130600D02*
X176287664Y-94130600D01*
%TO.C,R1*%
X137361959Y-96927400D02*
X137669241Y-96927400D01*
X137361959Y-97687400D02*
X137669241Y-97687400D01*
%TO.C,U1*%
X123952000Y-79212000D02*
X122152000Y-79212000D01*
X123952000Y-79212000D02*
X124752000Y-79212000D01*
X123952000Y-82332000D02*
X123152000Y-82332000D01*
X123952000Y-82332000D02*
X124752000Y-82332000D01*
%TO.C,C10*%
X154686580Y-85346000D02*
X154405420Y-85346000D01*
X154686580Y-84326000D02*
X154405420Y-84326000D01*
%TO.C,R10*%
X183539400Y-77115641D02*
X183539400Y-76808359D01*
X182779400Y-77115641D02*
X182779400Y-76808359D01*
%TO.C,J6*%
X110134000Y-91395000D02*
X111464000Y-91395000D01*
X108804000Y-111835000D02*
X111464000Y-111835000D01*
X111464000Y-91395000D02*
X111464000Y-92725000D01*
X111464000Y-93995000D02*
X111464000Y-111835000D01*
X108804000Y-93995000D02*
X108804000Y-111835000D01*
X108804000Y-93995000D02*
X111464000Y-93995000D01*
%TO.C,J11*%
X150295200Y-71504200D02*
X150295200Y-74454200D01*
X157155200Y-75214200D02*
X157155200Y-69244200D01*
X152845200Y-70004200D02*
X153845200Y-70004200D01*
X157145200Y-71504200D02*
X156395200Y-71504200D01*
X152845200Y-69254200D02*
X152845200Y-70004200D01*
X149245200Y-68954200D02*
X149245200Y-70204200D01*
X149545200Y-70004200D02*
X151345200Y-70004200D01*
X150495200Y-68954200D02*
X149245200Y-68954200D01*
X149545200Y-69254200D02*
X149545200Y-70004200D01*
X155345200Y-70004200D02*
X157145200Y-70004200D01*
X150295200Y-74454200D02*
X153345200Y-74454200D01*
X153845200Y-69254200D02*
X152845200Y-69254200D01*
X149535200Y-69244200D02*
X149535200Y-75214200D01*
X155345200Y-69254200D02*
X155345200Y-70004200D01*
X153845200Y-70004200D02*
X153845200Y-69254200D01*
X149535200Y-75214200D02*
X157155200Y-75214200D01*
X151345200Y-70004200D02*
X151345200Y-69254200D01*
X157145200Y-70004200D02*
X157145200Y-69254200D01*
X156395200Y-71504200D02*
X156395200Y-74454200D01*
X149545200Y-71504200D02*
X150295200Y-71504200D01*
X151345200Y-69254200D02*
X149545200Y-69254200D01*
X156395200Y-74454200D02*
X153345200Y-74454200D01*
X157155200Y-69244200D02*
X149535200Y-69244200D01*
X157145200Y-69254200D02*
X155345200Y-69254200D01*
%TO.C,TP5*%
X155636000Y-108966000D02*
G75*
G03*
X155636000Y-108966000I-950000J0D01*
G01*
%TO.C,D2*%
X168614000Y-95905000D02*
X163214000Y-95905000D01*
X168614000Y-99205000D02*
X163214000Y-99205000D01*
X168614000Y-99205000D02*
X168614000Y-95905000D01*
%TO.C,C4*%
X185110800Y-88305936D02*
X185110800Y-88090264D01*
X185830800Y-88305936D02*
X185830800Y-88090264D01*
%TO.C,Q2*%
X148602000Y-87219500D02*
X148602000Y-88894500D01*
X148602000Y-87219500D02*
X148602000Y-86569500D01*
X151722000Y-87219500D02*
X151722000Y-86569500D01*
X151722000Y-87219500D02*
X151722000Y-87869500D01*
%TO.C,R15*%
X149501159Y-90296000D02*
X149808441Y-90296000D01*
X149501159Y-89536000D02*
X149808441Y-89536000D01*
%TO.C,U2*%
X168402000Y-82468000D02*
X166902000Y-82468000D01*
X166902000Y-82468000D02*
X166902000Y-83158000D01*
X166902000Y-92178000D02*
X165802000Y-92178000D01*
X168402000Y-92868000D02*
X166902000Y-92868000D01*
X166902000Y-83158000D02*
X161777000Y-83158000D01*
X166902000Y-92868000D02*
X166902000Y-92178000D01*
D10*
%TO.C,U3*%
X191881200Y-87003300D02*
X191736200Y-87003300D01*
X191881200Y-82853300D02*
X191881200Y-87003300D01*
X186731200Y-82853300D02*
X186731200Y-87003300D01*
X191881200Y-82853300D02*
X191831200Y-82853300D01*
X191831200Y-82853300D02*
X191831200Y-81453300D01*
X186731200Y-87003300D02*
X186876200Y-87003300D01*
X186731200Y-82853300D02*
X186876200Y-82853300D01*
D11*
%TO.C,C8*%
X162988164Y-94340000D02*
X163203836Y-94340000D01*
X162988164Y-93620000D02*
X163203836Y-93620000D01*
%TO.C,R14*%
X158488641Y-84456000D02*
X158181359Y-84456000D01*
X158488641Y-85216000D02*
X158181359Y-85216000D01*
%TO.C,TP1*%
X140015000Y-79705200D02*
G75*
G03*
X140015000Y-79705200I-950000J0D01*
G01*
%TO.C,J10*%
X139385200Y-70004200D02*
X141185200Y-70004200D01*
X143685200Y-69254200D02*
X142685200Y-69254200D01*
X146995200Y-75214200D02*
X146995200Y-69244200D01*
X141185200Y-69254200D02*
X139385200Y-69254200D01*
X145185200Y-70004200D02*
X146985200Y-70004200D01*
X146995200Y-69244200D02*
X139375200Y-69244200D01*
X139375200Y-75214200D02*
X146995200Y-75214200D01*
X139385200Y-71504200D02*
X140135200Y-71504200D01*
X140335200Y-68954200D02*
X139085200Y-68954200D01*
X145185200Y-69254200D02*
X145185200Y-70004200D01*
X139375200Y-69244200D02*
X139375200Y-75214200D01*
X140135200Y-74454200D02*
X143185200Y-74454200D01*
X142685200Y-70004200D02*
X143685200Y-70004200D01*
X146985200Y-71504200D02*
X146235200Y-71504200D01*
X142685200Y-69254200D02*
X142685200Y-70004200D01*
X139385200Y-69254200D02*
X139385200Y-70004200D01*
X146985200Y-70004200D02*
X146985200Y-69254200D01*
X139085200Y-68954200D02*
X139085200Y-70204200D01*
X140135200Y-71504200D02*
X140135200Y-74454200D01*
X141185200Y-70004200D02*
X141185200Y-69254200D01*
X143685200Y-70004200D02*
X143685200Y-69254200D01*
X146985200Y-69254200D02*
X145185200Y-69254200D01*
X146235200Y-71504200D02*
X146235200Y-74454200D01*
X146235200Y-74454200D02*
X143185200Y-74454200D01*
%TO.C,C9*%
X105787949Y-86302200D02*
X105787949Y-90634200D01*
X103107949Y-89508200D02*
X103107949Y-92470200D01*
X105467949Y-85864200D02*
X105467949Y-91072200D01*
X103987949Y-84746200D02*
X103987949Y-87428200D01*
X104947949Y-89508200D02*
X104947949Y-91592200D01*
X104827949Y-89508200D02*
X104827949Y-91688200D01*
X105147949Y-85523200D02*
X105147949Y-91413200D01*
X103747949Y-84647200D02*
X103747949Y-87428200D01*
X104387949Y-84951200D02*
X104387949Y-87428200D01*
X104227949Y-84862200D02*
X104227949Y-87428200D01*
X106307949Y-87520200D02*
X106307949Y-89416200D01*
X104187949Y-84841200D02*
X104187949Y-87428200D01*
X103187949Y-84483200D02*
X103187949Y-87428200D01*
X103427949Y-89508200D02*
X103427949Y-92393200D01*
X102466949Y-84391200D02*
X102466949Y-92545200D01*
X104267949Y-84884200D02*
X104267949Y-87428200D01*
X103907949Y-84711200D02*
X103907949Y-87428200D01*
X104987949Y-89508200D02*
X104987949Y-91558200D01*
X102346949Y-84388200D02*
X102346949Y-92548200D01*
X102426949Y-84389200D02*
X102426949Y-92547200D01*
X102626949Y-84400200D02*
X102626949Y-92536200D01*
X103507949Y-84566200D02*
X103507949Y-87428200D01*
X103747949Y-89508200D02*
X103747949Y-92289200D01*
X104987949Y-85378200D02*
X104987949Y-87428200D01*
X104867949Y-85279200D02*
X104867949Y-87428200D01*
X105947949Y-86578200D02*
X105947949Y-90358200D01*
X103707949Y-89508200D02*
X103707949Y-92303200D01*
X102586949Y-84397200D02*
X102586949Y-92539200D01*
X102386949Y-84388200D02*
X102386949Y-92548200D01*
X104387949Y-89508200D02*
X104387949Y-91985200D01*
X104507949Y-85024200D02*
X104507949Y-87428200D01*
X104747949Y-89508200D02*
X104747949Y-91748200D01*
X104107949Y-89508200D02*
X104107949Y-92134200D01*
X102706949Y-84407200D02*
X102706949Y-92529200D01*
X104707949Y-85159200D02*
X104707949Y-87428200D01*
X103627949Y-89508200D02*
X103627949Y-92331200D01*
X105547949Y-85963200D02*
X105547949Y-90973200D01*
X104587949Y-89508200D02*
X104587949Y-91860200D01*
X103587949Y-84591200D02*
X103587949Y-87428200D01*
X105827949Y-86366200D02*
X105827949Y-90570200D01*
X103227949Y-84492200D02*
X103227949Y-87428200D01*
X103067949Y-89508200D02*
X103067949Y-92478200D01*
X105027949Y-89508200D02*
X105027949Y-91523200D01*
X104707949Y-89508200D02*
X104707949Y-91777200D01*
X104347949Y-89508200D02*
X104347949Y-92008200D01*
X104787949Y-89508200D02*
X104787949Y-91718200D01*
X104027949Y-89508200D02*
X104027949Y-92172200D01*
X103627949Y-84605200D02*
X103627949Y-87428200D01*
X106107949Y-86916200D02*
X106107949Y-90020200D01*
X103147949Y-89508200D02*
X103147949Y-92462200D01*
X103547949Y-89508200D02*
X103547949Y-92357200D01*
X104667949Y-89508200D02*
X104667949Y-91806200D01*
X104467949Y-89508200D02*
X104467949Y-91937200D01*
X104827949Y-85248200D02*
X104827949Y-87428200D01*
X103827949Y-84678200D02*
X103827949Y-87428200D01*
X106147949Y-87015200D02*
X106147949Y-89921200D01*
X104147949Y-84821200D02*
X104147949Y-87428200D01*
X102946949Y-84438200D02*
X102946949Y-92498200D01*
X103387949Y-84532200D02*
X103387949Y-87428200D01*
X103387949Y-89508200D02*
X103387949Y-92404200D01*
X105387949Y-85771200D02*
X105387949Y-91165200D01*
X103107949Y-84466200D02*
X103107949Y-87428200D01*
X104547949Y-85050200D02*
X104547949Y-87428200D01*
X105347949Y-85727200D02*
X105347949Y-91209200D01*
X103587949Y-89508200D02*
X103587949Y-92345200D01*
X106387949Y-87935200D02*
X106387949Y-89001200D01*
X104587949Y-85076200D02*
X104587949Y-87428200D01*
X104627949Y-89508200D02*
X104627949Y-91833200D01*
X103547949Y-84579200D02*
X103547949Y-87428200D01*
X104147949Y-89508200D02*
X104147949Y-92115200D01*
X105707949Y-86181200D02*
X105707949Y-90755200D01*
X103227949Y-89508200D02*
X103227949Y-92444200D01*
X103667949Y-89508200D02*
X103667949Y-92318200D01*
X105907949Y-86504200D02*
X105907949Y-90432200D01*
X103467949Y-84554200D02*
X103467949Y-87428200D01*
X106067949Y-86823200D02*
X106067949Y-90113200D01*
X102906949Y-84431200D02*
X102906949Y-92505200D01*
X106027949Y-86737200D02*
X106027949Y-90199200D01*
X104227949Y-89508200D02*
X104227949Y-92074200D01*
X104667949Y-85130200D02*
X104667949Y-87428200D01*
X103787949Y-84663200D02*
X103787949Y-87428200D01*
X105027949Y-85413200D02*
X105027949Y-87428200D01*
X104427949Y-89508200D02*
X104427949Y-91961200D01*
X105307949Y-85684200D02*
X105307949Y-91252200D01*
X102826949Y-84420200D02*
X102826949Y-92516200D01*
X103467949Y-89508200D02*
X103467949Y-92382200D01*
X104067949Y-84782200D02*
X104067949Y-87428200D01*
X103267949Y-84501200D02*
X103267949Y-87428200D01*
X104907949Y-89508200D02*
X104907949Y-91624200D01*
X103947949Y-89508200D02*
X103947949Y-92208200D01*
X105987949Y-86655200D02*
X105987949Y-90281200D01*
X104307949Y-89508200D02*
X104307949Y-92030200D01*
X104507949Y-89508200D02*
X104507949Y-91912200D01*
X103187949Y-89508200D02*
X103187949Y-92453200D01*
X105267949Y-85642200D02*
X105267949Y-91294200D01*
X98297251Y-85753200D02*
X98297251Y-86553200D01*
X103067949Y-84458200D02*
X103067949Y-87428200D01*
X104347949Y-84928200D02*
X104347949Y-87428200D01*
X97897251Y-86153200D02*
X98697251Y-86153200D01*
X105067949Y-85449200D02*
X105067949Y-87428200D01*
X105227949Y-85601200D02*
X105227949Y-91335200D01*
X104787949Y-85218200D02*
X104787949Y-87428200D01*
X103667949Y-84618200D02*
X103667949Y-87428200D01*
X104107949Y-84802200D02*
X104107949Y-87428200D01*
X105747949Y-86240200D02*
X105747949Y-90696200D01*
X105427949Y-85817200D02*
X105427949Y-91119200D01*
X103787949Y-89508200D02*
X103787949Y-92273200D01*
X103347949Y-84521200D02*
X103347949Y-87428200D01*
X106227949Y-87239200D02*
X106227949Y-89697200D01*
X102506949Y-84392200D02*
X102506949Y-92544200D01*
X103987949Y-89508200D02*
X103987949Y-92190200D01*
X104307949Y-84906200D02*
X104307949Y-87428200D01*
X105107949Y-85485200D02*
X105107949Y-91451200D01*
X103707949Y-84633200D02*
X103707949Y-87428200D01*
X104627949Y-85103200D02*
X104627949Y-87428200D01*
X103827949Y-89508200D02*
X103827949Y-92258200D01*
X102306949Y-84388200D02*
X102306949Y-92548200D01*
X104267949Y-89508200D02*
X104267949Y-92052200D01*
X103307949Y-89508200D02*
X103307949Y-92425200D01*
X105667949Y-86123200D02*
X105667949Y-90813200D01*
X103147949Y-84474200D02*
X103147949Y-87428200D01*
X104067949Y-89508200D02*
X104067949Y-92154200D01*
X105627949Y-86068200D02*
X105627949Y-90868200D01*
X104907949Y-85312200D02*
X104907949Y-87428200D01*
X103347949Y-89508200D02*
X103347949Y-92415200D01*
X104187949Y-89508200D02*
X104187949Y-92095200D01*
X103027949Y-84451200D02*
X103027949Y-87428200D01*
X104547949Y-89508200D02*
X104547949Y-91886200D01*
X105867949Y-86434200D02*
X105867949Y-90502200D01*
X106267949Y-87370200D02*
X106267949Y-89566200D01*
X104747949Y-85188200D02*
X104747949Y-87428200D01*
X105587949Y-86014200D02*
X105587949Y-90922200D01*
X102666949Y-84403200D02*
X102666949Y-92533200D01*
X105507949Y-85912200D02*
X105507949Y-91024200D01*
X105067949Y-89508200D02*
X105067949Y-91487200D01*
X105187949Y-85561200D02*
X105187949Y-91375200D01*
X102786949Y-84416200D02*
X102786949Y-92520200D01*
X106347949Y-87700200D02*
X106347949Y-89236200D01*
X103267949Y-89508200D02*
X103267949Y-92435200D01*
X104467949Y-84999200D02*
X104467949Y-87428200D01*
X103867949Y-84694200D02*
X103867949Y-87428200D01*
X102986949Y-84444200D02*
X102986949Y-92492200D01*
X104427949Y-84975200D02*
X104427949Y-87428200D01*
X104867949Y-89508200D02*
X104867949Y-91657200D01*
X103427949Y-84543200D02*
X103427949Y-87428200D01*
X102746949Y-84411200D02*
X102746949Y-92525200D01*
X103867949Y-89508200D02*
X103867949Y-92242200D01*
X102546949Y-84394200D02*
X102546949Y-92542200D01*
X103507949Y-89508200D02*
X103507949Y-92370200D01*
X104947949Y-85344200D02*
X104947949Y-87428200D01*
X104027949Y-84764200D02*
X104027949Y-87428200D01*
X103947949Y-84728200D02*
X103947949Y-87428200D01*
X103907949Y-89508200D02*
X103907949Y-92225200D01*
X106187949Y-87122200D02*
X106187949Y-89814200D01*
X103027949Y-89508200D02*
X103027949Y-92485200D01*
X102866949Y-84426200D02*
X102866949Y-92510200D01*
X103307949Y-84511200D02*
X103307949Y-87428200D01*
X106426949Y-88468200D02*
G75*
G03*
X106426949Y-88468200I-4120000J0D01*
G01*
%TO.C,J7*%
X134324000Y-93995000D02*
X134324000Y-111835000D01*
X134324000Y-91395000D02*
X134324000Y-92725000D01*
X131664000Y-93995000D02*
X134324000Y-93995000D01*
X132994000Y-91395000D02*
X134324000Y-91395000D01*
X131664000Y-93995000D02*
X131664000Y-111835000D01*
X131664000Y-111835000D02*
X134324000Y-111835000D01*
%TO.C,C3*%
X184217600Y-90103163D02*
X184217600Y-85647600D01*
X184217600Y-85647600D02*
X182517600Y-85647600D01*
X179762037Y-91167600D02*
X178697600Y-90103163D01*
X178697600Y-90103163D02*
X178697600Y-85647600D01*
X178697600Y-85647600D02*
X180397600Y-85647600D01*
X179772600Y-92032600D02*
X179772600Y-91407600D01*
X183153163Y-91167600D02*
X184217600Y-90103163D01*
X183153163Y-91167600D02*
X182517600Y-91167600D01*
X179762037Y-91167600D02*
X180397600Y-91167600D01*
X179460100Y-91720100D02*
X180085100Y-91720100D01*
%TO.C,TP3*%
X182306000Y-94742000D02*
G75*
G03*
X182306000Y-94742000I-950000J0D01*
G01*
%TO.C,L1*%
X148861000Y-102455000D02*
X152861000Y-102455000D01*
X148661000Y-92755000D02*
X152661000Y-92755000D01*
%TO.C,R5*%
X154785500Y-88648258D02*
X154785500Y-88173742D01*
X155830500Y-88648258D02*
X155830500Y-88173742D01*
%TO.C,J3*%
X124825200Y-70148200D02*
X126625200Y-70148200D01*
X117475200Y-69098200D02*
X116225200Y-69098200D01*
X118325200Y-69398200D02*
X116525200Y-69398200D01*
X117275200Y-74598200D02*
X121575200Y-74598200D01*
X123325200Y-69398200D02*
X119825200Y-69398200D01*
X125875200Y-71648200D02*
X125875200Y-74598200D01*
X123325200Y-70148200D02*
X123325200Y-69398200D01*
X116525200Y-69398200D02*
X116525200Y-70148200D01*
X119825200Y-69398200D02*
X119825200Y-70148200D01*
X116525200Y-71648200D02*
X117275200Y-71648200D01*
X116525200Y-70148200D02*
X118325200Y-70148200D01*
X117275200Y-71648200D02*
X117275200Y-74598200D01*
X119825200Y-70148200D02*
X123325200Y-70148200D01*
X124825200Y-69398200D02*
X124825200Y-70148200D01*
X126625200Y-70148200D02*
X126625200Y-69398200D01*
X126625200Y-71648200D02*
X125875200Y-71648200D01*
X116225200Y-69098200D02*
X116225200Y-70348200D01*
X118325200Y-70148200D02*
X118325200Y-69398200D01*
X125875200Y-74598200D02*
X121575200Y-74598200D01*
X126635200Y-75358200D02*
X126635200Y-69388200D01*
X126635200Y-69388200D02*
X116515200Y-69388200D01*
X116515200Y-75358200D02*
X126635200Y-75358200D01*
X126625200Y-69398200D02*
X124825200Y-69398200D01*
X116515200Y-69388200D02*
X116515200Y-75358200D01*
%TO.C,J5*%
X149758200Y-112173200D02*
X151008200Y-112173200D01*
X150718200Y-111883200D02*
X150718200Y-105913200D01*
X151008200Y-112173200D02*
X151008200Y-110923200D01*
X141408200Y-111123200D02*
X141408200Y-111873200D01*
X138108200Y-109623200D02*
X138858200Y-109623200D01*
X138098200Y-105913200D02*
X138098200Y-111883200D01*
X150708200Y-111873200D02*
X150708200Y-111123200D01*
X148908200Y-111873200D02*
X150708200Y-111873200D01*
X138108200Y-111123200D02*
X138108200Y-111873200D01*
X139908200Y-111123200D02*
X138108200Y-111123200D01*
X138858200Y-109623200D02*
X138858200Y-106673200D01*
X147408200Y-111123200D02*
X141408200Y-111123200D01*
X148908200Y-111123200D02*
X148908200Y-111873200D01*
X149958200Y-106673200D02*
X144408200Y-106673200D01*
X149958200Y-109623200D02*
X149958200Y-106673200D01*
X150708200Y-109623200D02*
X149958200Y-109623200D01*
X150718200Y-105913200D02*
X138098200Y-105913200D01*
X138858200Y-106673200D02*
X144408200Y-106673200D01*
X138098200Y-111883200D02*
X150718200Y-111883200D01*
X147408200Y-111873200D02*
X147408200Y-111123200D01*
X139908200Y-111873200D02*
X139908200Y-111123200D01*
X138108200Y-111873200D02*
X139908200Y-111873200D01*
X150708200Y-111123200D02*
X148908200Y-111123200D01*
X141408200Y-111873200D02*
X147408200Y-111873200D01*
%TO.C,D1*%
X114781000Y-69381000D02*
X113311000Y-69381000D01*
X114781000Y-71666000D02*
X114781000Y-69381000D01*
X113311000Y-69381000D02*
X113311000Y-71666000D01*
%TO.C,R9*%
X181331600Y-80694559D02*
X181331600Y-81001841D01*
X182091600Y-80694559D02*
X182091600Y-81001841D01*
%TO.C,R13*%
X158263359Y-88029000D02*
X158570641Y-88029000D01*
X158263359Y-87269000D02*
X158570641Y-87269000D01*
%TO.C,J4*%
X110496000Y-78246000D02*
X110496000Y-81056000D01*
X97276000Y-81056000D02*
X97276000Y-70836000D01*
X100336000Y-81056000D02*
X97276000Y-81056000D01*
X110496000Y-81056000D02*
X104436000Y-81056000D01*
X104436000Y-70836000D02*
X110496000Y-70836000D01*
X97276000Y-70836000D02*
X100336000Y-70836000D01*
X110496000Y-70836000D02*
X110496000Y-73646000D01*
X110686000Y-74946000D02*
X110686000Y-76946000D01*
%TO.C,D5*%
X179678000Y-95948400D02*
X179678000Y-93663400D01*
X179678000Y-93663400D02*
X178208000Y-93663400D01*
X178208000Y-93663400D02*
X178208000Y-95948400D01*
%TO.C,D4*%
X158778000Y-82045000D02*
X158778000Y-80045000D01*
X158778000Y-82045000D02*
X154928000Y-82045000D01*
X158778000Y-80045000D02*
X154928000Y-80045000D01*
%TO.C,R4*%
X128118600Y-80468441D02*
X128118600Y-80161159D01*
X128878600Y-80468441D02*
X128878600Y-80161159D01*
%TO.C,C5*%
X165404600Y-106751349D02*
X163320600Y-106751349D01*
X161240600Y-106111349D02*
X158718600Y-106111349D01*
X163048600Y-108151349D02*
X161512600Y-108151349D01*
X166037600Y-105711349D02*
X163320600Y-105711349D01*
X161240600Y-106831349D02*
X159225600Y-106831349D01*
X165469600Y-106671349D02*
X163320600Y-106671349D01*
X165946600Y-105911349D02*
X163320600Y-105911349D01*
X161240600Y-105871349D02*
X158594600Y-105871349D01*
X164884600Y-107271349D02*
X159676600Y-107271349D01*
X164625600Y-107471349D02*
X159935600Y-107471349D01*
X165773600Y-106231349D02*
X163320600Y-106231349D01*
X161240600Y-105631349D02*
X158490600Y-105631349D01*
X161240600Y-104831349D02*
X158263600Y-104831349D01*
X161240600Y-106711349D02*
X159124600Y-106711349D01*
X166216600Y-105191349D02*
X163320600Y-105191349D01*
X165263600Y-106911349D02*
X159297600Y-106911349D01*
X161240600Y-105431349D02*
X158417600Y-105431349D01*
X166085600Y-105591349D02*
X163320600Y-105591349D01*
X165984600Y-105831349D02*
X163320600Y-105831349D01*
X166115600Y-105511349D02*
X163320600Y-105511349D01*
X166356600Y-104310349D02*
X158204600Y-104310349D01*
X163378600Y-108071349D02*
X161182600Y-108071349D01*
X165530600Y-106591349D02*
X163320600Y-106591349D01*
X161240600Y-105071349D02*
X158313600Y-105071349D01*
X165064600Y-107111349D02*
X159496600Y-107111349D01*
X166002600Y-105791349D02*
X163320600Y-105791349D01*
X161240600Y-105951349D02*
X158633600Y-105951349D01*
X166348600Y-104430349D02*
X158212600Y-104430349D01*
X162813600Y-108191349D02*
X161747600Y-108191349D01*
X166357600Y-104270349D02*
X158203600Y-104270349D01*
X165589600Y-106511349D02*
X163320600Y-106511349D01*
X161240600Y-105911349D02*
X158614600Y-105911349D01*
X165500600Y-106631349D02*
X163320600Y-106631349D01*
X166332600Y-104590349D02*
X158228600Y-104590349D01*
X161240600Y-105391349D02*
X158403600Y-105391349D01*
X161240600Y-106511349D02*
X158971600Y-106511349D01*
X166341600Y-104510349D02*
X158219600Y-104510349D01*
X166322600Y-104670349D02*
X158238600Y-104670349D01*
X165724600Y-106311349D02*
X163320600Y-106311349D01*
X165927600Y-105951349D02*
X163320600Y-105951349D01*
X166157600Y-105391349D02*
X163320600Y-105391349D01*
X161240600Y-106271349D02*
X158811600Y-106271349D01*
X165436600Y-106711349D02*
X163320600Y-106711349D01*
X166274600Y-104951349D02*
X163320600Y-104951349D01*
X161240600Y-105031349D02*
X158304600Y-105031349D01*
X161240600Y-104991349D02*
X158295600Y-104991349D01*
X161240600Y-106431349D02*
X158915600Y-106431349D01*
X161240600Y-104911349D02*
X158278600Y-104911349D01*
X161240600Y-106751349D02*
X159156600Y-106751349D01*
X161240600Y-105151349D02*
X158333600Y-105151349D01*
X161240600Y-106471349D02*
X158942600Y-106471349D01*
X165886600Y-106031349D02*
X163320600Y-106031349D01*
X164836600Y-107311349D02*
X159724600Y-107311349D01*
X165672600Y-106391349D02*
X163320600Y-106391349D01*
X164567600Y-107511349D02*
X159993600Y-107511349D01*
X166143600Y-105431349D02*
X163320600Y-105431349D01*
X166020600Y-105751349D02*
X163320600Y-105751349D01*
X165820600Y-106151349D02*
X163320600Y-106151349D01*
X166345600Y-104470349D02*
X158215600Y-104470349D01*
X165225600Y-106951349D02*
X159335600Y-106951349D01*
X161240600Y-106231349D02*
X158787600Y-106231349D01*
X161240600Y-105511349D02*
X158445600Y-105511349D01*
X165645600Y-106431349D02*
X163320600Y-106431349D01*
X163626600Y-107991349D02*
X160934600Y-107991349D01*
X164011600Y-107831349D02*
X160549600Y-107831349D01*
X164595600Y-99700651D02*
X164595600Y-100500651D01*
X161240600Y-106671349D02*
X159091600Y-106671349D01*
X166265600Y-104991349D02*
X163320600Y-104991349D01*
X166310600Y-104750349D02*
X158250600Y-104750349D01*
X165842600Y-106111349D02*
X163320600Y-106111349D01*
X161240600Y-105591349D02*
X158475600Y-105591349D01*
X161240600Y-104871349D02*
X158270600Y-104871349D01*
X163733600Y-107951349D02*
X160827600Y-107951349D01*
X165335600Y-106831349D02*
X163320600Y-106831349D01*
X161240600Y-106311349D02*
X158836600Y-106311349D01*
X161240600Y-106391349D02*
X158888600Y-106391349D01*
X163925600Y-107871349D02*
X160635600Y-107871349D01*
X166360600Y-104110349D02*
X158200600Y-104110349D01*
X161240600Y-105231349D02*
X158355600Y-105231349D01*
X161240600Y-105791349D02*
X158558600Y-105791349D01*
X166351600Y-104390349D02*
X158209600Y-104390349D01*
X161240600Y-106871349D02*
X159261600Y-106871349D01*
X164244600Y-107711349D02*
X160316600Y-107711349D01*
X165864600Y-106071349D02*
X163320600Y-106071349D01*
X166054600Y-105671349D02*
X163320600Y-105671349D01*
X166360600Y-104190349D02*
X158200600Y-104190349D01*
X161240600Y-106351349D02*
X158862600Y-106351349D01*
X166130600Y-105471349D02*
X163320600Y-105471349D01*
X165966600Y-105871349D02*
X163320600Y-105871349D01*
X161240600Y-105191349D02*
X158344600Y-105191349D01*
X161240600Y-105111349D02*
X158323600Y-105111349D01*
X166317600Y-104710349D02*
X158243600Y-104710349D01*
X163509600Y-108031349D02*
X161051600Y-108031349D01*
X161240600Y-105751349D02*
X158540600Y-105751349D01*
X161240600Y-106191349D02*
X158763600Y-106191349D01*
X164093600Y-107791349D02*
X160467600Y-107791349D01*
X166227600Y-105151349D02*
X163320600Y-105151349D01*
X166247600Y-105071349D02*
X163320600Y-105071349D01*
X163832600Y-107911349D02*
X160728600Y-107911349D01*
X164977600Y-107191349D02*
X159583600Y-107191349D01*
X161240600Y-105551349D02*
X158459600Y-105551349D01*
X165147600Y-107031349D02*
X159413600Y-107031349D01*
X165618600Y-106471349D02*
X163320600Y-106471349D01*
X166354600Y-104350349D02*
X158206600Y-104350349D01*
X161240600Y-105311349D02*
X158378600Y-105311349D01*
X166360600Y-104150349D02*
X158200600Y-104150349D01*
X166282600Y-104911349D02*
X163320600Y-104911349D01*
X165749600Y-106271349D02*
X163320600Y-106271349D01*
X166256600Y-105031349D02*
X163320600Y-105031349D01*
X161240600Y-106791349D02*
X159190600Y-106791349D01*
X164382600Y-107631349D02*
X160178600Y-107631349D01*
X164734600Y-107391349D02*
X159826600Y-107391349D01*
X165106600Y-107071349D02*
X159454600Y-107071349D01*
X164314600Y-107671349D02*
X160246600Y-107671349D01*
X164995600Y-100100651D02*
X164195600Y-100100651D01*
X165299600Y-106871349D02*
X163320600Y-106871349D01*
X165907600Y-105991349D02*
X163320600Y-105991349D01*
X166290600Y-104871349D02*
X163320600Y-104871349D01*
X161240600Y-106031349D02*
X158674600Y-106031349D01*
X166070600Y-105631349D02*
X163320600Y-105631349D01*
X166169600Y-105351349D02*
X163320600Y-105351349D01*
X161240600Y-106551349D02*
X159000600Y-106551349D01*
X161240600Y-105711349D02*
X158523600Y-105711349D01*
X161240600Y-106151349D02*
X158740600Y-106151349D01*
X161240600Y-105991349D02*
X158653600Y-105991349D01*
X165698600Y-106351349D02*
X163320600Y-106351349D01*
X166359600Y-104230349D02*
X158201600Y-104230349D01*
X161240600Y-105351349D02*
X158391600Y-105351349D01*
X166328600Y-104630349D02*
X158232600Y-104630349D01*
X164931600Y-107231349D02*
X159629600Y-107231349D01*
X165187600Y-106991349D02*
X159373600Y-106991349D01*
X165021600Y-107151349D02*
X159539600Y-107151349D01*
X161240600Y-105831349D02*
X158576600Y-105831349D01*
X164508600Y-107551349D02*
X160052600Y-107551349D01*
X166101600Y-105551349D02*
X163320600Y-105551349D01*
X166237600Y-105111349D02*
X163320600Y-105111349D01*
X163228600Y-108111349D02*
X161332600Y-108111349D01*
X161240600Y-106631349D02*
X159060600Y-106631349D01*
X166297600Y-104831349D02*
X163320600Y-104831349D01*
X164446600Y-107591349D02*
X160114600Y-107591349D01*
X164680600Y-107431349D02*
X159880600Y-107431349D01*
X165370600Y-106791349D02*
X163320600Y-106791349D01*
X165797600Y-106191349D02*
X163320600Y-106191349D01*
X161240600Y-105471349D02*
X158430600Y-105471349D01*
X161240600Y-106591349D02*
X159030600Y-106591349D01*
X161240600Y-105671349D02*
X158506600Y-105671349D01*
X161240600Y-105271349D02*
X158366600Y-105271349D01*
X166182600Y-105311349D02*
X163320600Y-105311349D01*
X164785600Y-107351349D02*
X159775600Y-107351349D01*
X166205600Y-105231349D02*
X163320600Y-105231349D01*
X166337600Y-104550349D02*
X158223600Y-104550349D01*
X161240600Y-106071349D02*
X158696600Y-106071349D01*
X166304600Y-104790349D02*
X158256600Y-104790349D01*
X164170600Y-107751349D02*
X160390600Y-107751349D01*
X161240600Y-104951349D02*
X158286600Y-104951349D01*
X166194600Y-105271349D02*
X163320600Y-105271349D01*
X165560600Y-106551349D02*
X163320600Y-106551349D01*
X166400600Y-104110349D02*
G75*
G03*
X166400600Y-104110349I-4120000J0D01*
G01*
%TD*%
%LPC*%
D12*
%TO.C,R2*%
X112014000Y-70131200D03*
X112014000Y-71956200D03*
%TD*%
D13*
%TO.C,J1*%
X101092000Y-99568000D03*
D14*
X101092000Y-97068000D03*
%TD*%
D15*
%TO.C,J8*%
X189972000Y-109745000D03*
D16*
X187472000Y-109745000D03*
%TD*%
D17*
%TO.C,R12*%
X144677500Y-88235500D03*
X146502500Y-88235500D03*
%TD*%
%TO.C,R7*%
X146661500Y-81280000D03*
X148486500Y-81280000D03*
%TD*%
%TO.C,R6*%
X145391500Y-84836000D03*
X147216500Y-84836000D03*
%TD*%
%TO.C,R3*%
X116689500Y-78486000D03*
X118514500Y-78486000D03*
%TD*%
D18*
%TO.C,TP4*%
X164058600Y-80873600D03*
%TD*%
D19*
%TO.C,TP2*%
X134086600Y-79679800D03*
%TD*%
D20*
%TO.C,C2*%
X127000000Y-79804200D03*
X127000000Y-78844200D03*
%TD*%
D21*
%TO.C,C6*%
X171221400Y-102385749D03*
D22*
X171221400Y-105885749D03*
%TD*%
D23*
%TO.C,J13*%
X172395200Y-71721200D03*
D16*
X174895200Y-71721200D03*
%TD*%
D21*
%TO.C,C7*%
X180086000Y-102387400D03*
D22*
X180086000Y-105887400D03*
%TD*%
D23*
%TO.C,J9*%
X131775200Y-71704200D03*
D16*
X134275200Y-71704200D03*
%TD*%
D23*
%TO.C,J12*%
X162235200Y-71721200D03*
D16*
X164735200Y-71721200D03*
%TD*%
D23*
%TO.C,J2*%
X187452000Y-93726000D03*
D16*
X189952000Y-93726000D03*
%TD*%
D24*
%TO.C,D3*%
X187072000Y-100838000D03*
X190372000Y-100838000D03*
%TD*%
D25*
%TO.C,R11*%
X185650600Y-80645000D03*
X184630600Y-80645000D03*
%TD*%
D26*
%TO.C,C1*%
X121130000Y-79756000D03*
X120170000Y-79756000D03*
%TD*%
D27*
%TO.C,Q1*%
X150228000Y-83331000D03*
X152128000Y-83331000D03*
X151178000Y-81456000D03*
%TD*%
D28*
%TO.C,R8*%
X171148100Y-95840600D03*
X177073100Y-95840600D03*
%TD*%
D29*
%TO.C,R1*%
X137005600Y-97307400D03*
X138025600Y-97307400D03*
%TD*%
D30*
%TO.C,U1*%
X122814500Y-79822000D03*
X122814500Y-80772000D03*
X122814500Y-81722000D03*
X125089500Y-81722000D03*
X125089500Y-80772000D03*
X125089500Y-79822000D03*
%TD*%
D31*
%TO.C,C10*%
X155321000Y-84836000D03*
X153771000Y-84836000D03*
%TD*%
D32*
%TO.C,R10*%
X183159400Y-77472000D03*
X183159400Y-76452000D03*
%TD*%
D33*
%TO.C,J6*%
X110134000Y-92725000D03*
D34*
X110134000Y-95265000D03*
X110134000Y-97805000D03*
X110134000Y-100345000D03*
X110134000Y-102885000D03*
X110134000Y-105425000D03*
X110134000Y-107965000D03*
X110134000Y-110505000D03*
%TD*%
D23*
%TO.C,J11*%
X152095200Y-71704200D03*
D16*
X154595200Y-71704200D03*
%TD*%
D19*
%TO.C,TP5*%
X154686000Y-108966000D03*
%TD*%
D35*
%TO.C,D2*%
X167214000Y-97555000D03*
X163214000Y-97555000D03*
%TD*%
D20*
%TO.C,C4*%
X185470800Y-88678100D03*
X185470800Y-87718100D03*
%TD*%
D27*
%TO.C,Q2*%
X149212000Y-88157000D03*
X151112000Y-88157000D03*
X150162000Y-86282000D03*
%TD*%
D29*
%TO.C,R15*%
X149144800Y-89916000D03*
X150164800Y-89916000D03*
%TD*%
D36*
%TO.C,U2*%
X164077000Y-83858000D03*
X164077000Y-85128000D03*
X164077000Y-86398000D03*
X164077000Y-87668000D03*
X164077000Y-88938000D03*
X164077000Y-90208000D03*
X164077000Y-91478000D03*
D37*
X173227000Y-87668000D03*
%TD*%
D38*
%TO.C,U3*%
X189306200Y-84928300D03*
D39*
X191211200Y-82053300D03*
X189941200Y-82053300D03*
X188671200Y-82053300D03*
X187401200Y-82053300D03*
X187401200Y-87803300D03*
X188671200Y-87803300D03*
X189941200Y-87803300D03*
X191211200Y-87803300D03*
D40*
X188006200Y-85578300D03*
X189306200Y-84278300D03*
X190606200Y-85578300D03*
X189306200Y-85578300D03*
X188006200Y-84278300D03*
X190606200Y-84278300D03*
%TD*%
D41*
%TO.C,C8*%
X162616000Y-93980000D03*
X163576000Y-93980000D03*
%TD*%
D42*
%TO.C,REF\u002A\u002A*%
X188696600Y-73202800D03*
%TD*%
D25*
%TO.C,R14*%
X158845000Y-84836000D03*
X157825000Y-84836000D03*
%TD*%
D19*
%TO.C,TP1*%
X139065000Y-79705200D03*
%TD*%
D23*
%TO.C,J10*%
X141935200Y-71704200D03*
D16*
X144435200Y-71704200D03*
%TD*%
D21*
%TO.C,C9*%
X100556949Y-88468200D03*
D22*
X104056949Y-88468200D03*
%TD*%
D33*
%TO.C,J7*%
X132994000Y-92725000D03*
D34*
X132994000Y-95265000D03*
X132994000Y-97805000D03*
X132994000Y-100345000D03*
X132994000Y-102885000D03*
X132994000Y-105425000D03*
X132994000Y-107965000D03*
X132994000Y-110505000D03*
%TD*%
D43*
%TO.C,C3*%
X181457600Y-90607600D03*
X181457600Y-86207600D03*
%TD*%
D19*
%TO.C,TP3*%
X181356000Y-94742000D03*
%TD*%
D42*
%TO.C,REF\u002A\u002A*%
X102895400Y-109601000D03*
%TD*%
D44*
%TO.C,L1*%
X145761000Y-97655000D03*
X156061000Y-97655000D03*
%TD*%
D45*
%TO.C,R5*%
X155308000Y-89236000D03*
X155308000Y-87586000D03*
%TD*%
D46*
%TO.C,J3*%
X119075200Y-71848200D03*
D47*
X121575200Y-71848200D03*
X124075200Y-71848200D03*
%TD*%
D48*
%TO.C,J5*%
X148158200Y-109423200D03*
D47*
X145658200Y-109423200D03*
X143158200Y-109423200D03*
X140658200Y-109423200D03*
%TD*%
D49*
%TO.C,D1*%
X114046000Y-71653500D03*
X114046000Y-70078500D03*
%TD*%
D50*
%TO.C,R9*%
X181711600Y-80338200D03*
X181711600Y-81358200D03*
%TD*%
D29*
%TO.C,R13*%
X157907000Y-87649000D03*
X158927000Y-87649000D03*
%TD*%
D22*
%TO.C,J4*%
X100386000Y-75946000D03*
D51*
X109386000Y-75946000D03*
D52*
X103386000Y-75946000D03*
D53*
X102386000Y-71446000D03*
X102386000Y-80446000D03*
%TD*%
D49*
%TO.C,D5*%
X178943000Y-94360900D03*
X178943000Y-95935900D03*
%TD*%
D54*
%TO.C,D4*%
X157978000Y-81045000D03*
X155178000Y-81045000D03*
%TD*%
D32*
%TO.C,R4*%
X128498600Y-80824800D03*
X128498600Y-79804800D03*
%TD*%
D21*
%TO.C,C5*%
X162280600Y-102360349D03*
D22*
X162280600Y-105860349D03*
%TD*%
M02*
