%TF.GenerationSoftware,KiCad,Pcbnew,(6.0.9)*%
%TF.CreationDate,2022-12-23T09:33:13-06:00*%
%TF.ProjectId,CatFeeder,43617446-6565-4646-9572-2e6b69636164,rev?*%
%TF.SameCoordinates,Original*%
%TF.FileFunction,Drillmap*%
%TF.FilePolarity,Positive*%
%FSLAX45Y45*%
G04 Gerber Fmt 4.5, Leading zero omitted, Abs format (unit mm)*
G04 Created by KiCad (PCBNEW (6.0.9)) date 2022-12-23 09:33:13*
%MOMM*%
%LPD*%
G01*
G04 APERTURE LIST*
%ADD10C,0.100000*%
%ADD11C,0.200000*%
%ADD12C,0.160000*%
%ADD13C,0.430000*%
G04 APERTURE END LIST*
D10*
X9753600Y-11353800D02*
X9753600Y-6946900D01*
X19240500Y-11493500D02*
X9893300Y-11493500D01*
X19380200Y-6946900D02*
X19380200Y-11353800D01*
X9893300Y-6807200D02*
X19240500Y-6807200D01*
X9893300Y-6807200D02*
G75*
G03*
X9753600Y-6946900I0J-139700D01*
G01*
X9753600Y-11353800D02*
G75*
G03*
X9893300Y-11493500I139700J0D01*
G01*
X19240500Y-11493500D02*
G75*
G03*
X19380200Y-11353800I0J139700D01*
G01*
X19380200Y-6946900D02*
G75*
G03*
X19240500Y-6807200I-139700J0D01*
G01*
D11*
D12*
X9958600Y-7514600D02*
X10118600Y-7674600D01*
X10118600Y-7514600D02*
X9958600Y-7674600D01*
D13*
X10504540Y-10960100D02*
G75*
G03*
X10504540Y-10960100I-215000J0D01*
G01*
X19084660Y-7320280D02*
G75*
G03*
X19084660Y-7320280I-215000J0D01*
G01*
D11*
X10006219Y-11808976D02*
X10006219Y-11608976D01*
X10053838Y-11608976D01*
X10082409Y-11618500D01*
X10101457Y-11637548D01*
X10110981Y-11656595D01*
X10120505Y-11694690D01*
X10120505Y-11723262D01*
X10110981Y-11761357D01*
X10101457Y-11780405D01*
X10082409Y-11799452D01*
X10053838Y-11808976D01*
X10006219Y-11808976D01*
X10206219Y-11808976D02*
X10206219Y-11675643D01*
X10206219Y-11713738D02*
X10215743Y-11694690D01*
X10225267Y-11685167D01*
X10244314Y-11675643D01*
X10263362Y-11675643D01*
X10330028Y-11808976D02*
X10330028Y-11675643D01*
X10330028Y-11608976D02*
X10320505Y-11618500D01*
X10330028Y-11628024D01*
X10339552Y-11618500D01*
X10330028Y-11608976D01*
X10330028Y-11628024D01*
X10453838Y-11808976D02*
X10434790Y-11799452D01*
X10425267Y-11780405D01*
X10425267Y-11608976D01*
X10558600Y-11808976D02*
X10539552Y-11799452D01*
X10530028Y-11780405D01*
X10530028Y-11608976D01*
X10787171Y-11808976D02*
X10787171Y-11608976D01*
X10853838Y-11751833D01*
X10920505Y-11608976D01*
X10920505Y-11808976D01*
X11101457Y-11808976D02*
X11101457Y-11704214D01*
X11091933Y-11685167D01*
X11072886Y-11675643D01*
X11034790Y-11675643D01*
X11015743Y-11685167D01*
X11101457Y-11799452D02*
X11082409Y-11808976D01*
X11034790Y-11808976D01*
X11015743Y-11799452D01*
X11006219Y-11780405D01*
X11006219Y-11761357D01*
X11015743Y-11742310D01*
X11034790Y-11732786D01*
X11082409Y-11732786D01*
X11101457Y-11723262D01*
X11196695Y-11675643D02*
X11196695Y-11875643D01*
X11196695Y-11685167D02*
X11215743Y-11675643D01*
X11253838Y-11675643D01*
X11272886Y-11685167D01*
X11282409Y-11694690D01*
X11291933Y-11713738D01*
X11291933Y-11770881D01*
X11282409Y-11789929D01*
X11272886Y-11799452D01*
X11253838Y-11808976D01*
X11215743Y-11808976D01*
X11196695Y-11799452D01*
X11377647Y-11789929D02*
X11387171Y-11799452D01*
X11377647Y-11808976D01*
X11368124Y-11799452D01*
X11377647Y-11789929D01*
X11377647Y-11808976D01*
X11377647Y-11685167D02*
X11387171Y-11694690D01*
X11377647Y-11704214D01*
X11368124Y-11694690D01*
X11377647Y-11685167D01*
X11377647Y-11704214D01*
D12*
X9588600Y-12058500D02*
X9748600Y-12218500D01*
X9748600Y-12058500D02*
X9588600Y-12218500D01*
D11*
X10110981Y-12228976D02*
X9996695Y-12228976D01*
X10053838Y-12228976D02*
X10053838Y-12028976D01*
X10034790Y-12057548D01*
X10015743Y-12076595D01*
X9996695Y-12086119D01*
X10196695Y-12209929D02*
X10206219Y-12219452D01*
X10196695Y-12228976D01*
X10187171Y-12219452D01*
X10196695Y-12209929D01*
X10196695Y-12228976D01*
X10377648Y-12028976D02*
X10339552Y-12028976D01*
X10320505Y-12038500D01*
X10310981Y-12048024D01*
X10291933Y-12076595D01*
X10282409Y-12114690D01*
X10282409Y-12190881D01*
X10291933Y-12209929D01*
X10301457Y-12219452D01*
X10320505Y-12228976D01*
X10358600Y-12228976D01*
X10377648Y-12219452D01*
X10387171Y-12209929D01*
X10396695Y-12190881D01*
X10396695Y-12143262D01*
X10387171Y-12124214D01*
X10377648Y-12114690D01*
X10358600Y-12105167D01*
X10320505Y-12105167D01*
X10301457Y-12114690D01*
X10291933Y-12124214D01*
X10282409Y-12143262D01*
X10520505Y-12028976D02*
X10539552Y-12028976D01*
X10558600Y-12038500D01*
X10568124Y-12048024D01*
X10577648Y-12067071D01*
X10587171Y-12105167D01*
X10587171Y-12152786D01*
X10577648Y-12190881D01*
X10568124Y-12209929D01*
X10558600Y-12219452D01*
X10539552Y-12228976D01*
X10520505Y-12228976D01*
X10501457Y-12219452D01*
X10491933Y-12209929D01*
X10482409Y-12190881D01*
X10472886Y-12152786D01*
X10472886Y-12105167D01*
X10482409Y-12067071D01*
X10491933Y-12048024D01*
X10501457Y-12038500D01*
X10520505Y-12028976D01*
X10710981Y-12028976D02*
X10730028Y-12028976D01*
X10749076Y-12038500D01*
X10758600Y-12048024D01*
X10768124Y-12067071D01*
X10777648Y-12105167D01*
X10777648Y-12152786D01*
X10768124Y-12190881D01*
X10758600Y-12209929D01*
X10749076Y-12219452D01*
X10730028Y-12228976D01*
X10710981Y-12228976D01*
X10691933Y-12219452D01*
X10682409Y-12209929D01*
X10672886Y-12190881D01*
X10663362Y-12152786D01*
X10663362Y-12105167D01*
X10672886Y-12067071D01*
X10682409Y-12048024D01*
X10691933Y-12038500D01*
X10710981Y-12028976D01*
X10863362Y-12228976D02*
X10863362Y-12095643D01*
X10863362Y-12114690D02*
X10872886Y-12105167D01*
X10891933Y-12095643D01*
X10920505Y-12095643D01*
X10939552Y-12105167D01*
X10949076Y-12124214D01*
X10949076Y-12228976D01*
X10949076Y-12124214D02*
X10958600Y-12105167D01*
X10977648Y-12095643D01*
X11006219Y-12095643D01*
X11025267Y-12105167D01*
X11034790Y-12124214D01*
X11034790Y-12228976D01*
X11130028Y-12228976D02*
X11130028Y-12095643D01*
X11130028Y-12114690D02*
X11139552Y-12105167D01*
X11158600Y-12095643D01*
X11187171Y-12095643D01*
X11206219Y-12105167D01*
X11215743Y-12124214D01*
X11215743Y-12228976D01*
X11215743Y-12124214D02*
X11225266Y-12105167D01*
X11244314Y-12095643D01*
X11272886Y-12095643D01*
X11291933Y-12105167D01*
X11301457Y-12124214D01*
X11301457Y-12228976D01*
X11691933Y-12019452D02*
X11520505Y-12276595D01*
X11949076Y-12028976D02*
X11968124Y-12028976D01*
X11987171Y-12038500D01*
X11996695Y-12048024D01*
X12006219Y-12067071D01*
X12015743Y-12105167D01*
X12015743Y-12152786D01*
X12006219Y-12190881D01*
X11996695Y-12209929D01*
X11987171Y-12219452D01*
X11968124Y-12228976D01*
X11949076Y-12228976D01*
X11930028Y-12219452D01*
X11920505Y-12209929D01*
X11910981Y-12190881D01*
X11901457Y-12152786D01*
X11901457Y-12105167D01*
X11910981Y-12067071D01*
X11920505Y-12048024D01*
X11930028Y-12038500D01*
X11949076Y-12028976D01*
X12101457Y-12209929D02*
X12110981Y-12219452D01*
X12101457Y-12228976D01*
X12091933Y-12219452D01*
X12101457Y-12209929D01*
X12101457Y-12228976D01*
X12234790Y-12028976D02*
X12253838Y-12028976D01*
X12272886Y-12038500D01*
X12282409Y-12048024D01*
X12291933Y-12067071D01*
X12301457Y-12105167D01*
X12301457Y-12152786D01*
X12291933Y-12190881D01*
X12282409Y-12209929D01*
X12272886Y-12219452D01*
X12253838Y-12228976D01*
X12234790Y-12228976D01*
X12215743Y-12219452D01*
X12206219Y-12209929D01*
X12196695Y-12190881D01*
X12187171Y-12152786D01*
X12187171Y-12105167D01*
X12196695Y-12067071D01*
X12206219Y-12048024D01*
X12215743Y-12038500D01*
X12234790Y-12028976D01*
X12472886Y-12028976D02*
X12434790Y-12028976D01*
X12415743Y-12038500D01*
X12406219Y-12048024D01*
X12387171Y-12076595D01*
X12377647Y-12114690D01*
X12377647Y-12190881D01*
X12387171Y-12209929D01*
X12396695Y-12219452D01*
X12415743Y-12228976D01*
X12453838Y-12228976D01*
X12472886Y-12219452D01*
X12482409Y-12209929D01*
X12491933Y-12190881D01*
X12491933Y-12143262D01*
X12482409Y-12124214D01*
X12472886Y-12114690D01*
X12453838Y-12105167D01*
X12415743Y-12105167D01*
X12396695Y-12114690D01*
X12387171Y-12124214D01*
X12377647Y-12143262D01*
X12558600Y-12028976D02*
X12682409Y-12028976D01*
X12615743Y-12105167D01*
X12644314Y-12105167D01*
X12663362Y-12114690D01*
X12672886Y-12124214D01*
X12682409Y-12143262D01*
X12682409Y-12190881D01*
X12672886Y-12209929D01*
X12663362Y-12219452D01*
X12644314Y-12228976D01*
X12587171Y-12228976D01*
X12568124Y-12219452D01*
X12558600Y-12209929D01*
X12806219Y-12028976D02*
X12825266Y-12028976D01*
X12844314Y-12038500D01*
X12853838Y-12048024D01*
X12863362Y-12067071D01*
X12872886Y-12105167D01*
X12872886Y-12152786D01*
X12863362Y-12190881D01*
X12853838Y-12209929D01*
X12844314Y-12219452D01*
X12825266Y-12228976D01*
X12806219Y-12228976D01*
X12787171Y-12219452D01*
X12777647Y-12209929D01*
X12768124Y-12190881D01*
X12758600Y-12152786D01*
X12758600Y-12105167D01*
X12768124Y-12067071D01*
X12777647Y-12048024D01*
X12787171Y-12038500D01*
X12806219Y-12028976D01*
X12949076Y-12028976D02*
X12949076Y-12067071D01*
X13025266Y-12028976D02*
X13025266Y-12067071D01*
X13320505Y-12305167D02*
X13310981Y-12295643D01*
X13291933Y-12267071D01*
X13282409Y-12248024D01*
X13272886Y-12219452D01*
X13263362Y-12171833D01*
X13263362Y-12133738D01*
X13272886Y-12086119D01*
X13282409Y-12057548D01*
X13291933Y-12038500D01*
X13310981Y-12009929D01*
X13320505Y-12000405D01*
X13501457Y-12228976D02*
X13387171Y-12228976D01*
X13444314Y-12228976D02*
X13444314Y-12028976D01*
X13425266Y-12057548D01*
X13406219Y-12076595D01*
X13387171Y-12086119D01*
X13739552Y-12228976D02*
X13739552Y-12028976D01*
X13825266Y-12228976D02*
X13825266Y-12124214D01*
X13815743Y-12105167D01*
X13796695Y-12095643D01*
X13768124Y-12095643D01*
X13749076Y-12105167D01*
X13739552Y-12114690D01*
X13949076Y-12228976D02*
X13930028Y-12219452D01*
X13920505Y-12209929D01*
X13910981Y-12190881D01*
X13910981Y-12133738D01*
X13920505Y-12114690D01*
X13930028Y-12105167D01*
X13949076Y-12095643D01*
X13977647Y-12095643D01*
X13996695Y-12105167D01*
X14006219Y-12114690D01*
X14015743Y-12133738D01*
X14015743Y-12190881D01*
X14006219Y-12209929D01*
X13996695Y-12219452D01*
X13977647Y-12228976D01*
X13949076Y-12228976D01*
X14130028Y-12228976D02*
X14110981Y-12219452D01*
X14101457Y-12200405D01*
X14101457Y-12028976D01*
X14282409Y-12219452D02*
X14263362Y-12228976D01*
X14225266Y-12228976D01*
X14206219Y-12219452D01*
X14196695Y-12200405D01*
X14196695Y-12124214D01*
X14206219Y-12105167D01*
X14225266Y-12095643D01*
X14263362Y-12095643D01*
X14282409Y-12105167D01*
X14291933Y-12124214D01*
X14291933Y-12143262D01*
X14196695Y-12162310D01*
X14358600Y-12305167D02*
X14368124Y-12295643D01*
X14387171Y-12267071D01*
X14396695Y-12248024D01*
X14406219Y-12219452D01*
X14415743Y-12171833D01*
X14415743Y-12133738D01*
X14406219Y-12086119D01*
X14396695Y-12057548D01*
X14387171Y-12038500D01*
X14368124Y-12009929D01*
X14358600Y-12000405D01*
X14720505Y-12305167D02*
X14710981Y-12295643D01*
X14691933Y-12267071D01*
X14682409Y-12248024D01*
X14672886Y-12219452D01*
X14663362Y-12171833D01*
X14663362Y-12133738D01*
X14672886Y-12086119D01*
X14682409Y-12057548D01*
X14691933Y-12038500D01*
X14710981Y-12009929D01*
X14720505Y-12000405D01*
X14796695Y-12095643D02*
X14796695Y-12228976D01*
X14796695Y-12114690D02*
X14806219Y-12105167D01*
X14825266Y-12095643D01*
X14853838Y-12095643D01*
X14872886Y-12105167D01*
X14882409Y-12124214D01*
X14882409Y-12228976D01*
X15006219Y-12228976D02*
X14987171Y-12219452D01*
X14977647Y-12209929D01*
X14968124Y-12190881D01*
X14968124Y-12133738D01*
X14977647Y-12114690D01*
X14987171Y-12105167D01*
X15006219Y-12095643D01*
X15034790Y-12095643D01*
X15053838Y-12105167D01*
X15063362Y-12114690D01*
X15072886Y-12133738D01*
X15072886Y-12190881D01*
X15063362Y-12209929D01*
X15053838Y-12219452D01*
X15034790Y-12228976D01*
X15006219Y-12228976D01*
X15130028Y-12095643D02*
X15206219Y-12095643D01*
X15158600Y-12028976D02*
X15158600Y-12200405D01*
X15168124Y-12219452D01*
X15187171Y-12228976D01*
X15206219Y-12228976D01*
X15425266Y-12095643D02*
X15425266Y-12295643D01*
X15425266Y-12105167D02*
X15444314Y-12095643D01*
X15482409Y-12095643D01*
X15501457Y-12105167D01*
X15510981Y-12114690D01*
X15520505Y-12133738D01*
X15520505Y-12190881D01*
X15510981Y-12209929D01*
X15501457Y-12219452D01*
X15482409Y-12228976D01*
X15444314Y-12228976D01*
X15425266Y-12219452D01*
X15634790Y-12228976D02*
X15615743Y-12219452D01*
X15606219Y-12200405D01*
X15606219Y-12028976D01*
X15796695Y-12228976D02*
X15796695Y-12124214D01*
X15787171Y-12105167D01*
X15768124Y-12095643D01*
X15730028Y-12095643D01*
X15710981Y-12105167D01*
X15796695Y-12219452D02*
X15777647Y-12228976D01*
X15730028Y-12228976D01*
X15710981Y-12219452D01*
X15701457Y-12200405D01*
X15701457Y-12181357D01*
X15710981Y-12162310D01*
X15730028Y-12152786D01*
X15777647Y-12152786D01*
X15796695Y-12143262D01*
X15863362Y-12095643D02*
X15939552Y-12095643D01*
X15891933Y-12028976D02*
X15891933Y-12200405D01*
X15901457Y-12219452D01*
X15920505Y-12228976D01*
X15939552Y-12228976D01*
X16082409Y-12219452D02*
X16063362Y-12228976D01*
X16025266Y-12228976D01*
X16006219Y-12219452D01*
X15996695Y-12200405D01*
X15996695Y-12124214D01*
X16006219Y-12105167D01*
X16025266Y-12095643D01*
X16063362Y-12095643D01*
X16082409Y-12105167D01*
X16091933Y-12124214D01*
X16091933Y-12143262D01*
X15996695Y-12162310D01*
X16263362Y-12228976D02*
X16263362Y-12028976D01*
X16263362Y-12219452D02*
X16244314Y-12228976D01*
X16206219Y-12228976D01*
X16187171Y-12219452D01*
X16177647Y-12209929D01*
X16168124Y-12190881D01*
X16168124Y-12133738D01*
X16177647Y-12114690D01*
X16187171Y-12105167D01*
X16206219Y-12095643D01*
X16244314Y-12095643D01*
X16263362Y-12105167D01*
X16339552Y-12305167D02*
X16349076Y-12295643D01*
X16368124Y-12267071D01*
X16377647Y-12248024D01*
X16387171Y-12219452D01*
X16396695Y-12171833D01*
X16396695Y-12133738D01*
X16387171Y-12086119D01*
X16377647Y-12057548D01*
X16368124Y-12038500D01*
X16349076Y-12009929D01*
X16339552Y-12000405D01*
X9748600Y-12418500D02*
G75*
G03*
X9748600Y-12418500I-100000J0D01*
G01*
X10091933Y-12375643D02*
X10091933Y-12508976D01*
X10044314Y-12299452D02*
X9996695Y-12442310D01*
X10120505Y-12442310D01*
X10196695Y-12489929D02*
X10206219Y-12499452D01*
X10196695Y-12508976D01*
X10187171Y-12499452D01*
X10196695Y-12489929D01*
X10196695Y-12508976D01*
X10272886Y-12308976D02*
X10396695Y-12308976D01*
X10330028Y-12385167D01*
X10358600Y-12385167D01*
X10377648Y-12394690D01*
X10387171Y-12404214D01*
X10396695Y-12423262D01*
X10396695Y-12470881D01*
X10387171Y-12489929D01*
X10377648Y-12499452D01*
X10358600Y-12508976D01*
X10301457Y-12508976D01*
X10282409Y-12499452D01*
X10272886Y-12489929D01*
X10520505Y-12308976D02*
X10539552Y-12308976D01*
X10558600Y-12318500D01*
X10568124Y-12328024D01*
X10577648Y-12347071D01*
X10587171Y-12385167D01*
X10587171Y-12432786D01*
X10577648Y-12470881D01*
X10568124Y-12489929D01*
X10558600Y-12499452D01*
X10539552Y-12508976D01*
X10520505Y-12508976D01*
X10501457Y-12499452D01*
X10491933Y-12489929D01*
X10482409Y-12470881D01*
X10472886Y-12432786D01*
X10472886Y-12385167D01*
X10482409Y-12347071D01*
X10491933Y-12328024D01*
X10501457Y-12318500D01*
X10520505Y-12308976D01*
X10710981Y-12308976D02*
X10730028Y-12308976D01*
X10749076Y-12318500D01*
X10758600Y-12328024D01*
X10768124Y-12347071D01*
X10777648Y-12385167D01*
X10777648Y-12432786D01*
X10768124Y-12470881D01*
X10758600Y-12489929D01*
X10749076Y-12499452D01*
X10730028Y-12508976D01*
X10710981Y-12508976D01*
X10691933Y-12499452D01*
X10682409Y-12489929D01*
X10672886Y-12470881D01*
X10663362Y-12432786D01*
X10663362Y-12385167D01*
X10672886Y-12347071D01*
X10682409Y-12328024D01*
X10691933Y-12318500D01*
X10710981Y-12308976D01*
X10863362Y-12508976D02*
X10863362Y-12375643D01*
X10863362Y-12394690D02*
X10872886Y-12385167D01*
X10891933Y-12375643D01*
X10920505Y-12375643D01*
X10939552Y-12385167D01*
X10949076Y-12404214D01*
X10949076Y-12508976D01*
X10949076Y-12404214D02*
X10958600Y-12385167D01*
X10977648Y-12375643D01*
X11006219Y-12375643D01*
X11025267Y-12385167D01*
X11034790Y-12404214D01*
X11034790Y-12508976D01*
X11130028Y-12508976D02*
X11130028Y-12375643D01*
X11130028Y-12394690D02*
X11139552Y-12385167D01*
X11158600Y-12375643D01*
X11187171Y-12375643D01*
X11206219Y-12385167D01*
X11215743Y-12404214D01*
X11215743Y-12508976D01*
X11215743Y-12404214D02*
X11225266Y-12385167D01*
X11244314Y-12375643D01*
X11272886Y-12375643D01*
X11291933Y-12385167D01*
X11301457Y-12404214D01*
X11301457Y-12508976D01*
X11691933Y-12299452D02*
X11520505Y-12556595D01*
X11949076Y-12308976D02*
X11968124Y-12308976D01*
X11987171Y-12318500D01*
X11996695Y-12328024D01*
X12006219Y-12347071D01*
X12015743Y-12385167D01*
X12015743Y-12432786D01*
X12006219Y-12470881D01*
X11996695Y-12489929D01*
X11987171Y-12499452D01*
X11968124Y-12508976D01*
X11949076Y-12508976D01*
X11930028Y-12499452D01*
X11920505Y-12489929D01*
X11910981Y-12470881D01*
X11901457Y-12432786D01*
X11901457Y-12385167D01*
X11910981Y-12347071D01*
X11920505Y-12328024D01*
X11930028Y-12318500D01*
X11949076Y-12308976D01*
X12101457Y-12489929D02*
X12110981Y-12499452D01*
X12101457Y-12508976D01*
X12091933Y-12499452D01*
X12101457Y-12489929D01*
X12101457Y-12508976D01*
X12301457Y-12508976D02*
X12187171Y-12508976D01*
X12244314Y-12508976D02*
X12244314Y-12308976D01*
X12225266Y-12337548D01*
X12206219Y-12356595D01*
X12187171Y-12366119D01*
X12472886Y-12308976D02*
X12434790Y-12308976D01*
X12415743Y-12318500D01*
X12406219Y-12328024D01*
X12387171Y-12356595D01*
X12377647Y-12394690D01*
X12377647Y-12470881D01*
X12387171Y-12489929D01*
X12396695Y-12499452D01*
X12415743Y-12508976D01*
X12453838Y-12508976D01*
X12472886Y-12499452D01*
X12482409Y-12489929D01*
X12491933Y-12470881D01*
X12491933Y-12423262D01*
X12482409Y-12404214D01*
X12472886Y-12394690D01*
X12453838Y-12385167D01*
X12415743Y-12385167D01*
X12396695Y-12394690D01*
X12387171Y-12404214D01*
X12377647Y-12423262D01*
X12587171Y-12508976D02*
X12625266Y-12508976D01*
X12644314Y-12499452D01*
X12653838Y-12489929D01*
X12672886Y-12461357D01*
X12682409Y-12423262D01*
X12682409Y-12347071D01*
X12672886Y-12328024D01*
X12663362Y-12318500D01*
X12644314Y-12308976D01*
X12606219Y-12308976D01*
X12587171Y-12318500D01*
X12577647Y-12328024D01*
X12568124Y-12347071D01*
X12568124Y-12394690D01*
X12577647Y-12413738D01*
X12587171Y-12423262D01*
X12606219Y-12432786D01*
X12644314Y-12432786D01*
X12663362Y-12423262D01*
X12672886Y-12413738D01*
X12682409Y-12394690D01*
X12749076Y-12308976D02*
X12872886Y-12308976D01*
X12806219Y-12385167D01*
X12834790Y-12385167D01*
X12853838Y-12394690D01*
X12863362Y-12404214D01*
X12872886Y-12423262D01*
X12872886Y-12470881D01*
X12863362Y-12489929D01*
X12853838Y-12499452D01*
X12834790Y-12508976D01*
X12777647Y-12508976D01*
X12758600Y-12499452D01*
X12749076Y-12489929D01*
X12949076Y-12308976D02*
X12949076Y-12347071D01*
X13025266Y-12308976D02*
X13025266Y-12347071D01*
X13320505Y-12585167D02*
X13310981Y-12575643D01*
X13291933Y-12547071D01*
X13282409Y-12528024D01*
X13272886Y-12499452D01*
X13263362Y-12451833D01*
X13263362Y-12413738D01*
X13272886Y-12366119D01*
X13282409Y-12337548D01*
X13291933Y-12318500D01*
X13310981Y-12289929D01*
X13320505Y-12280405D01*
X13387171Y-12328024D02*
X13396695Y-12318500D01*
X13415743Y-12308976D01*
X13463362Y-12308976D01*
X13482409Y-12318500D01*
X13491933Y-12328024D01*
X13501457Y-12347071D01*
X13501457Y-12366119D01*
X13491933Y-12394690D01*
X13377647Y-12508976D01*
X13501457Y-12508976D01*
X13739552Y-12508976D02*
X13739552Y-12308976D01*
X13825266Y-12508976D02*
X13825266Y-12404214D01*
X13815743Y-12385167D01*
X13796695Y-12375643D01*
X13768124Y-12375643D01*
X13749076Y-12385167D01*
X13739552Y-12394690D01*
X13949076Y-12508976D02*
X13930028Y-12499452D01*
X13920505Y-12489929D01*
X13910981Y-12470881D01*
X13910981Y-12413738D01*
X13920505Y-12394690D01*
X13930028Y-12385167D01*
X13949076Y-12375643D01*
X13977647Y-12375643D01*
X13996695Y-12385167D01*
X14006219Y-12394690D01*
X14015743Y-12413738D01*
X14015743Y-12470881D01*
X14006219Y-12489929D01*
X13996695Y-12499452D01*
X13977647Y-12508976D01*
X13949076Y-12508976D01*
X14130028Y-12508976D02*
X14110981Y-12499452D01*
X14101457Y-12480405D01*
X14101457Y-12308976D01*
X14282409Y-12499452D02*
X14263362Y-12508976D01*
X14225266Y-12508976D01*
X14206219Y-12499452D01*
X14196695Y-12480405D01*
X14196695Y-12404214D01*
X14206219Y-12385167D01*
X14225266Y-12375643D01*
X14263362Y-12375643D01*
X14282409Y-12385167D01*
X14291933Y-12404214D01*
X14291933Y-12423262D01*
X14196695Y-12442310D01*
X14368124Y-12499452D02*
X14387171Y-12508976D01*
X14425266Y-12508976D01*
X14444314Y-12499452D01*
X14453838Y-12480405D01*
X14453838Y-12470881D01*
X14444314Y-12451833D01*
X14425266Y-12442310D01*
X14396695Y-12442310D01*
X14377647Y-12432786D01*
X14368124Y-12413738D01*
X14368124Y-12404214D01*
X14377647Y-12385167D01*
X14396695Y-12375643D01*
X14425266Y-12375643D01*
X14444314Y-12385167D01*
X14520505Y-12585167D02*
X14530028Y-12575643D01*
X14549076Y-12547071D01*
X14558600Y-12528024D01*
X14568124Y-12499452D01*
X14577647Y-12451833D01*
X14577647Y-12413738D01*
X14568124Y-12366119D01*
X14558600Y-12337548D01*
X14549076Y-12318500D01*
X14530028Y-12289929D01*
X14520505Y-12280405D01*
X14882409Y-12585167D02*
X14872886Y-12575643D01*
X14853838Y-12547071D01*
X14844314Y-12528024D01*
X14834790Y-12499452D01*
X14825266Y-12451833D01*
X14825266Y-12413738D01*
X14834790Y-12366119D01*
X14844314Y-12337548D01*
X14853838Y-12318500D01*
X14872886Y-12289929D01*
X14882409Y-12280405D01*
X14958600Y-12375643D02*
X14958600Y-12508976D01*
X14958600Y-12394690D02*
X14968124Y-12385167D01*
X14987171Y-12375643D01*
X15015743Y-12375643D01*
X15034790Y-12385167D01*
X15044314Y-12404214D01*
X15044314Y-12508976D01*
X15168124Y-12508976D02*
X15149076Y-12499452D01*
X15139552Y-12489929D01*
X15130028Y-12470881D01*
X15130028Y-12413738D01*
X15139552Y-12394690D01*
X15149076Y-12385167D01*
X15168124Y-12375643D01*
X15196695Y-12375643D01*
X15215743Y-12385167D01*
X15225266Y-12394690D01*
X15234790Y-12413738D01*
X15234790Y-12470881D01*
X15225266Y-12489929D01*
X15215743Y-12499452D01*
X15196695Y-12508976D01*
X15168124Y-12508976D01*
X15291933Y-12375643D02*
X15368124Y-12375643D01*
X15320505Y-12308976D02*
X15320505Y-12480405D01*
X15330028Y-12499452D01*
X15349076Y-12508976D01*
X15368124Y-12508976D01*
X15587171Y-12375643D02*
X15587171Y-12575643D01*
X15587171Y-12385167D02*
X15606219Y-12375643D01*
X15644314Y-12375643D01*
X15663362Y-12385167D01*
X15672886Y-12394690D01*
X15682409Y-12413738D01*
X15682409Y-12470881D01*
X15672886Y-12489929D01*
X15663362Y-12499452D01*
X15644314Y-12508976D01*
X15606219Y-12508976D01*
X15587171Y-12499452D01*
X15796695Y-12508976D02*
X15777647Y-12499452D01*
X15768124Y-12480405D01*
X15768124Y-12308976D01*
X15958600Y-12508976D02*
X15958600Y-12404214D01*
X15949076Y-12385167D01*
X15930028Y-12375643D01*
X15891933Y-12375643D01*
X15872886Y-12385167D01*
X15958600Y-12499452D02*
X15939552Y-12508976D01*
X15891933Y-12508976D01*
X15872886Y-12499452D01*
X15863362Y-12480405D01*
X15863362Y-12461357D01*
X15872886Y-12442310D01*
X15891933Y-12432786D01*
X15939552Y-12432786D01*
X15958600Y-12423262D01*
X16025266Y-12375643D02*
X16101457Y-12375643D01*
X16053838Y-12308976D02*
X16053838Y-12480405D01*
X16063362Y-12499452D01*
X16082409Y-12508976D01*
X16101457Y-12508976D01*
X16244314Y-12499452D02*
X16225266Y-12508976D01*
X16187171Y-12508976D01*
X16168124Y-12499452D01*
X16158600Y-12480405D01*
X16158600Y-12404214D01*
X16168124Y-12385167D01*
X16187171Y-12375643D01*
X16225266Y-12375643D01*
X16244314Y-12385167D01*
X16253838Y-12404214D01*
X16253838Y-12423262D01*
X16158600Y-12442310D01*
X16425266Y-12508976D02*
X16425266Y-12308976D01*
X16425266Y-12499452D02*
X16406219Y-12508976D01*
X16368124Y-12508976D01*
X16349076Y-12499452D01*
X16339552Y-12489929D01*
X16330028Y-12470881D01*
X16330028Y-12413738D01*
X16339552Y-12394690D01*
X16349076Y-12385167D01*
X16368124Y-12375643D01*
X16406219Y-12375643D01*
X16425266Y-12385167D01*
X16501457Y-12585167D02*
X16510981Y-12575643D01*
X16530028Y-12547071D01*
X16539552Y-12528024D01*
X16549076Y-12499452D01*
X16558600Y-12451833D01*
X16558600Y-12413738D01*
X16549076Y-12366119D01*
X16539552Y-12337548D01*
X16530028Y-12318500D01*
X16510981Y-12289929D01*
X16501457Y-12280405D01*
M02*
