%TF.GenerationSoftware,KiCad,Pcbnew,(6.0.9)*%
%TF.CreationDate,2022-12-23T09:31:32-06:00*%
%TF.ProjectId,CatFeeder,43617446-6565-4646-9572-2e6b69636164,rev?*%
%TF.SameCoordinates,Original*%
%TF.FileFunction,Copper,L2,Bot*%
%TF.FilePolarity,Positive*%
%FSLAX46Y46*%
G04 Gerber Fmt 4.6, Leading zero omitted, Abs format (unit mm)*
G04 Created by KiCad (PCBNEW (6.0.9)) date 2022-12-23 09:31:32*
%MOMM*%
%LPD*%
G01*
G04 APERTURE LIST*
G04 Aperture macros list*
%AMRoundRect*
0 Rectangle with rounded corners*
0 $1 Rounding radius*
0 $2 $3 $4 $5 $6 $7 $8 $9 X,Y pos of 4 corners*
0 Add a 4 corners polygon primitive as box body*
4,1,4,$2,$3,$4,$5,$6,$7,$8,$9,$2,$3,0*
0 Add four circle primitives for the rounded corners*
1,1,$1+$1,$2,$3*
1,1,$1+$1,$4,$5*
1,1,$1+$1,$6,$7*
1,1,$1+$1,$8,$9*
0 Add four rect primitives between the rounded corners*
20,1,$1+$1,$2,$3,$4,$5,0*
20,1,$1+$1,$4,$5,$6,$7,0*
20,1,$1+$1,$6,$7,$8,$9,0*
20,1,$1+$1,$8,$9,$2,$3,0*%
G04 Aperture macros list end*
%TA.AperFunction,ComponentPad*%
%ADD10RoundRect,0.250000X0.750000X-0.600000X0.750000X0.600000X-0.750000X0.600000X-0.750000X-0.600000X0*%
%TD*%
%TA.AperFunction,ComponentPad*%
%ADD11O,2.000000X1.700000*%
%TD*%
%TA.AperFunction,ComponentPad*%
%ADD12RoundRect,0.250000X0.600000X0.750000X-0.600000X0.750000X-0.600000X-0.750000X0.600000X-0.750000X0*%
%TD*%
%TA.AperFunction,ComponentPad*%
%ADD13O,1.700000X2.000000*%
%TD*%
%TA.AperFunction,ComponentPad*%
%ADD14R,1.600000X1.600000*%
%TD*%
%TA.AperFunction,ComponentPad*%
%ADD15C,1.600000*%
%TD*%
%TA.AperFunction,ComponentPad*%
%ADD16RoundRect,0.250000X-0.600000X-0.750000X0.600000X-0.750000X0.600000X0.750000X-0.600000X0.750000X0*%
%TD*%
%TA.AperFunction,ComponentPad*%
%ADD17R,1.700000X1.700000*%
%TD*%
%TA.AperFunction,ComponentPad*%
%ADD18O,1.700000X1.700000*%
%TD*%
%TA.AperFunction,ComponentPad*%
%ADD19C,0.630000*%
%TD*%
%TA.AperFunction,SMDPad,CuDef*%
%ADD20R,3.300000X2.600000*%
%TD*%
%TA.AperFunction,ComponentPad*%
%ADD21RoundRect,0.250000X-0.600000X-0.725000X0.600000X-0.725000X0.600000X0.725000X-0.600000X0.725000X0*%
%TD*%
%TA.AperFunction,ComponentPad*%
%ADD22O,1.700000X1.950000*%
%TD*%
%TA.AperFunction,ComponentPad*%
%ADD23RoundRect,0.250000X0.600000X0.725000X-0.600000X0.725000X-0.600000X-0.725000X0.600000X-0.725000X0*%
%TD*%
%TA.AperFunction,ComponentPad*%
%ADD24R,2.000000X4.000000*%
%TD*%
%TA.AperFunction,ComponentPad*%
%ADD25O,2.000000X3.300000*%
%TD*%
%TA.AperFunction,ComponentPad*%
%ADD26O,3.500000X2.000000*%
%TD*%
%TA.AperFunction,ViaPad*%
%ADD27C,0.800000*%
%TD*%
%TA.AperFunction,Conductor*%
%ADD28C,0.400000*%
%TD*%
G04 APERTURE END LIST*
D10*
%TO.P,J1,1,1*%
%TO.N,+5V*%
X101092000Y-99568000D03*
D11*
%TO.P,J1,2,2*%
%TO.N,GND*%
X101092000Y-97068000D03*
%TD*%
D12*
%TO.P,J8,1,1*%
%TO.N,+12V*%
X189972000Y-109745000D03*
D13*
%TO.P,J8,2,2*%
%TO.N,GND*%
X187472000Y-109745000D03*
%TD*%
D14*
%TO.P,C6,1*%
%TO.N,+12V*%
X171221400Y-102385749D03*
D15*
%TO.P,C6,2*%
%TO.N,GND*%
X171221400Y-105885749D03*
%TD*%
D16*
%TO.P,J13,1,1*%
%TO.N,+5V*%
X172395200Y-71721200D03*
D13*
%TO.P,J13,2,2*%
%TO.N,GND*%
X174895200Y-71721200D03*
%TD*%
D14*
%TO.P,C7,1*%
%TO.N,+12V*%
X180086000Y-102387400D03*
D15*
%TO.P,C7,2*%
%TO.N,GND*%
X180086000Y-105887400D03*
%TD*%
D16*
%TO.P,J9,1,1*%
%TO.N,+5V*%
X131775200Y-71704200D03*
D13*
%TO.P,J9,2,2*%
%TO.N,GND*%
X134275200Y-71704200D03*
%TD*%
D16*
%TO.P,J12,1,1*%
%TO.N,+5V*%
X162235200Y-71721200D03*
D13*
%TO.P,J12,2,2*%
%TO.N,GND*%
X164735200Y-71721200D03*
%TD*%
D16*
%TO.P,J2,1,1*%
%TO.N,/MtrOutA*%
X187452000Y-93726000D03*
D13*
%TO.P,J2,2,2*%
%TO.N,/MtrOutB*%
X189952000Y-93726000D03*
%TD*%
D17*
%TO.P,J6,1,Pin_1*%
%TO.N,+3.3V*%
X110134000Y-92725000D03*
D18*
%TO.P,J6,2,Pin_2*%
%TO.N,unconnected-(J6-Pad2)*%
X110134000Y-95265000D03*
%TO.P,J6,3,Pin_3*%
%TO.N,unconnected-(J6-Pad3)*%
X110134000Y-97805000D03*
%TO.P,J6,4,Pin_4*%
%TO.N,unconnected-(J6-Pad4)*%
X110134000Y-100345000D03*
%TO.P,J6,5,Pin_5*%
%TO.N,/DistEcho*%
X110134000Y-102885000D03*
%TO.P,J6,6,Pin_6*%
%TO.N,/DistTrig*%
X110134000Y-105425000D03*
%TO.P,J6,7,Pin_7*%
%TO.N,unconnected-(J6-Pad7)*%
X110134000Y-107965000D03*
%TO.P,J6,8,Pin_8*%
%TO.N,unconnected-(J6-Pad8)*%
X110134000Y-110505000D03*
%TD*%
D16*
%TO.P,J11,1,1*%
%TO.N,+5V*%
X152095200Y-71704200D03*
D13*
%TO.P,J11,2,2*%
%TO.N,GND*%
X154595200Y-71704200D03*
%TD*%
D19*
%TO.P,U3,9,GND*%
%TO.N,GND*%
X188006200Y-85578300D03*
X189306200Y-84278300D03*
X190606200Y-85578300D03*
X189306200Y-85578300D03*
D20*
X189306200Y-84928300D03*
D19*
X188006200Y-84278300D03*
X190606200Y-84278300D03*
%TD*%
D16*
%TO.P,J10,1,1*%
%TO.N,+5V*%
X141935200Y-71704200D03*
D13*
%TO.P,J10,2,2*%
%TO.N,GND*%
X144435200Y-71704200D03*
%TD*%
D14*
%TO.P,C9,1*%
%TO.N,+5V*%
X100556949Y-88468200D03*
D15*
%TO.P,C9,2*%
%TO.N,GND*%
X104056949Y-88468200D03*
%TD*%
D17*
%TO.P,J7,1,Pin_1*%
%TO.N,+5V*%
X132994000Y-92725000D03*
D18*
%TO.P,J7,2,Pin_2*%
%TO.N,GND*%
X132994000Y-95265000D03*
%TO.P,J7,3,Pin_3*%
%TO.N,/LEDCtrl*%
X132994000Y-97805000D03*
%TO.P,J7,4,Pin_4*%
%TO.N,/MtrCtrlB*%
X132994000Y-100345000D03*
%TO.P,J7,5,Pin_5*%
%TO.N,/MtrCtrlA*%
X132994000Y-102885000D03*
%TO.P,J7,6,Pin_6*%
%TO.N,/PwrCtrl*%
X132994000Y-105425000D03*
%TO.P,J7,7,Pin_7*%
%TO.N,unconnected-(J7-Pad7)*%
X132994000Y-107965000D03*
%TO.P,J7,8,Pin_8*%
%TO.N,unconnected-(J7-Pad8)*%
X132994000Y-110505000D03*
%TD*%
D21*
%TO.P,J3,1,1*%
%TO.N,+5V*%
X119075200Y-71848200D03*
D22*
%TO.P,J3,2,2*%
%TO.N,Net-(J3-Pad2)*%
X121575200Y-71848200D03*
%TO.P,J3,3,3*%
%TO.N,GND*%
X124075200Y-71848200D03*
%TD*%
D23*
%TO.P,J5,1,1*%
%TO.N,+5V*%
X148158200Y-109423200D03*
D22*
%TO.P,J5,2,2*%
%TO.N,/DistTrig*%
X145658200Y-109423200D03*
%TO.P,J5,3,3*%
%TO.N,/DistEcho*%
X143158200Y-109423200D03*
%TO.P,J5,4,4*%
%TO.N,GND*%
X140658200Y-109423200D03*
%TD*%
D24*
%TO.P,J4,1*%
%TO.N,+5V*%
X109386000Y-75946000D03*
D25*
%TO.P,J4,2*%
%TO.N,GND*%
X103386000Y-75946000D03*
D26*
%TO.P,J4,MP*%
%TO.N,N/C*%
X102386000Y-71446000D03*
X102386000Y-80446000D03*
%TD*%
D14*
%TO.P,C5,1*%
%TO.N,+5V*%
X162280600Y-102360349D03*
D15*
%TO.P,C5,2*%
%TO.N,GND*%
X162280600Y-105860349D03*
%TD*%
D27*
%TO.N,+5V*%
X160147000Y-92837000D03*
X157861000Y-90551000D03*
%TO.N,GND*%
X164846000Y-93980000D03*
%TO.N,Net-(J3-Pad2)*%
X116689500Y-77112500D03*
%TO.N,GND*%
X174244000Y-91948000D03*
X176530000Y-87630000D03*
X174244000Y-83312000D03*
X174244000Y-87630000D03*
X151384000Y-90424000D03*
X183489600Y-80645000D03*
X154686000Y-111252000D03*
X137541000Y-98298000D03*
X185470800Y-86258400D03*
X160020000Y-87630000D03*
X169799000Y-87503000D03*
X142697200Y-111125000D03*
X169799000Y-85344000D03*
X152527000Y-86360000D03*
X171958000Y-83312000D03*
X171831000Y-87503000D03*
X128168400Y-78409800D03*
X176530000Y-85471000D03*
X117856000Y-81534000D03*
X178943000Y-92989400D03*
X181737000Y-82499200D03*
X121335800Y-81356200D03*
X176530000Y-91948000D03*
X111785400Y-105791000D03*
X169799000Y-89916000D03*
X169799000Y-91948000D03*
X174244000Y-85471000D03*
X182600600Y-84089600D03*
X174244000Y-89916000D03*
X189966600Y-89805100D03*
X171831000Y-89916000D03*
X185312000Y-100851000D03*
X181584600Y-84089600D03*
X112776000Y-73406000D03*
X169799000Y-83312000D03*
X183159400Y-75285600D03*
X171958000Y-85344000D03*
X180568600Y-84089600D03*
X176530000Y-89916000D03*
X171831000Y-91948000D03*
X176530000Y-83312000D03*
X191236600Y-80026100D03*
%TO.N,+12V*%
X156891700Y-91545700D03*
X167386000Y-94513400D03*
%TO.N,/MtrCtrlB*%
X140741400Y-84912200D03*
X140741400Y-97358200D03*
%TO.N,/MtrCtrlA*%
X141732000Y-97967800D03*
X141732000Y-85496400D03*
%TO.N,/PwrCtrl*%
X142722600Y-98501200D03*
X143941800Y-89357200D03*
%TD*%
D28*
%TO.N,+5V*%
X160147000Y-92837000D02*
X157861000Y-90551000D01*
%TO.N,Net-(J3-Pad2)*%
X116689500Y-77112500D02*
X121575200Y-72226800D01*
X121575200Y-72226800D02*
X121575200Y-71848200D01*
%TO.N,+12V*%
X156891700Y-91545700D02*
X160361000Y-95015000D01*
X166884400Y-95015000D02*
X167386000Y-94513400D01*
X160361000Y-95015000D02*
X166884400Y-95015000D01*
%TO.N,/MtrCtrlB*%
X140741400Y-97358200D02*
X140741400Y-84912200D01*
%TO.N,/MtrCtrlA*%
X141732000Y-85496400D02*
X141732000Y-97967800D01*
%TO.N,/PwrCtrl*%
X142722600Y-90576400D02*
X143941800Y-89357200D01*
X142722600Y-98501200D02*
X142722600Y-90576400D01*
%TD*%
%TA.AperFunction,Conductor*%
%TO.N,GND*%
G36*
X192392103Y-68328921D02*
G01*
X192405000Y-68331486D01*
X192417171Y-68329065D01*
X192428812Y-68329065D01*
X192439793Y-68329544D01*
X192461991Y-68331486D01*
X192592415Y-68342897D01*
X192614036Y-68346709D01*
X192785113Y-68392549D01*
X192805749Y-68400060D01*
X192966263Y-68474909D01*
X192985283Y-68485891D01*
X193110904Y-68573851D01*
X193130355Y-68587471D01*
X193147180Y-68601589D01*
X193272411Y-68726820D01*
X193286529Y-68743645D01*
X193388109Y-68888717D01*
X193399091Y-68907737D01*
X193473940Y-69068251D01*
X193481451Y-69088887D01*
X193527291Y-69259964D01*
X193531104Y-69281588D01*
X193544456Y-69434207D01*
X193544935Y-69445188D01*
X193544935Y-69456829D01*
X193542514Y-69469000D01*
X193544935Y-69481170D01*
X193545079Y-69481894D01*
X193547500Y-69506476D01*
X193547501Y-113500525D01*
X193545080Y-113525104D01*
X193542515Y-113538001D01*
X193544936Y-113550172D01*
X193544936Y-113561813D01*
X193544457Y-113572794D01*
X193531105Y-113725413D01*
X193527292Y-113747037D01*
X193520166Y-113773634D01*
X193481453Y-113918112D01*
X193473941Y-113938750D01*
X193399093Y-114099261D01*
X193388111Y-114118282D01*
X193286526Y-114263360D01*
X193272408Y-114280184D01*
X193147184Y-114405408D01*
X193130360Y-114419526D01*
X192985282Y-114521111D01*
X192966261Y-114532093D01*
X192805750Y-114606941D01*
X192785114Y-114614452D01*
X192614037Y-114660292D01*
X192592416Y-114664104D01*
X192479431Y-114673989D01*
X192439794Y-114677457D01*
X192428813Y-114677936D01*
X192417172Y-114677936D01*
X192405001Y-114675515D01*
X192392104Y-114678080D01*
X192367525Y-114680501D01*
X98970475Y-114680501D01*
X98945896Y-114678080D01*
X98932999Y-114675515D01*
X98920828Y-114677936D01*
X98909187Y-114677936D01*
X98898206Y-114677457D01*
X98858569Y-114673989D01*
X98745584Y-114664104D01*
X98723963Y-114660292D01*
X98552886Y-114614452D01*
X98532250Y-114606941D01*
X98371739Y-114532093D01*
X98352718Y-114521111D01*
X98207640Y-114419526D01*
X98190816Y-114405408D01*
X98065592Y-114280184D01*
X98051474Y-114263360D01*
X97949889Y-114118282D01*
X97938907Y-114099261D01*
X97864059Y-113938750D01*
X97856547Y-113918112D01*
X97817834Y-113773634D01*
X97810708Y-113747037D01*
X97806895Y-113725413D01*
X97793543Y-113572794D01*
X97793064Y-113561813D01*
X97793064Y-113550172D01*
X97795485Y-113538001D01*
X97792920Y-113525104D01*
X97790499Y-113500525D01*
X97790499Y-109500103D01*
X100488063Y-109500103D01*
X100488150Y-109504104D01*
X100488150Y-109504111D01*
X100493896Y-109767409D01*
X100494756Y-109806808D01*
X100540365Y-110110177D01*
X100541461Y-110114037D01*
X100541462Y-110114042D01*
X100580005Y-110249797D01*
X100624152Y-110405291D01*
X100744759Y-110687367D01*
X100900230Y-110951832D01*
X101088045Y-111194398D01*
X101090893Y-111197241D01*
X101264200Y-111370245D01*
X101305159Y-111411133D01*
X101308332Y-111413581D01*
X101528687Y-111583584D01*
X101548053Y-111598525D01*
X101551520Y-111600555D01*
X101551523Y-111600557D01*
X101731593Y-111705992D01*
X101812788Y-111753534D01*
X101816473Y-111755102D01*
X101816477Y-111755104D01*
X101989033Y-111828527D01*
X102095074Y-111873648D01*
X102221714Y-111909364D01*
X102386468Y-111955830D01*
X102386477Y-111955832D01*
X102390335Y-111956920D01*
X102526301Y-111977119D01*
X102690483Y-112001510D01*
X102690485Y-112001510D01*
X102693782Y-112002000D01*
X102697113Y-112002140D01*
X102697117Y-112002140D01*
X102733948Y-112003683D01*
X102777292Y-112005500D01*
X102972997Y-112005500D01*
X103097298Y-111997571D01*
X103197548Y-111991176D01*
X103197553Y-111991175D01*
X103201556Y-111990920D01*
X103205495Y-111990158D01*
X103498812Y-111933409D01*
X103498816Y-111933408D01*
X103502749Y-111932647D01*
X103681668Y-111873648D01*
X103790278Y-111837834D01*
X103790283Y-111837832D01*
X103794095Y-111836575D01*
X104070873Y-111704262D01*
X104132013Y-111664784D01*
X104325223Y-111540031D01*
X104325224Y-111540030D01*
X104328596Y-111537853D01*
X104351735Y-111518334D01*
X104560023Y-111342627D01*
X104563084Y-111340045D01*
X104732617Y-111155357D01*
X104767823Y-111117004D01*
X104767825Y-111117002D01*
X104770538Y-111114046D01*
X104772855Y-111110768D01*
X104945276Y-110866797D01*
X104945278Y-110866793D01*
X104947593Y-110863518D01*
X105039221Y-110690828D01*
X105089503Y-110596063D01*
X105089505Y-110596059D01*
X105091381Y-110592523D01*
X105135308Y-110475964D01*
X109025148Y-110475964D01*
X109038424Y-110678522D01*
X109039845Y-110684118D01*
X109039846Y-110684123D01*
X109084713Y-110860785D01*
X109088392Y-110875269D01*
X109090809Y-110880512D01*
X109142967Y-110993651D01*
X109173377Y-111059616D01*
X109176710Y-111064332D01*
X109280500Y-111211192D01*
X109290533Y-111225389D01*
X109435938Y-111367035D01*
X109604720Y-111479812D01*
X109610023Y-111482090D01*
X109610026Y-111482092D01*
X109785921Y-111557662D01*
X109791228Y-111559942D01*
X109864244Y-111576464D01*
X109983579Y-111603467D01*
X109983584Y-111603468D01*
X109989216Y-111604742D01*
X109994987Y-111604969D01*
X109994989Y-111604969D01*
X110054756Y-111607317D01*
X110192053Y-111612712D01*
X110306817Y-111596072D01*
X110387231Y-111584413D01*
X110387236Y-111584412D01*
X110392945Y-111583584D01*
X110398409Y-111581729D01*
X110398414Y-111581728D01*
X110579693Y-111520192D01*
X110579698Y-111520190D01*
X110585165Y-111518334D01*
X110762276Y-111419147D01*
X110768969Y-111413581D01*
X110913913Y-111293031D01*
X110918345Y-111289345D01*
X111026456Y-111159357D01*
X111044453Y-111137718D01*
X111044455Y-111137715D01*
X111048147Y-111133276D01*
X111147334Y-110956165D01*
X111149190Y-110950698D01*
X111149192Y-110950693D01*
X111210728Y-110769414D01*
X111210729Y-110769409D01*
X111212584Y-110763945D01*
X111213412Y-110758236D01*
X111213413Y-110758231D01*
X111230991Y-110636996D01*
X111241712Y-110563053D01*
X111243232Y-110505000D01*
X111240564Y-110475964D01*
X131885148Y-110475964D01*
X131898424Y-110678522D01*
X131899845Y-110684118D01*
X131899846Y-110684123D01*
X131944713Y-110860785D01*
X131948392Y-110875269D01*
X131950809Y-110880512D01*
X132002967Y-110993651D01*
X132033377Y-111059616D01*
X132036710Y-111064332D01*
X132140500Y-111211192D01*
X132150533Y-111225389D01*
X132295938Y-111367035D01*
X132464720Y-111479812D01*
X132470023Y-111482090D01*
X132470026Y-111482092D01*
X132645921Y-111557662D01*
X132651228Y-111559942D01*
X132724244Y-111576464D01*
X132843579Y-111603467D01*
X132843584Y-111603468D01*
X132849216Y-111604742D01*
X132854987Y-111604969D01*
X132854989Y-111604969D01*
X132914756Y-111607317D01*
X133052053Y-111612712D01*
X133166817Y-111596072D01*
X133247231Y-111584413D01*
X133247236Y-111584412D01*
X133252945Y-111583584D01*
X133258409Y-111581729D01*
X133258414Y-111581728D01*
X133439693Y-111520192D01*
X133439698Y-111520190D01*
X133445165Y-111518334D01*
X133622276Y-111419147D01*
X133628969Y-111413581D01*
X133773913Y-111293031D01*
X133778345Y-111289345D01*
X133886456Y-111159357D01*
X133904453Y-111137718D01*
X133904455Y-111137715D01*
X133908147Y-111133276D01*
X134007334Y-110956165D01*
X134009190Y-110950698D01*
X134009192Y-110950693D01*
X134070728Y-110769414D01*
X134070729Y-110769409D01*
X134072584Y-110763945D01*
X134073412Y-110758236D01*
X134073413Y-110758231D01*
X134090991Y-110636996D01*
X134101712Y-110563053D01*
X134103232Y-110505000D01*
X134085242Y-110309216D01*
X134085187Y-110308613D01*
X134085186Y-110308610D01*
X134084658Y-110302859D01*
X134083090Y-110297299D01*
X134031125Y-110113046D01*
X134031124Y-110113044D01*
X134029557Y-110107487D01*
X134018978Y-110086033D01*
X133942331Y-109930609D01*
X133939776Y-109925428D01*
X133818320Y-109762779D01*
X133743259Y-109693393D01*
X139307610Y-109693393D01*
X139314324Y-109772525D01*
X139316114Y-109782997D01*
X139371330Y-109995735D01*
X139374865Y-110005775D01*
X139465137Y-110206170D01*
X139470306Y-110215456D01*
X139593050Y-110397775D01*
X139599719Y-110406070D01*
X139751428Y-110565100D01*
X139759386Y-110572141D01*
X139935725Y-110703341D01*
X139944762Y-110708945D01*
X140140684Y-110808557D01*
X140150535Y-110812557D01*
X140360440Y-110877734D01*
X140370824Y-110880017D01*
X140386243Y-110882061D01*
X140400407Y-110879865D01*
X140404200Y-110866678D01*
X140404200Y-110864392D01*
X140912200Y-110864392D01*
X140916173Y-110877923D01*
X140926780Y-110879448D01*
X141044621Y-110854723D01*
X141054817Y-110851663D01*
X141259229Y-110770937D01*
X141268761Y-110766206D01*
X141456662Y-110652184D01*
X141465252Y-110645920D01*
X141631252Y-110501873D01*
X141638672Y-110494242D01*
X141778026Y-110324289D01*
X141784050Y-110315522D01*
X141892776Y-110124518D01*
X141897241Y-110114855D01*
X141927166Y-110032412D01*
X141969210Y-109975204D01*
X142035509Y-109949808D01*
X142105014Y-109964288D01*
X142157621Y-110017710D01*
X142224524Y-110147610D01*
X142228228Y-110152325D01*
X142351008Y-110308632D01*
X142351012Y-110308636D01*
X142354714Y-110313349D01*
X142359244Y-110317280D01*
X142359245Y-110317281D01*
X142509365Y-110447550D01*
X142509370Y-110447554D01*
X142513896Y-110451481D01*
X142696326Y-110557019D01*
X142895422Y-110626157D01*
X142901355Y-110627017D01*
X142901358Y-110627018D01*
X143098060Y-110655538D01*
X143098063Y-110655538D01*
X143104000Y-110656399D01*
X143314533Y-110646655D01*
X143320357Y-110645251D01*
X143320360Y-110645251D01*
X143513593Y-110598682D01*
X143513595Y-110598681D01*
X143519426Y-110597276D01*
X143524884Y-110594794D01*
X143524888Y-110594793D01*
X143667224Y-110530076D01*
X143711284Y-110510043D01*
X143866210Y-110400146D01*
X143878300Y-110391570D01*
X143878301Y-110391569D01*
X143883186Y-110388104D01*
X144028928Y-110235860D01*
X144085910Y-110147610D01*
X144140000Y-110063840D01*
X144140001Y-110063837D01*
X144143252Y-110058803D01*
X144222034Y-109863322D01*
X144262429Y-109656471D01*
X144262700Y-109650930D01*
X144262700Y-109600859D01*
X144553700Y-109600859D01*
X144568693Y-109758006D01*
X144570383Y-109763766D01*
X144570383Y-109763767D01*
X144583010Y-109806808D01*
X144628023Y-109960242D01*
X144630773Y-109965581D01*
X144715350Y-110129797D01*
X144724524Y-110147610D01*
X144728228Y-110152325D01*
X144851008Y-110308632D01*
X144851012Y-110308636D01*
X144854714Y-110313349D01*
X144859244Y-110317280D01*
X144859245Y-110317281D01*
X145009365Y-110447550D01*
X145009370Y-110447554D01*
X145013896Y-110451481D01*
X145196326Y-110557019D01*
X145395422Y-110626157D01*
X145401355Y-110627017D01*
X145401358Y-110627018D01*
X145598060Y-110655538D01*
X145598063Y-110655538D01*
X145604000Y-110656399D01*
X145814533Y-110646655D01*
X145820357Y-110645251D01*
X145820360Y-110645251D01*
X146013593Y-110598682D01*
X146013595Y-110598681D01*
X146019426Y-110597276D01*
X146024884Y-110594794D01*
X146024888Y-110594793D01*
X146167224Y-110530076D01*
X146211284Y-110510043D01*
X146366210Y-110400146D01*
X146378300Y-110391570D01*
X146378301Y-110391569D01*
X146383186Y-110388104D01*
X146528928Y-110235860D01*
X146554694Y-110195956D01*
X147053700Y-110195956D01*
X147060402Y-110257648D01*
X147063174Y-110265041D01*
X147063174Y-110265043D01*
X147066674Y-110274378D01*
X147111129Y-110392964D01*
X147116509Y-110400143D01*
X147116511Y-110400146D01*
X147154985Y-110451481D01*
X147197796Y-110508604D01*
X147204976Y-110513985D01*
X147306254Y-110589889D01*
X147306257Y-110589891D01*
X147313436Y-110595271D01*
X147398122Y-110627018D01*
X147441357Y-110643226D01*
X147441359Y-110643226D01*
X147448752Y-110645998D01*
X147456602Y-110646851D01*
X147456603Y-110646851D01*
X147457349Y-110646932D01*
X147510444Y-110652700D01*
X148805956Y-110652700D01*
X148859051Y-110646932D01*
X148859797Y-110646851D01*
X148859798Y-110646851D01*
X148867648Y-110645998D01*
X148875041Y-110643226D01*
X148875043Y-110643226D01*
X148918278Y-110627018D01*
X149002964Y-110595271D01*
X149010143Y-110589891D01*
X149010146Y-110589889D01*
X149111424Y-110513985D01*
X149118604Y-110508604D01*
X149161415Y-110451481D01*
X149199889Y-110400146D01*
X149199891Y-110400143D01*
X149205271Y-110392964D01*
X149249726Y-110274378D01*
X149253226Y-110265043D01*
X149253226Y-110265041D01*
X149255998Y-110257648D01*
X149262700Y-110195956D01*
X149262700Y-110015193D01*
X186119289Y-110015193D01*
X186128124Y-110119325D01*
X186129914Y-110129797D01*
X186185130Y-110342535D01*
X186188665Y-110352575D01*
X186278937Y-110552970D01*
X186284106Y-110562256D01*
X186406850Y-110744575D01*
X186413519Y-110752870D01*
X186565228Y-110911900D01*
X186573186Y-110918941D01*
X186749525Y-111050141D01*
X186758562Y-111055745D01*
X186954484Y-111155357D01*
X186964335Y-111159357D01*
X187174240Y-111224534D01*
X187184624Y-111226817D01*
X187200043Y-111228861D01*
X187214207Y-111226665D01*
X187218000Y-111213478D01*
X187218000Y-111211192D01*
X187726000Y-111211192D01*
X187729973Y-111224723D01*
X187740580Y-111226248D01*
X187858421Y-111201523D01*
X187868617Y-111198463D01*
X188073029Y-111117737D01*
X188082561Y-111113006D01*
X188270462Y-110998984D01*
X188279052Y-110992720D01*
X188445052Y-110848673D01*
X188452472Y-110841042D01*
X188591826Y-110671089D01*
X188597848Y-110662326D01*
X188645061Y-110579383D01*
X188696144Y-110530076D01*
X188765774Y-110516214D01*
X188831845Y-110542197D01*
X188873380Y-110599776D01*
X188873878Y-110601468D01*
X188874202Y-110604448D01*
X188924929Y-110739764D01*
X188930309Y-110746943D01*
X188930311Y-110746946D01*
X188976486Y-110808557D01*
X189011596Y-110855404D01*
X189032023Y-110870713D01*
X189120054Y-110936689D01*
X189120057Y-110936691D01*
X189127236Y-110942071D01*
X189178285Y-110961208D01*
X189255157Y-110990026D01*
X189255159Y-110990026D01*
X189262552Y-110992798D01*
X189270402Y-110993651D01*
X189270403Y-110993651D01*
X189319494Y-110998984D01*
X189324244Y-110999500D01*
X190619756Y-110999500D01*
X190624506Y-110998984D01*
X190673597Y-110993651D01*
X190673598Y-110993651D01*
X190681448Y-110992798D01*
X190688841Y-110990026D01*
X190688843Y-110990026D01*
X190765715Y-110961208D01*
X190816764Y-110942071D01*
X190823943Y-110936691D01*
X190823946Y-110936689D01*
X190911977Y-110870713D01*
X190932404Y-110855404D01*
X190967514Y-110808557D01*
X191013689Y-110746946D01*
X191013691Y-110746943D01*
X191019071Y-110739764D01*
X191069798Y-110604448D01*
X191071094Y-110592523D01*
X191076131Y-110546153D01*
X191076131Y-110546152D01*
X191076500Y-110542756D01*
X191076500Y-108947244D01*
X191069798Y-108885552D01*
X191019071Y-108750236D01*
X191013691Y-108743057D01*
X191013689Y-108743054D01*
X190937785Y-108641776D01*
X190932404Y-108634596D01*
X190898888Y-108609477D01*
X190823946Y-108553311D01*
X190823943Y-108553309D01*
X190816764Y-108547929D01*
X190727046Y-108514296D01*
X190688843Y-108499974D01*
X190688841Y-108499974D01*
X190681448Y-108497202D01*
X190673598Y-108496349D01*
X190673597Y-108496349D01*
X190623153Y-108490869D01*
X190623152Y-108490869D01*
X190619756Y-108490500D01*
X189324244Y-108490500D01*
X189320848Y-108490869D01*
X189320847Y-108490869D01*
X189270403Y-108496349D01*
X189270402Y-108496349D01*
X189262552Y-108497202D01*
X189255159Y-108499974D01*
X189255157Y-108499974D01*
X189216954Y-108514296D01*
X189127236Y-108547929D01*
X189120057Y-108553309D01*
X189120054Y-108553311D01*
X189045112Y-108609477D01*
X189011596Y-108634596D01*
X189006215Y-108641776D01*
X188930311Y-108743054D01*
X188930309Y-108743057D01*
X188924929Y-108750236D01*
X188874202Y-108885552D01*
X188871680Y-108884607D01*
X188842915Y-108934974D01*
X188779964Y-108967803D01*
X188709258Y-108961386D01*
X188651018Y-108914560D01*
X188537150Y-108745425D01*
X188530481Y-108737130D01*
X188378772Y-108578100D01*
X188370814Y-108571059D01*
X188194475Y-108439859D01*
X188185438Y-108434255D01*
X187989516Y-108334643D01*
X187979665Y-108330643D01*
X187769760Y-108265466D01*
X187759376Y-108263183D01*
X187743957Y-108261139D01*
X187729793Y-108263335D01*
X187726000Y-108276522D01*
X187726000Y-111211192D01*
X187218000Y-111211192D01*
X187218000Y-110017115D01*
X187213525Y-110001876D01*
X187212135Y-110000671D01*
X187204452Y-109999000D01*
X186136030Y-109999000D01*
X186121352Y-110003310D01*
X186119289Y-110015193D01*
X149262700Y-110015193D01*
X149262700Y-109475376D01*
X186114732Y-109475376D01*
X186118475Y-109488124D01*
X186119865Y-109489329D01*
X186127548Y-109491000D01*
X187199885Y-109491000D01*
X187215124Y-109486525D01*
X187216329Y-109485135D01*
X187218000Y-109477452D01*
X187218000Y-108278808D01*
X187214027Y-108265277D01*
X187203420Y-108263752D01*
X187085579Y-108288477D01*
X187075383Y-108291537D01*
X186870971Y-108372263D01*
X186861439Y-108376994D01*
X186673538Y-108491016D01*
X186664948Y-108497280D01*
X186498948Y-108641327D01*
X186491528Y-108648958D01*
X186352174Y-108818911D01*
X186346150Y-108827678D01*
X186237424Y-109018682D01*
X186232959Y-109028346D01*
X186157969Y-109234941D01*
X186155198Y-109245208D01*
X186115877Y-109462655D01*
X186114944Y-109470884D01*
X186114732Y-109475376D01*
X149262700Y-109475376D01*
X149262700Y-108650444D01*
X149258365Y-108610540D01*
X149256851Y-108596603D01*
X149256851Y-108596602D01*
X149255998Y-108588752D01*
X149205271Y-108453436D01*
X149199891Y-108446257D01*
X149199889Y-108446254D01*
X149123985Y-108344976D01*
X149118604Y-108337796D01*
X149058015Y-108292387D01*
X149010146Y-108256511D01*
X149010143Y-108256509D01*
X149002964Y-108251129D01*
X148913246Y-108217496D01*
X148875043Y-108203174D01*
X148875041Y-108203174D01*
X148867648Y-108200402D01*
X148859798Y-108199549D01*
X148859797Y-108199549D01*
X148809353Y-108194069D01*
X148809352Y-108194069D01*
X148805956Y-108193700D01*
X147510444Y-108193700D01*
X147507048Y-108194069D01*
X147507047Y-108194069D01*
X147456603Y-108199549D01*
X147456602Y-108199549D01*
X147448752Y-108200402D01*
X147441359Y-108203174D01*
X147441357Y-108203174D01*
X147403154Y-108217496D01*
X147313436Y-108251129D01*
X147306257Y-108256509D01*
X147306254Y-108256511D01*
X147258385Y-108292387D01*
X147197796Y-108337796D01*
X147192415Y-108344976D01*
X147116511Y-108446254D01*
X147116509Y-108446257D01*
X147111129Y-108453436D01*
X147060402Y-108588752D01*
X147059549Y-108596602D01*
X147059549Y-108596603D01*
X147058035Y-108610540D01*
X147053700Y-108650444D01*
X147053700Y-110195956D01*
X146554694Y-110195956D01*
X146585910Y-110147610D01*
X146640000Y-110063840D01*
X146640001Y-110063837D01*
X146643252Y-110058803D01*
X146722034Y-109863322D01*
X146762429Y-109656471D01*
X146762700Y-109650930D01*
X146762700Y-109245541D01*
X146747707Y-109088394D01*
X146704118Y-108939812D01*
X146690068Y-108891922D01*
X146688377Y-108886158D01*
X146637615Y-108787597D01*
X146594622Y-108704121D01*
X146594620Y-108704118D01*
X146591876Y-108698790D01*
X146521720Y-108609477D01*
X146465392Y-108537768D01*
X146465388Y-108537764D01*
X146461686Y-108533051D01*
X146457155Y-108529119D01*
X146307035Y-108398850D01*
X146307030Y-108398846D01*
X146302504Y-108394919D01*
X146120074Y-108289381D01*
X145920978Y-108220243D01*
X145915045Y-108219383D01*
X145915042Y-108219382D01*
X145718340Y-108190862D01*
X145718337Y-108190862D01*
X145712400Y-108190001D01*
X145501867Y-108199745D01*
X145496043Y-108201149D01*
X145496040Y-108201149D01*
X145302807Y-108247718D01*
X145302805Y-108247719D01*
X145296974Y-108249124D01*
X145291516Y-108251606D01*
X145291512Y-108251607D01*
X145226207Y-108281300D01*
X145105116Y-108336357D01*
X145026794Y-108391915D01*
X144946848Y-108448625D01*
X144933214Y-108458296D01*
X144787472Y-108610540D01*
X144784221Y-108615575D01*
X144697272Y-108750236D01*
X144673148Y-108787597D01*
X144594366Y-108983078D01*
X144573799Y-109088394D01*
X144558915Y-109164614D01*
X144553971Y-109189929D01*
X144553700Y-109195470D01*
X144553700Y-109600859D01*
X144262700Y-109600859D01*
X144262700Y-109245541D01*
X144247707Y-109088394D01*
X144204118Y-108939812D01*
X144190068Y-108891922D01*
X144188377Y-108886158D01*
X144137615Y-108787597D01*
X144094622Y-108704121D01*
X144094620Y-108704118D01*
X144091876Y-108698790D01*
X144021720Y-108609477D01*
X143965392Y-108537768D01*
X143965388Y-108537764D01*
X143961686Y-108533051D01*
X143957155Y-108529119D01*
X143807035Y-108398850D01*
X143807030Y-108398846D01*
X143802504Y-108394919D01*
X143620074Y-108289381D01*
X143420978Y-108220243D01*
X143415045Y-108219383D01*
X143415042Y-108219382D01*
X143218340Y-108190862D01*
X143218337Y-108190862D01*
X143212400Y-108190001D01*
X143001867Y-108199745D01*
X142996043Y-108201149D01*
X142996040Y-108201149D01*
X142802807Y-108247718D01*
X142802805Y-108247719D01*
X142796974Y-108249124D01*
X142791516Y-108251606D01*
X142791512Y-108251607D01*
X142726207Y-108281300D01*
X142605116Y-108336357D01*
X142526794Y-108391915D01*
X142446848Y-108448625D01*
X142433214Y-108458296D01*
X142287472Y-108610540D01*
X142284221Y-108615575D01*
X142197272Y-108750236D01*
X142173148Y-108787597D01*
X142170905Y-108793163D01*
X142162920Y-108812974D01*
X142118904Y-108868679D01*
X142051758Y-108891744D01*
X141982802Y-108874846D01*
X141931173Y-108817624D01*
X141851263Y-108640230D01*
X141846094Y-108630944D01*
X141723350Y-108448625D01*
X141716681Y-108440330D01*
X141564972Y-108281300D01*
X141557014Y-108274259D01*
X141380675Y-108143059D01*
X141371638Y-108137455D01*
X141175716Y-108037843D01*
X141165865Y-108033843D01*
X140955960Y-107968666D01*
X140945576Y-107966383D01*
X140930157Y-107964339D01*
X140915993Y-107966535D01*
X140912200Y-107979722D01*
X140912200Y-110864392D01*
X140404200Y-110864392D01*
X140404200Y-109695315D01*
X140399725Y-109680076D01*
X140398335Y-109678871D01*
X140390652Y-109677200D01*
X139324351Y-109677200D01*
X139309673Y-109681510D01*
X139307610Y-109693393D01*
X133743259Y-109693393D01*
X133727549Y-109678871D01*
X133673503Y-109628911D01*
X133669258Y-109624987D01*
X133664375Y-109621906D01*
X133664371Y-109621903D01*
X133502464Y-109519748D01*
X133497581Y-109516667D01*
X133309039Y-109441446D01*
X133303379Y-109440320D01*
X133303375Y-109440319D01*
X133115613Y-109402971D01*
X133115610Y-109402971D01*
X133109946Y-109401844D01*
X133104171Y-109401768D01*
X133104167Y-109401768D01*
X133002793Y-109400441D01*
X132906971Y-109399187D01*
X132901274Y-109400166D01*
X132901273Y-109400166D01*
X132712607Y-109432585D01*
X132706910Y-109433564D01*
X132516463Y-109503824D01*
X132342010Y-109607612D01*
X132337670Y-109611418D01*
X132337666Y-109611421D01*
X132262660Y-109677200D01*
X132189392Y-109741455D01*
X132063720Y-109900869D01*
X132061031Y-109905980D01*
X132061029Y-109905983D01*
X132048073Y-109930609D01*
X131969203Y-110080515D01*
X131909007Y-110274378D01*
X131885148Y-110475964D01*
X111240564Y-110475964D01*
X111225242Y-110309216D01*
X111225187Y-110308613D01*
X111225186Y-110308610D01*
X111224658Y-110302859D01*
X111223090Y-110297299D01*
X111171125Y-110113046D01*
X111171124Y-110113044D01*
X111169557Y-110107487D01*
X111158978Y-110086033D01*
X111082331Y-109930609D01*
X111079776Y-109925428D01*
X110958320Y-109762779D01*
X110867549Y-109678871D01*
X110813503Y-109628911D01*
X110809258Y-109624987D01*
X110804375Y-109621906D01*
X110804371Y-109621903D01*
X110642464Y-109519748D01*
X110637581Y-109516667D01*
X110449039Y-109441446D01*
X110443379Y-109440320D01*
X110443375Y-109440319D01*
X110255613Y-109402971D01*
X110255610Y-109402971D01*
X110249946Y-109401844D01*
X110244171Y-109401768D01*
X110244167Y-109401768D01*
X110142793Y-109400441D01*
X110046971Y-109399187D01*
X110041274Y-109400166D01*
X110041273Y-109400166D01*
X109852607Y-109432585D01*
X109846910Y-109433564D01*
X109656463Y-109503824D01*
X109482010Y-109607612D01*
X109477670Y-109611418D01*
X109477666Y-109611421D01*
X109402660Y-109677200D01*
X109329392Y-109741455D01*
X109203720Y-109900869D01*
X109201031Y-109905980D01*
X109201029Y-109905983D01*
X109188073Y-109930609D01*
X109109203Y-110080515D01*
X109049007Y-110274378D01*
X109025148Y-110475964D01*
X105135308Y-110475964D01*
X105199568Y-110305455D01*
X105245910Y-110110177D01*
X105269474Y-110010883D01*
X105269475Y-110010878D01*
X105270403Y-110006967D01*
X105302737Y-109701897D01*
X105302594Y-109695315D01*
X105296132Y-109399209D01*
X105296132Y-109399204D01*
X105296044Y-109395192D01*
X105259388Y-109151374D01*
X139304696Y-109151374D01*
X139306115Y-109164614D01*
X139320750Y-109169200D01*
X140386085Y-109169200D01*
X140401324Y-109164725D01*
X140402529Y-109163335D01*
X140404200Y-109155652D01*
X140404200Y-107982008D01*
X140400227Y-107968477D01*
X140389620Y-107966952D01*
X140271779Y-107991677D01*
X140261583Y-107994737D01*
X140057171Y-108075463D01*
X140047639Y-108080194D01*
X139859738Y-108194216D01*
X139851148Y-108200480D01*
X139685148Y-108344527D01*
X139677728Y-108352158D01*
X139538374Y-108522111D01*
X139532350Y-108530878D01*
X139423624Y-108721882D01*
X139419159Y-108731546D01*
X139344169Y-108938141D01*
X139341398Y-108948408D01*
X139304696Y-109151374D01*
X105259388Y-109151374D01*
X105250435Y-109091823D01*
X105242747Y-109064742D01*
X105205903Y-108934974D01*
X105166648Y-108796709D01*
X105046041Y-108514633D01*
X104890570Y-108250168D01*
X104702755Y-108007602D01*
X104630992Y-107935964D01*
X109025148Y-107935964D01*
X109038424Y-108138522D01*
X109039845Y-108144118D01*
X109039846Y-108144123D01*
X109074685Y-108281300D01*
X109088392Y-108335269D01*
X109090809Y-108340512D01*
X109128010Y-108421208D01*
X109173377Y-108519616D01*
X109191160Y-108544779D01*
X109259711Y-108641776D01*
X109290533Y-108685389D01*
X109294675Y-108689424D01*
X109304290Y-108698790D01*
X109435938Y-108827035D01*
X109604720Y-108939812D01*
X109610023Y-108942090D01*
X109610026Y-108942092D01*
X109785921Y-109017662D01*
X109791228Y-109019942D01*
X109864244Y-109036464D01*
X109983579Y-109063467D01*
X109983584Y-109063468D01*
X109989216Y-109064742D01*
X109994987Y-109064969D01*
X109994989Y-109064969D01*
X110054756Y-109067317D01*
X110192053Y-109072712D01*
X110292499Y-109058148D01*
X110387231Y-109044413D01*
X110387236Y-109044412D01*
X110392945Y-109043584D01*
X110398409Y-109041729D01*
X110398414Y-109041728D01*
X110579693Y-108980192D01*
X110579698Y-108980190D01*
X110585165Y-108978334D01*
X110603970Y-108967803D01*
X110662590Y-108934974D01*
X110762276Y-108879147D01*
X110767448Y-108874846D01*
X110913913Y-108753031D01*
X110918345Y-108749345D01*
X111000601Y-108650444D01*
X111044453Y-108597718D01*
X111044455Y-108597715D01*
X111048147Y-108593276D01*
X111121755Y-108461840D01*
X111144510Y-108421208D01*
X111144511Y-108421206D01*
X111147334Y-108416165D01*
X111149190Y-108410698D01*
X111149192Y-108410693D01*
X111210728Y-108229414D01*
X111210729Y-108229409D01*
X111212584Y-108223945D01*
X111213412Y-108218236D01*
X111213413Y-108218231D01*
X111234113Y-108075463D01*
X111241712Y-108023053D01*
X111243232Y-107965000D01*
X111240564Y-107935964D01*
X131885148Y-107935964D01*
X131898424Y-108138522D01*
X131899845Y-108144118D01*
X131899846Y-108144123D01*
X131934685Y-108281300D01*
X131948392Y-108335269D01*
X131950809Y-108340512D01*
X131988010Y-108421208D01*
X132033377Y-108519616D01*
X132051160Y-108544779D01*
X132119711Y-108641776D01*
X132150533Y-108685389D01*
X132154675Y-108689424D01*
X132164290Y-108698790D01*
X132295938Y-108827035D01*
X132464720Y-108939812D01*
X132470023Y-108942090D01*
X132470026Y-108942092D01*
X132645921Y-109017662D01*
X132651228Y-109019942D01*
X132724244Y-109036464D01*
X132843579Y-109063467D01*
X132843584Y-109063468D01*
X132849216Y-109064742D01*
X132854987Y-109064969D01*
X132854989Y-109064969D01*
X132914756Y-109067317D01*
X133052053Y-109072712D01*
X133152499Y-109058148D01*
X133247231Y-109044413D01*
X133247236Y-109044412D01*
X133252945Y-109043584D01*
X133258409Y-109041729D01*
X133258414Y-109041728D01*
X133439693Y-108980192D01*
X133439698Y-108980190D01*
X133445165Y-108978334D01*
X133463970Y-108967803D01*
X133522590Y-108934974D01*
X133622276Y-108879147D01*
X133627448Y-108874846D01*
X133773913Y-108753031D01*
X133778345Y-108749345D01*
X133860601Y-108650444D01*
X133904453Y-108597718D01*
X133904455Y-108597715D01*
X133908147Y-108593276D01*
X133981755Y-108461840D01*
X134004510Y-108421208D01*
X134004511Y-108421206D01*
X134007334Y-108416165D01*
X134009190Y-108410698D01*
X134009192Y-108410693D01*
X134070728Y-108229414D01*
X134070729Y-108229409D01*
X134072584Y-108223945D01*
X134073412Y-108218236D01*
X134073413Y-108218231D01*
X134094113Y-108075463D01*
X134101712Y-108023053D01*
X134103232Y-107965000D01*
X134084658Y-107762859D01*
X134083090Y-107757299D01*
X134031125Y-107573046D01*
X134031124Y-107573044D01*
X134029557Y-107567487D01*
X134018978Y-107546033D01*
X133942331Y-107390609D01*
X133939776Y-107385428D01*
X133818320Y-107222779D01*
X133669258Y-107084987D01*
X133664375Y-107081906D01*
X133664371Y-107081903D01*
X133502464Y-106979748D01*
X133497581Y-106976667D01*
X133421744Y-106946411D01*
X161559093Y-106946411D01*
X161568389Y-106958426D01*
X161619594Y-106994280D01*
X161629089Y-106999763D01*
X161826547Y-107091839D01*
X161836839Y-107095585D01*
X162047288Y-107151974D01*
X162058081Y-107153877D01*
X162275125Y-107172866D01*
X162286075Y-107172866D01*
X162503119Y-107153877D01*
X162513912Y-107151974D01*
X162724361Y-107095585D01*
X162734653Y-107091839D01*
X162932111Y-106999763D01*
X162941606Y-106994280D01*
X162973695Y-106971811D01*
X170499893Y-106971811D01*
X170509189Y-106983826D01*
X170560394Y-107019680D01*
X170569889Y-107025163D01*
X170767347Y-107117239D01*
X170777639Y-107120985D01*
X170988088Y-107177374D01*
X170998881Y-107179277D01*
X171215925Y-107198266D01*
X171226875Y-107198266D01*
X171443919Y-107179277D01*
X171454712Y-107177374D01*
X171665161Y-107120985D01*
X171675453Y-107117239D01*
X171872911Y-107025163D01*
X171882406Y-107019680D01*
X171934448Y-106983240D01*
X171942264Y-106973462D01*
X179364493Y-106973462D01*
X179373789Y-106985477D01*
X179424994Y-107021331D01*
X179434489Y-107026814D01*
X179631947Y-107118890D01*
X179642239Y-107122636D01*
X179852688Y-107179025D01*
X179863481Y-107180928D01*
X180080525Y-107199917D01*
X180091475Y-107199917D01*
X180308519Y-107180928D01*
X180319312Y-107179025D01*
X180529761Y-107122636D01*
X180540053Y-107118890D01*
X180737511Y-107026814D01*
X180747006Y-107021331D01*
X180799048Y-106984891D01*
X180807424Y-106974412D01*
X180800356Y-106960966D01*
X180098812Y-106259422D01*
X180084868Y-106251808D01*
X180083035Y-106251939D01*
X180076420Y-106256190D01*
X179370923Y-106961687D01*
X179364493Y-106973462D01*
X171942264Y-106973462D01*
X171942824Y-106972761D01*
X171935756Y-106959315D01*
X171234212Y-106257771D01*
X171220268Y-106250157D01*
X171218435Y-106250288D01*
X171211820Y-106254539D01*
X170506323Y-106960036D01*
X170499893Y-106971811D01*
X162973695Y-106971811D01*
X162993648Y-106957840D01*
X163002024Y-106947361D01*
X162994956Y-106933915D01*
X162293412Y-106232371D01*
X162279468Y-106224757D01*
X162277635Y-106224888D01*
X162271020Y-106229139D01*
X161565523Y-106934636D01*
X161559093Y-106946411D01*
X133421744Y-106946411D01*
X133309039Y-106901446D01*
X133303379Y-106900320D01*
X133303375Y-106900319D01*
X133115613Y-106862971D01*
X133115610Y-106862971D01*
X133109946Y-106861844D01*
X133104171Y-106861768D01*
X133104167Y-106861768D01*
X133002793Y-106860441D01*
X132906971Y-106859187D01*
X132901274Y-106860166D01*
X132901273Y-106860166D01*
X132712607Y-106892585D01*
X132706910Y-106893564D01*
X132516463Y-106963824D01*
X132342010Y-107067612D01*
X132337670Y-107071418D01*
X132337666Y-107071421D01*
X132281150Y-107120985D01*
X132189392Y-107201455D01*
X132185817Y-107205990D01*
X132185816Y-107205991D01*
X132175675Y-107218855D01*
X132063720Y-107360869D01*
X132061031Y-107365980D01*
X132061029Y-107365983D01*
X132048073Y-107390609D01*
X131969203Y-107540515D01*
X131909007Y-107734378D01*
X131885148Y-107935964D01*
X111240564Y-107935964D01*
X111224658Y-107762859D01*
X111223090Y-107757299D01*
X111171125Y-107573046D01*
X111171124Y-107573044D01*
X111169557Y-107567487D01*
X111158978Y-107546033D01*
X111082331Y-107390609D01*
X111079776Y-107385428D01*
X110958320Y-107222779D01*
X110809258Y-107084987D01*
X110804375Y-107081906D01*
X110804371Y-107081903D01*
X110642464Y-106979748D01*
X110637581Y-106976667D01*
X110449039Y-106901446D01*
X110443379Y-106900320D01*
X110443375Y-106900319D01*
X110255613Y-106862971D01*
X110255610Y-106862971D01*
X110249946Y-106861844D01*
X110244171Y-106861768D01*
X110244167Y-106861768D01*
X110142793Y-106860441D01*
X110046971Y-106859187D01*
X110041274Y-106860166D01*
X110041273Y-106860166D01*
X109852607Y-106892585D01*
X109846910Y-106893564D01*
X109656463Y-106963824D01*
X109482010Y-107067612D01*
X109477670Y-107071418D01*
X109477666Y-107071421D01*
X109421150Y-107120985D01*
X109329392Y-107201455D01*
X109325817Y-107205990D01*
X109325816Y-107205991D01*
X109315675Y-107218855D01*
X109203720Y-107360869D01*
X109201031Y-107365980D01*
X109201029Y-107365983D01*
X109188073Y-107390609D01*
X109109203Y-107540515D01*
X109049007Y-107734378D01*
X109025148Y-107935964D01*
X104630992Y-107935964D01*
X104485641Y-107790867D01*
X104242747Y-107603475D01*
X104239277Y-107601443D01*
X103981476Y-107450494D01*
X103981473Y-107450492D01*
X103978012Y-107448466D01*
X103974327Y-107446898D01*
X103974323Y-107446896D01*
X103786928Y-107367159D01*
X103695726Y-107328352D01*
X103569086Y-107292636D01*
X103404332Y-107246170D01*
X103404323Y-107246168D01*
X103400465Y-107245080D01*
X103169878Y-107210824D01*
X103100317Y-107200490D01*
X103100315Y-107200490D01*
X103097018Y-107200000D01*
X103093687Y-107199860D01*
X103093683Y-107199860D01*
X103055645Y-107198266D01*
X103013508Y-107196500D01*
X102817803Y-107196500D01*
X102693502Y-107204429D01*
X102593252Y-107210824D01*
X102593247Y-107210825D01*
X102589244Y-107211080D01*
X102585306Y-107211842D01*
X102585305Y-107211842D01*
X102291988Y-107268591D01*
X102291984Y-107268592D01*
X102288051Y-107269353D01*
X102149537Y-107315028D01*
X102000522Y-107364166D01*
X102000517Y-107364168D01*
X101996705Y-107365425D01*
X101719927Y-107497738D01*
X101462204Y-107664147D01*
X101227716Y-107861955D01*
X101020262Y-108087954D01*
X101017948Y-108091229D01*
X101017945Y-108091232D01*
X100847495Y-108332415D01*
X100843207Y-108338482D01*
X100801989Y-108416165D01*
X100710416Y-108588752D01*
X100699419Y-108609477D01*
X100591232Y-108896545D01*
X100590303Y-108900460D01*
X100529743Y-109155652D01*
X100520397Y-109195033D01*
X100488063Y-109500103D01*
X97790499Y-109500103D01*
X97790500Y-105395964D01*
X109025148Y-105395964D01*
X109038424Y-105598522D01*
X109039845Y-105604118D01*
X109039846Y-105604123D01*
X109060119Y-105683945D01*
X109088392Y-105795269D01*
X109090809Y-105800512D01*
X109125687Y-105876169D01*
X109173377Y-105979616D01*
X109176710Y-105984332D01*
X109264299Y-106108268D01*
X109290533Y-106145389D01*
X109435938Y-106287035D01*
X109604720Y-106399812D01*
X109610023Y-106402090D01*
X109610026Y-106402092D01*
X109698707Y-106440192D01*
X109791228Y-106479942D01*
X109864244Y-106496464D01*
X109983579Y-106523467D01*
X109983584Y-106523468D01*
X109989216Y-106524742D01*
X109994987Y-106524969D01*
X109994989Y-106524969D01*
X110054756Y-106527317D01*
X110192053Y-106532712D01*
X110292499Y-106518148D01*
X110387231Y-106504413D01*
X110387236Y-106504412D01*
X110392945Y-106503584D01*
X110398409Y-106501729D01*
X110398414Y-106501728D01*
X110579693Y-106440192D01*
X110579698Y-106440190D01*
X110585165Y-106438334D01*
X110762276Y-106339147D01*
X110771879Y-106331161D01*
X110913913Y-106213031D01*
X110918345Y-106209345D01*
X111001037Y-106109919D01*
X111044453Y-106057718D01*
X111044455Y-106057715D01*
X111048147Y-106053276D01*
X111147334Y-105876165D01*
X111149190Y-105870698D01*
X111149192Y-105870693D01*
X111210728Y-105689414D01*
X111210729Y-105689409D01*
X111212584Y-105683945D01*
X111213412Y-105678236D01*
X111213413Y-105678231D01*
X111239862Y-105495810D01*
X111241712Y-105483053D01*
X111243232Y-105425000D01*
X111240564Y-105395964D01*
X131885148Y-105395964D01*
X131898424Y-105598522D01*
X131899845Y-105604118D01*
X131899846Y-105604123D01*
X131920119Y-105683945D01*
X131948392Y-105795269D01*
X131950809Y-105800512D01*
X131985687Y-105876169D01*
X132033377Y-105979616D01*
X132036710Y-105984332D01*
X132124299Y-106108268D01*
X132150533Y-106145389D01*
X132295938Y-106287035D01*
X132464720Y-106399812D01*
X132470023Y-106402090D01*
X132470026Y-106402092D01*
X132558707Y-106440192D01*
X132651228Y-106479942D01*
X132724244Y-106496464D01*
X132843579Y-106523467D01*
X132843584Y-106523468D01*
X132849216Y-106524742D01*
X132854987Y-106524969D01*
X132854989Y-106524969D01*
X132914756Y-106527317D01*
X133052053Y-106532712D01*
X133152499Y-106518148D01*
X133247231Y-106504413D01*
X133247236Y-106504412D01*
X133252945Y-106503584D01*
X133258409Y-106501729D01*
X133258414Y-106501728D01*
X133439693Y-106440192D01*
X133439698Y-106440190D01*
X133445165Y-106438334D01*
X133622276Y-106339147D01*
X133631879Y-106331161D01*
X133773913Y-106213031D01*
X133778345Y-106209345D01*
X133861037Y-106109919D01*
X133904453Y-106057718D01*
X133904455Y-106057715D01*
X133908147Y-106053276D01*
X134007334Y-105876165D01*
X134009190Y-105870698D01*
X134009192Y-105870693D01*
X134010845Y-105865824D01*
X160968083Y-105865824D01*
X160987072Y-106082868D01*
X160988975Y-106093661D01*
X161045364Y-106304110D01*
X161049110Y-106314402D01*
X161141186Y-106511860D01*
X161146669Y-106521355D01*
X161183109Y-106573397D01*
X161193588Y-106581773D01*
X161207034Y-106574705D01*
X161908578Y-105873161D01*
X161914956Y-105861481D01*
X162645008Y-105861481D01*
X162645139Y-105863314D01*
X162649390Y-105869929D01*
X163354887Y-106575426D01*
X163366662Y-106581856D01*
X163378677Y-106572560D01*
X163414531Y-106521355D01*
X163420014Y-106511860D01*
X163512090Y-106314402D01*
X163515836Y-106304110D01*
X163572225Y-106093661D01*
X163574128Y-106082868D01*
X163590895Y-105891224D01*
X169908883Y-105891224D01*
X169927872Y-106108268D01*
X169929775Y-106119061D01*
X169986164Y-106329510D01*
X169989910Y-106339802D01*
X170081986Y-106537260D01*
X170087469Y-106546755D01*
X170123909Y-106598797D01*
X170134388Y-106607173D01*
X170147834Y-106600105D01*
X170849378Y-105898561D01*
X170855756Y-105886881D01*
X171585808Y-105886881D01*
X171585939Y-105888714D01*
X171590190Y-105895329D01*
X172295687Y-106600826D01*
X172307462Y-106607256D01*
X172319477Y-106597960D01*
X172355331Y-106546755D01*
X172360814Y-106537260D01*
X172452890Y-106339802D01*
X172456636Y-106329510D01*
X172513025Y-106119061D01*
X172514928Y-106108268D01*
X172533773Y-105892875D01*
X178773483Y-105892875D01*
X178792472Y-106109919D01*
X178794375Y-106120712D01*
X178850764Y-106331161D01*
X178854510Y-106341453D01*
X178946586Y-106538911D01*
X178952069Y-106548406D01*
X178988509Y-106600448D01*
X178998988Y-106608824D01*
X179012434Y-106601756D01*
X179713978Y-105900212D01*
X179720356Y-105888532D01*
X180450408Y-105888532D01*
X180450539Y-105890365D01*
X180454790Y-105896980D01*
X181160287Y-106602477D01*
X181172062Y-106608907D01*
X181184077Y-106599611D01*
X181219931Y-106548406D01*
X181225414Y-106538911D01*
X181317490Y-106341453D01*
X181321236Y-106331161D01*
X181377625Y-106120712D01*
X181379528Y-106109919D01*
X181398517Y-105892875D01*
X181398517Y-105881925D01*
X181379528Y-105664881D01*
X181377625Y-105654088D01*
X181321236Y-105443639D01*
X181317490Y-105433347D01*
X181225414Y-105235889D01*
X181219931Y-105226394D01*
X181183491Y-105174352D01*
X181173012Y-105165976D01*
X181159566Y-105173044D01*
X180458022Y-105874588D01*
X180450408Y-105888532D01*
X179720356Y-105888532D01*
X179721592Y-105886268D01*
X179721461Y-105884435D01*
X179717210Y-105877820D01*
X179011713Y-105172323D01*
X178999938Y-105165893D01*
X178987923Y-105175189D01*
X178952069Y-105226394D01*
X178946586Y-105235889D01*
X178854510Y-105433347D01*
X178850764Y-105443639D01*
X178794375Y-105654088D01*
X178792472Y-105664881D01*
X178773483Y-105881925D01*
X178773483Y-105892875D01*
X172533773Y-105892875D01*
X172533917Y-105891224D01*
X172533917Y-105880274D01*
X172514928Y-105663230D01*
X172513025Y-105652437D01*
X172456636Y-105441988D01*
X172452890Y-105431696D01*
X172360814Y-105234238D01*
X172355331Y-105224743D01*
X172318891Y-105172701D01*
X172308412Y-105164325D01*
X172294966Y-105171393D01*
X171593422Y-105872937D01*
X171585808Y-105886881D01*
X170855756Y-105886881D01*
X170856992Y-105884617D01*
X170856861Y-105882784D01*
X170852610Y-105876169D01*
X170147113Y-105170672D01*
X170135338Y-105164242D01*
X170123323Y-105173538D01*
X170087469Y-105224743D01*
X170081986Y-105234238D01*
X169989910Y-105431696D01*
X169986164Y-105441988D01*
X169929775Y-105652437D01*
X169927872Y-105663230D01*
X169908883Y-105880274D01*
X169908883Y-105891224D01*
X163590895Y-105891224D01*
X163593117Y-105865824D01*
X163593117Y-105854874D01*
X163574128Y-105637830D01*
X163572225Y-105627037D01*
X163515836Y-105416588D01*
X163512090Y-105406296D01*
X163420014Y-105208838D01*
X163414531Y-105199343D01*
X163378091Y-105147301D01*
X163367612Y-105138925D01*
X163354166Y-105145993D01*
X162652622Y-105847537D01*
X162645008Y-105861481D01*
X161914956Y-105861481D01*
X161916192Y-105859217D01*
X161916061Y-105857384D01*
X161911810Y-105850769D01*
X161206313Y-105145272D01*
X161194538Y-105138842D01*
X161182523Y-105148138D01*
X161146669Y-105199343D01*
X161141186Y-105208838D01*
X161049110Y-105406296D01*
X161045364Y-105416588D01*
X160988975Y-105627037D01*
X160987072Y-105637830D01*
X160968083Y-105854874D01*
X160968083Y-105865824D01*
X134010845Y-105865824D01*
X134070728Y-105689414D01*
X134070729Y-105689409D01*
X134072584Y-105683945D01*
X134073412Y-105678236D01*
X134073413Y-105678231D01*
X134099862Y-105495810D01*
X134101712Y-105483053D01*
X134103232Y-105425000D01*
X134091797Y-105300551D01*
X134085187Y-105228613D01*
X134085186Y-105228610D01*
X134084658Y-105222859D01*
X134080704Y-105208838D01*
X134031125Y-105033046D01*
X134031124Y-105033044D01*
X134029557Y-105027487D01*
X134018978Y-105006033D01*
X133942331Y-104850609D01*
X133939776Y-104845428D01*
X133885943Y-104773337D01*
X161559176Y-104773337D01*
X161566244Y-104786783D01*
X162267788Y-105488327D01*
X162281732Y-105495941D01*
X162283565Y-105495810D01*
X162290180Y-105491559D01*
X162983002Y-104798737D01*
X170499976Y-104798737D01*
X170507044Y-104812183D01*
X171208588Y-105513727D01*
X171222532Y-105521341D01*
X171224365Y-105521210D01*
X171230980Y-105516959D01*
X171936477Y-104811462D01*
X171942524Y-104800388D01*
X179364576Y-104800388D01*
X179371644Y-104813834D01*
X180073188Y-105515378D01*
X180087132Y-105522992D01*
X180088965Y-105522861D01*
X180095580Y-105518610D01*
X180801077Y-104813113D01*
X180807507Y-104801338D01*
X180798211Y-104789323D01*
X180747006Y-104753469D01*
X180737511Y-104747986D01*
X180540053Y-104655910D01*
X180529761Y-104652164D01*
X180319312Y-104595775D01*
X180308519Y-104593872D01*
X180091475Y-104574883D01*
X180080525Y-104574883D01*
X179863481Y-104593872D01*
X179852688Y-104595775D01*
X179642239Y-104652164D01*
X179631947Y-104655910D01*
X179434489Y-104747986D01*
X179424994Y-104753469D01*
X179372952Y-104789909D01*
X179364576Y-104800388D01*
X171942524Y-104800388D01*
X171942907Y-104799687D01*
X171933611Y-104787672D01*
X171882406Y-104751818D01*
X171872911Y-104746335D01*
X171675453Y-104654259D01*
X171665161Y-104650513D01*
X171454712Y-104594124D01*
X171443919Y-104592221D01*
X171226875Y-104573232D01*
X171215925Y-104573232D01*
X170998881Y-104592221D01*
X170988088Y-104594124D01*
X170777639Y-104650513D01*
X170767347Y-104654259D01*
X170569889Y-104746335D01*
X170560394Y-104751818D01*
X170508352Y-104788258D01*
X170499976Y-104798737D01*
X162983002Y-104798737D01*
X162995677Y-104786062D01*
X163002107Y-104774287D01*
X162992811Y-104762272D01*
X162941606Y-104726418D01*
X162932111Y-104720935D01*
X162734653Y-104628859D01*
X162724361Y-104625113D01*
X162513912Y-104568724D01*
X162503119Y-104566821D01*
X162286075Y-104547832D01*
X162275125Y-104547832D01*
X162058081Y-104566821D01*
X162047288Y-104568724D01*
X161836839Y-104625113D01*
X161826547Y-104628859D01*
X161629089Y-104720935D01*
X161619594Y-104726418D01*
X161567552Y-104762858D01*
X161559176Y-104773337D01*
X133885943Y-104773337D01*
X133818320Y-104682779D01*
X133669258Y-104544987D01*
X133664375Y-104541906D01*
X133664371Y-104541903D01*
X133502464Y-104439748D01*
X133497581Y-104436667D01*
X133309039Y-104361446D01*
X133303379Y-104360320D01*
X133303375Y-104360319D01*
X133115613Y-104322971D01*
X133115610Y-104322971D01*
X133109946Y-104321844D01*
X133104171Y-104321768D01*
X133104167Y-104321768D01*
X133002793Y-104320441D01*
X132906971Y-104319187D01*
X132901274Y-104320166D01*
X132901273Y-104320166D01*
X132712607Y-104352585D01*
X132706910Y-104353564D01*
X132516463Y-104423824D01*
X132342010Y-104527612D01*
X132337670Y-104531418D01*
X132337666Y-104531421D01*
X132288108Y-104574883D01*
X132189392Y-104661455D01*
X132063720Y-104820869D01*
X132061031Y-104825980D01*
X132061029Y-104825983D01*
X132048073Y-104850609D01*
X131969203Y-105000515D01*
X131909007Y-105194378D01*
X131885148Y-105395964D01*
X111240564Y-105395964D01*
X111231797Y-105300551D01*
X111225187Y-105228613D01*
X111225186Y-105228610D01*
X111224658Y-105222859D01*
X111220704Y-105208838D01*
X111171125Y-105033046D01*
X111171124Y-105033044D01*
X111169557Y-105027487D01*
X111158978Y-105006033D01*
X111082331Y-104850609D01*
X111079776Y-104845428D01*
X110958320Y-104682779D01*
X110809258Y-104544987D01*
X110804375Y-104541906D01*
X110804371Y-104541903D01*
X110642464Y-104439748D01*
X110637581Y-104436667D01*
X110449039Y-104361446D01*
X110443379Y-104360320D01*
X110443375Y-104360319D01*
X110255613Y-104322971D01*
X110255610Y-104322971D01*
X110249946Y-104321844D01*
X110244171Y-104321768D01*
X110244167Y-104321768D01*
X110142793Y-104320441D01*
X110046971Y-104319187D01*
X110041274Y-104320166D01*
X110041273Y-104320166D01*
X109852607Y-104352585D01*
X109846910Y-104353564D01*
X109656463Y-104423824D01*
X109482010Y-104527612D01*
X109477670Y-104531418D01*
X109477666Y-104531421D01*
X109428108Y-104574883D01*
X109329392Y-104661455D01*
X109203720Y-104820869D01*
X109201031Y-104825980D01*
X109201029Y-104825983D01*
X109188073Y-104850609D01*
X109109203Y-105000515D01*
X109049007Y-105194378D01*
X109025148Y-105395964D01*
X97790500Y-105395964D01*
X97790500Y-102855964D01*
X109025148Y-102855964D01*
X109038424Y-103058522D01*
X109039845Y-103064118D01*
X109039846Y-103064123D01*
X109078643Y-103216884D01*
X109088392Y-103255269D01*
X109090809Y-103260512D01*
X109163683Y-103418588D01*
X109173377Y-103439616D01*
X109290533Y-103605389D01*
X109435938Y-103747035D01*
X109604720Y-103859812D01*
X109610023Y-103862090D01*
X109610026Y-103862092D01*
X109698707Y-103900192D01*
X109791228Y-103939942D01*
X109864244Y-103956464D01*
X109983579Y-103983467D01*
X109983584Y-103983468D01*
X109989216Y-103984742D01*
X109994987Y-103984969D01*
X109994989Y-103984969D01*
X110054756Y-103987317D01*
X110192053Y-103992712D01*
X110292499Y-103978148D01*
X110387231Y-103964413D01*
X110387236Y-103964412D01*
X110392945Y-103963584D01*
X110398409Y-103961729D01*
X110398414Y-103961728D01*
X110579693Y-103900192D01*
X110579698Y-103900190D01*
X110585165Y-103898334D01*
X110762276Y-103799147D01*
X110824934Y-103747035D01*
X110913913Y-103673031D01*
X110918345Y-103669345D01*
X111048147Y-103513276D01*
X111124955Y-103376126D01*
X111144510Y-103341208D01*
X111144511Y-103341206D01*
X111147334Y-103336165D01*
X111149190Y-103330698D01*
X111149192Y-103330693D01*
X111210728Y-103149414D01*
X111210729Y-103149409D01*
X111212584Y-103143945D01*
X111213412Y-103138236D01*
X111213413Y-103138231D01*
X111241179Y-102946727D01*
X111241712Y-102943053D01*
X111243232Y-102885000D01*
X111240564Y-102855964D01*
X131885148Y-102855964D01*
X131898424Y-103058522D01*
X131899845Y-103064118D01*
X131899846Y-103064123D01*
X131938643Y-103216884D01*
X131948392Y-103255269D01*
X131950809Y-103260512D01*
X132023683Y-103418588D01*
X132033377Y-103439616D01*
X132150533Y-103605389D01*
X132295938Y-103747035D01*
X132464720Y-103859812D01*
X132470023Y-103862090D01*
X132470026Y-103862092D01*
X132558707Y-103900192D01*
X132651228Y-103939942D01*
X132724244Y-103956464D01*
X132843579Y-103983467D01*
X132843584Y-103983468D01*
X132849216Y-103984742D01*
X132854987Y-103984969D01*
X132854989Y-103984969D01*
X132914756Y-103987317D01*
X133052053Y-103992712D01*
X133152499Y-103978148D01*
X133247231Y-103964413D01*
X133247236Y-103964412D01*
X133252945Y-103963584D01*
X133258409Y-103961729D01*
X133258414Y-103961728D01*
X133439693Y-103900192D01*
X133439698Y-103900190D01*
X133445165Y-103898334D01*
X133622276Y-103799147D01*
X133684934Y-103747035D01*
X133773913Y-103673031D01*
X133778345Y-103669345D01*
X133908147Y-103513276D01*
X133984955Y-103376126D01*
X134004510Y-103341208D01*
X134004511Y-103341206D01*
X134007334Y-103336165D01*
X134009190Y-103330698D01*
X134009192Y-103330693D01*
X134070728Y-103149414D01*
X134070729Y-103149409D01*
X134072584Y-103143945D01*
X134073412Y-103138236D01*
X134073413Y-103138231D01*
X134101179Y-102946727D01*
X134101712Y-102943053D01*
X134103232Y-102885000D01*
X134084658Y-102682859D01*
X134083090Y-102677299D01*
X134031125Y-102493046D01*
X134031124Y-102493044D01*
X134029557Y-102487487D01*
X134018978Y-102466033D01*
X133942331Y-102310609D01*
X133939776Y-102305428D01*
X133818320Y-102142779D01*
X133669258Y-102004987D01*
X133664375Y-102001906D01*
X133664371Y-102001903D01*
X133502464Y-101899748D01*
X133497581Y-101896667D01*
X133309039Y-101821446D01*
X133303379Y-101820320D01*
X133303375Y-101820319D01*
X133115613Y-101782971D01*
X133115610Y-101782971D01*
X133109946Y-101781844D01*
X133104171Y-101781768D01*
X133104167Y-101781768D01*
X133002793Y-101780441D01*
X132906971Y-101779187D01*
X132901274Y-101780166D01*
X132901273Y-101780166D01*
X132712607Y-101812585D01*
X132706910Y-101813564D01*
X132516463Y-101883824D01*
X132342010Y-101987612D01*
X132337670Y-101991418D01*
X132337666Y-101991421D01*
X132317723Y-102008911D01*
X132189392Y-102121455D01*
X132063720Y-102280869D01*
X132061031Y-102285980D01*
X132061029Y-102285983D01*
X132048073Y-102310609D01*
X131969203Y-102460515D01*
X131909007Y-102654378D01*
X131885148Y-102855964D01*
X111240564Y-102855964D01*
X111224658Y-102682859D01*
X111223090Y-102677299D01*
X111171125Y-102493046D01*
X111171124Y-102493044D01*
X111169557Y-102487487D01*
X111158978Y-102466033D01*
X111082331Y-102310609D01*
X111079776Y-102305428D01*
X110958320Y-102142779D01*
X110809258Y-102004987D01*
X110804375Y-102001906D01*
X110804371Y-102001903D01*
X110642464Y-101899748D01*
X110637581Y-101896667D01*
X110449039Y-101821446D01*
X110443379Y-101820320D01*
X110443375Y-101820319D01*
X110255613Y-101782971D01*
X110255610Y-101782971D01*
X110249946Y-101781844D01*
X110244171Y-101781768D01*
X110244167Y-101781768D01*
X110142793Y-101780441D01*
X110046971Y-101779187D01*
X110041274Y-101780166D01*
X110041273Y-101780166D01*
X109852607Y-101812585D01*
X109846910Y-101813564D01*
X109656463Y-101883824D01*
X109482010Y-101987612D01*
X109477670Y-101991418D01*
X109477666Y-101991421D01*
X109457723Y-102008911D01*
X109329392Y-102121455D01*
X109203720Y-102280869D01*
X109201031Y-102285980D01*
X109201029Y-102285983D01*
X109188073Y-102310609D01*
X109109203Y-102460515D01*
X109049007Y-102654378D01*
X109025148Y-102855964D01*
X97790500Y-102855964D01*
X97790500Y-101535282D01*
X161226100Y-101535282D01*
X161226101Y-103185415D01*
X161240866Y-103259650D01*
X161247761Y-103269969D01*
X161247762Y-103269971D01*
X161249704Y-103272877D01*
X161297116Y-103343833D01*
X161381299Y-103400083D01*
X161455533Y-103414849D01*
X162280466Y-103414849D01*
X163105666Y-103414848D01*
X163141418Y-103407737D01*
X163167726Y-103402505D01*
X163167728Y-103402504D01*
X163179901Y-103400083D01*
X163190221Y-103393188D01*
X163190222Y-103393187D01*
X163253768Y-103350726D01*
X163264084Y-103343833D01*
X163320334Y-103259650D01*
X163335100Y-103185416D01*
X163335099Y-101560682D01*
X170166900Y-101560682D01*
X170166901Y-103210815D01*
X170168437Y-103218537D01*
X170178667Y-103269971D01*
X170181666Y-103285050D01*
X170188561Y-103295369D01*
X170188562Y-103295371D01*
X170212164Y-103330693D01*
X170237916Y-103369233D01*
X170322099Y-103425483D01*
X170396333Y-103440249D01*
X171221266Y-103440249D01*
X172046466Y-103440248D01*
X172082218Y-103433137D01*
X172108526Y-103427905D01*
X172108528Y-103427904D01*
X172120701Y-103425483D01*
X172131021Y-103418588D01*
X172131022Y-103418587D01*
X172194568Y-103376126D01*
X172204884Y-103369233D01*
X172261134Y-103285050D01*
X172275900Y-103210816D01*
X172275899Y-101562333D01*
X179031500Y-101562333D01*
X179031501Y-103212466D01*
X179038464Y-103247475D01*
X179040886Y-103259650D01*
X179046266Y-103286701D01*
X179102516Y-103370884D01*
X179186699Y-103427134D01*
X179260933Y-103441900D01*
X180085866Y-103441900D01*
X180911066Y-103441899D01*
X180948915Y-103434371D01*
X180973126Y-103429556D01*
X180973128Y-103429555D01*
X180985301Y-103427134D01*
X180995621Y-103420239D01*
X180995622Y-103420238D01*
X181059168Y-103377777D01*
X181069484Y-103370884D01*
X181125734Y-103286701D01*
X181140500Y-103212467D01*
X181140499Y-101562334D01*
X181125734Y-101488099D01*
X181117735Y-101476127D01*
X181076377Y-101414232D01*
X181069484Y-101403916D01*
X180985301Y-101347666D01*
X180911067Y-101332900D01*
X180086134Y-101332900D01*
X179260934Y-101332901D01*
X179225182Y-101340012D01*
X179198874Y-101345244D01*
X179198872Y-101345245D01*
X179186699Y-101347666D01*
X179176379Y-101354561D01*
X179176378Y-101354562D01*
X179153316Y-101369972D01*
X179102516Y-101403916D01*
X179046266Y-101488099D01*
X179031500Y-101562333D01*
X172275899Y-101562333D01*
X172275899Y-101560683D01*
X172261134Y-101486448D01*
X172252298Y-101473223D01*
X172211777Y-101412581D01*
X172204884Y-101402265D01*
X172120701Y-101346015D01*
X172046467Y-101331249D01*
X171221534Y-101331249D01*
X170396334Y-101331250D01*
X170360582Y-101338361D01*
X170334274Y-101343593D01*
X170334272Y-101343594D01*
X170322099Y-101346015D01*
X170311779Y-101352910D01*
X170311778Y-101352911D01*
X170251385Y-101393265D01*
X170237916Y-101402265D01*
X170181666Y-101486448D01*
X170166900Y-101560682D01*
X163335099Y-101560682D01*
X163335099Y-101535283D01*
X163327988Y-101499531D01*
X163322756Y-101473223D01*
X163322755Y-101473221D01*
X163320334Y-101461048D01*
X163309591Y-101444969D01*
X163270977Y-101387181D01*
X163264084Y-101376865D01*
X163179901Y-101320615D01*
X163105667Y-101305849D01*
X162280734Y-101305849D01*
X161455534Y-101305850D01*
X161419782Y-101312961D01*
X161393474Y-101318193D01*
X161393472Y-101318194D01*
X161381299Y-101320615D01*
X161370979Y-101327510D01*
X161370978Y-101327511D01*
X161310585Y-101367865D01*
X161297116Y-101376865D01*
X161240866Y-101461048D01*
X161226100Y-101535282D01*
X97790500Y-101535282D01*
X97790500Y-97336580D01*
X99610752Y-97336580D01*
X99635477Y-97454421D01*
X99638537Y-97464617D01*
X99719263Y-97669029D01*
X99723994Y-97678561D01*
X99838016Y-97866462D01*
X99844280Y-97875052D01*
X99988327Y-98041052D01*
X99995958Y-98048472D01*
X100165911Y-98187826D01*
X100174674Y-98193848D01*
X100257617Y-98241061D01*
X100306924Y-98292144D01*
X100320786Y-98361774D01*
X100294803Y-98427845D01*
X100237224Y-98469380D01*
X100235532Y-98469878D01*
X100232552Y-98470202D01*
X100097236Y-98520929D01*
X100090057Y-98526309D01*
X100090054Y-98526311D01*
X100022173Y-98577185D01*
X99981596Y-98607596D01*
X99969770Y-98623376D01*
X99900311Y-98716054D01*
X99900309Y-98716057D01*
X99894929Y-98723236D01*
X99865957Y-98800519D01*
X99860338Y-98815510D01*
X99844202Y-98858552D01*
X99843349Y-98866402D01*
X99843349Y-98866403D01*
X99839323Y-98903467D01*
X99837500Y-98920244D01*
X99837500Y-100215756D01*
X99844202Y-100277448D01*
X99894929Y-100412764D01*
X99900309Y-100419943D01*
X99900311Y-100419946D01*
X99966287Y-100507977D01*
X99981596Y-100528404D01*
X99988776Y-100533785D01*
X100090054Y-100609689D01*
X100090057Y-100609691D01*
X100097236Y-100615071D01*
X100186954Y-100648704D01*
X100225157Y-100663026D01*
X100225159Y-100663026D01*
X100232552Y-100665798D01*
X100240402Y-100666651D01*
X100240403Y-100666651D01*
X100290847Y-100672131D01*
X100294244Y-100672500D01*
X101889756Y-100672500D01*
X101893153Y-100672131D01*
X101943597Y-100666651D01*
X101943598Y-100666651D01*
X101951448Y-100665798D01*
X101958841Y-100663026D01*
X101958843Y-100663026D01*
X101997046Y-100648704D01*
X102086764Y-100615071D01*
X102093943Y-100609691D01*
X102093946Y-100609689D01*
X102195224Y-100533785D01*
X102202404Y-100528404D01*
X102217713Y-100507977D01*
X102283689Y-100419946D01*
X102283691Y-100419943D01*
X102289071Y-100412764D01*
X102325359Y-100315964D01*
X109025148Y-100315964D01*
X109038424Y-100518522D01*
X109039845Y-100524118D01*
X109039846Y-100524123D01*
X109075124Y-100663026D01*
X109088392Y-100715269D01*
X109090809Y-100720512D01*
X109128010Y-100801208D01*
X109173377Y-100899616D01*
X109290533Y-101065389D01*
X109435938Y-101207035D01*
X109604720Y-101319812D01*
X109610023Y-101322090D01*
X109610026Y-101322092D01*
X109761526Y-101387181D01*
X109791228Y-101399942D01*
X109854381Y-101414232D01*
X109983579Y-101443467D01*
X109983584Y-101443468D01*
X109989216Y-101444742D01*
X109994987Y-101444969D01*
X109994989Y-101444969D01*
X110054756Y-101447317D01*
X110192053Y-101452712D01*
X110292499Y-101438148D01*
X110387231Y-101424413D01*
X110387236Y-101424412D01*
X110392945Y-101423584D01*
X110398409Y-101421729D01*
X110398414Y-101421728D01*
X110579693Y-101360192D01*
X110579698Y-101360190D01*
X110585165Y-101358334D01*
X110591901Y-101354562D01*
X110678884Y-101305849D01*
X110762276Y-101259147D01*
X110824934Y-101207035D01*
X110913913Y-101133031D01*
X110918345Y-101129345D01*
X111048147Y-100973276D01*
X111147334Y-100796165D01*
X111149190Y-100790698D01*
X111149192Y-100790693D01*
X111210728Y-100609414D01*
X111210729Y-100609409D01*
X111212584Y-100603945D01*
X111213412Y-100598236D01*
X111213413Y-100598231D01*
X111230991Y-100476996D01*
X111241712Y-100403053D01*
X111243232Y-100345000D01*
X111240564Y-100315964D01*
X131885148Y-100315964D01*
X131898424Y-100518522D01*
X131899845Y-100524118D01*
X131899846Y-100524123D01*
X131935124Y-100663026D01*
X131948392Y-100715269D01*
X131950809Y-100720512D01*
X131988010Y-100801208D01*
X132033377Y-100899616D01*
X132150533Y-101065389D01*
X132295938Y-101207035D01*
X132464720Y-101319812D01*
X132470023Y-101322090D01*
X132470026Y-101322092D01*
X132621526Y-101387181D01*
X132651228Y-101399942D01*
X132714381Y-101414232D01*
X132843579Y-101443467D01*
X132843584Y-101443468D01*
X132849216Y-101444742D01*
X132854987Y-101444969D01*
X132854989Y-101444969D01*
X132914756Y-101447317D01*
X133052053Y-101452712D01*
X133152499Y-101438148D01*
X133247231Y-101424413D01*
X133247236Y-101424412D01*
X133252945Y-101423584D01*
X133258409Y-101421729D01*
X133258414Y-101421728D01*
X133439693Y-101360192D01*
X133439698Y-101360190D01*
X133445165Y-101358334D01*
X133451901Y-101354562D01*
X133538884Y-101305849D01*
X133622276Y-101259147D01*
X133684934Y-101207035D01*
X133773913Y-101133031D01*
X133778345Y-101129345D01*
X133908147Y-100973276D01*
X134007334Y-100796165D01*
X134009190Y-100790698D01*
X134009192Y-100790693D01*
X134070728Y-100609414D01*
X134070729Y-100609409D01*
X134072584Y-100603945D01*
X134073412Y-100598236D01*
X134073413Y-100598231D01*
X134090991Y-100476996D01*
X134101712Y-100403053D01*
X134103232Y-100345000D01*
X134084658Y-100142859D01*
X134083090Y-100137299D01*
X134031125Y-99953046D01*
X134031124Y-99953044D01*
X134029557Y-99947487D01*
X134018978Y-99926033D01*
X133942331Y-99770609D01*
X133939776Y-99765428D01*
X133818320Y-99602779D01*
X133669258Y-99464987D01*
X133664375Y-99461906D01*
X133664371Y-99461903D01*
X133502464Y-99359748D01*
X133497581Y-99356667D01*
X133309039Y-99281446D01*
X133303379Y-99280320D01*
X133303375Y-99280319D01*
X133115613Y-99242971D01*
X133115610Y-99242971D01*
X133109946Y-99241844D01*
X133104171Y-99241768D01*
X133104167Y-99241768D01*
X133002793Y-99240441D01*
X132906971Y-99239187D01*
X132901274Y-99240166D01*
X132901273Y-99240166D01*
X132712607Y-99272585D01*
X132706910Y-99273564D01*
X132516463Y-99343824D01*
X132342010Y-99447612D01*
X132337670Y-99451418D01*
X132337666Y-99451421D01*
X132317723Y-99468911D01*
X132189392Y-99581455D01*
X132063720Y-99740869D01*
X132061031Y-99745980D01*
X132061029Y-99745983D01*
X132048073Y-99770609D01*
X131969203Y-99920515D01*
X131909007Y-100114378D01*
X131885148Y-100315964D01*
X111240564Y-100315964D01*
X111224658Y-100142859D01*
X111223090Y-100137299D01*
X111171125Y-99953046D01*
X111171124Y-99953044D01*
X111169557Y-99947487D01*
X111158978Y-99926033D01*
X111082331Y-99770609D01*
X111079776Y-99765428D01*
X110958320Y-99602779D01*
X110809258Y-99464987D01*
X110804375Y-99461906D01*
X110804371Y-99461903D01*
X110642464Y-99359748D01*
X110637581Y-99356667D01*
X110449039Y-99281446D01*
X110443379Y-99280320D01*
X110443375Y-99280319D01*
X110255613Y-99242971D01*
X110255610Y-99242971D01*
X110249946Y-99241844D01*
X110244171Y-99241768D01*
X110244167Y-99241768D01*
X110142793Y-99240441D01*
X110046971Y-99239187D01*
X110041274Y-99240166D01*
X110041273Y-99240166D01*
X109852607Y-99272585D01*
X109846910Y-99273564D01*
X109656463Y-99343824D01*
X109482010Y-99447612D01*
X109477670Y-99451418D01*
X109477666Y-99451421D01*
X109457723Y-99468911D01*
X109329392Y-99581455D01*
X109203720Y-99740869D01*
X109201031Y-99745980D01*
X109201029Y-99745983D01*
X109188073Y-99770609D01*
X109109203Y-99920515D01*
X109049007Y-100114378D01*
X109025148Y-100315964D01*
X102325359Y-100315964D01*
X102339798Y-100277448D01*
X102346500Y-100215756D01*
X102346500Y-98920244D01*
X102344677Y-98903467D01*
X102340651Y-98866403D01*
X102340651Y-98866402D01*
X102339798Y-98858552D01*
X102323663Y-98815510D01*
X102318043Y-98800519D01*
X102289071Y-98723236D01*
X102283691Y-98716057D01*
X102283689Y-98716054D01*
X102214230Y-98623376D01*
X102202404Y-98607596D01*
X102161827Y-98577185D01*
X102093946Y-98526311D01*
X102093943Y-98526309D01*
X102086764Y-98520929D01*
X101951448Y-98470202D01*
X101952393Y-98467680D01*
X101902026Y-98438915D01*
X101869197Y-98375964D01*
X101875614Y-98305258D01*
X101922440Y-98247018D01*
X102091575Y-98133150D01*
X102099870Y-98126481D01*
X102258900Y-97974772D01*
X102265941Y-97966814D01*
X102397141Y-97790475D01*
X102402745Y-97781438D01*
X102405528Y-97775964D01*
X109025148Y-97775964D01*
X109038424Y-97978522D01*
X109039845Y-97984118D01*
X109039846Y-97984123D01*
X109076001Y-98126481D01*
X109088392Y-98175269D01*
X109090809Y-98180512D01*
X109127447Y-98259985D01*
X109173377Y-98359616D01*
X109176710Y-98364332D01*
X109280281Y-98510882D01*
X109290533Y-98525389D01*
X109435938Y-98667035D01*
X109604720Y-98779812D01*
X109610023Y-98782090D01*
X109610026Y-98782092D01*
X109695523Y-98818824D01*
X109791228Y-98859942D01*
X109819782Y-98866403D01*
X109983579Y-98903467D01*
X109983584Y-98903468D01*
X109989216Y-98904742D01*
X109994987Y-98904969D01*
X109994989Y-98904969D01*
X110054756Y-98907317D01*
X110192053Y-98912712D01*
X110292499Y-98898148D01*
X110387231Y-98884413D01*
X110387236Y-98884412D01*
X110392945Y-98883584D01*
X110398409Y-98881729D01*
X110398414Y-98881728D01*
X110579693Y-98820192D01*
X110579698Y-98820190D01*
X110585165Y-98818334D01*
X110605720Y-98806823D01*
X110739968Y-98731640D01*
X110762276Y-98719147D01*
X110810674Y-98678895D01*
X110913913Y-98593031D01*
X110918345Y-98589345D01*
X110980172Y-98515007D01*
X111044453Y-98437718D01*
X111044455Y-98437715D01*
X111048147Y-98433276D01*
X111137669Y-98273423D01*
X111144510Y-98261208D01*
X111144511Y-98261206D01*
X111147334Y-98256165D01*
X111149190Y-98250698D01*
X111149192Y-98250693D01*
X111210728Y-98069414D01*
X111210729Y-98069409D01*
X111212584Y-98063945D01*
X111213412Y-98058236D01*
X111213413Y-98058231D01*
X111241179Y-97866727D01*
X111241712Y-97863053D01*
X111243232Y-97805000D01*
X111224658Y-97602859D01*
X111219767Y-97585516D01*
X111171125Y-97413046D01*
X111171124Y-97413044D01*
X111169557Y-97407487D01*
X111158978Y-97386033D01*
X111082331Y-97230609D01*
X111079776Y-97225428D01*
X111062111Y-97201771D01*
X110961777Y-97067409D01*
X110958320Y-97062779D01*
X110809258Y-96924987D01*
X110804375Y-96921906D01*
X110804371Y-96921903D01*
X110642464Y-96819748D01*
X110637581Y-96816667D01*
X110449039Y-96741446D01*
X110443379Y-96740320D01*
X110443375Y-96740319D01*
X110255613Y-96702971D01*
X110255610Y-96702971D01*
X110249946Y-96701844D01*
X110244171Y-96701768D01*
X110244167Y-96701768D01*
X110142793Y-96700441D01*
X110046971Y-96699187D01*
X110041274Y-96700166D01*
X110041273Y-96700166D01*
X109852607Y-96732585D01*
X109846910Y-96733564D01*
X109656463Y-96803824D01*
X109482010Y-96907612D01*
X109477670Y-96911418D01*
X109477666Y-96911421D01*
X109457723Y-96928911D01*
X109329392Y-97041455D01*
X109203720Y-97200869D01*
X109201031Y-97205980D01*
X109201029Y-97205983D01*
X109188073Y-97230609D01*
X109109203Y-97380515D01*
X109049007Y-97574378D01*
X109025148Y-97775964D01*
X102405528Y-97775964D01*
X102502357Y-97585516D01*
X102506357Y-97575665D01*
X102571534Y-97365760D01*
X102573817Y-97355376D01*
X102575861Y-97339957D01*
X102573665Y-97325793D01*
X102560478Y-97322000D01*
X99625808Y-97322000D01*
X99612277Y-97325973D01*
X99610752Y-97336580D01*
X97790500Y-97336580D01*
X97790500Y-96796043D01*
X99608139Y-96796043D01*
X99610335Y-96810207D01*
X99623522Y-96814000D01*
X100819885Y-96814000D01*
X100835124Y-96809525D01*
X100836329Y-96808135D01*
X100838000Y-96800452D01*
X100838000Y-96795885D01*
X101346000Y-96795885D01*
X101350475Y-96811124D01*
X101351865Y-96812329D01*
X101359548Y-96814000D01*
X102558192Y-96814000D01*
X102571723Y-96810027D01*
X102573248Y-96799420D01*
X102548523Y-96681579D01*
X102545463Y-96671383D01*
X102464737Y-96466971D01*
X102460006Y-96457439D01*
X102345984Y-96269538D01*
X102339720Y-96260948D01*
X102195673Y-96094948D01*
X102188042Y-96087528D01*
X102018089Y-95948174D01*
X102009322Y-95942150D01*
X101818318Y-95833424D01*
X101808654Y-95828959D01*
X101602059Y-95753969D01*
X101591792Y-95751198D01*
X101374345Y-95711877D01*
X101366116Y-95710944D01*
X101361624Y-95710732D01*
X101348876Y-95714475D01*
X101347671Y-95715865D01*
X101346000Y-95723548D01*
X101346000Y-96795885D01*
X100838000Y-96795885D01*
X100838000Y-95732030D01*
X100833690Y-95717352D01*
X100821807Y-95715289D01*
X100717675Y-95724124D01*
X100707203Y-95725914D01*
X100494465Y-95781130D01*
X100484425Y-95784665D01*
X100284030Y-95874937D01*
X100274744Y-95880106D01*
X100092425Y-96002850D01*
X100084130Y-96009519D01*
X99925100Y-96161228D01*
X99918059Y-96169186D01*
X99786859Y-96345525D01*
X99781255Y-96354562D01*
X99681643Y-96550484D01*
X99677643Y-96560335D01*
X99612466Y-96770240D01*
X99610183Y-96780624D01*
X99608139Y-96796043D01*
X97790500Y-96796043D01*
X97790500Y-95235964D01*
X109025148Y-95235964D01*
X109038424Y-95438522D01*
X109039845Y-95444118D01*
X109039846Y-95444123D01*
X109059872Y-95522973D01*
X109088392Y-95635269D01*
X109090809Y-95640512D01*
X109126233Y-95717352D01*
X109173377Y-95819616D01*
X109290533Y-95985389D01*
X109435938Y-96127035D01*
X109604720Y-96239812D01*
X109610023Y-96242090D01*
X109610026Y-96242092D01*
X109785921Y-96317662D01*
X109791228Y-96319942D01*
X109864244Y-96336464D01*
X109983579Y-96363467D01*
X109983584Y-96363468D01*
X109989216Y-96364742D01*
X109994987Y-96364969D01*
X109994989Y-96364969D01*
X110054756Y-96367317D01*
X110192053Y-96372712D01*
X110292499Y-96358148D01*
X110387231Y-96344413D01*
X110387236Y-96344412D01*
X110392945Y-96343584D01*
X110398409Y-96341729D01*
X110398414Y-96341728D01*
X110579693Y-96280192D01*
X110579698Y-96280190D01*
X110585165Y-96278334D01*
X110600872Y-96269538D01*
X110663138Y-96234667D01*
X110762276Y-96179147D01*
X110783822Y-96161228D01*
X110889696Y-96073172D01*
X110918345Y-96049345D01*
X111048147Y-95893276D01*
X111142877Y-95724124D01*
X111144510Y-95721208D01*
X111144511Y-95721206D01*
X111147334Y-95716165D01*
X111149190Y-95710698D01*
X111149192Y-95710693D01*
X111209522Y-95532966D01*
X131662257Y-95532966D01*
X131692565Y-95667446D01*
X131695645Y-95677275D01*
X131775770Y-95874603D01*
X131780413Y-95883794D01*
X131891694Y-96065388D01*
X131897777Y-96073699D01*
X132037213Y-96234667D01*
X132044580Y-96241883D01*
X132208434Y-96377916D01*
X132216881Y-96383831D01*
X132400756Y-96491279D01*
X132410042Y-96495729D01*
X132559124Y-96552657D01*
X132615627Y-96595644D01*
X132639920Y-96662355D01*
X132624290Y-96731610D01*
X132573699Y-96781421D01*
X132557785Y-96788579D01*
X132516463Y-96803824D01*
X132342010Y-96907612D01*
X132337670Y-96911418D01*
X132337666Y-96911421D01*
X132317723Y-96928911D01*
X132189392Y-97041455D01*
X132063720Y-97200869D01*
X132061031Y-97205980D01*
X132061029Y-97205983D01*
X132048073Y-97230609D01*
X131969203Y-97380515D01*
X131909007Y-97574378D01*
X131885148Y-97775964D01*
X131898424Y-97978522D01*
X131899845Y-97984118D01*
X131899846Y-97984123D01*
X131936001Y-98126481D01*
X131948392Y-98175269D01*
X131950809Y-98180512D01*
X131987447Y-98259985D01*
X132033377Y-98359616D01*
X132036710Y-98364332D01*
X132140281Y-98510882D01*
X132150533Y-98525389D01*
X132295938Y-98667035D01*
X132464720Y-98779812D01*
X132470023Y-98782090D01*
X132470026Y-98782092D01*
X132555523Y-98818824D01*
X132651228Y-98859942D01*
X132679782Y-98866403D01*
X132843579Y-98903467D01*
X132843584Y-98903468D01*
X132849216Y-98904742D01*
X132854987Y-98904969D01*
X132854989Y-98904969D01*
X132914756Y-98907317D01*
X133052053Y-98912712D01*
X133152499Y-98898148D01*
X133247231Y-98884413D01*
X133247236Y-98884412D01*
X133252945Y-98883584D01*
X133258409Y-98881729D01*
X133258414Y-98881728D01*
X133439693Y-98820192D01*
X133439698Y-98820190D01*
X133445165Y-98818334D01*
X133465720Y-98806823D01*
X133599968Y-98731640D01*
X133622276Y-98719147D01*
X133670674Y-98678895D01*
X133773913Y-98593031D01*
X133778345Y-98589345D01*
X133840172Y-98515007D01*
X133904453Y-98437718D01*
X133904455Y-98437715D01*
X133908147Y-98433276D01*
X133997669Y-98273423D01*
X134004510Y-98261208D01*
X134004511Y-98261206D01*
X134007334Y-98256165D01*
X134009190Y-98250698D01*
X134009192Y-98250693D01*
X134070728Y-98069414D01*
X134070729Y-98069409D01*
X134072584Y-98063945D01*
X134073412Y-98058236D01*
X134073413Y-98058231D01*
X134101179Y-97866727D01*
X134101712Y-97863053D01*
X134103232Y-97805000D01*
X134084658Y-97602859D01*
X134079767Y-97585516D01*
X134031125Y-97413046D01*
X134031124Y-97413044D01*
X134029557Y-97407487D01*
X134018978Y-97386033D01*
X134001848Y-97351296D01*
X140082129Y-97351296D01*
X140090821Y-97430024D01*
X140098117Y-97496106D01*
X140099513Y-97508753D01*
X140102123Y-97515884D01*
X140102123Y-97515886D01*
X140133951Y-97602859D01*
X140153953Y-97657519D01*
X140242308Y-97789005D01*
X140247927Y-97794118D01*
X140247928Y-97794119D01*
X140327724Y-97866727D01*
X140359476Y-97895619D01*
X140498693Y-97971208D01*
X140651922Y-98011407D01*
X140735877Y-98012726D01*
X140802719Y-98013776D01*
X140802722Y-98013776D01*
X140810316Y-98013895D01*
X140934116Y-97985541D01*
X141004981Y-97989830D01*
X141062279Y-98031752D01*
X141087483Y-98094533D01*
X141090113Y-98118353D01*
X141092723Y-98125484D01*
X141092723Y-98125486D01*
X141121034Y-98202849D01*
X141144553Y-98267119D01*
X141148789Y-98273422D01*
X141148789Y-98273423D01*
X141208159Y-98361774D01*
X141232908Y-98398605D01*
X141238527Y-98403718D01*
X141238528Y-98403719D01*
X141314431Y-98472785D01*
X141350076Y-98505219D01*
X141489293Y-98580808D01*
X141642522Y-98621007D01*
X141726477Y-98622326D01*
X141793319Y-98623376D01*
X141793322Y-98623376D01*
X141800916Y-98623495D01*
X141941255Y-98591353D01*
X142012121Y-98595642D01*
X142069419Y-98637564D01*
X142087710Y-98670872D01*
X142096572Y-98695091D01*
X142132541Y-98793383D01*
X142132543Y-98793387D01*
X142135153Y-98800519D01*
X142139389Y-98806822D01*
X142139389Y-98806823D01*
X142210544Y-98912712D01*
X142223508Y-98932005D01*
X142229127Y-98937118D01*
X142229128Y-98937119D01*
X142240503Y-98947469D01*
X142340676Y-99038619D01*
X142479893Y-99114208D01*
X142633122Y-99154407D01*
X142717077Y-99155726D01*
X142783919Y-99156776D01*
X142783922Y-99156776D01*
X142791516Y-99156895D01*
X142945932Y-99121529D01*
X143016342Y-99086117D01*
X143080672Y-99053763D01*
X143080675Y-99053761D01*
X143087455Y-99050351D01*
X143093226Y-99045422D01*
X143093229Y-99045420D01*
X143202136Y-98952404D01*
X143202136Y-98952403D01*
X143207914Y-98947469D01*
X143300355Y-98818824D01*
X143359442Y-98671841D01*
X143366660Y-98621126D01*
X143381181Y-98519091D01*
X143381181Y-98519088D01*
X143381762Y-98515007D01*
X143381907Y-98501200D01*
X143378469Y-98472785D01*
X143365035Y-98361774D01*
X143362876Y-98343933D01*
X143306880Y-98195746D01*
X143217153Y-98065192D01*
X143211476Y-98060134D01*
X143208587Y-98056857D01*
X143178541Y-97992531D01*
X143177100Y-97973530D01*
X143177100Y-91538796D01*
X156232429Y-91538796D01*
X156237412Y-91583932D01*
X156241450Y-91620500D01*
X156249813Y-91696253D01*
X156252423Y-91703384D01*
X156252423Y-91703386D01*
X156278886Y-91775699D01*
X156304253Y-91845019D01*
X156308489Y-91851322D01*
X156308489Y-91851323D01*
X156311715Y-91856123D01*
X156392608Y-91976505D01*
X156509776Y-92083119D01*
X156648993Y-92158708D01*
X156802222Y-92198907D01*
X156852714Y-92199700D01*
X156920511Y-92220769D01*
X156939829Y-92236589D01*
X160015251Y-95312011D01*
X160025106Y-95323100D01*
X160046359Y-95350059D01*
X160054106Y-95355413D01*
X160054110Y-95355417D01*
X160095072Y-95383728D01*
X160098292Y-95386029D01*
X160138342Y-95415610D01*
X160138344Y-95415611D01*
X160145923Y-95421209D01*
X160152798Y-95423623D01*
X160158789Y-95427764D01*
X160215209Y-95445607D01*
X160218965Y-95446860D01*
X160265984Y-95463372D01*
X160265990Y-95463373D01*
X160274874Y-95466493D01*
X160282078Y-95466776D01*
X160282249Y-95466809D01*
X160289097Y-95468975D01*
X160295768Y-95469500D01*
X160348938Y-95469500D01*
X160353884Y-95469597D01*
X160411437Y-95471858D01*
X160418592Y-95469961D01*
X160426967Y-95469500D01*
X166849944Y-95469500D01*
X166864754Y-95470373D01*
X166898838Y-95474407D01*
X166908102Y-95472715D01*
X166908105Y-95472715D01*
X166957080Y-95463771D01*
X166960982Y-95463122D01*
X167010236Y-95455716D01*
X167010239Y-95455715D01*
X167019551Y-95454315D01*
X167026118Y-95451162D01*
X167033283Y-95449853D01*
X167085867Y-95422538D01*
X167089357Y-95420795D01*
X167142753Y-95395154D01*
X167148048Y-95390259D01*
X167148187Y-95390166D01*
X167154566Y-95386852D01*
X167159654Y-95382506D01*
X167197236Y-95344924D01*
X167200802Y-95341494D01*
X167216777Y-95326727D01*
X167243112Y-95302383D01*
X167246830Y-95295983D01*
X167252437Y-95289723D01*
X167336604Y-95205556D01*
X167398916Y-95171530D01*
X167427678Y-95168667D01*
X167432162Y-95168738D01*
X167447319Y-95168976D01*
X167447322Y-95168976D01*
X167454916Y-95169095D01*
X167609332Y-95133729D01*
X167679742Y-95098317D01*
X167744072Y-95065963D01*
X167744075Y-95065961D01*
X167750855Y-95062551D01*
X167756626Y-95057622D01*
X167756629Y-95057620D01*
X167865536Y-94964604D01*
X167865536Y-94964603D01*
X167871314Y-94959669D01*
X167963755Y-94831024D01*
X168022842Y-94684041D01*
X168041212Y-94554965D01*
X168044581Y-94531291D01*
X168044581Y-94531288D01*
X168045162Y-94527207D01*
X168045198Y-94523756D01*
X186347500Y-94523756D01*
X186354202Y-94585448D01*
X186404929Y-94720764D01*
X186410309Y-94727943D01*
X186410311Y-94727946D01*
X186463916Y-94799470D01*
X186491596Y-94836404D01*
X186498776Y-94841785D01*
X186600054Y-94917689D01*
X186600057Y-94917691D01*
X186607236Y-94923071D01*
X186691922Y-94954818D01*
X186735157Y-94971026D01*
X186735159Y-94971026D01*
X186742552Y-94973798D01*
X186750402Y-94974651D01*
X186750403Y-94974651D01*
X186751149Y-94974732D01*
X186804244Y-94980500D01*
X188099756Y-94980500D01*
X188152851Y-94974732D01*
X188153597Y-94974651D01*
X188153598Y-94974651D01*
X188161448Y-94973798D01*
X188168841Y-94971026D01*
X188168843Y-94971026D01*
X188212078Y-94954818D01*
X188296764Y-94923071D01*
X188303943Y-94917691D01*
X188303946Y-94917689D01*
X188405224Y-94841785D01*
X188412404Y-94836404D01*
X188440084Y-94799470D01*
X188493689Y-94727946D01*
X188493691Y-94727943D01*
X188499071Y-94720764D01*
X188549798Y-94585448D01*
X188556500Y-94523756D01*
X188556500Y-93928659D01*
X188847500Y-93928659D01*
X188862493Y-94085806D01*
X188921823Y-94288042D01*
X188924573Y-94293381D01*
X188981400Y-94403717D01*
X189018324Y-94475410D01*
X189044939Y-94509292D01*
X189144808Y-94636432D01*
X189144812Y-94636436D01*
X189148514Y-94641149D01*
X189153044Y-94645080D01*
X189153045Y-94645081D01*
X189303165Y-94775350D01*
X189303170Y-94775354D01*
X189307696Y-94779281D01*
X189490126Y-94884819D01*
X189689222Y-94953957D01*
X189695155Y-94954817D01*
X189695158Y-94954818D01*
X189891860Y-94983338D01*
X189891863Y-94983338D01*
X189897800Y-94984199D01*
X190108333Y-94974455D01*
X190114157Y-94973051D01*
X190114160Y-94973051D01*
X190307393Y-94926482D01*
X190307395Y-94926481D01*
X190313226Y-94925076D01*
X190318684Y-94922594D01*
X190318688Y-94922593D01*
X190439886Y-94867487D01*
X190505084Y-94837843D01*
X190676986Y-94715904D01*
X190822728Y-94563660D01*
X190848929Y-94523082D01*
X190933800Y-94391640D01*
X190933801Y-94391637D01*
X190937052Y-94386603D01*
X190952031Y-94349437D01*
X191006191Y-94215049D01*
X191015834Y-94191122D01*
X191056229Y-93984271D01*
X191056500Y-93978730D01*
X191056500Y-93523341D01*
X191041507Y-93366194D01*
X190982177Y-93163958D01*
X190931415Y-93065397D01*
X190888422Y-92981921D01*
X190888420Y-92981918D01*
X190885676Y-92976590D01*
X190816355Y-92888340D01*
X190759192Y-92815568D01*
X190759188Y-92815564D01*
X190755486Y-92810851D01*
X190729162Y-92788008D01*
X190600835Y-92676650D01*
X190600830Y-92676646D01*
X190596304Y-92672719D01*
X190413874Y-92567181D01*
X190214778Y-92498043D01*
X190208845Y-92497183D01*
X190208842Y-92497182D01*
X190012140Y-92468662D01*
X190012137Y-92468662D01*
X190006200Y-92467801D01*
X189795667Y-92477545D01*
X189789843Y-92478949D01*
X189789840Y-92478949D01*
X189596607Y-92525518D01*
X189596605Y-92525519D01*
X189590774Y-92526924D01*
X189585316Y-92529406D01*
X189585312Y-92529407D01*
X189564986Y-92538649D01*
X189398916Y-92614157D01*
X189227014Y-92736096D01*
X189081272Y-92888340D01*
X189078021Y-92893375D01*
X189020848Y-92981921D01*
X188966948Y-93065397D01*
X188888166Y-93260878D01*
X188882830Y-93288204D01*
X188850856Y-93451934D01*
X188847771Y-93467729D01*
X188847500Y-93473270D01*
X188847500Y-93928659D01*
X188556500Y-93928659D01*
X188556500Y-92928244D01*
X188549798Y-92866552D01*
X188499071Y-92731236D01*
X188493691Y-92724057D01*
X188493689Y-92724054D01*
X188417785Y-92622776D01*
X188412404Y-92615596D01*
X188345178Y-92565213D01*
X188303946Y-92534311D01*
X188303943Y-92534309D01*
X188296764Y-92528929D01*
X188207046Y-92495296D01*
X188168843Y-92480974D01*
X188168841Y-92480974D01*
X188161448Y-92478202D01*
X188153598Y-92477349D01*
X188153597Y-92477349D01*
X188103153Y-92471869D01*
X188103152Y-92471869D01*
X188099756Y-92471500D01*
X186804244Y-92471500D01*
X186800848Y-92471869D01*
X186800847Y-92471869D01*
X186750403Y-92477349D01*
X186750402Y-92477349D01*
X186742552Y-92478202D01*
X186735159Y-92480974D01*
X186735157Y-92480974D01*
X186696954Y-92495296D01*
X186607236Y-92528929D01*
X186600057Y-92534309D01*
X186600054Y-92534311D01*
X186558822Y-92565213D01*
X186491596Y-92615596D01*
X186486215Y-92622776D01*
X186410311Y-92724054D01*
X186410309Y-92724057D01*
X186404929Y-92731236D01*
X186354202Y-92866552D01*
X186347500Y-92928244D01*
X186347500Y-94523756D01*
X168045198Y-94523756D01*
X168045307Y-94513400D01*
X168044411Y-94505991D01*
X168032034Y-94403717D01*
X168026276Y-94356133D01*
X167970280Y-94207946D01*
X167880553Y-94077392D01*
X167869185Y-94067263D01*
X167810946Y-94015375D01*
X167762275Y-93972011D01*
X167754889Y-93968100D01*
X167628988Y-93901439D01*
X167628989Y-93901439D01*
X167622274Y-93897884D01*
X167468633Y-93859292D01*
X167461034Y-93859252D01*
X167461033Y-93859252D01*
X167395181Y-93858907D01*
X167310221Y-93858462D01*
X167302841Y-93860234D01*
X167302839Y-93860234D01*
X167163563Y-93893671D01*
X167163560Y-93893672D01*
X167156184Y-93895443D01*
X167015414Y-93968100D01*
X166896039Y-94072238D01*
X166804950Y-94201844D01*
X166747406Y-94349437D01*
X166746414Y-94356970D01*
X166746414Y-94356971D01*
X166734042Y-94450946D01*
X166705320Y-94515874D01*
X166646054Y-94554965D01*
X166609120Y-94560500D01*
X160601450Y-94560500D01*
X160533329Y-94540498D01*
X160512355Y-94523595D01*
X157584050Y-91595290D01*
X157550024Y-91532978D01*
X157548058Y-91521332D01*
X157531976Y-91388433D01*
X157514633Y-91342536D01*
X157509265Y-91271744D01*
X157543022Y-91209287D01*
X157605188Y-91174995D01*
X157664472Y-91176123D01*
X157771522Y-91204207D01*
X157822014Y-91205000D01*
X157889811Y-91226069D01*
X157909129Y-91241889D01*
X159455248Y-92788008D01*
X159489274Y-92850320D01*
X159491392Y-92863276D01*
X159503903Y-92976590D01*
X159505113Y-92987553D01*
X159507723Y-92994684D01*
X159507723Y-92994686D01*
X159533600Y-93065397D01*
X159559553Y-93136319D01*
X159647908Y-93267805D01*
X159653527Y-93272918D01*
X159653528Y-93272919D01*
X159664903Y-93283269D01*
X159765076Y-93374419D01*
X159904293Y-93450008D01*
X160057522Y-93490207D01*
X160141477Y-93491526D01*
X160208319Y-93492576D01*
X160208322Y-93492576D01*
X160215916Y-93492695D01*
X160370332Y-93457329D01*
X160440742Y-93421917D01*
X160505072Y-93389563D01*
X160505075Y-93389561D01*
X160511855Y-93386151D01*
X160517626Y-93381222D01*
X160517629Y-93381220D01*
X160626536Y-93288204D01*
X160626536Y-93288203D01*
X160632314Y-93283269D01*
X160724755Y-93154624D01*
X160783842Y-93007641D01*
X160794655Y-92931661D01*
X160805581Y-92854891D01*
X160805581Y-92854888D01*
X160806162Y-92850807D01*
X160806307Y-92837000D01*
X160803714Y-92815568D01*
X160794525Y-92739640D01*
X160787276Y-92679733D01*
X160731280Y-92531546D01*
X160688061Y-92468662D01*
X160645855Y-92407251D01*
X160645854Y-92407249D01*
X160641553Y-92400992D01*
X160523275Y-92295611D01*
X160383274Y-92221484D01*
X160229633Y-92182892D01*
X160222034Y-92182852D01*
X160222033Y-92182852D01*
X160186959Y-92182668D01*
X160118944Y-92162309D01*
X160098525Y-92145765D01*
X158553350Y-90600590D01*
X158519324Y-90538278D01*
X158517358Y-90526632D01*
X158515487Y-90511168D01*
X158501276Y-90393733D01*
X158445280Y-90245546D01*
X158430200Y-90223604D01*
X158359855Y-90121251D01*
X158359854Y-90121249D01*
X158355553Y-90114992D01*
X158237275Y-90009611D01*
X158229889Y-90005700D01*
X158103988Y-89939039D01*
X158103989Y-89939039D01*
X158097274Y-89935484D01*
X157943633Y-89896892D01*
X157936034Y-89896852D01*
X157936033Y-89896852D01*
X157870181Y-89896507D01*
X157785221Y-89896062D01*
X157777841Y-89897834D01*
X157777839Y-89897834D01*
X157638563Y-89931271D01*
X157638560Y-89931272D01*
X157631184Y-89933043D01*
X157490414Y-90005700D01*
X157371039Y-90109838D01*
X157279950Y-90239444D01*
X157222406Y-90387037D01*
X157221414Y-90394570D01*
X157221414Y-90394571D01*
X157208815Y-90490274D01*
X157201729Y-90544096D01*
X157219113Y-90701553D01*
X157221723Y-90708684D01*
X157221723Y-90708686D01*
X157238693Y-90755058D01*
X157243319Y-90825904D01*
X157208909Y-90888004D01*
X157146388Y-90921643D01*
X157089671Y-90920563D01*
X156981702Y-90893443D01*
X156974333Y-90891592D01*
X156966734Y-90891552D01*
X156966733Y-90891552D01*
X156900881Y-90891207D01*
X156815921Y-90890762D01*
X156808541Y-90892534D01*
X156808539Y-90892534D01*
X156669263Y-90925971D01*
X156669260Y-90925972D01*
X156661884Y-90927743D01*
X156521114Y-91000400D01*
X156401739Y-91104538D01*
X156310650Y-91234144D01*
X156253106Y-91381737D01*
X156252114Y-91389270D01*
X156252114Y-91389271D01*
X156245436Y-91440000D01*
X156232429Y-91538796D01*
X143177100Y-91538796D01*
X143177100Y-90816850D01*
X143197102Y-90748729D01*
X143214005Y-90727755D01*
X143892404Y-90049356D01*
X143954716Y-90015330D01*
X143983478Y-90012467D01*
X143987962Y-90012538D01*
X144003119Y-90012776D01*
X144003122Y-90012776D01*
X144010716Y-90012895D01*
X144165132Y-89977529D01*
X144248730Y-89935484D01*
X144299872Y-89909763D01*
X144299875Y-89909761D01*
X144306655Y-89906351D01*
X144312426Y-89901422D01*
X144312429Y-89901420D01*
X144421336Y-89808404D01*
X144421336Y-89808403D01*
X144427114Y-89803469D01*
X144519555Y-89674824D01*
X144578642Y-89527841D01*
X144589480Y-89451684D01*
X144600381Y-89375091D01*
X144600381Y-89375088D01*
X144600962Y-89371007D01*
X144601107Y-89357200D01*
X144582076Y-89199933D01*
X144526080Y-89051746D01*
X144436353Y-88921192D01*
X144318075Y-88815811D01*
X144310689Y-88811900D01*
X144184788Y-88745239D01*
X144184789Y-88745239D01*
X144178074Y-88741684D01*
X144024433Y-88703092D01*
X144016834Y-88703052D01*
X144016833Y-88703052D01*
X143950981Y-88702707D01*
X143866021Y-88702262D01*
X143858641Y-88704034D01*
X143858639Y-88704034D01*
X143719363Y-88737471D01*
X143719360Y-88737472D01*
X143711984Y-88739243D01*
X143571214Y-88811900D01*
X143451839Y-88916038D01*
X143360750Y-89045644D01*
X143357990Y-89052724D01*
X143308207Y-89180411D01*
X143303206Y-89193237D01*
X143290852Y-89287080D01*
X143284562Y-89334856D01*
X143255840Y-89399783D01*
X143248735Y-89407505D01*
X142425589Y-90230651D01*
X142414507Y-90240500D01*
X142390505Y-90259422D01*
X142324628Y-90285887D01*
X142254899Y-90272535D01*
X142203457Y-90223604D01*
X142186500Y-90160472D01*
X142186500Y-86272969D01*
X187148201Y-86272969D01*
X187148571Y-86279790D01*
X187154095Y-86330652D01*
X187157721Y-86345904D01*
X187202876Y-86466354D01*
X187211414Y-86481949D01*
X187287915Y-86584024D01*
X187300476Y-86596585D01*
X187402551Y-86673086D01*
X187418146Y-86681624D01*
X187538594Y-86726778D01*
X187553849Y-86730405D01*
X187604714Y-86735931D01*
X187611528Y-86736300D01*
X189034085Y-86736300D01*
X189049324Y-86731825D01*
X189050529Y-86730435D01*
X189052200Y-86722752D01*
X189052200Y-86718184D01*
X189560200Y-86718184D01*
X189564675Y-86733423D01*
X189566065Y-86734628D01*
X189573748Y-86736299D01*
X191000869Y-86736299D01*
X191007690Y-86735929D01*
X191058552Y-86730405D01*
X191073804Y-86726779D01*
X191194254Y-86681624D01*
X191209849Y-86673086D01*
X191311924Y-86596585D01*
X191324485Y-86584024D01*
X191400986Y-86481949D01*
X191409524Y-86466354D01*
X191454678Y-86345906D01*
X191458305Y-86330651D01*
X191463831Y-86279786D01*
X191464200Y-86272972D01*
X191464200Y-85200415D01*
X191459725Y-85185176D01*
X191458335Y-85183971D01*
X191450652Y-85182300D01*
X191379525Y-85182300D01*
X191353880Y-85189830D01*
X190695295Y-85848415D01*
X190632983Y-85882441D01*
X190562168Y-85877376D01*
X190517105Y-85848415D01*
X189969012Y-85300322D01*
X189955068Y-85292708D01*
X189953235Y-85292839D01*
X189946620Y-85297090D01*
X189573012Y-85670698D01*
X189560200Y-85694160D01*
X189560200Y-86718184D01*
X189052200Y-86718184D01*
X189052200Y-85701625D01*
X189044670Y-85675980D01*
X188669012Y-85300322D01*
X188655068Y-85292708D01*
X188653235Y-85292839D01*
X188646620Y-85297090D01*
X188095295Y-85848415D01*
X188032983Y-85882441D01*
X187962168Y-85877376D01*
X187917105Y-85848415D01*
X187263802Y-85195112D01*
X187246268Y-85185537D01*
X187976500Y-85185537D01*
X187979738Y-85192628D01*
X187993388Y-85206278D01*
X188007332Y-85213892D01*
X188009165Y-85213761D01*
X188015780Y-85209510D01*
X188030178Y-85195112D01*
X188035406Y-85185537D01*
X190576500Y-85185537D01*
X190579738Y-85192628D01*
X190593388Y-85206278D01*
X190607332Y-85213892D01*
X190609165Y-85213761D01*
X190615780Y-85209510D01*
X190630178Y-85195112D01*
X190635687Y-85185023D01*
X190628386Y-85182300D01*
X190587525Y-85182300D01*
X190576500Y-85185537D01*
X188035406Y-85185537D01*
X188035687Y-85185023D01*
X188028386Y-85182300D01*
X187987525Y-85182300D01*
X187976500Y-85185537D01*
X187246268Y-85185537D01*
X187240340Y-85182300D01*
X187166316Y-85182300D01*
X187151077Y-85186775D01*
X187149872Y-85188165D01*
X187148201Y-85195848D01*
X187148201Y-86272969D01*
X142186500Y-86272969D01*
X142186500Y-86023956D01*
X142206502Y-85955835D01*
X142215408Y-85944297D01*
X142217314Y-85942669D01*
X142309755Y-85814024D01*
X142368842Y-85667041D01*
X142391162Y-85510207D01*
X142391307Y-85496400D01*
X142372276Y-85339133D01*
X142316280Y-85190946D01*
X142226553Y-85060392D01*
X142108275Y-84955011D01*
X141968274Y-84880884D01*
X141814633Y-84842292D01*
X141807034Y-84842252D01*
X141807033Y-84842252D01*
X141741181Y-84841907D01*
X141656221Y-84841462D01*
X141648841Y-84843234D01*
X141648839Y-84843234D01*
X141537114Y-84870057D01*
X141466206Y-84866510D01*
X141408472Y-84825190D01*
X141385471Y-84769586D01*
X141384400Y-84769849D01*
X141382676Y-84762829D01*
X141382613Y-84762677D01*
X141382588Y-84762472D01*
X141381676Y-84754933D01*
X141344362Y-84656185D01*
X187148200Y-84656185D01*
X187152675Y-84671424D01*
X187154065Y-84672629D01*
X187161748Y-84674300D01*
X187232875Y-84674300D01*
X187242149Y-84671577D01*
X187976713Y-84671577D01*
X187984014Y-84674300D01*
X188024875Y-84674300D01*
X188034149Y-84671577D01*
X190576713Y-84671577D01*
X190584014Y-84674300D01*
X190624875Y-84674300D01*
X190635900Y-84671063D01*
X190632662Y-84663972D01*
X190619012Y-84650322D01*
X190605068Y-84642708D01*
X190603235Y-84642839D01*
X190596620Y-84647090D01*
X190582222Y-84661488D01*
X190576713Y-84671577D01*
X188034149Y-84671577D01*
X188035900Y-84671063D01*
X188032662Y-84663972D01*
X188019012Y-84650322D01*
X188005068Y-84642708D01*
X188003235Y-84642839D01*
X187996620Y-84647090D01*
X187982222Y-84661488D01*
X187976713Y-84671577D01*
X187242149Y-84671577D01*
X187258520Y-84666770D01*
X187917105Y-84008185D01*
X187979417Y-83974159D01*
X188050232Y-83979224D01*
X188095295Y-84008185D01*
X188643388Y-84556278D01*
X188657332Y-84563892D01*
X188659165Y-84563761D01*
X188665780Y-84559510D01*
X189039388Y-84185902D01*
X189052200Y-84162440D01*
X189052200Y-84154975D01*
X189560200Y-84154975D01*
X189567730Y-84180620D01*
X189943388Y-84556278D01*
X189957332Y-84563892D01*
X189959165Y-84563761D01*
X189965780Y-84559510D01*
X190517105Y-84008185D01*
X190579417Y-83974159D01*
X190650232Y-83979224D01*
X190695295Y-84008185D01*
X191348598Y-84661488D01*
X191372060Y-84674300D01*
X191446084Y-84674300D01*
X191461323Y-84669825D01*
X191462528Y-84668435D01*
X191464199Y-84660752D01*
X191464199Y-83583631D01*
X191463829Y-83576810D01*
X191458305Y-83525948D01*
X191454679Y-83510696D01*
X191409524Y-83390246D01*
X191400986Y-83374651D01*
X191324485Y-83272576D01*
X191311924Y-83260015D01*
X191209849Y-83183514D01*
X191194254Y-83174976D01*
X191073806Y-83129822D01*
X191058551Y-83126195D01*
X191007686Y-83120669D01*
X191000872Y-83120300D01*
X189578315Y-83120300D01*
X189563076Y-83124775D01*
X189561871Y-83126165D01*
X189560200Y-83133848D01*
X189560200Y-84154975D01*
X189052200Y-84154975D01*
X189052200Y-83138416D01*
X189047725Y-83123177D01*
X189046335Y-83121972D01*
X189038652Y-83120301D01*
X187611531Y-83120301D01*
X187604710Y-83120671D01*
X187553848Y-83126195D01*
X187538596Y-83129821D01*
X187418146Y-83174976D01*
X187402551Y-83183514D01*
X187300476Y-83260015D01*
X187287915Y-83272576D01*
X187211414Y-83374651D01*
X187202876Y-83390246D01*
X187157722Y-83510694D01*
X187154095Y-83525949D01*
X187148569Y-83576814D01*
X187148200Y-83583628D01*
X187148200Y-84656185D01*
X141344362Y-84656185D01*
X141325680Y-84606746D01*
X141293216Y-84559510D01*
X141240255Y-84482451D01*
X141240254Y-84482449D01*
X141235953Y-84476192D01*
X141117675Y-84370811D01*
X141110289Y-84366900D01*
X140984388Y-84300239D01*
X140984389Y-84300239D01*
X140977674Y-84296684D01*
X140824033Y-84258092D01*
X140816434Y-84258052D01*
X140816433Y-84258052D01*
X140750581Y-84257707D01*
X140665621Y-84257262D01*
X140658241Y-84259034D01*
X140658239Y-84259034D01*
X140518963Y-84292471D01*
X140518960Y-84292472D01*
X140511584Y-84294243D01*
X140370814Y-84366900D01*
X140251439Y-84471038D01*
X140160350Y-84600644D01*
X140102806Y-84748237D01*
X140101814Y-84755770D01*
X140101814Y-84755771D01*
X140084875Y-84884439D01*
X140082129Y-84905296D01*
X140099513Y-85062753D01*
X140102123Y-85069884D01*
X140102123Y-85069886D01*
X140149890Y-85200415D01*
X140153953Y-85211519D01*
X140242308Y-85343005D01*
X140247927Y-85348118D01*
X140252889Y-85353866D01*
X140251281Y-85355254D01*
X140282624Y-85406740D01*
X140286900Y-85439285D01*
X140286900Y-96830651D01*
X140266898Y-96898772D01*
X140255965Y-96913090D01*
X140251439Y-96917038D01*
X140160350Y-97046644D01*
X140102806Y-97194237D01*
X140101814Y-97201770D01*
X140101814Y-97201771D01*
X140083622Y-97339957D01*
X140082129Y-97351296D01*
X134001848Y-97351296D01*
X133942331Y-97230609D01*
X133939776Y-97225428D01*
X133922111Y-97201771D01*
X133821777Y-97067409D01*
X133818320Y-97062779D01*
X133669258Y-96924987D01*
X133664375Y-96921906D01*
X133664371Y-96921903D01*
X133502464Y-96819748D01*
X133497581Y-96816667D01*
X133425614Y-96787955D01*
X133369755Y-96744134D01*
X133346455Y-96677069D01*
X133363111Y-96608054D01*
X133414436Y-96559000D01*
X133436098Y-96550239D01*
X133486252Y-96535192D01*
X133495842Y-96531433D01*
X133687095Y-96437739D01*
X133695945Y-96432464D01*
X133869328Y-96308792D01*
X133877200Y-96302139D01*
X134028052Y-96151812D01*
X134034730Y-96143965D01*
X134159003Y-95971020D01*
X134164313Y-95962183D01*
X134258670Y-95771267D01*
X134262469Y-95761672D01*
X134324377Y-95557910D01*
X134326555Y-95547837D01*
X134327986Y-95536962D01*
X134325775Y-95522778D01*
X134312617Y-95519000D01*
X131677225Y-95519000D01*
X131663694Y-95522973D01*
X131662257Y-95532966D01*
X111209522Y-95532966D01*
X111210728Y-95529414D01*
X111210729Y-95529409D01*
X111212584Y-95523945D01*
X111213412Y-95518236D01*
X111213413Y-95518231D01*
X111232752Y-95384849D01*
X111241712Y-95323053D01*
X111243232Y-95265000D01*
X111224658Y-95062859D01*
X111223090Y-95057299D01*
X111171125Y-94873046D01*
X111171124Y-94873044D01*
X111169557Y-94867487D01*
X111158978Y-94846033D01*
X111082331Y-94690609D01*
X111079776Y-94685428D01*
X110958320Y-94522779D01*
X110809258Y-94384987D01*
X110804375Y-94381906D01*
X110804371Y-94381903D01*
X110642464Y-94279748D01*
X110637581Y-94276667D01*
X110449039Y-94201446D01*
X110443379Y-94200320D01*
X110443375Y-94200319D01*
X110255613Y-94162971D01*
X110255610Y-94162971D01*
X110249946Y-94161844D01*
X110244171Y-94161768D01*
X110244167Y-94161768D01*
X110142793Y-94160441D01*
X110046971Y-94159187D01*
X110041274Y-94160166D01*
X110041273Y-94160166D01*
X109852607Y-94192585D01*
X109846910Y-94193564D01*
X109656463Y-94263824D01*
X109482010Y-94367612D01*
X109477670Y-94371418D01*
X109477666Y-94371421D01*
X109386986Y-94450946D01*
X109329392Y-94501455D01*
X109203720Y-94660869D01*
X109201031Y-94665980D01*
X109201029Y-94665983D01*
X109188073Y-94690609D01*
X109109203Y-94840515D01*
X109049007Y-95034378D01*
X109025148Y-95235964D01*
X97790500Y-95235964D01*
X97790500Y-91440000D01*
X107823000Y-91440000D01*
X109061570Y-91440000D01*
X109129691Y-91460002D01*
X109176184Y-91513658D01*
X109186288Y-91583932D01*
X109156794Y-91648512D01*
X109131573Y-91670764D01*
X109100516Y-91691516D01*
X109044266Y-91775699D01*
X109029500Y-91849933D01*
X109029501Y-93600066D01*
X109044266Y-93674301D01*
X109100516Y-93758484D01*
X109184699Y-93814734D01*
X109258933Y-93829500D01*
X110133858Y-93829500D01*
X111009066Y-93829499D01*
X111044818Y-93822388D01*
X111071126Y-93817156D01*
X111071128Y-93817155D01*
X111083301Y-93814734D01*
X111093621Y-93807839D01*
X111093622Y-93807838D01*
X111157168Y-93765377D01*
X111167484Y-93758484D01*
X111223734Y-93674301D01*
X111238500Y-93600067D01*
X111238499Y-91849934D01*
X111223734Y-91775699D01*
X111167484Y-91691516D01*
X111136428Y-91670765D01*
X111090900Y-91616288D01*
X111082052Y-91545845D01*
X111112694Y-91481801D01*
X111173095Y-91444490D01*
X111206430Y-91440000D01*
X131921570Y-91440000D01*
X131989691Y-91460002D01*
X132036184Y-91513658D01*
X132046288Y-91583932D01*
X132016794Y-91648512D01*
X131991573Y-91670764D01*
X131960516Y-91691516D01*
X131904266Y-91775699D01*
X131889500Y-91849933D01*
X131889501Y-93600066D01*
X131904266Y-93674301D01*
X131960516Y-93758484D01*
X132044699Y-93814734D01*
X132118933Y-93829500D01*
X132295500Y-93829500D01*
X132363621Y-93849502D01*
X132410114Y-93903158D01*
X132420218Y-93973432D01*
X132390724Y-94038012D01*
X132353681Y-94067263D01*
X132272458Y-94109545D01*
X132263738Y-94115036D01*
X132093433Y-94242905D01*
X132085726Y-94249748D01*
X131938590Y-94403717D01*
X131932104Y-94411727D01*
X131812098Y-94587649D01*
X131807000Y-94596623D01*
X131717338Y-94789783D01*
X131713775Y-94799470D01*
X131658389Y-94999183D01*
X131659912Y-95007607D01*
X131672292Y-95011000D01*
X134312344Y-95011000D01*
X134325875Y-95007027D01*
X134327180Y-94997947D01*
X134285214Y-94830875D01*
X134281894Y-94821124D01*
X134196972Y-94625814D01*
X134192105Y-94616739D01*
X134076426Y-94437926D01*
X134070136Y-94429757D01*
X133926806Y-94272240D01*
X133919273Y-94265215D01*
X133752139Y-94133222D01*
X133743552Y-94127517D01*
X133631765Y-94065807D01*
X133581795Y-94015375D01*
X133567023Y-93945932D01*
X133592139Y-93879527D01*
X133649170Y-93837242D01*
X133692658Y-93829499D01*
X133869066Y-93829499D01*
X133904818Y-93822388D01*
X133931126Y-93817156D01*
X133931128Y-93817155D01*
X133943301Y-93814734D01*
X133953621Y-93807839D01*
X133953622Y-93807838D01*
X134017168Y-93765377D01*
X134027484Y-93758484D01*
X134083734Y-93674301D01*
X134098500Y-93600067D01*
X134098499Y-91849934D01*
X134083734Y-91775699D01*
X134027484Y-91691516D01*
X133996428Y-91670765D01*
X133950900Y-91616288D01*
X133942052Y-91545845D01*
X133972694Y-91481801D01*
X134033095Y-91444490D01*
X134066430Y-91440000D01*
X135255000Y-91440000D01*
X135255000Y-83312000D01*
X107823000Y-83312000D01*
X107823000Y-91440000D01*
X97790500Y-91440000D01*
X97790500Y-89554262D01*
X103335442Y-89554262D01*
X103344738Y-89566277D01*
X103395943Y-89602131D01*
X103405438Y-89607614D01*
X103602896Y-89699690D01*
X103613188Y-89703436D01*
X103823637Y-89759825D01*
X103834430Y-89761728D01*
X104051474Y-89780717D01*
X104062424Y-89780717D01*
X104279468Y-89761728D01*
X104290261Y-89759825D01*
X104500710Y-89703436D01*
X104511002Y-89699690D01*
X104708460Y-89607614D01*
X104717955Y-89602131D01*
X104769997Y-89565691D01*
X104778373Y-89555212D01*
X104771305Y-89541766D01*
X104069761Y-88840222D01*
X104055817Y-88832608D01*
X104053984Y-88832739D01*
X104047369Y-88836990D01*
X103341872Y-89542487D01*
X103335442Y-89554262D01*
X97790500Y-89554262D01*
X97790500Y-87643133D01*
X99502449Y-87643133D01*
X99502450Y-89293266D01*
X99517215Y-89367501D01*
X99573465Y-89451684D01*
X99657648Y-89507934D01*
X99731882Y-89522700D01*
X100556815Y-89522700D01*
X101382015Y-89522699D01*
X101417767Y-89515588D01*
X101444075Y-89510356D01*
X101444077Y-89510355D01*
X101456250Y-89507934D01*
X101466570Y-89501039D01*
X101466571Y-89501038D01*
X101530117Y-89458577D01*
X101540433Y-89451684D01*
X101596683Y-89367501D01*
X101611449Y-89293267D01*
X101611449Y-88473675D01*
X102744432Y-88473675D01*
X102763421Y-88690719D01*
X102765324Y-88701512D01*
X102821713Y-88911961D01*
X102825459Y-88922253D01*
X102917535Y-89119711D01*
X102923018Y-89129206D01*
X102959458Y-89181248D01*
X102969937Y-89189624D01*
X102983383Y-89182556D01*
X103684927Y-88481012D01*
X103691305Y-88469332D01*
X104421357Y-88469332D01*
X104421488Y-88471165D01*
X104425739Y-88477780D01*
X105131236Y-89183277D01*
X105143011Y-89189707D01*
X105155026Y-89180411D01*
X105190880Y-89129206D01*
X105196363Y-89119711D01*
X105288439Y-88922253D01*
X105292185Y-88911961D01*
X105348574Y-88701512D01*
X105350477Y-88690719D01*
X105369466Y-88473675D01*
X105369466Y-88462725D01*
X105350477Y-88245681D01*
X105348574Y-88234888D01*
X105292185Y-88024439D01*
X105288439Y-88014147D01*
X105196363Y-87816689D01*
X105190880Y-87807194D01*
X105154440Y-87755152D01*
X105143961Y-87746776D01*
X105130515Y-87753844D01*
X104428971Y-88455388D01*
X104421357Y-88469332D01*
X103691305Y-88469332D01*
X103692541Y-88467068D01*
X103692410Y-88465235D01*
X103688159Y-88458620D01*
X102982662Y-87753123D01*
X102970887Y-87746693D01*
X102958872Y-87755989D01*
X102923018Y-87807194D01*
X102917535Y-87816689D01*
X102825459Y-88014147D01*
X102821713Y-88024439D01*
X102765324Y-88234888D01*
X102763421Y-88245681D01*
X102744432Y-88462725D01*
X102744432Y-88473675D01*
X101611449Y-88473675D01*
X101611448Y-87643134D01*
X101596683Y-87568899D01*
X101540433Y-87484716D01*
X101456250Y-87428466D01*
X101382016Y-87413700D01*
X100557083Y-87413700D01*
X99731883Y-87413701D01*
X99696131Y-87420812D01*
X99669823Y-87426044D01*
X99669821Y-87426045D01*
X99657648Y-87428466D01*
X99647328Y-87435361D01*
X99647327Y-87435362D01*
X99586934Y-87475716D01*
X99573465Y-87484716D01*
X99517215Y-87568899D01*
X99502449Y-87643133D01*
X97790500Y-87643133D01*
X97790500Y-87381188D01*
X103335525Y-87381188D01*
X103342593Y-87394634D01*
X104044137Y-88096178D01*
X104058081Y-88103792D01*
X104059914Y-88103661D01*
X104066529Y-88099410D01*
X104772026Y-87393913D01*
X104778456Y-87382138D01*
X104769160Y-87370123D01*
X104717955Y-87334269D01*
X104708460Y-87328786D01*
X104511002Y-87236710D01*
X104500710Y-87232964D01*
X104290261Y-87176575D01*
X104279468Y-87174672D01*
X104062424Y-87155683D01*
X104051474Y-87155683D01*
X103834430Y-87174672D01*
X103823637Y-87176575D01*
X103613188Y-87232964D01*
X103602896Y-87236710D01*
X103405438Y-87328786D01*
X103395943Y-87334269D01*
X103343901Y-87370709D01*
X103335525Y-87381188D01*
X97790500Y-87381188D01*
X97790500Y-80485564D01*
X100377051Y-80485564D01*
X100403954Y-80707880D01*
X100469800Y-80921917D01*
X100572509Y-81120912D01*
X100708833Y-81298573D01*
X100712979Y-81302346D01*
X100712984Y-81302351D01*
X100815309Y-81395459D01*
X100874464Y-81449286D01*
X101064167Y-81568286D01*
X101271944Y-81651812D01*
X101277436Y-81652949D01*
X101277438Y-81652950D01*
X101418059Y-81682071D01*
X101491228Y-81697224D01*
X101495839Y-81697490D01*
X101495840Y-81697490D01*
X101546225Y-81700395D01*
X101546229Y-81700395D01*
X101548048Y-81700500D01*
X103192819Y-81700500D01*
X103195606Y-81700251D01*
X103195612Y-81700251D01*
X103264962Y-81694061D01*
X103359051Y-81685664D01*
X103575051Y-81626573D01*
X103580109Y-81624161D01*
X103580113Y-81624159D01*
X103772107Y-81532583D01*
X103772109Y-81532582D01*
X103777174Y-81530166D01*
X103885578Y-81452270D01*
X103954470Y-81402766D01*
X103954472Y-81402764D01*
X103959030Y-81399489D01*
X104114871Y-81238674D01*
X104194003Y-81120912D01*
X104236641Y-81057460D01*
X104236643Y-81057457D01*
X104239770Y-81052803D01*
X104329782Y-80847752D01*
X104382059Y-80630002D01*
X104394949Y-80406436D01*
X104368046Y-80184120D01*
X104302200Y-79970083D01*
X104199491Y-79771088D01*
X104063167Y-79593427D01*
X104059021Y-79589654D01*
X104059016Y-79589649D01*
X103901689Y-79446493D01*
X103897536Y-79442714D01*
X103707833Y-79323714D01*
X103500056Y-79240188D01*
X103494564Y-79239051D01*
X103494562Y-79239050D01*
X103343754Y-79207819D01*
X103280772Y-79194776D01*
X103276161Y-79194510D01*
X103276160Y-79194510D01*
X103225775Y-79191605D01*
X103225771Y-79191605D01*
X103223952Y-79191500D01*
X101579181Y-79191500D01*
X101576394Y-79191749D01*
X101576388Y-79191749D01*
X101507038Y-79197939D01*
X101412949Y-79206336D01*
X101196949Y-79265427D01*
X101191891Y-79267839D01*
X101191887Y-79267841D01*
X100999893Y-79359417D01*
X100994826Y-79361834D01*
X100990265Y-79365111D01*
X100990264Y-79365112D01*
X100877011Y-79446493D01*
X100812970Y-79492511D01*
X100657129Y-79653326D01*
X100654001Y-79657981D01*
X100574649Y-79776071D01*
X100532230Y-79839197D01*
X100442218Y-80044248D01*
X100389941Y-80261998D01*
X100377051Y-80485564D01*
X97790500Y-80485564D01*
X97790500Y-75938603D01*
X99326424Y-75938603D01*
X99345166Y-76144550D01*
X99403554Y-76342934D01*
X99406411Y-76348399D01*
X99496508Y-76520739D01*
X99496511Y-76520743D01*
X99499363Y-76526199D01*
X99503223Y-76530999D01*
X99503223Y-76531000D01*
X99509271Y-76538522D01*
X99628943Y-76687365D01*
X99787360Y-76820292D01*
X99968578Y-76919918D01*
X100165696Y-76982447D01*
X100171813Y-76983133D01*
X100171817Y-76983134D01*
X100247837Y-76991661D01*
X100326640Y-77000500D01*
X100438034Y-77000500D01*
X100591811Y-76985422D01*
X100789783Y-76925651D01*
X100881079Y-76877108D01*
X100966933Y-76831459D01*
X100966936Y-76831457D01*
X100972375Y-76828565D01*
X100977145Y-76824674D01*
X100977149Y-76824672D01*
X101127857Y-76701758D01*
X101127860Y-76701755D01*
X101132632Y-76697863D01*
X101149435Y-76677552D01*
X101168542Y-76654456D01*
X101878000Y-76654456D01*
X101878202Y-76659488D01*
X101892150Y-76832843D01*
X101893762Y-76842796D01*
X101949233Y-77068633D01*
X101952416Y-77078203D01*
X102043280Y-77292265D01*
X102047955Y-77301207D01*
X102171874Y-77497987D01*
X102177914Y-77506060D01*
X102331703Y-77680500D01*
X102338956Y-77687504D01*
X102518654Y-77835110D01*
X102526936Y-77840866D01*
X102727919Y-77957841D01*
X102737024Y-77962203D01*
X102954115Y-78045537D01*
X102963804Y-78048388D01*
X103114264Y-78079821D01*
X103128325Y-78078698D01*
X103132000Y-78068590D01*
X103132000Y-78066590D01*
X103640000Y-78066590D01*
X103644136Y-78080676D01*
X103657114Y-78082725D01*
X103674830Y-78080675D01*
X103684727Y-78078715D01*
X103908494Y-78015396D01*
X103917938Y-78011884D01*
X104128705Y-77913601D01*
X104137471Y-77908622D01*
X104329802Y-77777913D01*
X104337677Y-77771581D01*
X104506626Y-77611814D01*
X104513387Y-77604305D01*
X104654625Y-77419574D01*
X104660089Y-77411095D01*
X104769978Y-77206153D01*
X104774020Y-77196901D01*
X104849727Y-76977029D01*
X104852236Y-76967257D01*
X104892004Y-76737029D01*
X104892859Y-76729157D01*
X104893936Y-76705449D01*
X104894000Y-76702616D01*
X104894000Y-76218115D01*
X104889525Y-76202876D01*
X104888135Y-76201671D01*
X104880452Y-76200000D01*
X103658115Y-76200000D01*
X103642876Y-76204475D01*
X103641671Y-76205865D01*
X103640000Y-76213548D01*
X103640000Y-78066590D01*
X103132000Y-78066590D01*
X103132000Y-76218115D01*
X103127525Y-76202876D01*
X103126135Y-76201671D01*
X103118452Y-76200000D01*
X101896115Y-76200000D01*
X101880876Y-76204475D01*
X101879671Y-76205865D01*
X101878000Y-76213548D01*
X101878000Y-76654456D01*
X101168542Y-76654456D01*
X101260522Y-76543271D01*
X101260525Y-76543266D01*
X101264450Y-76538522D01*
X101271113Y-76526199D01*
X101359878Y-76362032D01*
X101359880Y-76362027D01*
X101362808Y-76356612D01*
X101423960Y-76159063D01*
X101445576Y-75953397D01*
X101426834Y-75747450D01*
X101405182Y-75673885D01*
X101878000Y-75673885D01*
X101882475Y-75689124D01*
X101883865Y-75690329D01*
X101891548Y-75692000D01*
X103113885Y-75692000D01*
X103129124Y-75687525D01*
X103130329Y-75686135D01*
X103132000Y-75678452D01*
X103132000Y-75673885D01*
X103640000Y-75673885D01*
X103644475Y-75689124D01*
X103645865Y-75690329D01*
X103653548Y-75692000D01*
X104875885Y-75692000D01*
X104891124Y-75687525D01*
X104892329Y-75686135D01*
X104894000Y-75678452D01*
X104894000Y-75237544D01*
X104893798Y-75232512D01*
X104879850Y-75059157D01*
X104878238Y-75049204D01*
X104822767Y-74823367D01*
X104819584Y-74813797D01*
X104728720Y-74599735D01*
X104724045Y-74590793D01*
X104600126Y-74394013D01*
X104594086Y-74385940D01*
X104440297Y-74211500D01*
X104433044Y-74204496D01*
X104253346Y-74056890D01*
X104245064Y-74051134D01*
X104044081Y-73934159D01*
X104034976Y-73929797D01*
X104011885Y-73920933D01*
X108131500Y-73920933D01*
X108131501Y-77971066D01*
X108138612Y-78006818D01*
X108139620Y-78011884D01*
X108146266Y-78045301D01*
X108202516Y-78129484D01*
X108286699Y-78185734D01*
X108360933Y-78200500D01*
X109385834Y-78200500D01*
X110411066Y-78200499D01*
X110446818Y-78193388D01*
X110473126Y-78188156D01*
X110473128Y-78188155D01*
X110485301Y-78185734D01*
X110495621Y-78178839D01*
X110495622Y-78178838D01*
X110559168Y-78136377D01*
X110569484Y-78129484D01*
X110625734Y-78045301D01*
X110640500Y-77971067D01*
X110640500Y-77105596D01*
X116030229Y-77105596D01*
X116031063Y-77113146D01*
X116040310Y-77196901D01*
X116047613Y-77263053D01*
X116102053Y-77411819D01*
X116106289Y-77418122D01*
X116106289Y-77418123D01*
X116159956Y-77497987D01*
X116190408Y-77543305D01*
X116196027Y-77548418D01*
X116196028Y-77548419D01*
X116265699Y-77611814D01*
X116307576Y-77649919D01*
X116446793Y-77725508D01*
X116600022Y-77765707D01*
X116683977Y-77767026D01*
X116750819Y-77768076D01*
X116750822Y-77768076D01*
X116758416Y-77768195D01*
X116912832Y-77732829D01*
X117016878Y-77680500D01*
X117047572Y-77665063D01*
X117047575Y-77665061D01*
X117054355Y-77661651D01*
X117060126Y-77656722D01*
X117060129Y-77656720D01*
X117169036Y-77563704D01*
X117169036Y-77563703D01*
X117174814Y-77558769D01*
X117267255Y-77430124D01*
X117326342Y-77283141D01*
X117347752Y-77132702D01*
X117377152Y-77068079D01*
X117383400Y-77061360D01*
X121338659Y-73106101D01*
X121400971Y-73072075D01*
X121445831Y-73070500D01*
X121521000Y-73081399D01*
X121731533Y-73071655D01*
X121737357Y-73070251D01*
X121737360Y-73070251D01*
X121930593Y-73023682D01*
X121930595Y-73023681D01*
X121936426Y-73022276D01*
X121941884Y-73019794D01*
X121941888Y-73019793D01*
X122077388Y-72958184D01*
X122128284Y-72935043D01*
X122284228Y-72824424D01*
X122295300Y-72816570D01*
X122295301Y-72816569D01*
X122300186Y-72813104D01*
X122445928Y-72660860D01*
X122469502Y-72624350D01*
X122557000Y-72488840D01*
X122557001Y-72488837D01*
X122560252Y-72483803D01*
X122564266Y-72473843D01*
X122570480Y-72458426D01*
X122614496Y-72402721D01*
X122681642Y-72379656D01*
X122750598Y-72396554D01*
X122802227Y-72453776D01*
X122882137Y-72631170D01*
X122887306Y-72640456D01*
X123010050Y-72822775D01*
X123016719Y-72831070D01*
X123168428Y-72990100D01*
X123176386Y-72997141D01*
X123352725Y-73128341D01*
X123361762Y-73133945D01*
X123557684Y-73233557D01*
X123567535Y-73237557D01*
X123777440Y-73302734D01*
X123787824Y-73305017D01*
X123803243Y-73307061D01*
X123817407Y-73304865D01*
X123821200Y-73291678D01*
X123821200Y-73289392D01*
X124329200Y-73289392D01*
X124333173Y-73302923D01*
X124343780Y-73304448D01*
X124461621Y-73279723D01*
X124471817Y-73276663D01*
X124676229Y-73195937D01*
X124685761Y-73191206D01*
X124873662Y-73077184D01*
X124882252Y-73070920D01*
X125048252Y-72926873D01*
X125055672Y-72919242D01*
X125195026Y-72749289D01*
X125201050Y-72740522D01*
X125309776Y-72549518D01*
X125314241Y-72539854D01*
X125327997Y-72501956D01*
X130670700Y-72501956D01*
X130671069Y-72505352D01*
X130671069Y-72505353D01*
X130673409Y-72526888D01*
X130677402Y-72563648D01*
X130728129Y-72698964D01*
X130733509Y-72706143D01*
X130733511Y-72706146D01*
X130744475Y-72720775D01*
X130814796Y-72814604D01*
X130821976Y-72819985D01*
X130923254Y-72895889D01*
X130923257Y-72895891D01*
X130930436Y-72901271D01*
X131011276Y-72931576D01*
X131058357Y-72949226D01*
X131058359Y-72949226D01*
X131065752Y-72951998D01*
X131073602Y-72952851D01*
X131073603Y-72952851D01*
X131122694Y-72958184D01*
X131127444Y-72958700D01*
X132422956Y-72958700D01*
X132427706Y-72958184D01*
X132476797Y-72952851D01*
X132476798Y-72952851D01*
X132484648Y-72951998D01*
X132492041Y-72949226D01*
X132492043Y-72949226D01*
X132539124Y-72931576D01*
X132619964Y-72901271D01*
X132627143Y-72895891D01*
X132627146Y-72895889D01*
X132728424Y-72819985D01*
X132735604Y-72814604D01*
X132805925Y-72720775D01*
X132816889Y-72706146D01*
X132816891Y-72706143D01*
X132822271Y-72698964D01*
X132872998Y-72563648D01*
X132875520Y-72564593D01*
X132904285Y-72514226D01*
X132967236Y-72481397D01*
X133037942Y-72487814D01*
X133096182Y-72534640D01*
X133210050Y-72703775D01*
X133216719Y-72712070D01*
X133368428Y-72871100D01*
X133376386Y-72878141D01*
X133552725Y-73009341D01*
X133561762Y-73014945D01*
X133757684Y-73114557D01*
X133767535Y-73118557D01*
X133977440Y-73183734D01*
X133987824Y-73186017D01*
X134003243Y-73188061D01*
X134017407Y-73185865D01*
X134021200Y-73172678D01*
X134021200Y-73170392D01*
X134529200Y-73170392D01*
X134533173Y-73183923D01*
X134543780Y-73185448D01*
X134661621Y-73160723D01*
X134671817Y-73157663D01*
X134876229Y-73076937D01*
X134885761Y-73072206D01*
X135073662Y-72958184D01*
X135082252Y-72951920D01*
X135248252Y-72807873D01*
X135255672Y-72800242D01*
X135395026Y-72630289D01*
X135401050Y-72621522D01*
X135469111Y-72501956D01*
X140830700Y-72501956D01*
X140831069Y-72505352D01*
X140831069Y-72505353D01*
X140833409Y-72526888D01*
X140837402Y-72563648D01*
X140888129Y-72698964D01*
X140893509Y-72706143D01*
X140893511Y-72706146D01*
X140904475Y-72720775D01*
X140974796Y-72814604D01*
X140981976Y-72819985D01*
X141083254Y-72895889D01*
X141083257Y-72895891D01*
X141090436Y-72901271D01*
X141171276Y-72931576D01*
X141218357Y-72949226D01*
X141218359Y-72949226D01*
X141225752Y-72951998D01*
X141233602Y-72952851D01*
X141233603Y-72952851D01*
X141282694Y-72958184D01*
X141287444Y-72958700D01*
X142582956Y-72958700D01*
X142587706Y-72958184D01*
X142636797Y-72952851D01*
X142636798Y-72952851D01*
X142644648Y-72951998D01*
X142652041Y-72949226D01*
X142652043Y-72949226D01*
X142699124Y-72931576D01*
X142779964Y-72901271D01*
X142787143Y-72895891D01*
X142787146Y-72895889D01*
X142888424Y-72819985D01*
X142895604Y-72814604D01*
X142965925Y-72720775D01*
X142976889Y-72706146D01*
X142976891Y-72706143D01*
X142982271Y-72698964D01*
X143032998Y-72563648D01*
X143035520Y-72564593D01*
X143064285Y-72514226D01*
X143127236Y-72481397D01*
X143197942Y-72487814D01*
X143256182Y-72534640D01*
X143370050Y-72703775D01*
X143376719Y-72712070D01*
X143528428Y-72871100D01*
X143536386Y-72878141D01*
X143712725Y-73009341D01*
X143721762Y-73014945D01*
X143917684Y-73114557D01*
X143927535Y-73118557D01*
X144137440Y-73183734D01*
X144147824Y-73186017D01*
X144163243Y-73188061D01*
X144177407Y-73185865D01*
X144181200Y-73172678D01*
X144181200Y-73170392D01*
X144689200Y-73170392D01*
X144693173Y-73183923D01*
X144703780Y-73185448D01*
X144821621Y-73160723D01*
X144831817Y-73157663D01*
X145036229Y-73076937D01*
X145045761Y-73072206D01*
X145233662Y-72958184D01*
X145242252Y-72951920D01*
X145408252Y-72807873D01*
X145415672Y-72800242D01*
X145555026Y-72630289D01*
X145561050Y-72621522D01*
X145629111Y-72501956D01*
X150990700Y-72501956D01*
X150991069Y-72505352D01*
X150991069Y-72505353D01*
X150993409Y-72526888D01*
X150997402Y-72563648D01*
X151048129Y-72698964D01*
X151053509Y-72706143D01*
X151053511Y-72706146D01*
X151064475Y-72720775D01*
X151134796Y-72814604D01*
X151141976Y-72819985D01*
X151243254Y-72895889D01*
X151243257Y-72895891D01*
X151250436Y-72901271D01*
X151331276Y-72931576D01*
X151378357Y-72949226D01*
X151378359Y-72949226D01*
X151385752Y-72951998D01*
X151393602Y-72952851D01*
X151393603Y-72952851D01*
X151442694Y-72958184D01*
X151447444Y-72958700D01*
X152742956Y-72958700D01*
X152747706Y-72958184D01*
X152796797Y-72952851D01*
X152796798Y-72952851D01*
X152804648Y-72951998D01*
X152812041Y-72949226D01*
X152812043Y-72949226D01*
X152859124Y-72931576D01*
X152939964Y-72901271D01*
X152947143Y-72895891D01*
X152947146Y-72895889D01*
X153048424Y-72819985D01*
X153055604Y-72814604D01*
X153125925Y-72720775D01*
X153136889Y-72706146D01*
X153136891Y-72706143D01*
X153142271Y-72698964D01*
X153192998Y-72563648D01*
X153195520Y-72564593D01*
X153224285Y-72514226D01*
X153287236Y-72481397D01*
X153357942Y-72487814D01*
X153416182Y-72534640D01*
X153530050Y-72703775D01*
X153536719Y-72712070D01*
X153688428Y-72871100D01*
X153696386Y-72878141D01*
X153872725Y-73009341D01*
X153881762Y-73014945D01*
X154077684Y-73114557D01*
X154087535Y-73118557D01*
X154297440Y-73183734D01*
X154307824Y-73186017D01*
X154323243Y-73188061D01*
X154337407Y-73185865D01*
X154341200Y-73172678D01*
X154341200Y-73170392D01*
X154849200Y-73170392D01*
X154853173Y-73183923D01*
X154863780Y-73185448D01*
X154981621Y-73160723D01*
X154991817Y-73157663D01*
X155196229Y-73076937D01*
X155205761Y-73072206D01*
X155393662Y-72958184D01*
X155402252Y-72951920D01*
X155568252Y-72807873D01*
X155575672Y-72800242D01*
X155715026Y-72630289D01*
X155721050Y-72621522D01*
X155779434Y-72518956D01*
X161130700Y-72518956D01*
X161131069Y-72522352D01*
X161131069Y-72522353D01*
X161136359Y-72571043D01*
X161137402Y-72580648D01*
X161188129Y-72715964D01*
X161193509Y-72723143D01*
X161193511Y-72723146D01*
X161245802Y-72792917D01*
X161274796Y-72831604D01*
X161281976Y-72836985D01*
X161383254Y-72912889D01*
X161383257Y-72912891D01*
X161390436Y-72918271D01*
X161473010Y-72949226D01*
X161518357Y-72966226D01*
X161518359Y-72966226D01*
X161525752Y-72968998D01*
X161533602Y-72969851D01*
X161533603Y-72969851D01*
X161582694Y-72975184D01*
X161587444Y-72975700D01*
X162882956Y-72975700D01*
X162887706Y-72975184D01*
X162936797Y-72969851D01*
X162936798Y-72969851D01*
X162944648Y-72968998D01*
X162952041Y-72966226D01*
X162952043Y-72966226D01*
X162997390Y-72949226D01*
X163079964Y-72918271D01*
X163087143Y-72912891D01*
X163087146Y-72912889D01*
X163188424Y-72836985D01*
X163195604Y-72831604D01*
X163224598Y-72792917D01*
X163276889Y-72723146D01*
X163276891Y-72723143D01*
X163282271Y-72715964D01*
X163332998Y-72580648D01*
X163335520Y-72581593D01*
X163364285Y-72531226D01*
X163427236Y-72498397D01*
X163497942Y-72504814D01*
X163556182Y-72551640D01*
X163670050Y-72720775D01*
X163676719Y-72729070D01*
X163828428Y-72888100D01*
X163836386Y-72895141D01*
X164012725Y-73026341D01*
X164021762Y-73031945D01*
X164217684Y-73131557D01*
X164227535Y-73135557D01*
X164437440Y-73200734D01*
X164447824Y-73203017D01*
X164463243Y-73205061D01*
X164477407Y-73202865D01*
X164481200Y-73189678D01*
X164481200Y-73187392D01*
X164989200Y-73187392D01*
X164993173Y-73200923D01*
X165003780Y-73202448D01*
X165121621Y-73177723D01*
X165131817Y-73174663D01*
X165336229Y-73093937D01*
X165345761Y-73089206D01*
X165533662Y-72975184D01*
X165542252Y-72968920D01*
X165708252Y-72824873D01*
X165715672Y-72817242D01*
X165855026Y-72647289D01*
X165861050Y-72638522D01*
X165929111Y-72518956D01*
X171290700Y-72518956D01*
X171291069Y-72522352D01*
X171291069Y-72522353D01*
X171296359Y-72571043D01*
X171297402Y-72580648D01*
X171348129Y-72715964D01*
X171353509Y-72723143D01*
X171353511Y-72723146D01*
X171405802Y-72792917D01*
X171434796Y-72831604D01*
X171441976Y-72836985D01*
X171543254Y-72912889D01*
X171543257Y-72912891D01*
X171550436Y-72918271D01*
X171633010Y-72949226D01*
X171678357Y-72966226D01*
X171678359Y-72966226D01*
X171685752Y-72968998D01*
X171693602Y-72969851D01*
X171693603Y-72969851D01*
X171742694Y-72975184D01*
X171747444Y-72975700D01*
X173042956Y-72975700D01*
X173047706Y-72975184D01*
X173096797Y-72969851D01*
X173096798Y-72969851D01*
X173104648Y-72968998D01*
X173112041Y-72966226D01*
X173112043Y-72966226D01*
X173157390Y-72949226D01*
X173239964Y-72918271D01*
X173247143Y-72912891D01*
X173247146Y-72912889D01*
X173348424Y-72836985D01*
X173355604Y-72831604D01*
X173384598Y-72792917D01*
X173436889Y-72723146D01*
X173436891Y-72723143D01*
X173442271Y-72715964D01*
X173492998Y-72580648D01*
X173495520Y-72581593D01*
X173524285Y-72531226D01*
X173587236Y-72498397D01*
X173657942Y-72504814D01*
X173716182Y-72551640D01*
X173830050Y-72720775D01*
X173836719Y-72729070D01*
X173988428Y-72888100D01*
X173996386Y-72895141D01*
X174172725Y-73026341D01*
X174181762Y-73031945D01*
X174377684Y-73131557D01*
X174387535Y-73135557D01*
X174597440Y-73200734D01*
X174607824Y-73203017D01*
X174623243Y-73205061D01*
X174637407Y-73202865D01*
X174641200Y-73189678D01*
X174641200Y-73187392D01*
X175149200Y-73187392D01*
X175153173Y-73200923D01*
X175163780Y-73202448D01*
X175281621Y-73177723D01*
X175291817Y-73174663D01*
X175476058Y-73101903D01*
X186289263Y-73101903D01*
X186289350Y-73105904D01*
X186289350Y-73105911D01*
X186295868Y-73404591D01*
X186295956Y-73408608D01*
X186341565Y-73711977D01*
X186342661Y-73715837D01*
X186342662Y-73715842D01*
X186373202Y-73823410D01*
X186425352Y-74007091D01*
X186426932Y-74010787D01*
X186426933Y-74010789D01*
X186450989Y-74067050D01*
X186545959Y-74289167D01*
X186701430Y-74553632D01*
X186889245Y-74796198D01*
X187106359Y-75012933D01*
X187109532Y-75015381D01*
X187336184Y-75190242D01*
X187349253Y-75200325D01*
X187352720Y-75202355D01*
X187352723Y-75202357D01*
X187602708Y-75348729D01*
X187613988Y-75355334D01*
X187617673Y-75356902D01*
X187617677Y-75356904D01*
X187790233Y-75430327D01*
X187896274Y-75475448D01*
X188022914Y-75511164D01*
X188187668Y-75557630D01*
X188187677Y-75557632D01*
X188191535Y-75558720D01*
X188327501Y-75578919D01*
X188491683Y-75603310D01*
X188491685Y-75603310D01*
X188494982Y-75603800D01*
X188498313Y-75603940D01*
X188498317Y-75603940D01*
X188535148Y-75605483D01*
X188578492Y-75607300D01*
X188774197Y-75607300D01*
X188898498Y-75599371D01*
X188998748Y-75592976D01*
X188998753Y-75592975D01*
X189002756Y-75592720D01*
X189006695Y-75591958D01*
X189300012Y-75535209D01*
X189300016Y-75535208D01*
X189303949Y-75534447D01*
X189482868Y-75475448D01*
X189591478Y-75439634D01*
X189591483Y-75439632D01*
X189595295Y-75438375D01*
X189872073Y-75306062D01*
X190129796Y-75139653D01*
X190364284Y-74941845D01*
X190571738Y-74715846D01*
X190574055Y-74712568D01*
X190746476Y-74468597D01*
X190746478Y-74468593D01*
X190748793Y-74465318D01*
X190840421Y-74292628D01*
X190890703Y-74197863D01*
X190890705Y-74197859D01*
X190892581Y-74194323D01*
X191000768Y-73907255D01*
X191020191Y-73825410D01*
X191070674Y-73612683D01*
X191070675Y-73612678D01*
X191071603Y-73608767D01*
X191103937Y-73303697D01*
X191103348Y-73276663D01*
X191097332Y-73001009D01*
X191097332Y-73001004D01*
X191097244Y-72996992D01*
X191051635Y-72693623D01*
X191049376Y-72685664D01*
X191000702Y-72514226D01*
X190967848Y-72398509D01*
X190962176Y-72385242D01*
X190887793Y-72211277D01*
X190847241Y-72116433D01*
X190691770Y-71851968D01*
X190503955Y-71609402D01*
X190286841Y-71392667D01*
X190161797Y-71296196D01*
X190047127Y-71207728D01*
X190047123Y-71207725D01*
X190043947Y-71205275D01*
X190040477Y-71203243D01*
X189782676Y-71052294D01*
X189782673Y-71052292D01*
X189779212Y-71050266D01*
X189775527Y-71048698D01*
X189775523Y-71048696D01*
X189579057Y-70965099D01*
X189496926Y-70930152D01*
X189343353Y-70886840D01*
X189205532Y-70847970D01*
X189205523Y-70847968D01*
X189201665Y-70846880D01*
X189046643Y-70823850D01*
X188901517Y-70802290D01*
X188901515Y-70802290D01*
X188898218Y-70801800D01*
X188894887Y-70801660D01*
X188894883Y-70801660D01*
X188858052Y-70800117D01*
X188814708Y-70798300D01*
X188619003Y-70798300D01*
X188494702Y-70806229D01*
X188394452Y-70812624D01*
X188394447Y-70812625D01*
X188390444Y-70812880D01*
X188386506Y-70813642D01*
X188386505Y-70813642D01*
X188093188Y-70870391D01*
X188093184Y-70870392D01*
X188089251Y-70871153D01*
X188013203Y-70896230D01*
X187801722Y-70965966D01*
X187801717Y-70965968D01*
X187797905Y-70967225D01*
X187521127Y-71099538D01*
X187263404Y-71265947D01*
X187260339Y-71268532D01*
X187260337Y-71268534D01*
X187187622Y-71329875D01*
X187028916Y-71463755D01*
X186821462Y-71689754D01*
X186819148Y-71693029D01*
X186819145Y-71693032D01*
X186653864Y-71926901D01*
X186644407Y-71940282D01*
X186597417Y-72028843D01*
X186512563Y-72188767D01*
X186500619Y-72211277D01*
X186392432Y-72498345D01*
X186384629Y-72531226D01*
X186339647Y-72720775D01*
X186321597Y-72796833D01*
X186289263Y-73101903D01*
X175476058Y-73101903D01*
X175496229Y-73093937D01*
X175505761Y-73089206D01*
X175693662Y-72975184D01*
X175702252Y-72968920D01*
X175868252Y-72824873D01*
X175875672Y-72817242D01*
X176015026Y-72647289D01*
X176021050Y-72638522D01*
X176129776Y-72447518D01*
X176134241Y-72437854D01*
X176209231Y-72231259D01*
X176212002Y-72220992D01*
X176251323Y-72003545D01*
X176252256Y-71995316D01*
X176252468Y-71990824D01*
X176248725Y-71978076D01*
X176247335Y-71976871D01*
X176239652Y-71975200D01*
X175167315Y-71975200D01*
X175152076Y-71979675D01*
X175150871Y-71981065D01*
X175149200Y-71988748D01*
X175149200Y-73187392D01*
X174641200Y-73187392D01*
X174641200Y-71449085D01*
X175149200Y-71449085D01*
X175153675Y-71464324D01*
X175155065Y-71465529D01*
X175162748Y-71467200D01*
X176231170Y-71467200D01*
X176245848Y-71462890D01*
X176247911Y-71451007D01*
X176239076Y-71346875D01*
X176237286Y-71336403D01*
X176182070Y-71123665D01*
X176178535Y-71113625D01*
X176088263Y-70913230D01*
X176083094Y-70903944D01*
X175960350Y-70721625D01*
X175953681Y-70713330D01*
X175801972Y-70554300D01*
X175794014Y-70547259D01*
X175617675Y-70416059D01*
X175608638Y-70410455D01*
X175412716Y-70310843D01*
X175402865Y-70306843D01*
X175192960Y-70241666D01*
X175182576Y-70239383D01*
X175167157Y-70237339D01*
X175152993Y-70239535D01*
X175149200Y-70252722D01*
X175149200Y-71449085D01*
X174641200Y-71449085D01*
X174641200Y-70255008D01*
X174637227Y-70241477D01*
X174626620Y-70239952D01*
X174508779Y-70264677D01*
X174498583Y-70267737D01*
X174294171Y-70348463D01*
X174284639Y-70353194D01*
X174096738Y-70467216D01*
X174088148Y-70473480D01*
X173922148Y-70617527D01*
X173914728Y-70625158D01*
X173775374Y-70795111D01*
X173769352Y-70803874D01*
X173722139Y-70886817D01*
X173671056Y-70936124D01*
X173601426Y-70949986D01*
X173535355Y-70924003D01*
X173493820Y-70866424D01*
X173493322Y-70864732D01*
X173492998Y-70861752D01*
X173442271Y-70726436D01*
X173436891Y-70719257D01*
X173436889Y-70719254D01*
X173360985Y-70617976D01*
X173355604Y-70610796D01*
X173332921Y-70593796D01*
X173247146Y-70529511D01*
X173247143Y-70529509D01*
X173239964Y-70524129D01*
X173146880Y-70489234D01*
X173112043Y-70476174D01*
X173112041Y-70476174D01*
X173104648Y-70473402D01*
X173096798Y-70472549D01*
X173096797Y-70472549D01*
X173046353Y-70467069D01*
X173046352Y-70467069D01*
X173042956Y-70466700D01*
X171747444Y-70466700D01*
X171744048Y-70467069D01*
X171744047Y-70467069D01*
X171693603Y-70472549D01*
X171693602Y-70472549D01*
X171685752Y-70473402D01*
X171678359Y-70476174D01*
X171678357Y-70476174D01*
X171643520Y-70489234D01*
X171550436Y-70524129D01*
X171543257Y-70529509D01*
X171543254Y-70529511D01*
X171457479Y-70593796D01*
X171434796Y-70610796D01*
X171429415Y-70617976D01*
X171353511Y-70719254D01*
X171353509Y-70719257D01*
X171348129Y-70726436D01*
X171319929Y-70801660D01*
X171302569Y-70847970D01*
X171297402Y-70861752D01*
X171296549Y-70869602D01*
X171296549Y-70869603D01*
X171294665Y-70886944D01*
X171290700Y-70923444D01*
X171290700Y-72518956D01*
X165929111Y-72518956D01*
X165969776Y-72447518D01*
X165974241Y-72437854D01*
X166049231Y-72231259D01*
X166052002Y-72220992D01*
X166091323Y-72003545D01*
X166092256Y-71995316D01*
X166092468Y-71990824D01*
X166088725Y-71978076D01*
X166087335Y-71976871D01*
X166079652Y-71975200D01*
X165007315Y-71975200D01*
X164992076Y-71979675D01*
X164990871Y-71981065D01*
X164989200Y-71988748D01*
X164989200Y-73187392D01*
X164481200Y-73187392D01*
X164481200Y-71449085D01*
X164989200Y-71449085D01*
X164993675Y-71464324D01*
X164995065Y-71465529D01*
X165002748Y-71467200D01*
X166071170Y-71467200D01*
X166085848Y-71462890D01*
X166087911Y-71451007D01*
X166079076Y-71346875D01*
X166077286Y-71336403D01*
X166022070Y-71123665D01*
X166018535Y-71113625D01*
X165928263Y-70913230D01*
X165923094Y-70903944D01*
X165800350Y-70721625D01*
X165793681Y-70713330D01*
X165641972Y-70554300D01*
X165634014Y-70547259D01*
X165457675Y-70416059D01*
X165448638Y-70410455D01*
X165252716Y-70310843D01*
X165242865Y-70306843D01*
X165032960Y-70241666D01*
X165022576Y-70239383D01*
X165007157Y-70237339D01*
X164992993Y-70239535D01*
X164989200Y-70252722D01*
X164989200Y-71449085D01*
X164481200Y-71449085D01*
X164481200Y-70255008D01*
X164477227Y-70241477D01*
X164466620Y-70239952D01*
X164348779Y-70264677D01*
X164338583Y-70267737D01*
X164134171Y-70348463D01*
X164124639Y-70353194D01*
X163936738Y-70467216D01*
X163928148Y-70473480D01*
X163762148Y-70617527D01*
X163754728Y-70625158D01*
X163615374Y-70795111D01*
X163609352Y-70803874D01*
X163562139Y-70886817D01*
X163511056Y-70936124D01*
X163441426Y-70949986D01*
X163375355Y-70924003D01*
X163333820Y-70866424D01*
X163333322Y-70864732D01*
X163332998Y-70861752D01*
X163282271Y-70726436D01*
X163276891Y-70719257D01*
X163276889Y-70719254D01*
X163200985Y-70617976D01*
X163195604Y-70610796D01*
X163172921Y-70593796D01*
X163087146Y-70529511D01*
X163087143Y-70529509D01*
X163079964Y-70524129D01*
X162986880Y-70489234D01*
X162952043Y-70476174D01*
X162952041Y-70476174D01*
X162944648Y-70473402D01*
X162936798Y-70472549D01*
X162936797Y-70472549D01*
X162886353Y-70467069D01*
X162886352Y-70467069D01*
X162882956Y-70466700D01*
X161587444Y-70466700D01*
X161584048Y-70467069D01*
X161584047Y-70467069D01*
X161533603Y-70472549D01*
X161533602Y-70472549D01*
X161525752Y-70473402D01*
X161518359Y-70476174D01*
X161518357Y-70476174D01*
X161483520Y-70489234D01*
X161390436Y-70524129D01*
X161383257Y-70529509D01*
X161383254Y-70529511D01*
X161297479Y-70593796D01*
X161274796Y-70610796D01*
X161269415Y-70617976D01*
X161193511Y-70719254D01*
X161193509Y-70719257D01*
X161188129Y-70726436D01*
X161159929Y-70801660D01*
X161142569Y-70847970D01*
X161137402Y-70861752D01*
X161136549Y-70869602D01*
X161136549Y-70869603D01*
X161134665Y-70886944D01*
X161130700Y-70923444D01*
X161130700Y-72518956D01*
X155779434Y-72518956D01*
X155829776Y-72430518D01*
X155834241Y-72420854D01*
X155909231Y-72214259D01*
X155912002Y-72203992D01*
X155951323Y-71986545D01*
X155952256Y-71978316D01*
X155952468Y-71973824D01*
X155948725Y-71961076D01*
X155947335Y-71959871D01*
X155939652Y-71958200D01*
X154867315Y-71958200D01*
X154852076Y-71962675D01*
X154850871Y-71964065D01*
X154849200Y-71971748D01*
X154849200Y-73170392D01*
X154341200Y-73170392D01*
X154341200Y-71432085D01*
X154849200Y-71432085D01*
X154853675Y-71447324D01*
X154855065Y-71448529D01*
X154862748Y-71450200D01*
X155931170Y-71450200D01*
X155945848Y-71445890D01*
X155947911Y-71434007D01*
X155939076Y-71329875D01*
X155937286Y-71319403D01*
X155882070Y-71106665D01*
X155878535Y-71096625D01*
X155788263Y-70896230D01*
X155783094Y-70886944D01*
X155660350Y-70704625D01*
X155653681Y-70696330D01*
X155501972Y-70537300D01*
X155494014Y-70530259D01*
X155317675Y-70399059D01*
X155308638Y-70393455D01*
X155112716Y-70293843D01*
X155102865Y-70289843D01*
X154892960Y-70224666D01*
X154882576Y-70222383D01*
X154867157Y-70220339D01*
X154852993Y-70222535D01*
X154849200Y-70235722D01*
X154849200Y-71432085D01*
X154341200Y-71432085D01*
X154341200Y-70238008D01*
X154337227Y-70224477D01*
X154326620Y-70222952D01*
X154208779Y-70247677D01*
X154198583Y-70250737D01*
X153994171Y-70331463D01*
X153984639Y-70336194D01*
X153796738Y-70450216D01*
X153788148Y-70456480D01*
X153622148Y-70600527D01*
X153614728Y-70608158D01*
X153475374Y-70778111D01*
X153469352Y-70786874D01*
X153422139Y-70869817D01*
X153371056Y-70919124D01*
X153301426Y-70932986D01*
X153235355Y-70907003D01*
X153193820Y-70849424D01*
X153193322Y-70847732D01*
X153192998Y-70844752D01*
X153142271Y-70709436D01*
X153136891Y-70702257D01*
X153136889Y-70702254D01*
X153060985Y-70600976D01*
X153055604Y-70593796D01*
X153013786Y-70562455D01*
X152947146Y-70512511D01*
X152947143Y-70512509D01*
X152939964Y-70507129D01*
X152833103Y-70467069D01*
X152812043Y-70459174D01*
X152812041Y-70459174D01*
X152804648Y-70456402D01*
X152796798Y-70455549D01*
X152796797Y-70455549D01*
X152746353Y-70450069D01*
X152746352Y-70450069D01*
X152742956Y-70449700D01*
X151447444Y-70449700D01*
X151444048Y-70450069D01*
X151444047Y-70450069D01*
X151393603Y-70455549D01*
X151393602Y-70455549D01*
X151385752Y-70456402D01*
X151378359Y-70459174D01*
X151378357Y-70459174D01*
X151357297Y-70467069D01*
X151250436Y-70507129D01*
X151243257Y-70512509D01*
X151243254Y-70512511D01*
X151176614Y-70562455D01*
X151134796Y-70593796D01*
X151129415Y-70600976D01*
X151053511Y-70702254D01*
X151053509Y-70702257D01*
X151048129Y-70709436D01*
X150997402Y-70844752D01*
X150996549Y-70852602D01*
X150996549Y-70852603D01*
X150995555Y-70861752D01*
X150990700Y-70906444D01*
X150990700Y-72501956D01*
X145629111Y-72501956D01*
X145669776Y-72430518D01*
X145674241Y-72420854D01*
X145749231Y-72214259D01*
X145752002Y-72203992D01*
X145791323Y-71986545D01*
X145792256Y-71978316D01*
X145792468Y-71973824D01*
X145788725Y-71961076D01*
X145787335Y-71959871D01*
X145779652Y-71958200D01*
X144707315Y-71958200D01*
X144692076Y-71962675D01*
X144690871Y-71964065D01*
X144689200Y-71971748D01*
X144689200Y-73170392D01*
X144181200Y-73170392D01*
X144181200Y-71432085D01*
X144689200Y-71432085D01*
X144693675Y-71447324D01*
X144695065Y-71448529D01*
X144702748Y-71450200D01*
X145771170Y-71450200D01*
X145785848Y-71445890D01*
X145787911Y-71434007D01*
X145779076Y-71329875D01*
X145777286Y-71319403D01*
X145722070Y-71106665D01*
X145718535Y-71096625D01*
X145628263Y-70896230D01*
X145623094Y-70886944D01*
X145500350Y-70704625D01*
X145493681Y-70696330D01*
X145341972Y-70537300D01*
X145334014Y-70530259D01*
X145157675Y-70399059D01*
X145148638Y-70393455D01*
X144952716Y-70293843D01*
X144942865Y-70289843D01*
X144732960Y-70224666D01*
X144722576Y-70222383D01*
X144707157Y-70220339D01*
X144692993Y-70222535D01*
X144689200Y-70235722D01*
X144689200Y-71432085D01*
X144181200Y-71432085D01*
X144181200Y-70238008D01*
X144177227Y-70224477D01*
X144166620Y-70222952D01*
X144048779Y-70247677D01*
X144038583Y-70250737D01*
X143834171Y-70331463D01*
X143824639Y-70336194D01*
X143636738Y-70450216D01*
X143628148Y-70456480D01*
X143462148Y-70600527D01*
X143454728Y-70608158D01*
X143315374Y-70778111D01*
X143309352Y-70786874D01*
X143262139Y-70869817D01*
X143211056Y-70919124D01*
X143141426Y-70932986D01*
X143075355Y-70907003D01*
X143033820Y-70849424D01*
X143033322Y-70847732D01*
X143032998Y-70844752D01*
X142982271Y-70709436D01*
X142976891Y-70702257D01*
X142976889Y-70702254D01*
X142900985Y-70600976D01*
X142895604Y-70593796D01*
X142853786Y-70562455D01*
X142787146Y-70512511D01*
X142787143Y-70512509D01*
X142779964Y-70507129D01*
X142673103Y-70467069D01*
X142652043Y-70459174D01*
X142652041Y-70459174D01*
X142644648Y-70456402D01*
X142636798Y-70455549D01*
X142636797Y-70455549D01*
X142586353Y-70450069D01*
X142586352Y-70450069D01*
X142582956Y-70449700D01*
X141287444Y-70449700D01*
X141284048Y-70450069D01*
X141284047Y-70450069D01*
X141233603Y-70455549D01*
X141233602Y-70455549D01*
X141225752Y-70456402D01*
X141218359Y-70459174D01*
X141218357Y-70459174D01*
X141197297Y-70467069D01*
X141090436Y-70507129D01*
X141083257Y-70512509D01*
X141083254Y-70512511D01*
X141016614Y-70562455D01*
X140974796Y-70593796D01*
X140969415Y-70600976D01*
X140893511Y-70702254D01*
X140893509Y-70702257D01*
X140888129Y-70709436D01*
X140837402Y-70844752D01*
X140836549Y-70852602D01*
X140836549Y-70852603D01*
X140835555Y-70861752D01*
X140830700Y-70906444D01*
X140830700Y-72501956D01*
X135469111Y-72501956D01*
X135509776Y-72430518D01*
X135514241Y-72420854D01*
X135589231Y-72214259D01*
X135592002Y-72203992D01*
X135631323Y-71986545D01*
X135632256Y-71978316D01*
X135632468Y-71973824D01*
X135628725Y-71961076D01*
X135627335Y-71959871D01*
X135619652Y-71958200D01*
X134547315Y-71958200D01*
X134532076Y-71962675D01*
X134530871Y-71964065D01*
X134529200Y-71971748D01*
X134529200Y-73170392D01*
X134021200Y-73170392D01*
X134021200Y-71432085D01*
X134529200Y-71432085D01*
X134533675Y-71447324D01*
X134535065Y-71448529D01*
X134542748Y-71450200D01*
X135611170Y-71450200D01*
X135625848Y-71445890D01*
X135627911Y-71434007D01*
X135619076Y-71329875D01*
X135617286Y-71319403D01*
X135562070Y-71106665D01*
X135558535Y-71096625D01*
X135468263Y-70896230D01*
X135463094Y-70886944D01*
X135340350Y-70704625D01*
X135333681Y-70696330D01*
X135181972Y-70537300D01*
X135174014Y-70530259D01*
X134997675Y-70399059D01*
X134988638Y-70393455D01*
X134792716Y-70293843D01*
X134782865Y-70289843D01*
X134572960Y-70224666D01*
X134562576Y-70222383D01*
X134547157Y-70220339D01*
X134532993Y-70222535D01*
X134529200Y-70235722D01*
X134529200Y-71432085D01*
X134021200Y-71432085D01*
X134021200Y-70238008D01*
X134017227Y-70224477D01*
X134006620Y-70222952D01*
X133888779Y-70247677D01*
X133878583Y-70250737D01*
X133674171Y-70331463D01*
X133664639Y-70336194D01*
X133476738Y-70450216D01*
X133468148Y-70456480D01*
X133302148Y-70600527D01*
X133294728Y-70608158D01*
X133155374Y-70778111D01*
X133149352Y-70786874D01*
X133102139Y-70869817D01*
X133051056Y-70919124D01*
X132981426Y-70932986D01*
X132915355Y-70907003D01*
X132873820Y-70849424D01*
X132873322Y-70847732D01*
X132872998Y-70844752D01*
X132822271Y-70709436D01*
X132816891Y-70702257D01*
X132816889Y-70702254D01*
X132740985Y-70600976D01*
X132735604Y-70593796D01*
X132693786Y-70562455D01*
X132627146Y-70512511D01*
X132627143Y-70512509D01*
X132619964Y-70507129D01*
X132513103Y-70467069D01*
X132492043Y-70459174D01*
X132492041Y-70459174D01*
X132484648Y-70456402D01*
X132476798Y-70455549D01*
X132476797Y-70455549D01*
X132426353Y-70450069D01*
X132426352Y-70450069D01*
X132422956Y-70449700D01*
X131127444Y-70449700D01*
X131124048Y-70450069D01*
X131124047Y-70450069D01*
X131073603Y-70455549D01*
X131073602Y-70455549D01*
X131065752Y-70456402D01*
X131058359Y-70459174D01*
X131058357Y-70459174D01*
X131037297Y-70467069D01*
X130930436Y-70507129D01*
X130923257Y-70512509D01*
X130923254Y-70512511D01*
X130856614Y-70562455D01*
X130814796Y-70593796D01*
X130809415Y-70600976D01*
X130733511Y-70702254D01*
X130733509Y-70702257D01*
X130728129Y-70709436D01*
X130677402Y-70844752D01*
X130676549Y-70852602D01*
X130676549Y-70852603D01*
X130675555Y-70861752D01*
X130670700Y-70906444D01*
X130670700Y-72501956D01*
X125327997Y-72501956D01*
X125389231Y-72333259D01*
X125392002Y-72322992D01*
X125428704Y-72120026D01*
X125427285Y-72106786D01*
X125412650Y-72102200D01*
X124347315Y-72102200D01*
X124332076Y-72106675D01*
X124330871Y-72108065D01*
X124329200Y-72115748D01*
X124329200Y-73289392D01*
X123821200Y-73289392D01*
X123821200Y-71576085D01*
X124329200Y-71576085D01*
X124333675Y-71591324D01*
X124335065Y-71592529D01*
X124342748Y-71594200D01*
X125409049Y-71594200D01*
X125423727Y-71589890D01*
X125425790Y-71578007D01*
X125419076Y-71498875D01*
X125417286Y-71488403D01*
X125362070Y-71275665D01*
X125358535Y-71265625D01*
X125268263Y-71065230D01*
X125263094Y-71055944D01*
X125140350Y-70873625D01*
X125133681Y-70865330D01*
X124981972Y-70706300D01*
X124974014Y-70699259D01*
X124797675Y-70568059D01*
X124788638Y-70562455D01*
X124592716Y-70462843D01*
X124582865Y-70458843D01*
X124372960Y-70393666D01*
X124362576Y-70391383D01*
X124347157Y-70389339D01*
X124332993Y-70391535D01*
X124329200Y-70404722D01*
X124329200Y-71576085D01*
X123821200Y-71576085D01*
X123821200Y-70407008D01*
X123817227Y-70393477D01*
X123806620Y-70391952D01*
X123688779Y-70416677D01*
X123678583Y-70419737D01*
X123474171Y-70500463D01*
X123464639Y-70505194D01*
X123276738Y-70619216D01*
X123268148Y-70625480D01*
X123102148Y-70769527D01*
X123094728Y-70777158D01*
X122955374Y-70947111D01*
X122949350Y-70955878D01*
X122840624Y-71146882D01*
X122836159Y-71156545D01*
X122806234Y-71238988D01*
X122764190Y-71296196D01*
X122697891Y-71321592D01*
X122628386Y-71307112D01*
X122575779Y-71253690D01*
X122557480Y-71218160D01*
X122508876Y-71123790D01*
X122439555Y-71035540D01*
X122382392Y-70962768D01*
X122382388Y-70962764D01*
X122378686Y-70958051D01*
X122353418Y-70936124D01*
X122224035Y-70823850D01*
X122224030Y-70823846D01*
X122219504Y-70819919D01*
X122037074Y-70714381D01*
X121837978Y-70645243D01*
X121832045Y-70644383D01*
X121832042Y-70644382D01*
X121635340Y-70615862D01*
X121635337Y-70615862D01*
X121629400Y-70615001D01*
X121418867Y-70624745D01*
X121413043Y-70626149D01*
X121413040Y-70626149D01*
X121219807Y-70672718D01*
X121219805Y-70672719D01*
X121213974Y-70674124D01*
X121208516Y-70676606D01*
X121208512Y-70676607D01*
X121098920Y-70726436D01*
X121022116Y-70761357D01*
X120949843Y-70812624D01*
X120863848Y-70873625D01*
X120850214Y-70883296D01*
X120704472Y-71035540D01*
X120701221Y-71040575D01*
X120594876Y-71205275D01*
X120590148Y-71212597D01*
X120511366Y-71408078D01*
X120497329Y-71479957D01*
X120472606Y-71606559D01*
X120470971Y-71614929D01*
X120470700Y-71620470D01*
X120470700Y-72025859D01*
X120485693Y-72183006D01*
X120545023Y-72385242D01*
X120580756Y-72454621D01*
X120594164Y-72524337D01*
X120567751Y-72590238D01*
X120557834Y-72601406D01*
X120388997Y-72770243D01*
X120326685Y-72804269D01*
X120255870Y-72799204D01*
X120199034Y-72756657D01*
X120174223Y-72690137D01*
X120174639Y-72667539D01*
X120174895Y-72665190D01*
X120179700Y-72620956D01*
X120179700Y-71075444D01*
X120172998Y-71013752D01*
X120122271Y-70878436D01*
X120116891Y-70871257D01*
X120116889Y-70871254D01*
X120040985Y-70769976D01*
X120035604Y-70762796D01*
X119987089Y-70726436D01*
X119927146Y-70681511D01*
X119927143Y-70681509D01*
X119919964Y-70676129D01*
X119830246Y-70642496D01*
X119792043Y-70628174D01*
X119792041Y-70628174D01*
X119784648Y-70625402D01*
X119776798Y-70624549D01*
X119776797Y-70624549D01*
X119726353Y-70619069D01*
X119726352Y-70619069D01*
X119722956Y-70618700D01*
X118427444Y-70618700D01*
X118424048Y-70619069D01*
X118424047Y-70619069D01*
X118373603Y-70624549D01*
X118373602Y-70624549D01*
X118365752Y-70625402D01*
X118358359Y-70628174D01*
X118358357Y-70628174D01*
X118320154Y-70642496D01*
X118230436Y-70676129D01*
X118223257Y-70681509D01*
X118223254Y-70681511D01*
X118163311Y-70726436D01*
X118114796Y-70762796D01*
X118109415Y-70769976D01*
X118033511Y-70871254D01*
X118033509Y-70871257D01*
X118028129Y-70878436D01*
X117977402Y-71013752D01*
X117970700Y-71075444D01*
X117970700Y-72620956D01*
X117977402Y-72682648D01*
X117980174Y-72690041D01*
X117980174Y-72690043D01*
X117984001Y-72700251D01*
X118028129Y-72817964D01*
X118033509Y-72825143D01*
X118033511Y-72825146D01*
X118042384Y-72836985D01*
X118114796Y-72933604D01*
X118121976Y-72938985D01*
X118223254Y-73014889D01*
X118223257Y-73014891D01*
X118230436Y-73020271D01*
X118320154Y-73053904D01*
X118358357Y-73068226D01*
X118358359Y-73068226D01*
X118365752Y-73070998D01*
X118373602Y-73071851D01*
X118373603Y-73071851D01*
X118422694Y-73077184D01*
X118427444Y-73077700D01*
X119722956Y-73077700D01*
X119769540Y-73072639D01*
X119839422Y-73085167D01*
X119891438Y-73133487D01*
X119909073Y-73202258D01*
X119886727Y-73269647D01*
X119872243Y-73286997D01*
X116738398Y-76420842D01*
X116676086Y-76454868D01*
X116648645Y-76457745D01*
X116613721Y-76457562D01*
X116606341Y-76459334D01*
X116606339Y-76459334D01*
X116467063Y-76492771D01*
X116467060Y-76492772D01*
X116459684Y-76494543D01*
X116318914Y-76567200D01*
X116199539Y-76671338D01*
X116108450Y-76800944D01*
X116100907Y-76820292D01*
X116061338Y-76921781D01*
X116050906Y-76948537D01*
X116049914Y-76956070D01*
X116049914Y-76956071D01*
X116036053Y-77061360D01*
X116030229Y-77105596D01*
X110640500Y-77105596D01*
X110640499Y-73920934D01*
X110633388Y-73885182D01*
X110628156Y-73858874D01*
X110628155Y-73858872D01*
X110625734Y-73846699D01*
X110569484Y-73762516D01*
X110485301Y-73706266D01*
X110411067Y-73691500D01*
X109386166Y-73691500D01*
X108360934Y-73691501D01*
X108325182Y-73698612D01*
X108298874Y-73703844D01*
X108298872Y-73703845D01*
X108286699Y-73706266D01*
X108276379Y-73713161D01*
X108276378Y-73713162D01*
X108215985Y-73753516D01*
X108202516Y-73762516D01*
X108146266Y-73846699D01*
X108131500Y-73920933D01*
X104011885Y-73920933D01*
X103817885Y-73846463D01*
X103808196Y-73843612D01*
X103657736Y-73812179D01*
X103643675Y-73813302D01*
X103640000Y-73823410D01*
X103640000Y-75673885D01*
X103132000Y-75673885D01*
X103132000Y-73825410D01*
X103127864Y-73811324D01*
X103114886Y-73809275D01*
X103097170Y-73811325D01*
X103087273Y-73813285D01*
X102863506Y-73876604D01*
X102854062Y-73880116D01*
X102643295Y-73978399D01*
X102634529Y-73983378D01*
X102442198Y-74114087D01*
X102434323Y-74120419D01*
X102265374Y-74280186D01*
X102258613Y-74287695D01*
X102117375Y-74472426D01*
X102111911Y-74480905D01*
X102002022Y-74685847D01*
X101997980Y-74695099D01*
X101922273Y-74914971D01*
X101919764Y-74924743D01*
X101879996Y-75154971D01*
X101879141Y-75162843D01*
X101878064Y-75186551D01*
X101878000Y-75189384D01*
X101878000Y-75673885D01*
X101405182Y-75673885D01*
X101368446Y-75549066D01*
X101330530Y-75476539D01*
X101275492Y-75371261D01*
X101275489Y-75371257D01*
X101272637Y-75365801D01*
X101267089Y-75358900D01*
X101169516Y-75237544D01*
X101143057Y-75204635D01*
X100984640Y-75071708D01*
X100803422Y-74972082D01*
X100606304Y-74909553D01*
X100600187Y-74908867D01*
X100600183Y-74908866D01*
X100524163Y-74900339D01*
X100445360Y-74891500D01*
X100333966Y-74891500D01*
X100180189Y-74906578D01*
X99982217Y-74966349D01*
X99899930Y-75010102D01*
X99805067Y-75060541D01*
X99805064Y-75060543D01*
X99799625Y-75063435D01*
X99794855Y-75067326D01*
X99794851Y-75067328D01*
X99644143Y-75190242D01*
X99644140Y-75190245D01*
X99639368Y-75194137D01*
X99635441Y-75198884D01*
X99635439Y-75198886D01*
X99511478Y-75348729D01*
X99511475Y-75348734D01*
X99507550Y-75353478D01*
X99504620Y-75358897D01*
X99504618Y-75358900D01*
X99412122Y-75529968D01*
X99412120Y-75529973D01*
X99409192Y-75535388D01*
X99348040Y-75732937D01*
X99326424Y-75938603D01*
X97790500Y-75938603D01*
X97790500Y-71485564D01*
X100377051Y-71485564D01*
X100403954Y-71707880D01*
X100469800Y-71921917D01*
X100472370Y-71926897D01*
X100472372Y-71926901D01*
X100534703Y-72047665D01*
X100572509Y-72120912D01*
X100708833Y-72298573D01*
X100712979Y-72302346D01*
X100712984Y-72302351D01*
X100814597Y-72394811D01*
X100874464Y-72449286D01*
X101064167Y-72568286D01*
X101271944Y-72651812D01*
X101277436Y-72652949D01*
X101277438Y-72652950D01*
X101382933Y-72674797D01*
X101491228Y-72697224D01*
X101495839Y-72697490D01*
X101495840Y-72697490D01*
X101546225Y-72700395D01*
X101546229Y-72700395D01*
X101548048Y-72700500D01*
X103192819Y-72700500D01*
X103195606Y-72700251D01*
X103195612Y-72700251D01*
X103269873Y-72693623D01*
X103359051Y-72685664D01*
X103575051Y-72626573D01*
X103580109Y-72624161D01*
X103580113Y-72624159D01*
X103772107Y-72532583D01*
X103772109Y-72532582D01*
X103777174Y-72530166D01*
X103788047Y-72522353D01*
X103954470Y-72402766D01*
X103954472Y-72402764D01*
X103959030Y-72399489D01*
X104114871Y-72238674D01*
X104194532Y-72120125D01*
X104236641Y-72057460D01*
X104236643Y-72057457D01*
X104239770Y-72052803D01*
X104329782Y-71847752D01*
X104368424Y-71686796D01*
X104380749Y-71635459D01*
X104380749Y-71635458D01*
X104382059Y-71630002D01*
X104391542Y-71465529D01*
X104394626Y-71412043D01*
X104394626Y-71412040D01*
X104394949Y-71406436D01*
X104368046Y-71184120D01*
X104302200Y-70970083D01*
X104298425Y-70962768D01*
X104202063Y-70776071D01*
X104202063Y-70776070D01*
X104199491Y-70771088D01*
X104194685Y-70764824D01*
X104087198Y-70624745D01*
X104063167Y-70593427D01*
X104059021Y-70589654D01*
X104059016Y-70589649D01*
X103901689Y-70446493D01*
X103897536Y-70442714D01*
X103707833Y-70323714D01*
X103675816Y-70310843D01*
X103559158Y-70263947D01*
X103500056Y-70240188D01*
X103494564Y-70239051D01*
X103494562Y-70239050D01*
X103343754Y-70207819D01*
X103280772Y-70194776D01*
X103276161Y-70194510D01*
X103276160Y-70194510D01*
X103225775Y-70191605D01*
X103225771Y-70191605D01*
X103223952Y-70191500D01*
X101579181Y-70191500D01*
X101576394Y-70191749D01*
X101576388Y-70191749D01*
X101507038Y-70197939D01*
X101412949Y-70206336D01*
X101196949Y-70265427D01*
X101191891Y-70267839D01*
X101191887Y-70267841D01*
X101022859Y-70348463D01*
X100994826Y-70361834D01*
X100990265Y-70365111D01*
X100990264Y-70365112D01*
X100848172Y-70467216D01*
X100812970Y-70492511D01*
X100776390Y-70530259D01*
X100663056Y-70647210D01*
X100657129Y-70653326D01*
X100654001Y-70657981D01*
X100542543Y-70823850D01*
X100532230Y-70839197D01*
X100472421Y-70975444D01*
X100446041Y-71035540D01*
X100442218Y-71044248D01*
X100440908Y-71049705D01*
X100391936Y-71253690D01*
X100389941Y-71261998D01*
X100389618Y-71267603D01*
X100378276Y-71464324D01*
X100377051Y-71485564D01*
X97790500Y-71485564D01*
X97790500Y-69506476D01*
X97792921Y-69481894D01*
X97793065Y-69481170D01*
X97795486Y-69469000D01*
X97793065Y-69456829D01*
X97793065Y-69445188D01*
X97793544Y-69434207D01*
X97806896Y-69281588D01*
X97810709Y-69259964D01*
X97856549Y-69088887D01*
X97864060Y-69068251D01*
X97938909Y-68907737D01*
X97949891Y-68888717D01*
X98051471Y-68743645D01*
X98065589Y-68726820D01*
X98190820Y-68601589D01*
X98207645Y-68587471D01*
X98227097Y-68573851D01*
X98352717Y-68485891D01*
X98371737Y-68474909D01*
X98532251Y-68400060D01*
X98552887Y-68392549D01*
X98723964Y-68346709D01*
X98745585Y-68342897D01*
X98876009Y-68331486D01*
X98898207Y-68329544D01*
X98909188Y-68329065D01*
X98920829Y-68329065D01*
X98933000Y-68331486D01*
X98945897Y-68328921D01*
X98970476Y-68326500D01*
X192367524Y-68326500D01*
X192392103Y-68328921D01*
G37*
%TD.AperFunction*%
%TD*%
M02*
